$MeshFormat
2.2 0 8
$EndMeshFormat
$Nodes
441
1 -1 -1 0
2 -1 1 0
3 1 1 0
4 1 -1 0
5 -0.9000000000002772 -1 0
6 -0.8000000000005545 -1 0
7 -0.7000000000008318 -1 0
8 -0.6000000000011093 -1 0
9 -0.5000000000013867 -1 0
10 -0.4000000000016637 -1 0
11 -0.3000000000019408 -1 0
12 -0.2000000000022178 -1 0
13 -0.1000000000024949 -1 0
14 -2.750244476601438e-12 -1 0
15 0.09999999999750542 -1 0
16 0.1999999999977826 -1 0
17 0.2999999999980598 -1 0
18 0.3999999999983368 -1 0
19 0.499999999998614 -1 0
20 0.5999999999988912 -1 0
21 0.6999999999991684 -1 0
22 0.7999999999994456 -1 0
23 0.8999999999997226 -1 0
24 1 -0.9000000000002772 0
25 1 -0.8000000000005545 0
26 1 -0.7000000000008318 0
27 1 -0.6000000000011093 0
28 1 -0.5000000000013867 0
29 1 -0.4000000000016637 0
30 1 -0.3000000000019408 0
31 1 -0.2000000000022178 0
32 1 -0.1000000000024949 0
33 1 -2.750244476601438e-12 0
34 1 0.09999999999750542 0
35 1 0.1999999999977826 0
36 1 0.2999999999980598 0
37 1 0.3999999999983368 0
38 1 0.499999999998614 0
39 1 0.5999999999988912 0
40 1 0.6999999999991684 0
41 1 0.7999999999994456 0
42 1 0.8999999999997226 0
43 0.9000000000002772 1 0
44 0.8000000000005545 1 0
45 0.7000000000008318 1 0
46 0.6000000000011093 1 0
47 0.5000000000013867 1 0
48 0.4000000000016637 1 0
49 0.3000000000019408 1 0
50 0.2000000000022178 1 0
51 0.1000000000024949 1 0
52 2.750244476601438e-12 1 0
53 -0.09999999999750542 1 0
54 -0.1999999999977826 1 0
55 -0.2999999999980598 1 0
56 -0.3999999999983368 1 0
57 -0.499999999998614 1 0
58 -0.5999999999988912 1 0
59 -0.6999999999991684 1 0
60 -0.7999999999994456 1 0
61 -0.8999999999997226 1 0
62 -1 0.9000000000002772 0
63 -1 0.8000000000005545 0
64 -1 0.7000000000008318 0
65 -1 0.6000000000011093 0
66 -1 0.5000000000013867 0
67 -1 0.4000000000016637 0
68 -1 0.3000000000019408 0
69 -1 0.2000000000022178 0
70 -1 0.1000000000024949 0
71 -1 2.750244476601438e-12 0
72 -1 -0.09999999999750542 0
73 -1 -0.1999999999977826 0
74 -1 -0.2999999999980598 0
75 -1 -0.3999999999983368 0
76 -1 -0.499999999998614 0
77 -1 -0.5999999999988912 0
78 -1 -0.6999999999991684 0
79 -1 -0.7999999999994456 0
80 -1 -0.8999999999997226 0
81 -0.9000000000002495 -0.8999999999997506 0
82 -0.9000000000002217 -0.7999999999995011 0
83 -0.9000000000001941 -0.6999999999992518 0
84 -0.9000000000001664 -0.599999999999002 0
85 -0.9000000000001385 -0.4999999999987528 0
86 -0.9000000000001107 -0.3999999999985031 0
87 -0.9000000000000832 -0.2999999999982539 0
88 -0.9000000000000554 -0.1999999999980044 0
89 -0.9000000000000276 -0.09999999999775494 0
90 -0.8999999999999999 2.475242233401787e-12 0
91 -0.8999999999999722 0.1000000000022454 0
92 -0.8999999999999446 0.200000000001996 0
93 -0.8999999999999166 0.3000000000017468 0
94 -0.8999999999998889 0.4000000000014974 0
95 -0.8999999999998614 0.5000000000012481 0
96 -0.8999999999998336 0.6000000000009984 0
97 -0.8999999999998058 0.7000000000007487 0
98 -0.8999999999997781 0.800000000000499 0
99 -0.8999999999997503 0.9000000000002495 0
100 -0.800000000000499 -0.8999999999997781 0
101 -0.8000000000004437 -0.7999999999995564 0
102 -0.8000000000003878 -0.6999999999993348 0
103 -0.8000000000003328 -0.5999999999991131 0
104 -0.8000000000002772 -0.4999999999988913 0
105 -0.8000000000002219 -0.3999999999986695 0
106 -0.8000000000001664 -0.2999999999984481 0
107 -0.8000000000001111 -0.1999999999982262 0
108 -0.8000000000000556 -0.0999999999980043 0
109 -0.8000000000000003 2.200184479050904e-12 0
110 -0.7999999999999445 0.1000000000019959 0
111 -0.7999999999998892 0.2000000000017744 0
112 -0.7999999999998337 0.3000000000015529 0
113 -0.7999999999997782 0.4000000000013309 0
114 -0.7999999999997227 0.5000000000011094 0
115 -0.7999999999996672 0.6000000000008876 0
116 -0.7999999999996119 0.7000000000006654 0
117 -0.7999999999995566 0.8000000000004435 0
118 -0.7999999999995011 0.9000000000002217 0
119 -0.7000000000007488 -0.899999999999806 0
120 -0.7000000000006655 -0.7999999999996118 0
121 -0.7000000000005824 -0.699999999999418 0
122 -0.7000000000004993 -0.599999999999224 0
123 -0.7000000000004162 -0.4999999999990298 0
124 -0.7000000000003328 -0.3999999999988358 0
125 -0.7000000000002498 -0.299999999998642 0
126 -0.7000000000001666 -0.1999999999984479 0
127 -0.7000000000000832 -0.09999999999825387 0
128 -0.7000000000000002 1.925126724700021e-12 0
129 -0.6999999999999169 0.1000000000017465 0
130 -0.6999999999998336 0.2000000000015525 0
131 -0.6999999999997507 0.3000000000013587 0
132 -0.6999999999996676 0.4000000000011648 0
133 -0.6999999999995843 0.5000000000009708 0
134 -0.6999999999995011 0.6000000000007766 0
135 -0.699999999999418 0.7000000000005824 0
136 -0.6999999999993347 0.8000000000003881 0
137 -0.6999999999992514 0.9000000000001941 0
138 -0.6000000000009986 -0.8999999999998336 0
139 -0.6000000000008877 -0.7999999999996673 0
140 -0.6000000000007768 -0.6999999999995012 0
141 -0.6000000000006658 -0.5999999999993348 0
142 -0.6000000000005548 -0.4999999999991684 0
143 -0.6000000000004437 -0.3999999999990022 0
144 -0.600000000000333 -0.2999999999988362 0
145 -0.6000000000002221 -0.1999999999986697 0
146 -0.6000000000001111 -0.09999999999850334 0
147 -0.6000000000000003 1.65012448150037e-12 0
148 -0.5999999999998893 0.1000000000014969 0
149 -0.5999999999997785 0.2000000000013308 0
150 -0.5999999999996676 0.3000000000011647 0
151 -0.5999999999995567 0.4000000000009982 0
152 -0.5999999999994459 0.5000000000008322 0
153 -0.5999999999993348 0.6000000000006658 0
154 -0.5999999999992239 0.7000000000004993 0
155 -0.599999999999113 0.8000000000003328 0
156 -0.5999999999990022 0.9000000000001664 0
157 -0.5000000000012481 -0.8999999999998611 0
158 -0.5000000000011093 -0.7999999999997229 0
159 -0.5000000000009707 -0.6999999999995844 0
160 -0.5000000000008321 -0.5999999999994458 0
161 -0.5000000000006934 -0.499999999999307 0
162 -0.5000000000005549 -0.3999999999991685 0
163 -0.5000000000004163 -0.29999999999903 0
164 -0.5000000000002776 -0.1999999999988914 0
165 -0.500000000000139 -0.09999999999875275 0
166 -0.5000000000000002 1.375122238300719e-12 0
167 -0.4999999999998617 0.1000000000012475 0
168 -0.4999999999997231 0.2000000000011091 0
169 -0.4999999999995846 0.3000000000009706 0
170 -0.4999999999994458 0.400000000000832 0
171 -0.4999999999993072 0.5000000000006934 0
172 -0.4999999999991684 0.6000000000005548 0
173 -0.4999999999990299 0.7000000000004161 0
174 -0.4999999999988913 0.8000000000002774 0
175 -0.4999999999987526 0.9000000000001387 0
176 -0.4000000000014972 -0.899999999999889 0
177 -0.400000000001331 -0.7999999999997782 0
178 -0.4000000000011648 -0.6999999999996674 0
179 -0.4000000000009983 -0.5999999999995567 0
180 -0.4000000000008319 -0.4999999999994456 0
181 -0.4000000000006657 -0.3999999999993348 0
182 -0.4000000000004992 -0.2999999999992241 0
183 -0.400000000000333 -0.1999999999991132 0
184 -0.4000000000001667 -0.09999999999900222 0
185 -0.4000000000000004 1.100064483949836e-12 0
186 -0.3999999999998339 0.1000000000009981 0
187 -0.3999999999996675 0.2000000000008872 0
188 -0.3999999999995012 0.3000000000007765 0
189 -0.3999999999993349 0.4000000000006656 0
190 -0.3999999999991685 0.5000000000005549 0
191 -0.3999999999990023 0.6000000000004437 0
192 -0.3999999999988358 0.7000000000003328 0
193 -0.3999999999986694 0.8000000000002219 0
194 -0.3999999999985031 0.9000000000001107 0
195 -0.3000000000017469 -0.8999999999999166 0
196 -0.3000000000015527 -0.7999999999998336 0
197 -0.3000000000013586 -0.6999999999997506 0
198 -0.3000000000011648 -0.5999999999996678 0
199 -0.3000000000009705 -0.4999999999995844 0
200 -0.3000000000007765 -0.3999999999995013 0
201 -0.3000000000005825 -0.2999999999994182 0
202 -0.3000000000003884 -0.199999999999335 0
203 -0.3000000000001943 -0.09999999999925169 0
204 -0.3000000000000003 8.251177519014163e-13 0
205 -0.2999999999998063 0.1000000000007485 0
206 -0.2999999999996122 0.2000000000006655 0
207 -0.2999999999994181 0.3000000000005824 0
208 -0.2999999999992242 0.4000000000004992 0
209 -0.2999999999990301 0.5000000000004162 0
210 -0.299999999998836 0.6000000000003332 0
211 -0.2999999999986419 0.7000000000002498 0
212 -0.2999999999984481 0.8000000000001664 0
213 -0.2999999999982539 0.9000000000000831 0
214 -0.2000000000019961 -0.8999999999999445 0
215 -0.2000000000017743 -0.7999999999998892 0
216 -0.2000000000015526 -0.699999999999834 0
217 -0.2000000000013308 -0.5999999999997785 0
218 -0.2000000000011091 -0.499999999999723 0
219 -0.2000000000008873 -0.3999999999996676 0
220 -0.2000000000006655 -0.2999999999996122 0
221 -0.2000000000004438 -0.1999999999995568 0
222 -0.200000000000222 -0.09999999999950121 0
223 -0.2000000000000002 5.499489752480713e-13 0
224 -0.1999999999997785 0.1000000000004991 0
225 -0.1999999999995568 0.2000000000004438 0
226 -0.1999999999993349 0.3000000000003883 0
227 -0.1999999999991132 0.4000000000003329 0
228 -0.1999999999988913 0.5000000000002776 0
229 -0.1999999999986696 0.6000000000002221 0
230 -0.1999999999984479 0.7000000000001665 0
231 -0.1999999999982261 0.800000000000111 0
232 -0.1999999999980044 0.9000000000000554 0
233 -0.1000000000022454 -0.899999999999972 0
234 -0.1000000000019959 -0.7999999999999445 0
235 -0.1000000000017465 -0.699999999999917 0
236 -0.100000000001497 -0.5999999999998894 0
237 -0.1000000000012475 -0.4999999999998616 0
238 -0.100000000000998 -0.3999999999998339 0
239 -0.1000000000007486 -0.2999999999998062 0
240 -0.1000000000004991 -0.1999999999997785 0
241 -0.1000000000002496 -0.09999999999975076 0
242 -0.1000000000000001 2.750022431996513e-13 0
243 -0.09999999999975068 0.1000000000002496 0
244 -0.09999999999950118 0.2000000000002219 0
245 -0.09999999999925172 0.3000000000001943 0
246 -0.09999999999900225 0.4000000000001667 0
247 -0.09999999999875278 0.500000000000139 0
248 -0.09999999999850334 0.6000000000001111 0
249 -0.09999999999825376 0.7000000000000832 0
250 -0.09999999999800435 0.8000000000000556 0
251 -0.09999999999775483 0.9000000000000277 0
252 -2.47526166230548e-12 -0.9000000000000001 0
253 -2.20016782570706e-12 -0.8 0
254 -1.925198889198909e-12 -0.7000000000000002 0
255 -1.650091174812683e-12 -0.6000000000000003 0
256 -1.375122238304532e-12 -0.5000000000000002 0
257 -1.100153301796382e-12 -0.4000000000000002 0
258 -8.250733429857695e-13 -0.3000000000000003 0
259 -5.500488953263874e-13 -0.2000000000000002 0
260 -2.749689365157736e-13 -0.1000000000000001 0
261 -7.564178960885304e-24 0 0
262 2.750799588045149e-13 0.1000000000000001 0
263 5.500488953141897e-13 0.2000000000000002 0
264 8.250733429750957e-13 0.3000000000000003 0
265 1.10004227948477e-12 0.4000000000000002 0
266 1.375122238296907e-12 0.5000000000000003 0
267 1.650202197109044e-12 0.6000000000000003 0
268 1.925171133618719e-12 0.7000000000000002 0
269 2.200251092430857e-12 0.8 0
270 2.4751645177893e-12 0.8999999999999999 0
271 0.09999999999775497 -0.9000000000000277 0
272 0.09999999999800434 -0.8000000000000556 0
273 0.09999999999825386 -0.7000000000000832 0
274 0.09999999999850323 -0.6000000000001111 0
275 0.09999999999875278 -0.5000000000001388 0
276 0.0999999999990023 -0.4000000000001666 0
277 0.09999999999925166 -0.3000000000001944 0
278 0.09999999999950118 -0.200000000000222 0
279 0.0999999999997507 -0.1000000000002496 0
280 0.1000000000000001 -2.749744876240356e-13 0
281 0.1000000000002496 0.09999999999975068 0
282 0.1000000000004991 0.1999999999997785 0
283 0.1000000000007485 0.2999999999998063 0
284 0.100000000000998 0.3999999999998339 0
285 0.1000000000012476 0.4999999999998617 0
286 0.1000000000014969 0.5999999999998893 0
287 0.1000000000017465 0.6999999999999169 0
288 0.100000000001996 0.7999999999999448 0
289 0.1000000000022455 0.8999999999999722 0
290 0.1999999999980044 -0.9000000000000551 0
291 0.1999999999982262 -0.8000000000001111 0
292 0.1999999999984479 -0.7000000000001666 0
293 0.1999999999986697 -0.6000000000002221 0
294 0.1999999999988915 -0.5000000000002773 0
295 0.1999999999991132 -0.4000000000003331 0
296 0.1999999999993349 -0.3000000000003885 0
297 0.1999999999995568 -0.2000000000004438 0
298 0.1999999999997785 -0.1000000000004991 0
299 0.2000000000000002 -5.500044863993026e-13 0
300 0.200000000000222 0.09999999999950124 0
301 0.2000000000004437 0.1999999999995567 0
302 0.2000000000006656 0.2999999999996122 0
303 0.2000000000008873 0.3999999999996675 0
304 0.2000000000011091 0.4999999999997231 0
305 0.2000000000013308 0.5999999999997785 0
306 0.2000000000015525 0.6999999999998336 0
307 0.2000000000017743 0.7999999999998892 0
308 0.2000000000019961 0.8999999999999444 0
309 0.2999999999982539 -0.9000000000000832 0
310 0.299999999998448 -0.8000000000001664 0
311 0.2999999999986419 -0.7000000000002496 0
312 0.299999999998836 -0.6000000000003329 0
313 0.29999999999903 -0.5000000000004163 0
314 0.2999999999992241 -0.4000000000004992 0
315 0.2999999999994182 -0.3000000000005825 0
316 0.2999999999996122 -0.2000000000006655 0
317 0.2999999999998063 -0.1000000000007486 0
318 0.3000000000000004 -8.251177519014163e-13 0
319 0.3000000000001943 0.09999999999925172 0
320 0.3000000000003884 0.199999999999335 0
321 0.3000000000005825 0.2999999999994182 0
322 0.3000000000007765 0.3999999999995012 0
323 0.3000000000009706 0.4999999999995844 0
324 0.3000000000011647 0.5999999999996675 0
325 0.3000000000013587 0.6999999999997506 0
326 0.3000000000015527 0.7999999999998337 0
327 0.3000000000017467 0.8999999999999166 0
328 0.3999999999985031 -0.9000000000001112 0
329 0.3999999999986695 -0.8000000000002216 0
330 0.3999999999988359 -0.7000000000003328 0
331 0.3999999999990022 -0.6000000000004441 0
332 0.3999999999991686 -0.5000000000005551 0
333 0.3999999999993349 -0.4000000000006657 0
334 0.3999999999995011 -0.3000000000007766 0
335 0.3999999999996675 -0.2000000000008873 0
336 0.3999999999998338 -0.100000000000998 0
337 0.4000000000000001 -1.100147750676683e-12 0
338 0.4000000000001666 0.09999999999900228 0
339 0.400000000000333 0.1999999999991132 0
340 0.4000000000004994 0.2999999999992241 0
341 0.4000000000006657 0.3999999999993349 0
342 0.4000000000008319 0.4999999999994457 0
343 0.4000000000009982 0.5999999999995567 0
344 0.4000000000011646 0.6999999999996676 0
345 0.4000000000013311 0.7999999999997782 0
346 0.4000000000014974 0.8999999999998889 0
347 0.4999999999987527 -0.9000000000001387 0
348 0.4999999999988913 -0.8000000000002772 0
349 0.4999999999990299 -0.7000000000004162 0
350 0.4999999999991684 -0.6000000000005549 0
351 0.4999999999993072 -0.5000000000006934 0
352 0.4999999999994458 -0.4000000000008318 0
353 0.4999999999995845 -0.3000000000009707 0
354 0.499999999999723 -0.2000000000011091 0
355 0.4999999999998617 -0.1000000000012475 0
356 0.5000000000000004 -1.375122238300719e-12 0
357 0.500000000000139 0.09999999999875278 0
358 0.5000000000002776 0.1999999999988914 0
359 0.5000000000004162 0.2999999999990302 0
360 0.5000000000005549 0.3999999999991684 0
361 0.5000000000006934 0.4999999999993072 0
362 0.5000000000008322 0.5999999999994459 0
363 0.5000000000009708 0.6999999999995843 0
364 0.5000000000011094 0.7999999999997227 0
365 0.500000000001248 0.8999999999998611 0
366 0.5999999999990022 -0.9000000000001662 0
367 0.599999999999113 -0.8000000000003327 0
368 0.5999999999992239 -0.7000000000004992 0
369 0.5999999999993348 -0.6000000000006656 0
370 0.5999999999994459 -0.500000000000832 0
371 0.5999999999995564 -0.4000000000009983 0
372 0.5999999999996674 -0.3000000000011647 0
373 0.5999999999997784 -0.2000000000013308 0
374 0.5999999999998892 -0.100000000001497 0
375 0.6000000000000003 -1.650096725924755e-12 0
376 0.6000000000001112 0.09999999999850327 0
377 0.6000000000002221 0.1999999999986697 0
378 0.6000000000003332 0.2999999999988361 0
379 0.600000000000444 0.3999999999990023 0
380 0.6000000000005548 0.4999999999991686 0
381 0.6000000000006658 0.5999999999993348 0
382 0.6000000000007766 0.699999999999501 0
383 0.6000000000008874 0.7999999999996674 0
384 0.6000000000009984 0.8999999999998336 0
385 0.6999999999992516 -0.9000000000001943 0
386 0.6999999999993347 -0.8000000000003882 0
387 0.699999999999418 -0.7000000000005822 0
388 0.699999999999501 -0.6000000000007766 0
389 0.6999999999995843 -0.5000000000009706 0
390 0.6999999999996676 -0.4000000000011646 0
391 0.6999999999997506 -0.3000000000013588 0
392 0.6999999999998336 -0.2000000000015526 0
393 0.699999999999917 -0.1000000000017465 0
394 0.7000000000000002 -1.925140602487829e-12 0
395 0.7000000000000832 0.09999999999825382 0
396 0.7000000000001665 0.1999999999984478 0
397 0.7000000000002496 0.299999999998642 0
398 0.7000000000003328 0.3999999999988358 0
399 0.7000000000004158 0.4999999999990299 0
400 0.7000000000004991 0.5999999999992238 0
401 0.7000000000005824 0.699999999999418 0
402 0.7000000000006654 0.7999999999996119 0
403 0.7000000000007487 0.8999999999998056 0
404 0.7999999999995009 -0.9000000000002217 0
405 0.7999999999995566 -0.8000000000004437 0
406 0.799999999999612 -0.7000000000006658 0
407 0.7999999999996671 -0.6000000000008877 0
408 0.7999999999997227 -0.5000000000011096 0
409 0.7999999999997782 -0.4000000000013308 0
410 0.7999999999998337 -0.3000000000015526 0
411 0.7999999999998892 -0.2000000000017743 0
412 0.7999999999999448 -0.100000000001996 0
413 0.7999999999999997 -2.200226112414327e-12 0
414 0.8000000000000556 0.09999999999800438 0
415 0.8000000000001108 0.1999999999982262 0
416 0.8000000000001665 0.299999999998448 0
417 0.8000000000002219 0.3999999999986694 0
418 0.8000000000002775 0.4999999999988913 0
419 0.8000000000003329 0.599999999999113 0
420 0.8000000000003882 0.6999999999993347 0
421 0.8000000000004438 0.7999999999995566 0
422 0.8000000000004989 0.8999999999997781 0
423 0.8999999999997504 -0.9000000000002496 0
424 0.8999999999997781 -0.800000000000499 0
425 0.8999999999998055 -0.7000000000007488 0
426 0.8999999999998336 -0.6000000000009984 0
427 0.8999999999998611 -0.5000000000012481 0
428 0.8999999999998889 -0.4000000000014973 0
429 0.8999999999999165 -0.3000000000017467 0
430 0.8999999999999444 -0.2000000000019962 0
431 0.8999999999999722 -0.1000000000022454 0
432 0.8999999999999999 -2.475263050083498e-12 0
433 0.9000000000000278 0.09999999999775491 0
434 0.9000000000000554 0.1999999999980044 0
435 0.9000000000000831 0.2999999999982538 0
436 0.9000000000001109 0.3999999999985031 0
437 0.9000000000001387 0.4999999999987526 0
438 0.9000000000001664 0.5999999999990022 0
439 0.9000000000001942 0.6999999999992514 0
440 0.9000000000002217 0.7999999999995011 0
441 0.9000000000002496 0.8999999999997503 0
$EndNodes
$Elements
884
1 15 2 1 1 1
2 15 2 4 2 2
3 15 2 3 3 3
4 15 2 2 4 4
5 1 2 101 1 1 5
6 1 2 101 1 5 6
7 1 2 101 1 6 7
8 1 2 101 1 7 8
9 1 2 101 1 8 9
10 1 2 101 1 9 10
11 1 2 101 1 10 11
12 1 2 101 1 11 12
13 1 2 101 1 12 13
14 1 2 101 1 13 14
15 1 2 101 1 14 15
16 1 2 101 1 15 16
17 1 2 101 1 16 17
18 1 2 101 1 17 18
19 1 2 101 1 18 19
20 1 2 101 1 19 20
21 1 2 101 1 20 21
22 1 2 101 1 21 22
23 1 2 101 1 22 23
24 1 2 101 1 23 4
25 1 2 102 2 4 24
26 1 2 102 2 24 25
27 1 2 102 2 25 26
28 1 2 102 2 26 27
29 1 2 102 2 27 28
30 1 2 102 2 28 29
31 1 2 102 2 29 30
32 1 2 102 2 30 31
33 1 2 102 2 31 32
34 1 2 102 2 32 33
35 1 2 102 2 33 34
36 1 2 102 2 34 35
37 1 2 102 2 35 36
38 1 2 102 2 36 37
39 1 2 102 2 37 38
40 1 2 102 2 38 39
41 1 2 102 2 39 40
42 1 2 102 2 40 41
43 1 2 102 2 41 42
44 1 2 102 2 42 3
45 1 2 103 3 3 43
46 1 2 103 3 43 44
47 1 2 103 3 44 45
48 1 2 103 3 45 46
49 1 2 103 3 46 47
50 1 2 103 3 47 48
51 1 2 103 3 48 49
52 1 2 103 3 49 50
53 1 2 103 3 50 51
54 1 2 103 3 51 52
55 1 2 103 3 52 53
56 1 2 103 3 53 54
57 1 2 103 3 54 55
58 1 2 103 3 55 56
59 1 2 103 3 56 57
60 1 2 103 3 57 58
61 1 2 103 3 58 59
62 1 2 103 3 59 60
63 1 2 103 3 60 61
64 1 2 103 3 61 2
65 1 2 104 4 2 62
66 1 2 104 4 62 63
67 1 2 104 4 63 64
68 1 2 104 4 64 65
69 1 2 104 4 65 66
70 1 2 104 4 66 67
71 1 2 104 4 67 68
72 1 2 104 4 68 69
73 1 2 104 4 69 70
74 1 2 104 4 70 71
75 1 2 104 4 71 72
76 1 2 104 4 72 73
77 1 2 104 4 73 74
78 1 2 104 4 74 75
79 1 2 104 4 75 76
80 1 2 104 4 76 77
81 1 2 104 4 77 78
82 1 2 104 4 78 79
83 1 2 104 4 79 80
84 1 2 104 4 80 1
85 2 2 1000 9 1 5 80
86 2 2 1000 9 80 5 81
87 2 2 1000 9 80 81 79
88 2 2 1000 9 79 81 82
89 2 2 1000 9 79 82 78
90 2 2 1000 9 78 82 83
91 2 2 1000 9 78 83 77
92 2 2 1000 9 77 83 84
93 2 2 1000 9 77 84 76
94 2 2 1000 9 76 84 85
95 2 2 1000 9 76 85 75
96 2 2 1000 9 75 85 86
97 2 2 1000 9 75 86 74
98 2 2 1000 9 74 86 87
99 2 2 1000 9 74 87 73
100 2 2 1000 9 73 87 88
101 2 2 1000 9 73 88 72
102 2 2 1000 9 72 88 89
103 2 2 1000 9 72 89 71
104 2 2 1000 9 71 89 90
105 2 2 1000 9 71 90 70
106 2 2 1000 9 70 90 91
107 2 2 1000 9 70 91 69
108 2 2 1000 9 69 91 92
109 2 2 1000 9 69 92 68
110 2 2 1000 9 68 92 93
111 2 2 1000 9 68 93 67
112 2 2 1000 9 67 93 94
113 2 2 1000 9 67 94 66
114 2 2 1000 9 66 94 95
115 2 2 1000 9 66 95 65
116 2 2 1000 9 65 95 96
117 2 2 1000 9 65 96 64
118 2 2 1000 9 64 96 97
119 2 2 1000 9 64 97 63
120 2 2 1000 9 63 97 98
121 2 2 1000 9 63 98 62
122 2 2 1000 9 62 98 99
123 2 2 1000 9 62 99 2
124 2 2 1000 9 2 99 61
125 2 2 1000 9 5 6 81
126 2 2 1000 9 81 6 100
127 2 2 1000 9 81 100 82
128 2 2 1000 9 82 100 101
129 2 2 1000 9 82 101 83
130 2 2 1000 9 83 101 102
131 2 2 1000 9 83 102 84
132 2 2 1000 9 84 102 103
133 2 2 1000 9 84 103 85
134 2 2 1000 9 85 103 104
135 2 2 1000 9 85 104 86
136 2 2 1000 9 86 104 105
137 2 2 1000 9 86 105 87
138 2 2 1000 9 87 105 106
139 2 2 1000 9 87 106 88
140 2 2 1000 9 88 106 107
141 2 2 1000 9 88 107 89
142 2 2 1000 9 89 107 108
143 2 2 1000 9 89 108 90
144 2 2 1000 9 90 108 109
145 2 2 1000 9 90 109 91
146 2 2 1000 9 91 109 110
147 2 2 1000 9 91 110 92
148 2 2 1000 9 92 110 111
149 2 2 1000 9 92 111 93
150 2 2 1000 9 93 111 112
151 2 2 1000 9 93 112 94
152 2 2 1000 9 94 112 113
153 2 2 1000 9 94 113 95
154 2 2 1000 9 95 113 114
155 2 2 1000 9 95 114 96
156 2 2 1000 9 96 114 115
157 2 2 1000 9 96 115 97
158 2 2 1000 9 97 115 116
159 2 2 1000 9 97 116 98
160 2 2 1000 9 98 116 117
161 2 2 1000 9 98 117 99
162 2 2 1000 9 99 117 118
163 2 2 1000 9 99 118 61
164 2 2 1000 9 61 118 60
165 2 2 1000 9 6 7 100
166 2 2 1000 9 100 7 119
167 2 2 1000 9 100 119 101
168 2 2 1000 9 101 119 120
169 2 2 1000 9 101 120 102
170 2 2 1000 9 102 120 121
171 2 2 1000 9 102 121 103
172 2 2 1000 9 103 121 122
173 2 2 1000 9 103 122 104
174 2 2 1000 9 104 122 123
175 2 2 1000 9 104 123 105
176 2 2 1000 9 105 123 124
177 2 2 1000 9 105 124 106
178 2 2 1000 9 106 124 125
179 2 2 1000 9 106 125 107
180 2 2 1000 9 107 125 126
181 2 2 1000 9 107 126 108
182 2 2 1000 9 108 126 127
183 2 2 1000 9 108 127 109
184 2 2 1000 9 109 127 128
185 2 2 1000 9 109 128 110
186 2 2 1000 9 110 128 129
187 2 2 1000 9 110 129 111
188 2 2 1000 9 111 129 130
189 2 2 1000 9 111 130 112
190 2 2 1000 9 112 130 131
191 2 2 1000 9 112 131 113
192 2 2 1000 9 113 131 132
193 2 2 1000 9 113 132 114
194 2 2 1000 9 114 132 133
195 2 2 1000 9 114 133 115
196 2 2 1000 9 115 133 134
197 2 2 1000 9 115 134 116
198 2 2 1000 9 116 134 135
199 2 2 1000 9 116 135 117
200 2 2 1000 9 117 135 136
201 2 2 1000 9 117 136 118
202 2 2 1000 9 118 136 137
203 2 2 1000 9 118 137 60
204 2 2 1000 9 60 137 59
205 2 2 1000 9 7 8 119
206 2 2 1000 9 119 8 138
207 2 2 1000 9 119 138 120
208 2 2 1000 9 120 138 139
209 2 2 1000 9 120 139 121
210 2 2 1000 9 121 139 140
211 2 2 1000 9 121 140 122
212 2 2 1000 9 122 140 141
213 2 2 1000 9 122 141 123
214 2 2 1000 9 123 141 142
215 2 2 1000 9 123 142 124
216 2 2 1000 9 124 142 143
217 2 2 1000 9 124 143 125
218 2 2 1000 9 125 143 144
219 2 2 1000 9 125 144 126
220 2 2 1000 9 126 144 145
221 2 2 1000 9 126 145 127
222 2 2 1000 9 127 145 146
223 2 2 1000 9 127 146 128
224 2 2 1000 9 128 146 147
225 2 2 1000 9 128 147 129
226 2 2 1000 9 129 147 148
227 2 2 1000 9 129 148 130
228 2 2 1000 9 130 148 149
229 2 2 1000 9 130 149 131
230 2 2 1000 9 131 149 150
231 2 2 1000 9 131 150 132
232 2 2 1000 9 132 150 151
233 2 2 1000 9 132 151 133
234 2 2 1000 9 133 151 152
235 2 2 1000 9 133 152 134
236 2 2 1000 9 134 152 153
237 2 2 1000 9 134 153 135
238 2 2 1000 9 135 153 154
239 2 2 1000 9 135 154 136
240 2 2 1000 9 136 154 155
241 2 2 1000 9 136 155 137
242 2 2 1000 9 137 155 156
243 2 2 1000 9 137 156 59
244 2 2 1000 9 59 156 58
245 2 2 1000 9 8 9 138
246 2 2 1000 9 138 9 157
247 2 2 1000 9 138 157 139
248 2 2 1000 9 139 157 158
249 2 2 1000 9 139 158 140
250 2 2 1000 9 140 158 159
251 2 2 1000 9 140 159 141
252 2 2 1000 9 141 159 160
253 2 2 1000 9 141 160 142
254 2 2 1000 9 142 160 161
255 2 2 1000 9 142 161 143
256 2 2 1000 9 143 161 162
257 2 2 1000 9 143 162 144
258 2 2 1000 9 144 162 163
259 2 2 1000 9 144 163 145
260 2 2 1000 9 145 163 164
261 2 2 1000 9 145 164 146
262 2 2 1000 9 146 164 165
263 2 2 1000 9 146 165 147
264 2 2 1000 9 147 165 166
265 2 2 1000 9 147 166 148
266 2 2 1000 9 148 166 167
267 2 2 1000 9 148 167 149
268 2 2 1000 9 149 167 168
269 2 2 1000 9 149 168 150
270 2 2 1000 9 150 168 169
271 2 2 1000 9 150 169 151
272 2 2 1000 9 151 169 170
273 2 2 1000 9 151 170 152
274 2 2 1000 9 152 170 171
275 2 2 1000 9 152 171 153
276 2 2 1000 9 153 171 172
277 2 2 1000 9 153 172 154
278 2 2 1000 9 154 172 173
279 2 2 1000 9 154 173 155
280 2 2 1000 9 155 173 174
281 2 2 1000 9 155 174 156
282 2 2 1000 9 156 174 175
283 2 2 1000 9 156 175 58
284 2 2 1000 9 58 175 57
285 2 2 1000 9 9 10 157
286 2 2 1000 9 157 10 176
287 2 2 1000 9 157 176 158
288 2 2 1000 9 158 176 177
289 2 2 1000 9 158 177 159
290 2 2 1000 9 159 177 178
291 2 2 1000 9 159 178 160
292 2 2 1000 9 160 178 179
293 2 2 1000 9 160 179 161
294 2 2 1000 9 161 179 180
295 2 2 1000 9 161 180 162
296 2 2 1000 9 162 180 181
297 2 2 1000 9 162 181 163
298 2 2 1000 9 163 181 182
299 2 2 1000 9 163 182 164
300 2 2 1000 9 164 182 183
301 2 2 1000 9 164 183 165
302 2 2 1000 9 165 183 184
303 2 2 1000 9 165 184 166
304 2 2 1000 9 166 184 185
305 2 2 1000 9 166 185 167
306 2 2 1000 9 167 185 186
307 2 2 1000 9 167 186 168
308 2 2 1000 9 168 186 187
309 2 2 1000 9 168 187 169
310 2 2 1000 9 169 187 188
311 2 2 1000 9 169 188 170
312 2 2 1000 9 170 188 189
313 2 2 1000 9 170 189 171
314 2 2 1000 9 171 189 190
315 2 2 1000 9 171 190 172
316 2 2 1000 9 172 190 191
317 2 2 1000 9 172 191 173
318 2 2 1000 9 173 191 192
319 2 2 1000 9 173 192 174
320 2 2 1000 9 174 192 193
321 2 2 1000 9 174 193 175
322 2 2 1000 9 175 193 194
323 2 2 1000 9 175 194 57
324 2 2 1000 9 57 194 56
325 2 2 1000 9 10 11 176
326 2 2 1000 9 176 11 195
327 2 2 1000 9 176 195 177
328 2 2 1000 9 177 195 196
329 2 2 1000 9 177 196 178
330 2 2 1000 9 178 196 197
331 2 2 1000 9 178 197 179
332 2 2 1000 9 179 197 198
333 2 2 1000 9 179 198 180
334 2 2 1000 9 180 198 199
335 2 2 1000 9 180 199 181
336 2 2 1000 9 181 199 200
337 2 2 1000 9 181 200 182
338 2 2 1000 9 182 200 201
339 2 2 1000 9 182 201 183
340 2 2 1000 9 183 201 202
341 2 2 1000 9 183 202 184
342 2 2 1000 9 184 202 203
343 2 2 1000 9 184 203 185
344 2 2 1000 9 185 203 204
345 2 2 1000 9 185 204 186
346 2 2 1000 9 186 204 205
347 2 2 1000 9 186 205 187
348 2 2 1000 9 187 205 206
349 2 2 1000 9 187 206 188
350 2 2 1000 9 188 206 207
351 2 2 1000 9 188 207 189
352 2 2 1000 9 189 207 208
353 2 2 1000 9 189 208 190
354 2 2 1000 9 190 208 209
355 2 2 1000 9 190 209 191
356 2 2 1000 9 191 209 210
357 2 2 1000 9 191 210 192
358 2 2 1000 9 192 210 211
359 2 2 1000 9 192 211 193
360 2 2 1000 9 193 211 212
361 2 2 1000 9 193 212 194
362 2 2 1000 9 194 212 213
363 2 2 1000 9 194 213 56
364 2 2 1000 9 56 213 55
365 2 2 1000 9 11 12 195
366 2 2 1000 9 195 12 214
367 2 2 1000 9 195 214 196
368 2 2 1000 9 196 214 215
369 2 2 1000 9 196 215 197
370 2 2 1000 9 197 215 216
371 2 2 1000 9 197 216 198
372 2 2 1000 9 198 216 217
373 2 2 1000 9 198 217 199
374 2 2 1000 9 199 217 218
375 2 2 1000 9 199 218 200
376 2 2 1000 9 200 218 219
377 2 2 1000 9 200 219 201
378 2 2 1000 9 201 219 220
379 2 2 1000 9 201 220 202
380 2 2 1000 9 202 220 221
381 2 2 1000 9 202 221 203
382 2 2 1000 9 203 221 222
383 2 2 1000 9 203 222 204
384 2 2 1000 9 204 222 223
385 2 2 1000 9 204 223 205
386 2 2 1000 9 205 223 224
387 2 2 1000 9 205 224 206
388 2 2 1000 9 206 224 225
389 2 2 1000 9 206 225 207
390 2 2 1000 9 207 225 226
391 2 2 1000 9 207 226 208
392 2 2 1000 9 208 226 227
393 2 2 1000 9 208 227 209
394 2 2 1000 9 209 227 228
395 2 2 1000 9 209 228 210
396 2 2 1000 9 210 228 229
397 2 2 1000 9 210 229 211
398 2 2 1000 9 211 229 230
399 2 2 1000 9 211 230 212
400 2 2 1000 9 212 230 231
401 2 2 1000 9 212 231 213
402 2 2 1000 9 213 231 232
403 2 2 1000 9 213 232 55
404 2 2 1000 9 55 232 54
405 2 2 1000 9 12 13 214
406 2 2 1000 9 214 13 233
407 2 2 1000 9 214 233 215
408 2 2 1000 9 215 233 234
409 2 2 1000 9 215 234 216
410 2 2 1000 9 216 234 235
411 2 2 1000 9 216 235 217
412 2 2 1000 9 217 235 236
413 2 2 1000 9 217 236 218
414 2 2 1000 9 218 236 237
415 2 2 1000 9 218 237 219
416 2 2 1000 9 219 237 238
417 2 2 1000 9 219 238 220
418 2 2 1000 9 220 238 239
419 2 2 1000 9 220 239 221
420 2 2 1000 9 221 239 240
421 2 2 1000 9 221 240 222
422 2 2 1000 9 222 240 241
423 2 2 1000 9 222 241 223
424 2 2 1000 9 223 241 242
425 2 2 1000 9 223 242 224
426 2 2 1000 9 224 242 243
427 2 2 1000 9 224 243 225
428 2 2 1000 9 225 243 244
429 2 2 1000 9 225 244 226
430 2 2 1000 9 226 244 245
431 2 2 1000 9 226 245 227
432 2 2 1000 9 227 245 246
433 2 2 1000 9 227 246 228
434 2 2 1000 9 228 246 247
435 2 2 1000 9 228 247 229
436 2 2 1000 9 229 247 248
437 2 2 1000 9 229 248 230
438 2 2 1000 9 230 248 249
439 2 2 1000 9 230 249 231
440 2 2 1000 9 231 249 250
441 2 2 1000 9 231 250 232
442 2 2 1000 9 232 250 251
443 2 2 1000 9 232 251 54
444 2 2 1000 9 54 251 53
445 2 2 1000 9 13 14 233
446 2 2 1000 9 233 14 252
447 2 2 1000 9 233 252 234
448 2 2 1000 9 234 252 253
449 2 2 1000 9 234 253 235
450 2 2 1000 9 235 253 254
451 2 2 1000 9 235 254 236
452 2 2 1000 9 236 254 255
453 2 2 1000 9 236 255 237
454 2 2 1000 9 237 255 256
455 2 2 1000 9 237 256 238
456 2 2 1000 9 238 256 257
457 2 2 1000 9 238 257 239
458 2 2 1000 9 239 257 258
459 2 2 1000 9 239 258 240
460 2 2 1000 9 240 258 259
461 2 2 1000 9 240 259 241
462 2 2 1000 9 241 259 260
463 2 2 1000 9 241 260 242
464 2 2 1000 9 242 260 261
465 2 2 1000 9 242 261 243
466 2 2 1000 9 243 261 262
467 2 2 1000 9 243 262 244
468 2 2 1000 9 244 262 263
469 2 2 1000 9 244 263 245
470 2 2 1000 9 245 263 264
471 2 2 1000 9 245 264 246
472 2 2 1000 9 246 264 265
473 2 2 1000 9 246 265 247
474 2 2 1000 9 247 265 266
475 2 2 1000 9 247 266 248
476 2 2 1000 9 248 266 267
477 2 2 1000 9 248 267 249
478 2 2 1000 9 249 267 268
479 2 2 1000 9 249 268 250
480 2 2 1000 9 250 268 269
481 2 2 1000 9 250 269 251
482 2 2 1000 9 251 269 270
483 2 2 1000 9 251 270 53
484 2 2 1000 9 53 270 52
485 2 2 1000 9 14 15 252
486 2 2 1000 9 252 15 271
487 2 2 1000 9 252 271 253
488 2 2 1000 9 253 271 272
489 2 2 1000 9 253 272 254
490 2 2 1000 9 254 272 273
491 2 2 1000 9 254 273 255
492 2 2 1000 9 255 273 274
493 2 2 1000 9 255 274 256
494 2 2 1000 9 256 274 275
495 2 2 1000 9 256 275 257
496 2 2 1000 9 257 275 276
497 2 2 1000 9 257 276 258
498 2 2 1000 9 258 276 277
499 2 2 1000 9 258 277 259
500 2 2 1000 9 259 277 278
501 2 2 1000 9 259 278 260
502 2 2 1000 9 260 278 279
503 2 2 1000 9 260 279 261
504 2 2 1000 9 261 279 280
505 2 2 1000 9 261 280 262
506 2 2 1000 9 262 280 281
507 2 2 1000 9 262 281 263
508 2 2 1000 9 263 281 282
509 2 2 1000 9 263 282 264
510 2 2 1000 9 264 282 283
511 2 2 1000 9 264 283 265
512 2 2 1000 9 265 283 284
513 2 2 1000 9 265 284 266
514 2 2 1000 9 266 284 285
515 2 2 1000 9 266 285 267
516 2 2 1000 9 267 285 286
517 2 2 1000 9 267 286 268
518 2 2 1000 9 268 286 287
519 2 2 1000 9 268 287 269
520 2 2 1000 9 269 287 288
521 2 2 1000 9 269 288 270
522 2 2 1000 9 270 288 289
523 2 2 1000 9 270 289 52
524 2 2 1000 9 52 289 51
525 2 2 1000 9 15 16 271
526 2 2 1000 9 271 16 290
527 2 2 1000 9 271 290 272
528 2 2 1000 9 272 290 291
529 2 2 1000 9 272 291 273
530 2 2 1000 9 273 291 292
531 2 2 1000 9 273 292 274
532 2 2 1000 9 274 292 293
533 2 2 1000 9 274 293 275
534 2 2 1000 9 275 293 294
535 2 2 1000 9 275 294 276
536 2 2 1000 9 276 294 295
537 2 2 1000 9 276 295 277
538 2 2 1000 9 277 295 296
539 2 2 1000 9 277 296 278
540 2 2 1000 9 278 296 297
541 2 2 1000 9 278 297 279
542 2 2 1000 9 279 297 298
543 2 2 1000 9 279 298 280
544 2 2 1000 9 280 298 299
545 2 2 1000 9 280 299 281
546 2 2 1000 9 281 299 300
547 2 2 1000 9 281 300 282
548 2 2 1000 9 282 300 301
549 2 2 1000 9 282 301 283
550 2 2 1000 9 283 301 302
551 2 2 1000 9 283 302 284
552 2 2 1000 9 284 302 303
553 2 2 1000 9 284 303 285
554 2 2 1000 9 285 303 304
555 2 2 1000 9 285 304 286
556 2 2 1000 9 286 304 305
557 2 2 1000 9 286 305 287
558 2 2 1000 9 287 305 306
559 2 2 1000 9 287 306 288
560 2 2 1000 9 288 306 307
561 2 2 1000 9 288 307 289
562 2 2 1000 9 289 307 308
563 2 2 1000 9 289 308 51
564 2 2 1000 9 51 308 50
565 2 2 1000 9 16 17 290
566 2 2 1000 9 290 17 309
567 2 2 1000 9 290 309 291
568 2 2 1000 9 291 309 310
569 2 2 1000 9 291 310 292
570 2 2 1000 9 292 310 311
571 2 2 1000 9 292 311 293
572 2 2 1000 9 293 311 312
573 2 2 1000 9 293 312 294
574 2 2 1000 9 294 312 313
575 2 2 1000 9 294 313 295
576 2 2 1000 9 295 313 314
577 2 2 1000 9 295 314 296
578 2 2 1000 9 296 314 315
579 2 2 1000 9 296 315 297
580 2 2 1000 9 297 315 316
581 2 2 1000 9 297 316 298
582 2 2 1000 9 298 316 317
583 2 2 1000 9 298 317 299
584 2 2 1000 9 299 317 318
585 2 2 1000 9 299 318 300
586 2 2 1000 9 300 318 319
587 2 2 1000 9 300 319 301
588 2 2 1000 9 301 319 320
589 2 2 1000 9 301 320 302
590 2 2 1000 9 302 320 321
591 2 2 1000 9 302 321 303
592 2 2 1000 9 303 321 322
593 2 2 1000 9 303 322 304
594 2 2 1000 9 304 322 323
595 2 2 1000 9 304 323 305
596 2 2 1000 9 305 323 324
597 2 2 1000 9 305 324 306
598 2 2 1000 9 306 324 325
599 2 2 1000 9 306 325 307
600 2 2 1000 9 307 325 326
601 2 2 1000 9 307 326 308
602 2 2 1000 9 308 326 327
603 2 2 1000 9 308 327 50
604 2 2 1000 9 50 327 49
605 2 2 1000 9 17 18 309
606 2 2 1000 9 309 18 328
607 2 2 1000 9 309 328 310
608 2 2 1000 9 310 328 329
609 2 2 1000 9 310 329 311
610 2 2 1000 9 311 329 330
611 2 2 1000 9 311 330 312
612 2 2 1000 9 312 330 331
613 2 2 1000 9 312 331 313
614 2 2 1000 9 313 331 332
615 2 2 1000 9 313 332 314
616 2 2 1000 9 314 332 333
617 2 2 1000 9 314 333 315
618 2 2 1000 9 315 333 334
619 2 2 1000 9 315 334 316
620 2 2 1000 9 316 334 335
621 2 2 1000 9 316 335 317
622 2 2 1000 9 317 335 336
623 2 2 1000 9 317 336 318
624 2 2 1000 9 318 336 337
625 2 2 1000 9 318 337 319
626 2 2 1000 9 319 337 338
627 2 2 1000 9 319 338 320
628 2 2 1000 9 320 338 339
629 2 2 1000 9 320 339 321
630 2 2 1000 9 321 339 340
631 2 2 1000 9 321 340 322
632 2 2 1000 9 322 340 341
633 2 2 1000 9 322 341 323
634 2 2 1000 9 323 341 342
635 2 2 1000 9 323 342 324
636 2 2 1000 9 324 342 343
637 2 2 1000 9 324 343 325
638 2 2 1000 9 325 343 344
639 2 2 1000 9 325 344 326
640 2 2 1000 9 326 344 345
641 2 2 1000 9 326 345 327
642 2 2 1000 9 327 345 346
643 2 2 1000 9 327 346 49
644 2 2 1000 9 49 346 48
645 2 2 1000 9 18 19 328
646 2 2 1000 9 328 19 347
647 2 2 1000 9 328 347 329
648 2 2 1000 9 329 347 348
649 2 2 1000 9 329 348 330
650 2 2 1000 9 330 348 349
651 2 2 1000 9 330 349 331
652 2 2 1000 9 331 349 350
653 2 2 1000 9 331 350 332
654 2 2 1000 9 332 350 351
655 2 2 1000 9 332 351 333
656 2 2 1000 9 333 351 352
657 2 2 1000 9 333 352 334
658 2 2 1000 9 334 352 353
659 2 2 1000 9 334 353 335
660 2 2 1000 9 335 353 354
661 2 2 1000 9 335 354 336
662 2 2 1000 9 336 354 355
663 2 2 1000 9 336 355 337
664 2 2 1000 9 337 355 356
665 2 2 1000 9 337 356 338
666 2 2 1000 9 338 356 357
667 2 2 1000 9 338 357 339
668 2 2 1000 9 339 357 358
669 2 2 1000 9 339 358 340
670 2 2 1000 9 340 358 359
671 2 2 1000 9 340 359 341
672 2 2 1000 9 341 359 360
673 2 2 1000 9 341 360 342
674 2 2 1000 9 342 360 361
675 2 2 1000 9 342 361 343
676 2 2 1000 9 343 361 362
677 2 2 1000 9 343 362 344
678 2 2 1000 9 344 362 363
679 2 2 1000 9 344 363 345
680 2 2 1000 9 345 363 364
681 2 2 1000 9 345 364 346
682 2 2 1000 9 346 364 365
683 2 2 1000 9 346 365 48
684 2 2 1000 9 48 365 47
685 2 2 1000 9 19 20 347
686 2 2 1000 9 347 20 366
687 2 2 1000 9 347 366 348
688 2 2 1000 9 348 366 367
689 2 2 1000 9 348 367 349
690 2 2 1000 9 349 367 368
691 2 2 1000 9 349 368 350
692 2 2 1000 9 350 368 369
693 2 2 1000 9 350 369 351
694 2 2 1000 9 351 369 370
695 2 2 1000 9 351 370 352
696 2 2 1000 9 352 370 371
697 2 2 1000 9 352 371 353
698 2 2 1000 9 353 371 372
699 2 2 1000 9 353 372 354
700 2 2 1000 9 354 372 373
701 2 2 1000 9 354 373 355
702 2 2 1000 9 355 373 374
703 2 2 1000 9 355 374 356
704 2 2 1000 9 356 374 375
705 2 2 1000 9 356 375 357
706 2 2 1000 9 357 375 376
707 2 2 1000 9 357 376 358
708 2 2 1000 9 358 376 377
709 2 2 1000 9 358 377 359
710 2 2 1000 9 359 377 378
711 2 2 1000 9 359 378 360
712 2 2 1000 9 360 378 379
713 2 2 1000 9 360 379 361
714 2 2 1000 9 361 379 380
715 2 2 1000 9 361 380 362
716 2 2 1000 9 362 380 381
717 2 2 1000 9 362 381 363
718 2 2 1000 9 363 381 382
719 2 2 1000 9 363 382 364
720 2 2 1000 9 364 382 383
721 2 2 1000 9 364 383 365
722 2 2 1000 9 365 383 384
723 2 2 1000 9 365 384 47
724 2 2 1000 9 47 384 46
725 2 2 1000 9 20 21 366
726 2 2 1000 9 366 21 385
727 2 2 1000 9 366 385 367
728 2 2 1000 9 367 385 386
729 2 2 1000 9 367 386 368
730 2 2 1000 9 368 386 387
731 2 2 1000 9 368 387 369
732 2 2 1000 9 369 387 388
733 2 2 1000 9 369 388 370
734 2 2 1000 9 370 388 389
735 2 2 1000 9 370 389 371
736 2 2 1000 9 371 389 390
737 2 2 1000 9 371 390 372
738 2 2 1000 9 372 390 391
739 2 2 1000 9 372 391 373
740 2 2 1000 9 373 391 392
741 2 2 1000 9 373 392 374
742 2 2 1000 9 374 392 393
743 2 2 1000 9 374 393 375
744 2 2 1000 9 375 393 394
745 2 2 1000 9 375 394 376
746 2 2 1000 9 376 394 395
747 2 2 1000 9 376 395 377
748 2 2 1000 9 377 395 396
749 2 2 1000 9 377 396 378
750 2 2 1000 9 378 396 397
751 2 2 1000 9 378 397 379
752 2 2 1000 9 379 397 398
753 2 2 1000 9 379 398 380
754 2 2 1000 9 380 398 399
755 2 2 1000 9 380 399 381
756 2 2 1000 9 381 399 400
757 2 2 1000 9 381 400 382
758 2 2 1000 9 382 400 401
759 2 2 1000 9 382 401 383
760 2 2 1000 9 383 401 402
761 2 2 1000 9 383 402 384
762 2 2 1000 9 384 402 403
763 2 2 1000 9 384 403 46
764 2 2 1000 9 46 403 45
765 2 2 1000 9 21 22 385
766 2 2 1000 9 385 22 404
767 2 2 1000 9 385 404 386
768 2 2 1000 9 386 404 405
769 2 2 1000 9 386 405 387
770 2 2 1000 9 387 405 406
771 2 2 1000 9 387 406 388
772 2 2 1000 9 388 406 407
773 2 2 1000 9 388 407 389
774 2 2 1000 9 389 407 408
775 2 2 1000 9 389 408 390
776 2 2 1000 9 390 408 409
777 2 2 1000 9 390 409 391
778 2 2 1000 9 391 409 410
779 2 2 1000 9 391 410 392
780 2 2 1000 9 392 410 411
781 2 2 1000 9 392 411 393
782 2 2 1000 9 393 411 412
783 2 2 1000 9 393 412 394
784 2 2 1000 9 394 412 413
785 2 2 1000 9 394 413 395
786 2 2 1000 9 395 413 414
787 2 2 1000 9 395 414 396
788 2 2 1000 9 396 414 415
789 2 2 1000 9 396 415 397
790 2 2 1000 9 397 415 416
791 2 2 1000 9 397 416 398
792 2 2 1000 9 398 416 417
793 2 2 1000 9 398 417 399
794 2 2 1000 9 399 417 418
795 2 2 1000 9 399 418 400
796 2 2 1000 9 400 418 419
797 2 2 1000 9 400 419 401
798 2 2 1000 9 401 419 420
799 2 2 1000 9 401 420 402
800 2 2 1000 9 402 420 421
801 2 2 1000 9 402 421 403
802 2 2 1000 9 403 421 422
803 2 2 1000 9 403 422 45
804 2 2 1000 9 45 422 44
805 2 2 1000 9 22 23 404
806 2 2 1000 9 404 23 423
807 2 2 1000 9 404 423 405
808 2 2 1000 9 405 423 424
809 2 2 1000 9 405 424 406
810 2 2 1000 9 406 424 425
811 2 2 1000 9 406 425 407
812 2 2 1000 9 407 425 426
813 2 2 1000 9 407 426 408
814 2 2 1000 9 408 426 427
815 2 2 1000 9 408 427 409
816 2 2 1000 9 409 427 428
817 2 2 1000 9 409 428 410
818 2 2 1000 9 410 428 429
819 2 2 1000 9 410 429 411
820 2 2 1000 9 411 429 430
821 2 2 1000 9 411 430 412
822 2 2 1000 9 412 430 431
823 2 2 1000 9 412 431 413
824 2 2 1000 9 413 431 432
825 2 2 1000 9 413 432 414
826 2 2 1000 9 414 432 433
827 2 2 1000 9 414 433 415
828 2 2 1000 9 415 433 434
829 2 2 1000 9 415 434 416
830 2 2 1000 9 416 434 435
831 2 2 1000 9 416 435 417
832 2 2 1000 9 417 435 436
833 2 2 1000 9 417 436 418
834 2 2 1000 9 418 436 437
835 2 2 1000 9 418 437 419
836 2 2 1000 9 419 437 438
837 2 2 1000 9 419 438 420
838 2 2 1000 9 420 438 439
839 2 2 1000 9 420 439 421
840 2 2 1000 9 421 439 440
841 2 2 1000 9 421 440 422
842 2 2 1000 9 422 440 441
843 2 2 1000 9 422 441 44
844 2 2 1000 9 44 441 43
845 2 2 1000 9 23 4 423
846 2 2 1000 9 423 4 24
847 2 2 1000 9 423 24 424
848 2 2 1000 9 424 24 25
849 2 2 1000 9 424 25 425
850 2 2 1000 9 425 25 26
851 2 2 1000 9 425 26 426
852 2 2 1000 9 426 26 27
853 2 2 1000 9 426 27 427
854 2 2 1000 9 427 27 28
855 2 2 1000 9 427 28 428
856 2 2 1000 9 428 28 29
857 2 2 1000 9 428 29 429
858 2 2 1000 9 429 29 30
859 2 2 1000 9 429 30 430
860 2 2 1000 9 430 30 31
861 2 2 1000 9 430 31 431
862 2 2 1000 9 431 31 32
863 2 2 1000 9 431 32 432
864 2 2 1000 9 432 32 33
865 2 2 1000 9 432 33 433
866 2 2 1000 9 433 33 34
867 2 2 1000 9 433 34 434
868 2 2 1000 9 434 34 35
869 2 2 1000 9 434 35 435
870 2 2 1000 9 435 35 36
871 2 2 1000 9 435 36 436
872 2 2 1000 9 436 36 37
873 2 2 1000 9 436 37 437
874 2 2 1000 9 437 37 38
875 2 2 1000 9 437 38 438
876 2 2 1000 9 438 38 39
877 2 2 1000 9 438 39 439
878 2 2 1000 9 439 39 40
879 2 2 1000 9 439 40 440
880 2 2 1000 9 440 40 41
881 2 2 1000 9 440 41 441
882 2 2 1000 9 441 41 42
883 2 2 1000 9 441 42 43
884 2 2 1000 9 43 42 3
$EndElements
