$MeshFormat
2.2 0 8
$EndMeshFormat
$Nodes
561
1 -1 -1 0
2 1 -1 0
3 1 1 0
4 -1 1 0
5 0.4 0 0
6 -0.4 0 0
7 0 0.4 0
8 0 -0.4 0
9 -0.9000000000002774 -1 0
10 -0.8000000000005548 -1 0
11 -0.7000000000008322 -1 0
12 -0.6000000000011096 -1 0
13 -0.500000000001387 -1 0
14 -0.4000000000016644 -1 0
15 -0.3000000000019418 -1 0
16 -0.2000000000022192 -1 0
17 -0.1000000000024964 -1 0
18 -2.752242878045763e-12 -1 0
19 0.09999999999750342 -1 0
20 0.1999999999977808 -1 0
21 0.2999999999980583 -1 0
22 0.3999999999983355 -1 0
23 0.4999999999986129 -1 0
24 0.5999999999988903 -1 0
25 0.699999999999168 -1 0
26 0.7999999999994454 -1 0
27 0.8999999999997226 -1 0
28 1 -0.9000000000002774 0
29 1 -0.8000000000005548 0
30 1 -0.7000000000008322 0
31 1 -0.6000000000011096 0
32 1 -0.500000000001387 0
33 1 -0.4000000000016644 0
34 1 -0.3000000000019418 0
35 1 -0.2000000000022192 0
36 1 -0.1000000000024964 0
37 1 -2.752242878045763e-12 0
38 1 0.09999999999750342 0
39 1 0.1999999999977808 0
40 1 0.2999999999980583 0
41 1 0.3999999999983355 0
42 1 0.4999999999986129 0
43 1 0.5999999999988903 0
44 1 0.699999999999168 0
45 1 0.7999999999994454 0
46 1 0.8999999999997226 0
47 -0.9000000000002774 1 0
48 -0.8000000000005548 1 0
49 -0.7000000000008322 1 0
50 -0.6000000000011096 1 0
51 -0.500000000001387 1 0
52 -0.4000000000016644 1 0
53 -0.3000000000019418 1 0
54 -0.2000000000022192 1 0
55 -0.1000000000024964 1 0
56 -2.752242878045763e-12 1 0
57 0.09999999999750342 1 0
58 0.1999999999977808 1 0
59 0.2999999999980583 1 0
60 0.3999999999983355 1 0
61 0.4999999999986129 1 0
62 0.5999999999988903 1 0
63 0.699999999999168 1 0
64 0.7999999999994454 1 0
65 0.8999999999997226 1 0
66 -1 -0.9000000000002774 0
67 -1 -0.8000000000005548 0
68 -1 -0.7000000000008322 0
69 -1 -0.6000000000011096 0
70 -1 -0.500000000001387 0
71 -1 -0.4000000000016644 0
72 -1 -0.3000000000019418 0
73 -1 -0.2000000000022192 0
74 -1 -0.1000000000024964 0
75 -1 -2.752242878045763e-12 0
76 -1 0.09999999999750342 0
77 -1 0.1999999999977808 0
78 -1 0.2999999999980583 0
79 -1 0.3999999999983355 0
80 -1 0.4999999999986129 0
81 -1 0.5999999999988903 0
82 -1 0.699999999999168 0
83 -1 0.7999999999994454 0
84 -1 0.8999999999997226 0
85 0.3899711648727788 0.0890083735823097 0
86 0.3603875471611564 0.1735534956466314 0
87 0.3127325929876194 0.2493959207429825 0
88 0.2493959207439993 0.3127325929868086 0
89 0.1735534956473836 0.3603875471607941 0
90 0.0890083735826827 0.3899711648726936 0
91 -0.0890083735823097 0.3899711648727788 0
92 -0.1735534956466314 0.3603875471611564 0
93 -0.2493959207429825 0.3127325929876194 0
94 -0.3127325929868086 0.2493959207439993 0
95 -0.3603875471607941 0.1735534956473836 0
96 -0.3899711648726936 0.0890083735826827 0
97 -0.3899711648727788 -0.0890083735823097 0
98 -0.3603875471611564 -0.1735534956466314 0
99 -0.3127325929876194 -0.2493959207429825 0
100 -0.2493959207439993 -0.3127325929868086 0
101 -0.1735534956473836 -0.3603875471607941 0
102 -0.0890083735826827 -0.3899711648726936 0
103 0.0890083735823097 -0.3899711648727788 0
104 0.1735534956466314 -0.3603875471611564 0
105 0.2493959207429825 -0.3127325929876194 0
106 0.3127325929868086 -0.2493959207439993 0
107 0.3603875471607941 -0.1735534956473836 0
108 0.3899711648726936 -0.0890083735826827 0
109 -0.5808499133226674 -0.5758642898330708 0
110 -0.5758642898330568 0.5808499133226734 0
111 0.5784298229923128 -0.5867330231614756 0
112 0.5808499133226315 0.5758642898330169 0
113 -0.7051202765923164 -0.2425521622733385 0
114 -0.2425521622733393 0.7051202765923167 0
115 0.262917750707057 -0.6634551358058056 0
116 0.7054224071760875 0.2426757161817726 0
117 0.7051202765920499 -0.2425521622744378 0
118 -0.2627669799510867 -0.6635931462299565 0
119 0.2629177507084324 0.6634551358052413 0
120 -0.6634551358052302 0.2629177507084083 0
121 -0.647037276538924 -0.002036083764477067 0
122 -0.003627023397432969 -0.6321545963278252 0
123 0.6438399219055821 -0.01021470548717244 0
124 -0.002036083764477444 0.6470372765389243 0
125 -0.7522238689984848 -0.7644423041243317 0
126 -0.7644423041242729 0.7522238689986087 0
127 0.764442304124381 -0.7522238689983901 0
128 0.7522238689985135 0.764442304124322 0
129 -0.453648027436479 -0.7688397995112838 0
130 0.7725817443457483 -0.4500823575434925 0
131 -0.7647763294555994 -0.4480346318026353 0
132 -0.4480346318026381 0.7647763294555813 0
133 -0.7688397995109857 0.4536480274365514 0
134 0.4536480274365512 0.7688397995109831 0
135 0.4461984277394898 -0.7704767226740441 0
136 0.7647763294555352 0.4480346318027958 0
137 -0.4996192976696723 -0.3699945735970031 0
138 -0.3699945735970032 0.499619297669672 0
139 0.5050973105735872 -0.3657153132648402 0
140 0.4996192976697604 0.3699945735968912 0
141 -0.3274689746609781 -0.5128925170619955 0
142 0.3274689746601337 -0.5128925170626535 0
143 -0.5128925170619596 0.3274689746609241 0
144 0.3274689746610316 0.5128925170619587 0
145 -0.8027855215682871 -0.0871060308696695 0
146 -0.7773031218415484 0.1050065499872919 0
147 -0.08710603086967016 0.8027855215682875 0
148 0.1050065499872924 0.7773031218415476 0
149 -0.08944810530030879 -0.7942142293413404 0
150 0.105006549986038 -0.7773031218417549 0
151 0.8027855215681581 -0.087106030870895 0
152 0.8004889935064287 0.1164105762637855 0
153 -0.522267819406421 -0.1753833301571783 0
154 -0.1753833301571785 0.522267819406421 0
155 0.521285183189707 0.1779822061518051 0
156 0.52369296790358 -0.183248095011481 0
157 0.112027003529914 -0.534216478072168 0
158 -0.1237739619050361 -0.5463144114087027 0
159 -0.5478012485422402 0.1363985825300062 0
160 0.1363985825300059 0.5478012485422404 0
161 -0.2925687041286587 -0.8477630148231228 0
162 0.8496883202937007 -0.3014537969127378 0
163 -0.8496883202939951 -0.3014537969106654 0
164 -0.3014537969106659 0.8496883202939952 0
165 -0.8476479431873459 0.2924216775713857 0
166 0.2924216775713903 0.8476479431873465 0
167 0.2924216775694818 -0.8476479431876911 0
168 0.8496300633204866 0.3013361491077137 0
169 -0.8422217721529685 -0.6134325824233025 0
170 -0.6134325824232107 0.8422217721530236 0
171 0.6134325824234049 -0.842221772153011 0
172 -0.607825608424392 -0.8432182712083458 0
173 0.8422217721530662 0.6134325824233129 0
174 0.8422750286587576 -0.601656420311661 0
175 -0.8432182712083595 0.6078256084244762 0
176 0.6078256084243789 0.8432182712084119 0
177 -0.430997773488612 -0.6206412593967151 0
178 -0.6206412593965336 0.4309977734887142 0
179 0.4309977734867874 -0.6206412593977271 0
180 0.4309977734887292 0.6206412593965649 0
181 -0.6480695836375061 -0.384410440715475 0
182 -0.3844104407154747 0.6480695836374976 0
183 0.645120140647829 -0.3792969801176669 0
184 0.6480695836374873 0.3844104407153893 0
185 -0.8586897847136973 -0.8586897847136973 0
186 0.8586897847137478 -0.8586897847135189 0
187 -0.8586897847135327 0.8586897847137616 0
188 0.8586897847135833 0.8586897847135833 0
189 0.3597617761547809 -0.3722691702396477 0
190 -0.359761776155633 -0.3722691702384519 0
191 -0.3722691702384626 0.359761776155597 0
192 0.3597617761556393 0.3722691702384844 0
193 -0.5267058779760487 -0.03796832714742174 0
194 -0.03796832714742189 0.5267058779760488 0
195 0.5244942763362478 0.04919206305030116 0
196 -0.4709850410098873 -0.4955347731339513 0
197 0.4684856572236593 -0.4961877422015182 0
198 -0.4955347731338285 0.4709850410097759 0
199 0.4709850410099517 0.4955347731338242 0
200 -0.6106705125034171 -0.7027320229961997 0
201 0.7018678788640249 -0.6277677889766695 0
202 -0.7027320229960945 0.6106705125034945 0
203 0.6106705125033768 0.7027320229960959 0
204 -0.7019455380614272 -0.564313189747697 0
205 -0.5643131897476973 0.7019455380614402 0
206 0.5572268219395785 -0.7029555379613615 0
207 0.7019455380614481 0.5643131897477337 0
208 0.01830709629014145 -0.526835058552875 0
209 -0.4228200730104368 -0.2438969441745577 0
210 -0.2438969441745575 0.4228200730104367 0
211 0.4228200730104613 0.2438969441745976 0
212 0.4228200730097781 -0.2438969441756312 0
213 -0.6336864884801717 -0.1239024274751723 0
214 -0.1239024274751725 0.6336864884801721 0
215 0.6336665739976471 0.1232835811057117 0
216 0.633363278739609 -0.1060326794313604 0
217 0.4973360815849726 -0.07218213877777466 0
218 -0.1143648757798139 -0.686004006101091 0
219 0.2393606051718098 -0.4671546622568251 0
220 -0.2399915705906399 -0.4660601346020024 0
221 0.2393606051726402 0.4671546622564172 0
222 -0.4671546622564164 0.2393606051725751 0
223 0.1147071234885508 -0.6838573143170011 0
224 -0.6768592129305822 0.1113778034661771 0
225 0.1113778034661769 0.676859212930582 0
226 -0.8808509282264632 -0.7152665938383489 0
227 -0.7162263645773643 -0.8713752210857777 0
228 -0.7152665938382246 0.880850928226497 0
229 0.871306471628832 -0.7157767152978947 0
230 0.7152665938383771 -0.880850928226562 0
231 -0.8713752210858732 0.7162263645774114 0
232 0.8808509282265959 0.7152665938382528 0
233 0.7162263645772875 0.8713752210858983 0
234 0.6694089268954106 -0.479717983213189 0
235 -0.3399480248247402 -0.7050104252498353 0
236 -0.7049907094746727 0.3399695635044787 0
237 0.3399695635044862 0.7049907094746879 0
238 0.3694268289871829 -0.700920301048329 0
239 -0.01229970654180428 -0.883510076450272 0
240 0.8836674306072607 -0.008104872582353649 0
241 -0.8836674306072373 -0.008104872581258736 0
242 -0.008104872581259035 0.883667430607237 0
243 -0.5658568627028524 -0.3045074652735723 0
244 -0.3045074652735678 0.5658568627028526 0
245 0.5695013774183855 -0.2935919945805367 0
246 0.5658568627029433 0.3045074652736025 0
247 -0.8713875467466949 0.1856251990218581 0
248 0.1856251990218619 0.8713875467466925 0
249 0.1856251990201976 -0.8713875467471528 0
250 0.8521487543235109 0.1993554251092415 0
251 -0.184422946276737 -0.8729996039363435 0
252 0.8523918287113406 -0.194688951051793 0
253 -0.8523918287116952 -0.1946889510503825 0
254 -0.1946889510503834 0.8523918287116952 0
255 -0.3899843291672083 -0.8739520835796291 0
256 0.8646944519557541 -0.4162469674410528 0
257 -0.8795499811304103 -0.3995209714057469 0
258 -0.3995209714057442 0.8795499811304123 0
259 -0.8760893960125938 0.3938876181164799 0
260 0.3938876181164837 0.8760893960125975 0
261 0.3938876181140779 -0.8760893960129464 0
262 0.8795241883289336 0.399488910945646 0
263 -0.5749694616572367 -0.4754610014539489 0
264 -0.4754610014539161 0.5749694616571903 0
265 0.5749694616573005 0.4754610014538835 0
266 0.2573872613611328 -0.5697655677960244 0
267 -0.2575721704918237 -0.5712336293730651 0
268 -0.5697655677955119 0.2573872613621354 0
269 0.2573872613622007 0.5697655677955262 0
270 -0.5155783870024055 -0.6854951696661304 0
271 -0.6854951696659186 0.5155783870024944 0
272 0.5155783870024159 0.685495169665939 0
273 0.7418011944228937 -0.01063554803925235 0
274 -0.0005545254658037797 -0.7505888927521703 0
275 -0.000371941251985268 0.7484164778415001 0
276 -0.748416477841499 -0.0003719412519849836 0
277 -0.4788824881371672 0.04730836082796906 0
278 0.04730836082797651 0.4788824881371649 0
279 0.5539141415829419 -0.4481565083123089 0
280 -0.8909639560594684 -0.5133263785025004 0
281 -0.5133263785024474 0.890963956059512 0
282 0.5133263785028847 -0.8909639560599089 0
283 0.8909639560599525 0.5133263785028315 0
284 -0.5180064268140312 -0.8897913120946608 0
285 0.8951999452173736 -0.5112043527701923 0
286 -0.8897913120947096 0.5180064268141022 0
287 0.5180064268140602 0.8897913120947447 0
288 -0.7735785030059249 -0.1949376332794534 0
289 -0.1949376332794545 0.773578503005925 0
290 -0.2023379332886168 -0.7899302615147965 0
291 0.7735785030055935 -0.1949376332804556 0
292 0.2027696928070914 -0.7841447716923351 0
293 0.7762822006910095 0.1973854297768873 0
294 -0.7841447716919685 0.2027696928083413 0
295 0.2027696928083402 0.7841447716919672 0
296 -0.7205112757679578 -0.327255476827234 0
297 -0.3272554768272347 0.7205112757679568 0
298 0.7146231656743598 -0.3272647540952046 0
299 0.7205657668091028 0.3273326933864624 0
300 -0.06842396930758045 -0.4821816135328485 0
301 -0.678100788342034 -0.4741371462542285 0
302 -0.474137146254255 0.6781007883419841 0
303 0.6781007883421962 0.4741371462541771 0
304 0.7481357554902907 -0.5525349523485072 0
305 -0.7476905774095295 -0.6496780683074298 0
306 -0.6496780683073475 0.7476905774096192 0
307 0.6510615460634649 -0.7474752636925801 0
308 0.7476905774096239 0.6496780683074203 0
309 -0.2798172268191152 -0.3846213778725338 0
310 -0.384751678783773 0.2797421118883793 0
311 0.2797421118884104 0.3847516787837767 0
312 0.2797421118875179 -0.384751678784474 0
313 -0.9039594607180771 -0.09207203798646456 0
314 -0.09207203798646589 0.9039594607180771 0
315 -0.08964802724937394 -0.9160531733026924 0
316 0.9039594607180054 -0.09207203798767827 0
317 -0.3502194333166878 -0.6166081609390016 0
318 -0.6163759055421463 0.3502176333606149 0
319 0.350217633360666 0.6163759055421542 0
320 0.3410777821244053 -0.6060882680877449 0
321 0.0840792084166848 0.9005484252547661 0
322 -0.9005484252547675 0.08407920841668338 0
323 0.07966779502408572 -0.8989248484550911 0
324 0.8995111960833797 0.0838576644992632 0
325 -0.6871787338104995 -0.07154857731617584 0
326 -0.0715485773161762 0.6871787338105002 0
327 0.7041422795004972 -0.07522131815944469 0
328 0.7039129771052893 0.0657811069802037 0
329 0.1465251737853822 -0.4573114795692702 0
330 0.1479894959829178 0.4626987451046336 0
331 -0.4626987451046269 0.1479894959828984 0
332 0.4435753377389544 0.1665602871606371 0
333 -0.4491816319055956 -0.1746995940941339 0
334 -0.1746995940941339 0.4491816319055955 0
335 0.4543221442564283 -0.1587944085875021 0
336 -0.05616824687580155 -0.5610548131982585 0
337 -0.922127673458085 0.6407779900042888 0
338 0.641296583836691 -0.921332973397945 0
339 -0.6407779900045946 -0.9221276734577626 0
340 -0.9213329733975555 -0.6412965838369239 0
341 0.6407779900042117 0.9221276734581009 0
342 0.9213329733979587 0.641296583836602 0
343 0.9220539131074426 -0.6402955674540821 0
344 -0.641296583836835 0.9213329733975689 0
345 -0.5485442516027179 -0.7870156572262346 0
346 -0.7870156572261275 0.5485442516028781 0
347 0.5485442516028048 0.7870156572261426 0
348 -0.5825623506748533 0.05550538649303935 0
349 0.05550538649303904 0.5825623506748533 0
350 -0.1467825762089835 -0.456851922467893 0
351 -0.4181423406387541 -0.4384762028776478 0
352 -0.4384762028776351 0.4181423406387059 0
353 0.4000102091579755 -0.4468388565944769 0
354 0.4181423406388125 0.4384762028776038 0
355 0.5225045233257413 -0.636375303755605 0
356 -0.1773976488097361 -0.6182588378695348 0
357 0.2459701977524341 -0.9331787426626171 0
358 0.9303026306141426 0.2497443140236467 0
359 -0.933178742662425 0.2459701977536855 0
360 0.2459701977536889 0.9331787426624244 0
361 0.07748382694990566 -0.6102507697175373 0
362 -0.9304502908325629 -0.2488670222918608 0
363 -0.2488670222918614 0.930450290832563 0
364 -0.2456751726998948 -0.9335640357914677 0
365 0.9304502908323966 -0.2488670222930858 0
366 0.172032984408578 -0.6149297383489521 0
367 -0.6204403945459116 0.1729303108339283 0
368 0.172930310833933 0.6204403945459146 0
369 -0.6044330605116344 -0.2058394825142587 0
370 -0.2058394825142588 0.6044330605116346 0
371 0.6046108611931341 0.2079649892735246 0
372 0.6045632578819072 -0.2083053047067823 0
373 -0.6637611703657573 -0.7783182339241632 0
374 0.7758707044526199 -0.6682824369523078 0
375 -0.7783182339241301 0.6637611703658495 0
376 0.6637611703657034 0.7783182339241415 0
377 -0.2778341807906803 -0.7511878536829968 0
378 -0.750836945105537 0.2772833021694537 0
379 0.2772833021694514 0.7508369451055406 0
380 0.2787818768906367 -0.7495985465044611 0
381 -0.7879953794024452 -0.5338660059836724 0
382 -0.5338660059836554 0.7879953794024208 0
383 0.5321428745863398 -0.7866600443747374 0
384 0.7879953794023531 0.5338660059836796 0
385 -0.3778224448844896 -0.7838558397778512 0
386 -0.7840917849841126 0.3782834338061007 0
387 0.3782834338061011 0.7840917849841169 0
388 0.3721069809647783 -0.7957057250630389 0
389 0.7816942427784082 -0.3599216354527411 0
390 -0.798624259943244 -0.3722444232067756 0
391 -0.3722444232067756 0.7986242599432435 0
392 0.7986308215543741 0.3722679849252344 0
393 -0.5010923782317798 -0.5746254027153546 0
394 -0.5746254027151723 0.5010923782318141 0
395 0.5010923782318127 0.5746254027151947 0
396 -0.410554992389832 -0.5439234372099848 0
397 0.4082827841316156 -0.5427878358964695 0
398 -0.5439036876013277 0.4105548393323408 0
399 0.4105548393324556 0.5439036876013141 0
400 0.5856712712830587 -0.0579199867744109 0
401 -0.6520642895550078 -0.6270495553774238 0
402 -0.6270495553773734 0.6520642895550651 0
403 0.6248864790597303 -0.653480774924406 0
404 0.652064289555002 0.627049555377349 0
405 -0.9189301816863942 -0.8013801141432894 0
406 -0.8013801141431491 0.9189301816864176 0
407 -0.7979415302612888 -0.9163022644269468 0
408 0.8013801141433692 -0.9189301816863884 0
409 0.9163022644269754 -0.7979415302611226 0
410 0.9189301816864117 0.8013801141432286 0
411 -0.9163022644269477 0.7979415302615576 0
412 0.7979415302613906 0.9163022644269757 0
413 -0.9125935827769429 -0.9127286938807019 0
414 0.9127286938806358 -0.9125935827768845 0
415 -0.9127286938806511 0.9125935827769097 0
416 0.9125935827768512 0.912728693880585 0
417 0.7018264662998122 0.1605296981535733 0
418 0.07317352943754944 -0.4616668362134184 0
419 0.4685460819086147 -0.6986548113552813 0
420 -0.1543143856213452 0.7011304306614727 0
421 -0.7011304306614723 -0.1543143856213447 0
422 0.702495794210333 -0.1551473135056999 0
423 -0.4221955999307353 -0.6976278516046079 0
424 -0.6976268782099821 0.4222247986458815 0
425 0.4222247986458703 0.6976268782099971 0
426 -0.1180362291664686 0.5618923373352005 0
427 -0.5618923373352003 -0.1180362291664684 0
428 0.5572409484815748 0.1168037573998113 0
429 -0.832187715277115 -0.7824882169997354 0
430 -0.7824882169996215 0.8321877152771942 0
431 0.7824882169997989 -0.8321877152770351 0
432 0.8321877152771142 0.7824882169996847 0
433 -0.9345892947453107 0.3448438108950908 0
434 0.3448438108950996 0.9345892947453122 0
435 0.3448438108927364 -0.9345892947447193 0
436 0.9345892947447195 0.344843810892737 0
437 -0.3453419804176675 -0.9350264659011425 0
438 0.9318993463158445 -0.3511298018534912 0
439 -0.935026465900537 -0.345341980415301 0
440 -0.3453419804153017 0.9350264659005376 0
441 -0.3683382903371284 -0.2958674234698886 0
442 -0.2958674234698883 0.3683382903371286 0
443 0.3683382903370914 0.2958674234699283 0
444 0.3683382903360382 -0.2958674234713218 0
445 0.5020491586150714 -0.2562096475769581 0
446 -0.4997893892098951 -0.2591766946458842 0
447 -0.2591766946458836 0.4997893892098951 0
448 0.4988735135382346 0.2586888483345079 0
449 0.4687513846080589 -0.005772204300900153 0
450 -0.5712662098029621 -0.391905992393443 0
451 -0.3919059923934195 0.5712662098029631 0
452 0.5712662098029693 0.3919059923934511 0
453 0.5041443755822366 -0.5627750013294263 0
454 0.5733532877202726 -0.3592615798154448 0
455 0.6534375395197647 -0.5689081342670717 0
456 -0.6438062698762601 -0.3060009091589378 0
457 -0.306000909158937 0.6438062698762597 0
458 0.6465969717248015 -0.3048005546036471 0
459 0.6438294556282464 0.3061018340004107 0
460 -0.4552018922033835 -0.04175818159512541 0
461 -0.04175818159512442 0.4552018922033831 0
462 -0.7178184572347049 -0.3985420709610335 0
463 0.7166856440683512 -0.3992567420844588 0
464 -0.3985420709610341 0.7178184572347044 0
465 0.7178184572345175 0.3985420709610471 0
466 -0.42807852783692 -0.3299468348339055 0
467 -0.329946834833905 0.4280785278369058 0
468 0.4322691254358503 -0.3442686484144399 0
469 0.4279258818916665 0.3298655271153355 0
470 -0.5995136030957529 -0.05166909990903538 0
471 -0.05166909990903543 0.5995136030957531 0
472 0.592225157567676 0.05375735356828306 0
473 -0.9337915657594223 -0.4477818796511454 0
474 -0.4477818796511093 0.9337915657594518 0
475 -0.4411365940954913 -0.9279298413447098 0
476 0.9387012037724254 -0.4447214022925123 0
477 0.4409848168453888 -0.9282718395876842 0
478 0.9352761550771183 0.4495645661429989 0
479 -0.9312538644559857 0.4451304884442723 0
480 0.4451304884442467 0.9312538644560093 0
481 0.8189985301533798 -0.5096871606121808 0
482 0.4629902742228579 0.08665124764052094 0
483 -0.6398174219058463 -0.5381881760614859 0
484 -0.5381881760615442 0.6398174219058637 0
485 0.63981742190585 0.5381881760613823 0
486 0.5517021428977142 -0.1191103579155038 0
487 -0.8059956877103157 -0.7008112457464236 0
488 0.7008112457466262 -0.8059956877103752 0
489 -0.7008112457463203 0.805995687710388 0
490 0.8059956877104477 0.7008112457465218 0
491 -0.5107556397480671 -0.4396792059129886 0
492 -0.4396792059129609 0.5107556397480303 0
493 0.5107556397481747 0.4396792059128765 0
494 0.04459104178496248 -0.6956580309065876 0
495 -0.6956580309065563 0.04459104178607985 0
496 0.04459104178607907 0.6956580309065572 0
497 -0.04445447736958277 -0.6960680235996759 0
498 -0.5784934933493616 -0.643514882753506 0
499 -0.6435148827534288 0.5784934933494691 0
500 0.5784934933493633 0.6435148827534047 0
501 -0.09724016285348774 -0.6198003134947722 0
502 -0.939713120062948 -0.1627232602963906 0
503 -0.1627232602963913 0.939713120062948 0
504 -0.1561750671338065 -0.9452045442711074 0
505 0.9397131200625906 -0.1627232602973669 0
506 0.190278306361215 -0.5296240921944285 0
507 -0.1928761491827891 -0.5318156650054897 0
508 0.1981186707605503 0.5325699821039924 0
509 -0.5325699821039644 0.1981186707605109 0
510 0.3139941384216256 -0.3230033572454125 0
511 -0.3140091614086991 -0.3229772970621331 0
512 -0.323003357244383 0.3139941384225448 0
513 0.313994138422552 0.323003357244396 0
514 0.1529304990363496 -0.94544767129614 0
515 0.9389797033733305 0.1626883431000192 0
516 -0.9454476712951985 0.1529304990379398 0
517 0.1529304990379425 0.9454476712951952 0
518 -0.9309037403219984 -0.5736111089530448 0
519 -0.5736111089529979 0.9309037403220209 0
520 -0.5713945333935188 -0.9337719150082554 0
521 0.9337719150082995 -0.5713945333934539 0
522 0.5736111089520968 -0.930903740322173 0
523 0.9309037403221954 0.5736111089520499 0
524 -0.933771915007811 0.5713945333938136 0
525 0.5713945333937487 0.9337719150078561 0
526 0.7770141307446881 -0.2689374536779976 0
527 -0.7771673580948566 -0.2691280672047405 0
528 -0.2691280672047414 0.7771673580948566 0
529 -0.4596322492426065 -0.8408125333320791 0
530 -0.8411585780811215 0.4601399127646308 0
531 0.4601399127646267 0.8411585780811217 0
532 -0.842469731107619 -0.4552932280556027 0
533 -0.4552932280555886 0.8424697311076222 0
534 0.4533733240320358 -0.8415728515863476 0
535 0.8426441785037169 0.4555044408832517 0
536 -0.79145385276559 -0.8386595582700977 0
537 0.8386458083787471 -0.7913639229095923 0
538 -0.8386595582700496 0.7914538527657067 0
539 0.7914538527655779 0.8386595582700928 0
540 0.02279044126321864 -0.8170422542343589 0
541 0.8099967963359903 0.02655919665030842 0
542 -0.8168347566519409 0.02440467232741086 0
543 0.0244046723274109 0.8168347566519413 0
544 0.4699235033624364 -0.4245679948941797 0
545 -0.6852820837664393 -0.7044440369459096 0
546 0.7036257825128441 -0.6898460267088707 0
547 -0.7044440369458438 0.6852820837665274 0
548 0.685282083766444 0.7044440369458658 0
549 0.7774787332591397 0.2699992687715793 0
550 0.1835069804769361 -0.7116038840666451 0
551 -0.7112814020343425 0.1803454594383521 0
552 0.1803454594383533 0.711281402034342 0
553 -0.1845915250413547 -0.7153937330346157 0
554 -0.4842034539499046 -0.1061423392904396 0
555 -0.1061423392904395 0.4842034539499045 0
556 0.3317897302922509 -0.4342342133386834 0
557 -0.3378224108465922 -0.43277368372312 0
558 0.3378224108465469 0.4327736837232159 0
559 -0.4327736837232665 0.3378224108464361 0
560 0.5520530155475992 -0.007189936453612319 0
561 0.594820142948306 -0.5213999192427294 0
$EndNodes
$Elements
1098
1 15 2 1 1 1
2 15 2 2 2 2
3 15 2 3 3 3
4 15 2 4 4 4
5 1 2 101 9 1 9
6 1 2 101 9 9 10
7 1 2 101 9 10 11
8 1 2 101 9 11 12
9 1 2 101 9 12 13
10 1 2 101 9 13 14
11 1 2 101 9 14 15
12 1 2 101 9 15 16
13 1 2 101 9 16 17
14 1 2 101 9 17 18
15 1 2 101 9 18 19
16 1 2 101 9 19 20
17 1 2 101 9 20 21
18 1 2 101 9 21 22
19 1 2 101 9 22 23
20 1 2 101 9 23 24
21 1 2 101 9 24 25
22 1 2 101 9 25 26
23 1 2 101 9 26 27
24 1 2 101 9 27 2
25 1 2 102 10 2 28
26 1 2 102 10 28 29
27 1 2 102 10 29 30
28 1 2 102 10 30 31
29 1 2 102 10 31 32
30 1 2 102 10 32 33
31 1 2 102 10 33 34
32 1 2 102 10 34 35
33 1 2 102 10 35 36
34 1 2 102 10 36 37
35 1 2 102 10 37 38
36 1 2 102 10 38 39
37 1 2 102 10 39 40
38 1 2 102 10 40 41
39 1 2 102 10 41 42
40 1 2 102 10 42 43
41 1 2 102 10 43 44
42 1 2 102 10 44 45
43 1 2 102 10 45 46
44 1 2 102 10 46 3
45 1 2 103 11 4 47
46 1 2 103 11 47 48
47 1 2 103 11 48 49
48 1 2 103 11 49 50
49 1 2 103 11 50 51
50 1 2 103 11 51 52
51 1 2 103 11 52 53
52 1 2 103 11 53 54
53 1 2 103 11 54 55
54 1 2 103 11 55 56
55 1 2 103 11 56 57
56 1 2 103 11 57 58
57 1 2 103 11 58 59
58 1 2 103 11 59 60
59 1 2 103 11 60 61
60 1 2 103 11 61 62
61 1 2 103 11 62 63
62 1 2 103 11 63 64
63 1 2 103 11 64 65
64 1 2 103 11 65 3
65 1 2 104 12 1 66
66 1 2 104 12 66 67
67 1 2 104 12 67 68
68 1 2 104 12 68 69
69 1 2 104 12 69 70
70 1 2 104 12 70 71
71 1 2 104 12 71 72
72 1 2 104 12 72 73
73 1 2 104 12 73 74
74 1 2 104 12 74 75
75 1 2 104 12 75 76
76 1 2 104 12 76 77
77 1 2 104 12 77 78
78 1 2 104 12 78 79
79 1 2 104 12 79 80
80 1 2 104 12 80 81
81 1 2 104 12 81 82
82 1 2 104 12 82 83
83 1 2 104 12 83 84
84 1 2 104 12 84 4
85 2 2 1000 21 549 250 293
86 2 2 1000 21 527 253 288
87 2 2 1000 21 528 254 289
88 2 2 1000 21 526 291 252
89 2 2 1000 21 98 441 209
90 2 2 1000 21 92 442 210
91 2 2 1000 21 86 443 211
92 2 2 1000 21 107 212 444
93 2 2 1000 21 168 250 549
94 2 2 1000 21 225 368 349
95 2 2 1000 21 224 367 348
96 2 2 1000 21 163 253 527
97 2 2 1000 21 164 254 528
98 2 2 1000 21 162 526 252
99 2 2 1000 21 196 393 263
100 2 2 1000 21 198 394 264
101 2 2 1000 21 199 395 265
102 2 2 1000 21 142 266 219
103 2 2 1000 21 141 220 267
104 2 2 1000 21 143 222 268
105 2 2 1000 21 144 221 269
106 2 2 1000 21 56 321 242
107 2 2 1000 21 75 322 241
108 2 2 1000 21 18 239 323
109 2 2 1000 21 37 240 324
110 2 2 1000 21 104 312 219
111 2 2 1000 21 101 220 309
112 2 2 1000 21 89 221 311
113 2 2 1000 21 95 222 310
114 2 2 1000 21 37 316 240
115 2 2 1000 21 18 315 239
116 2 2 1000 21 56 242 314
117 2 2 1000 21 75 241 313
118 2 2 1000 21 109 263 393
119 2 2 1000 21 110 264 394
120 2 2 1000 21 112 265 395
121 2 2 1000 21 8 208 300
122 2 2 1000 21 98 209 333
123 2 2 1000 21 92 210 334
124 2 2 1000 21 86 211 332
125 2 2 1000 21 107 335 212
126 2 2 1000 21 200 345 373
127 2 2 1000 21 202 346 375
128 2 2 1000 21 203 347 376
129 2 2 1000 21 108 449 217
130 2 2 1000 21 106 107 444
131 2 2 1000 21 86 87 443
132 2 2 1000 21 98 99 441
133 2 2 1000 21 92 93 442
134 2 2 1000 21 123 327 216
135 2 2 1000 21 172 373 345
136 2 2 1000 21 175 375 346
137 2 2 1000 21 176 376 347
138 2 2 1000 21 121 470 325
139 2 2 1000 21 124 471 326
140 2 2 1000 21 213 325 470
141 2 2 1000 21 214 326 471
142 2 2 1000 21 149 553 218
143 2 2 1000 21 108 217 335
144 2 2 1000 21 157 208 418
145 2 2 1000 21 159 348 367
146 2 2 1000 21 160 349 368
147 2 2 1000 21 82 411 231
148 2 2 1000 21 25 230 408
149 2 2 1000 21 63 412 233
150 2 2 1000 21 11 407 227
151 2 2 1000 21 44 232 410
152 2 2 1000 21 68 226 405
153 2 2 1000 21 30 409 229
154 2 2 1000 21 49 228 406
155 2 2 1000 21 104 219 329
156 2 2 1000 21 89 330 221
157 2 2 1000 21 95 331 222
158 2 2 1000 21 193 348 277
159 2 2 1000 21 194 349 278
160 2 2 1000 21 118 235 317
161 2 2 1000 21 120 236 318
162 2 2 1000 21 119 237 319
163 2 2 1000 21 115 320 238
164 2 2 1000 21 183 234 279
165 2 2 1000 21 66 405 413
166 2 2 1000 21 47 406 415
167 2 2 1000 21 9 413 407
168 2 2 1000 21 28 414 409
169 2 2 1000 21 27 408 414
170 2 2 1000 21 46 410 416
171 2 2 1000 21 84 415 411
172 2 2 1000 21 65 416 412
173 2 2 1000 21 8 418 208
174 2 2 1000 21 56 57 321
175 2 2 1000 21 75 76 322
176 2 2 1000 21 18 323 19
177 2 2 1000 21 37 324 38
178 2 2 1000 21 150 223 550
179 2 2 1000 21 148 552 225
180 2 2 1000 21 146 551 224
181 2 2 1000 21 161 290 251
182 2 2 1000 21 149 218 497
183 2 2 1000 21 165 294 247
184 2 2 1000 21 166 295 248
185 2 2 1000 21 167 249 292
186 2 2 1000 21 325 421 145
187 2 2 1000 21 326 420 147
188 2 2 1000 21 327 151 422
189 2 2 1000 21 123 216 400
190 2 2 1000 21 36 316 37
191 2 2 1000 21 17 315 18
192 2 2 1000 21 55 56 314
193 2 2 1000 21 74 75 313
194 2 2 1000 21 193 470 348
195 2 2 1000 21 194 471 349
196 2 2 1000 21 123 472 328
197 2 2 1000 21 157 361 208
198 2 2 1000 21 131 301 381
199 2 2 1000 21 132 302 382
200 2 2 1000 21 136 303 384
201 2 2 1000 21 145 421 288
202 2 2 1000 21 147 420 289
203 2 2 1000 21 151 291 422
204 2 2 1000 21 209 446 333
205 2 2 1000 21 210 447 334
206 2 2 1000 21 212 335 445
207 2 2 1000 21 211 448 332
208 2 2 1000 21 204 381 301
209 2 2 1000 21 205 382 302
210 2 2 1000 21 207 384 303
211 2 2 1000 21 225 349 496
212 2 2 1000 21 224 348 495
213 2 2 1000 21 142 219 556
214 2 2 1000 21 141 557 220
215 2 2 1000 21 143 559 222
216 2 2 1000 21 144 558 221
217 2 2 1000 21 215 328 472
218 2 2 1000 21 5 449 108
219 2 2 1000 21 138 467 352
220 2 2 1000 21 137 466 351
221 2 2 1000 21 140 469 354
222 2 2 1000 21 197 279 453
223 2 2 1000 21 122 208 361
224 2 2 1000 21 150 494 223
225 2 2 1000 21 146 224 495
226 2 2 1000 21 148 225 496
227 2 2 1000 21 201 304 374
228 2 2 1000 21 142 320 266
229 2 2 1000 21 141 267 317
230 2 2 1000 21 143 268 318
231 2 2 1000 21 144 269 319
232 2 2 1000 21 118 317 267
233 2 2 1000 21 120 318 268
234 2 2 1000 21 119 319 269
235 2 2 1000 21 115 266 320
236 2 2 1000 21 174 374 304
237 2 2 1000 21 149 290 553
238 2 2 1000 21 279 561 453
239 2 2 1000 21 204 305 381
240 2 2 1000 21 205 306 382
241 2 2 1000 21 206 307 383
242 2 2 1000 21 207 308 384
243 2 2 1000 21 47 48 406
244 2 2 1000 21 66 67 405
245 2 2 1000 21 28 409 29
246 2 2 1000 21 9 407 10
247 2 2 1000 21 45 410 46
248 2 2 1000 21 26 408 27
249 2 2 1000 21 64 65 412
250 2 2 1000 21 83 84 411
251 2 2 1000 21 138 352 492
252 2 2 1000 21 137 351 491
253 2 2 1000 21 140 354 493
254 2 2 1000 21 130 256 481
255 2 2 1000 21 150 292 249
256 2 2 1000 21 152 293 250
257 2 2 1000 21 146 247 294
258 2 2 1000 21 148 248 295
259 2 2 1000 21 145 288 253
260 2 2 1000 21 147 289 254
261 2 2 1000 21 149 251 290
262 2 2 1000 21 151 252 291
263 2 2 1000 21 169 381 305
264 2 2 1000 21 170 382 306
265 2 2 1000 21 171 383 307
266 2 2 1000 21 173 384 308
267 2 2 1000 21 101 350 220
268 2 2 1000 21 125 373 227
269 2 2 1000 21 126 375 231
270 2 2 1000 21 127 374 229
271 2 2 1000 21 128 376 233
272 2 2 1000 21 6 277 96
273 2 2 1000 21 7 278 90
274 2 2 1000 21 172 227 373
275 2 2 1000 21 174 229 374
276 2 2 1000 21 175 231 375
277 2 2 1000 21 176 233 376
278 2 2 1000 21 219 312 556
279 2 2 1000 21 220 557 309
280 2 2 1000 21 221 558 311
281 2 2 1000 21 222 559 310
282 2 2 1000 21 122 336 208
283 2 2 1000 21 152 417 293
284 2 2 1000 21 153 333 446
285 2 2 1000 21 154 334 447
286 2 2 1000 21 155 332 448
287 2 2 1000 21 156 445 335
288 2 2 1000 21 137 243 446
289 2 2 1000 21 138 244 447
290 2 2 1000 21 139 445 245
291 2 2 1000 21 140 246 448
292 2 2 1000 21 147 242 543
293 2 2 1000 21 145 241 542
294 2 2 1000 21 151 541 240
295 2 2 1000 21 149 540 239
296 2 2 1000 21 150 550 292
297 2 2 1000 21 148 295 552
298 2 2 1000 21 146 294 551
299 2 2 1000 21 104 105 312
300 2 2 1000 21 100 101 309
301 2 2 1000 21 94 95 310
302 2 2 1000 21 88 89 311
303 2 2 1000 21 121 325 276
304 2 2 1000 21 124 326 275
305 2 2 1000 21 123 273 327
306 2 2 1000 21 137 446 466
307 2 2 1000 21 138 447 467
308 2 2 1000 21 139 468 445
309 2 2 1000 21 140 448 469
310 2 2 1000 21 149 497 274
311 2 2 1000 21 152 328 417
312 2 2 1000 21 256 285 481
313 2 2 1000 21 82 83 411
314 2 2 1000 21 63 64 412
315 2 2 1000 21 25 408 26
316 2 2 1000 21 44 410 45
317 2 2 1000 21 10 407 11
318 2 2 1000 21 29 409 30
319 2 2 1000 21 67 68 405
320 2 2 1000 21 48 49 406
321 2 2 1000 21 124 496 349
322 2 2 1000 21 121 495 348
323 2 2 1000 21 217 486 335
324 2 2 1000 21 200 270 345
325 2 2 1000 21 202 271 346
326 2 2 1000 21 203 272 347
327 2 2 1000 21 123 328 273
328 2 2 1000 21 125 227 536
329 2 2 1000 21 126 231 538
330 2 2 1000 21 127 229 537
331 2 2 1000 21 128 233 539
332 2 2 1000 21 68 340 226
333 2 2 1000 21 49 344 228
334 2 2 1000 21 11 227 339
335 2 2 1000 21 30 229 343
336 2 2 1000 21 25 338 230
337 2 2 1000 21 44 342 232
338 2 2 1000 21 82 231 337
339 2 2 1000 21 63 233 341
340 2 2 1000 21 177 270 393
341 2 2 1000 21 178 271 394
342 2 2 1000 21 180 272 395
343 2 2 1000 21 169 487 226
344 2 2 1000 21 171 488 230
345 2 2 1000 21 170 489 228
346 2 2 1000 21 173 490 232
347 2 2 1000 21 423 177 317
348 2 2 1000 21 424 178 318
349 2 2 1000 21 425 180 319
350 2 2 1000 21 172 345 284
351 2 2 1000 21 175 346 286
352 2 2 1000 21 176 347 287
353 2 2 1000 21 150 274 494
354 2 2 1000 21 146 495 276
355 2 2 1000 21 148 496 275
356 2 2 1000 21 183 463 234
357 2 2 1000 21 169 226 340
358 2 2 1000 21 172 339 227
359 2 2 1000 21 170 228 344
360 2 2 1000 21 174 343 229
361 2 2 1000 21 171 230 338
362 2 2 1000 21 175 337 231
363 2 2 1000 21 173 232 342
364 2 2 1000 21 176 341 233
365 2 2 1000 21 235 423 317
366 2 2 1000 21 236 424 318
367 2 2 1000 21 237 425 319
368 2 2 1000 21 155 428 482
369 2 2 1000 21 179 419 238
370 2 2 1000 21 130 304 234
371 2 2 1000 21 147 543 275
372 2 2 1000 21 145 542 276
373 2 2 1000 21 151 273 541
374 2 2 1000 21 149 274 540
375 2 2 1000 21 155 482 332
376 2 2 1000 21 270 498 393
377 2 2 1000 21 271 499 394
378 2 2 1000 21 272 500 395
379 2 2 1000 21 130 234 463
380 2 2 1000 21 135 238 419
381 2 2 1000 21 206 383 419
382 2 2 1000 21 179 238 320
383 2 2 1000 21 142 397 320
384 2 2 1000 21 141 317 396
385 2 2 1000 21 143 318 398
386 2 2 1000 21 144 319 399
387 2 2 1000 21 145 313 241
388 2 2 1000 21 147 314 242
389 2 2 1000 21 149 239 315
390 2 2 1000 21 151 240 316
391 2 2 1000 21 90 278 330
392 2 2 1000 21 96 277 331
393 2 2 1000 21 146 322 247
394 2 2 1000 21 148 321 248
395 2 2 1000 21 150 249 323
396 2 2 1000 21 152 250 324
397 2 2 1000 21 243 450 456
398 2 2 1000 21 244 451 457
399 2 2 1000 21 246 452 459
400 2 2 1000 21 137 450 243
401 2 2 1000 21 138 451 244
402 2 2 1000 21 140 452 246
403 2 2 1000 21 8 300 102
404 2 2 1000 21 161 437 255
405 2 2 1000 21 162 438 256
406 2 2 1000 21 163 257 439
407 2 2 1000 21 164 258 440
408 2 2 1000 21 151 316 252
409 2 2 1000 21 149 315 251
410 2 2 1000 21 145 253 313
411 2 2 1000 21 147 254 314
412 2 2 1000 21 165 433 259
413 2 2 1000 21 166 434 260
414 2 2 1000 21 167 261 435
415 2 2 1000 21 168 262 436
416 2 2 1000 21 157 418 329
417 2 2 1000 21 181 263 301
418 2 2 1000 21 182 264 302
419 2 2 1000 21 184 265 303
420 2 2 1000 21 156 335 486
421 2 2 1000 21 6 460 277
422 2 2 1000 21 7 461 278
423 2 2 1000 21 209 466 446
424 2 2 1000 21 212 445 468
425 2 2 1000 21 210 467 447
426 2 2 1000 21 211 469 448
427 2 2 1000 21 181 456 450
428 2 2 1000 21 182 457 451
429 2 2 1000 21 184 459 452
430 2 2 1000 21 118 377 235
431 2 2 1000 21 120 378 236
432 2 2 1000 21 119 379 237
433 2 2 1000 21 115 238 380
434 2 2 1000 21 193 277 460
435 2 2 1000 21 194 278 461
436 2 2 1000 21 139 245 454
437 2 2 1000 21 103 104 329
438 2 2 1000 21 95 96 331
439 2 2 1000 21 89 90 330
440 2 2 1000 21 135 419 383
441 2 2 1000 21 161 255 385
442 2 2 1000 21 165 259 386
443 2 2 1000 21 166 260 387
444 2 2 1000 21 167 388 261
445 2 2 1000 21 284 345 529
446 2 2 1000 21 286 346 530
447 2 2 1000 21 287 347 531
448 2 2 1000 21 219 266 506
449 2 2 1000 21 222 509 268
450 2 2 1000 21 221 508 269
451 2 2 1000 21 220 507 267
452 2 2 1000 21 135 388 238
453 2 2 1000 21 118 267 356
454 2 2 1000 21 165 247 359
455 2 2 1000 21 166 248 360
456 2 2 1000 21 167 357 249
457 2 2 1000 21 168 358 250
458 2 2 1000 21 35 365 505
459 2 2 1000 21 16 364 504
460 2 2 1000 21 73 502 362
461 2 2 1000 21 54 503 363
462 2 2 1000 21 196 263 491
463 2 2 1000 21 198 264 492
464 2 2 1000 21 199 265 493
465 2 2 1000 21 251 504 364
466 2 2 1000 21 252 505 365
467 2 2 1000 21 253 362 502
468 2 2 1000 21 254 363 503
469 2 2 1000 21 161 251 364
470 2 2 1000 21 162 252 365
471 2 2 1000 21 163 362 253
472 2 2 1000 21 164 363 254
473 2 2 1000 21 115 366 266
474 2 2 1000 21 119 269 368
475 2 2 1000 21 120 268 367
476 2 2 1000 21 130 389 256
477 2 2 1000 21 162 256 389
478 2 2 1000 21 163 390 257
479 2 2 1000 21 164 391 258
480 2 2 1000 21 168 392 262
481 2 2 1000 21 110 394 499
482 2 2 1000 21 109 393 498
483 2 2 1000 21 112 395 500
484 2 2 1000 21 160 330 278
485 2 2 1000 21 159 331 277
486 2 2 1000 21 185 413 405
487 2 2 1000 21 187 415 406
488 2 2 1000 21 185 407 413
489 2 2 1000 21 186 414 408
490 2 2 1000 21 186 409 414
491 2 2 1000 21 188 416 410
492 2 2 1000 21 187 411 415
493 2 2 1000 21 188 412 416
494 2 2 1000 21 273 328 541
495 2 2 1000 21 58 360 517
496 2 2 1000 21 77 359 516
497 2 2 1000 21 20 514 357
498 2 2 1000 21 39 515 358
499 2 2 1000 21 541 328 152
500 2 2 1000 21 145 276 325
501 2 2 1000 21 147 275 326
502 2 2 1000 21 151 327 273
503 2 2 1000 21 243 456 369
504 2 2 1000 21 244 457 370
505 2 2 1000 21 245 372 458
506 2 2 1000 21 246 459 371
507 2 2 1000 21 248 517 360
508 2 2 1000 21 247 516 359
509 2 2 1000 21 249 357 514
510 2 2 1000 21 250 358 515
511 2 2 1000 21 156 372 445
512 2 2 1000 21 153 446 369
513 2 2 1000 21 154 447 370
514 2 2 1000 21 155 448 371
515 2 2 1000 21 169 280 381
516 2 2 1000 21 170 281 382
517 2 2 1000 21 171 282 383
518 2 2 1000 21 173 283 384
519 2 2 1000 21 121 348 470
520 2 2 1000 21 124 349 471
521 2 2 1000 21 245 445 372
522 2 2 1000 21 243 369 446
523 2 2 1000 21 244 370 447
524 2 2 1000 21 246 371 448
525 2 2 1000 21 161 377 290
526 2 2 1000 21 113 369 456
527 2 2 1000 21 114 370 457
528 2 2 1000 21 117 458 372
529 2 2 1000 21 116 371 459
530 2 2 1000 21 353 468 544
531 2 2 1000 21 1 413 9
532 2 2 1000 21 1 66 413
533 2 2 1000 21 2 414 28
534 2 2 1000 21 4 47 415
535 2 2 1000 21 2 27 414
536 2 2 1000 21 4 415 84
537 2 2 1000 21 3 46 416
538 2 2 1000 21 3 416 65
539 2 2 1000 21 190 351 466
540 2 2 1000 21 191 352 467
541 2 2 1000 21 192 354 469
542 2 2 1000 21 189 468 353
543 2 2 1000 21 5 85 482
544 2 2 1000 21 124 275 496
545 2 2 1000 21 121 276 495
546 2 2 1000 21 5 482 449
547 2 2 1000 21 200 498 270
548 2 2 1000 21 202 499 271
549 2 2 1000 21 203 500 272
550 2 2 1000 21 165 378 294
551 2 2 1000 21 166 379 295
552 2 2 1000 21 167 292 380
553 2 2 1000 21 181 450 263
554 2 2 1000 21 182 451 264
555 2 2 1000 21 184 452 265
556 2 2 1000 21 109 483 263
557 2 2 1000 21 110 484 264
558 2 2 1000 21 112 485 265
559 2 2 1000 21 150 540 274
560 2 2 1000 21 148 275 543
561 2 2 1000 21 146 276 542
562 2 2 1000 21 129 345 270
563 2 2 1000 21 133 346 271
564 2 2 1000 21 134 347 272
565 2 2 1000 21 177 423 270
566 2 2 1000 21 178 424 271
567 2 2 1000 21 180 425 272
568 2 2 1000 21 139 279 544
569 2 2 1000 21 129 270 423
570 2 2 1000 21 133 271 424
571 2 2 1000 21 134 272 425
572 2 2 1000 21 197 544 279
573 2 2 1000 21 183 279 454
574 2 2 1000 21 159 277 348
575 2 2 1000 21 160 278 349
576 2 2 1000 21 150 323 540
577 2 2 1000 21 152 324 541
578 2 2 1000 21 146 542 322
579 2 2 1000 21 148 543 321
580 2 2 1000 21 169 518 280
581 2 2 1000 21 170 519 281
582 2 2 1000 21 172 284 520
583 2 2 1000 21 171 522 282
584 2 2 1000 21 174 285 521
585 2 2 1000 21 173 523 283
586 2 2 1000 21 175 286 524
587 2 2 1000 21 176 287 525
588 2 2 1000 21 139 454 279
589 2 2 1000 21 158 350 300
590 2 2 1000 21 198 492 352
591 2 2 1000 21 196 491 351
592 2 2 1000 21 199 493 354
593 2 2 1000 21 122 497 501
594 2 2 1000 21 91 334 555
595 2 2 1000 21 97 333 554
596 2 2 1000 21 91 555 461
597 2 2 1000 21 97 554 460
598 2 2 1000 21 239 540 323
599 2 2 1000 21 240 541 324
600 2 2 1000 21 241 322 542
601 2 2 1000 21 242 321 543
602 2 2 1000 21 298 526 389
603 2 2 1000 21 296 390 527
604 2 2 1000 21 297 391 528
605 2 2 1000 21 161 364 437
606 2 2 1000 21 162 365 438
607 2 2 1000 21 163 439 362
608 2 2 1000 21 164 440 363
609 2 2 1000 21 34 365 35
610 2 2 1000 21 15 364 16
611 2 2 1000 21 72 73 362
612 2 2 1000 21 53 54 363
613 2 2 1000 21 235 385 423
614 2 2 1000 21 236 386 424
615 2 2 1000 21 237 387 425
616 2 2 1000 21 234 561 279
617 2 2 1000 21 58 59 360
618 2 2 1000 21 77 78 359
619 2 2 1000 21 20 357 21
620 2 2 1000 21 39 358 40
621 2 2 1000 21 204 401 305
622 2 2 1000 21 205 402 306
623 2 2 1000 21 206 403 307
624 2 2 1000 21 207 404 308
625 2 2 1000 21 551 378 120
626 2 2 1000 21 552 379 119
627 2 2 1000 21 550 115 380
628 2 2 1000 21 165 359 433
629 2 2 1000 21 166 360 434
630 2 2 1000 21 167 435 357
631 2 2 1000 21 168 436 358
632 2 2 1000 21 526 162 389
633 2 2 1000 21 527 390 163
634 2 2 1000 21 528 391 164
635 2 2 1000 21 377 118 553
636 2 2 1000 21 299 392 549
637 2 2 1000 21 101 102 350
638 2 2 1000 21 129 423 385
639 2 2 1000 21 133 424 386
640 2 2 1000 21 134 425 387
641 2 2 1000 21 158 507 350
642 2 2 1000 21 294 378 551
643 2 2 1000 21 295 379 552
644 2 2 1000 21 292 550 380
645 2 2 1000 21 549 392 168
646 2 2 1000 21 174 481 285
647 2 2 1000 21 290 377 553
648 2 2 1000 21 208 336 300
649 2 2 1000 21 158 300 336
650 2 2 1000 21 113 527 288
651 2 2 1000 21 114 528 289
652 2 2 1000 21 117 291 526
653 2 2 1000 21 122 501 336
654 2 2 1000 21 116 549 293
655 2 2 1000 21 305 401 545
656 2 2 1000 21 306 402 547
657 2 2 1000 21 307 403 546
658 2 2 1000 21 308 404 548
659 2 2 1000 21 68 69 340
660 2 2 1000 21 49 50 344
661 2 2 1000 21 11 339 12
662 2 2 1000 21 30 343 31
663 2 2 1000 21 24 338 25
664 2 2 1000 21 43 342 44
665 2 2 1000 21 81 82 337
666 2 2 1000 21 62 63 341
667 2 2 1000 21 179 397 453
668 2 2 1000 21 267 507 356
669 2 2 1000 21 259 530 386
670 2 2 1000 21 260 531 387
671 2 2 1000 21 255 529 385
672 2 2 1000 21 261 388 534
673 2 2 1000 21 113 288 421
674 2 2 1000 21 114 289 420
675 2 2 1000 21 117 422 291
676 2 2 1000 21 111 403 355
677 2 2 1000 21 70 280 518
678 2 2 1000 21 23 282 522
679 2 2 1000 21 51 281 519
680 2 2 1000 21 42 283 523
681 2 2 1000 21 13 520 284
682 2 2 1000 21 80 524 286
683 2 2 1000 21 32 521 285
684 2 2 1000 21 61 525 287
685 2 2 1000 21 116 293 417
686 2 2 1000 21 116 299 549
687 2 2 1000 21 113 296 527
688 2 2 1000 21 114 297 528
689 2 2 1000 21 117 526 298
690 2 2 1000 21 215 371 417
691 2 2 1000 21 206 355 403
692 2 2 1000 21 116 417 371
693 2 2 1000 21 113 456 296
694 2 2 1000 21 114 457 297
695 2 2 1000 21 117 298 458
696 2 2 1000 21 116 459 299
697 2 2 1000 21 111 453 561
698 2 2 1000 21 181 296 456
699 2 2 1000 21 182 297 457
700 2 2 1000 21 183 458 298
701 2 2 1000 21 184 299 459
702 2 2 1000 21 266 366 506
703 2 2 1000 21 269 508 368
704 2 2 1000 21 268 509 367
705 2 2 1000 21 256 476 285
706 2 2 1000 21 206 419 355
707 2 2 1000 21 85 86 332
708 2 2 1000 21 91 92 334
709 2 2 1000 21 97 98 333
710 2 2 1000 21 107 108 335
711 2 2 1000 21 22 435 477
712 2 2 1000 21 41 436 478
713 2 2 1000 21 79 479 433
714 2 2 1000 21 60 480 434
715 2 2 1000 21 195 482 428
716 2 2 1000 21 141 396 351
717 2 2 1000 21 143 398 352
718 2 2 1000 21 144 399 354
719 2 2 1000 21 142 353 397
720 2 2 1000 21 133 386 530
721 2 2 1000 21 134 387 531
722 2 2 1000 21 129 385 529
723 2 2 1000 21 135 534 388
724 2 2 1000 21 179 320 397
725 2 2 1000 21 177 396 317
726 2 2 1000 21 178 398 318
727 2 2 1000 21 180 399 319
728 2 2 1000 21 174 304 481
729 2 2 1000 21 70 473 280
730 2 2 1000 21 51 474 281
731 2 2 1000 21 23 477 282
732 2 2 1000 21 42 478 283
733 2 2 1000 21 13 284 475
734 2 2 1000 21 32 285 476
735 2 2 1000 21 80 286 479
736 2 2 1000 21 61 287 480
737 2 2 1000 21 102 300 350
738 2 2 1000 21 71 439 473
739 2 2 1000 21 52 440 474
740 2 2 1000 21 14 475 437
741 2 2 1000 21 33 476 438
742 2 2 1000 21 214 370 420
743 2 2 1000 21 213 369 421
744 2 2 1000 21 216 422 372
745 2 2 1000 21 261 477 435
746 2 2 1000 21 262 478 436
747 2 2 1000 21 259 433 479
748 2 2 1000 21 260 434 480
749 2 2 1000 21 234 304 455
750 2 2 1000 21 196 351 396
751 2 2 1000 21 198 352 398
752 2 2 1000 21 199 354 399
753 2 2 1000 21 197 397 353
754 2 2 1000 21 114 420 370
755 2 2 1000 21 113 421 369
756 2 2 1000 21 117 372 422
757 2 2 1000 21 157 366 361
758 2 2 1000 21 201 455 304
759 2 2 1000 21 257 473 439
760 2 2 1000 21 258 474 440
761 2 2 1000 21 255 437 475
762 2 2 1000 21 256 438 476
763 2 2 1000 21 220 350 507
764 2 2 1000 21 169 340 518
765 2 2 1000 21 170 344 519
766 2 2 1000 21 172 520 339
767 2 2 1000 21 174 521 343
768 2 2 1000 21 171 338 522
769 2 2 1000 21 173 342 523
770 2 2 1000 21 175 524 337
771 2 2 1000 21 176 525 341
772 2 2 1000 21 263 483 301
773 2 2 1000 21 264 484 302
774 2 2 1000 21 265 485 303
775 2 2 1000 21 223 361 366
776 2 2 1000 21 181 462 296
777 2 2 1000 21 182 464 297
778 2 2 1000 21 183 298 463
779 2 2 1000 21 184 465 299
780 2 2 1000 21 197 453 397
781 2 2 1000 21 169 305 487
782 2 2 1000 21 170 306 489
783 2 2 1000 21 171 307 488
784 2 2 1000 21 173 308 490
785 2 2 1000 21 123 560 472
786 2 2 1000 21 216 372 486
787 2 2 1000 21 280 532 381
788 2 2 1000 21 281 533 382
789 2 2 1000 21 282 534 383
790 2 2 1000 21 283 535 384
791 2 2 1000 21 8 103 418
792 2 2 1000 21 132 464 302
793 2 2 1000 21 131 462 301
794 2 2 1000 21 136 465 303
795 2 2 1000 21 219 506 329
796 2 2 1000 21 221 330 508
797 2 2 1000 21 222 331 509
798 2 2 1000 21 129 529 345
799 2 2 1000 21 133 530 346
800 2 2 1000 21 134 531 347
801 2 2 1000 21 123 400 560
802 2 2 1000 21 157 329 506
803 2 2 1000 21 160 508 330
804 2 2 1000 21 159 509 331
805 2 2 1000 21 153 369 427
806 2 2 1000 21 154 370 426
807 2 2 1000 21 155 371 428
808 2 2 1000 21 235 377 385
809 2 2 1000 21 238 388 380
810 2 2 1000 21 236 378 386
811 2 2 1000 21 237 379 387
812 2 2 1000 21 156 486 372
813 2 2 1000 21 196 396 393
814 2 2 1000 21 198 398 394
815 2 2 1000 21 199 399 395
816 2 2 1000 21 158 356 507
817 2 2 1000 21 200 545 401
818 2 2 1000 21 202 547 402
819 2 2 1000 21 201 546 403
820 2 2 1000 21 203 548 404
821 2 2 1000 21 213 427 369
822 2 2 1000 21 214 426 370
823 2 2 1000 21 215 428 371
824 2 2 1000 21 181 301 462
825 2 2 1000 21 182 302 464
826 2 2 1000 21 184 303 465
827 2 2 1000 21 177 393 396
828 2 2 1000 21 178 394 398
829 2 2 1000 21 180 395 399
830 2 2 1000 21 80 81 524
831 2 2 1000 21 61 62 525
832 2 2 1000 21 23 522 24
833 2 2 1000 21 42 523 43
834 2 2 1000 21 12 520 13
835 2 2 1000 21 31 521 32
836 2 2 1000 21 69 70 518
837 2 2 1000 21 50 51 519
838 2 2 1000 21 161 385 377
839 2 2 1000 21 167 380 388
840 2 2 1000 21 165 386 378
841 2 2 1000 21 166 387 379
842 2 2 1000 21 157 506 366
843 2 2 1000 21 159 367 509
844 2 2 1000 21 160 368 508
845 2 2 1000 21 105 106 510
846 2 2 1000 21 87 88 513
847 2 2 1000 21 99 100 511
848 2 2 1000 21 93 94 512
849 2 2 1000 21 179 453 355
850 2 2 1000 21 21 435 22
851 2 2 1000 21 40 436 41
852 2 2 1000 21 78 79 433
853 2 2 1000 21 59 60 434
854 2 2 1000 21 71 72 439
855 2 2 1000 21 52 53 440
856 2 2 1000 21 14 437 15
857 2 2 1000 21 33 438 34
858 2 2 1000 21 122 361 494
859 2 2 1000 21 223 494 361
860 2 2 1000 21 218 501 497
861 2 2 1000 21 257 390 532
862 2 2 1000 21 258 391 533
863 2 2 1000 21 262 392 535
864 2 2 1000 21 139 544 468
865 2 2 1000 21 131 532 390
866 2 2 1000 21 132 533 391
867 2 2 1000 21 136 535 392
868 2 2 1000 21 215 417 328
869 2 2 1000 21 204 301 483
870 2 2 1000 21 205 302 484
871 2 2 1000 21 207 303 485
872 2 2 1000 21 79 80 479
873 2 2 1000 21 60 61 480
874 2 2 1000 21 22 477 23
875 2 2 1000 21 41 478 42
876 2 2 1000 21 13 475 14
877 2 2 1000 21 32 476 33
878 2 2 1000 21 70 71 473
879 2 2 1000 21 51 52 474
880 2 2 1000 21 130 481 304
881 2 2 1000 21 214 420 326
882 2 2 1000 21 213 421 325
883 2 2 1000 21 216 327 422
884 2 2 1000 21 125 487 305
885 2 2 1000 21 126 489 306
886 2 2 1000 21 127 488 307
887 2 2 1000 21 128 490 308
888 2 2 1000 21 100 309 511
889 2 2 1000 21 94 310 512
890 2 2 1000 21 88 311 513
891 2 2 1000 21 105 510 312
892 2 2 1000 21 6 97 460
893 2 2 1000 21 7 91 461
894 2 2 1000 21 125 305 545
895 2 2 1000 21 126 306 547
896 2 2 1000 21 127 307 546
897 2 2 1000 21 128 308 548
898 2 2 1000 21 103 329 418
899 2 2 1000 21 190 511 309
900 2 2 1000 21 191 512 310
901 2 2 1000 21 192 513 311
902 2 2 1000 21 189 312 510
903 2 2 1000 21 195 449 482
904 2 2 1000 21 57 58 517
905 2 2 1000 21 76 77 516
906 2 2 1000 21 19 514 20
907 2 2 1000 21 38 515 39
908 2 2 1000 21 35 505 36
909 2 2 1000 21 16 504 17
910 2 2 1000 21 73 74 502
911 2 2 1000 21 54 55 503
912 2 2 1000 21 245 458 454
913 2 2 1000 21 125 536 429
914 2 2 1000 21 126 538 430
915 2 2 1000 21 127 537 431
916 2 2 1000 21 128 539 432
917 2 2 1000 21 190 309 557
918 2 2 1000 21 191 310 559
919 2 2 1000 21 192 311 558
920 2 2 1000 21 189 556 312
921 2 2 1000 21 183 454 458
922 2 2 1000 21 252 316 505
923 2 2 1000 21 251 315 504
924 2 2 1000 21 253 502 313
925 2 2 1000 21 254 503 314
926 2 2 1000 21 255 475 529
927 2 2 1000 21 258 533 474
928 2 2 1000 21 257 532 473
929 2 2 1000 21 260 480 531
930 2 2 1000 21 259 479 530
931 2 2 1000 21 262 535 478
932 2 2 1000 21 261 534 477
933 2 2 1000 21 284 529 475
934 2 2 1000 21 281 474 533
935 2 2 1000 21 280 473 532
936 2 2 1000 21 287 531 480
937 2 2 1000 21 286 530 479
938 2 2 1000 21 283 478 535
939 2 2 1000 21 282 477 534
940 2 2 1000 21 296 462 390
941 2 2 1000 21 297 464 391
942 2 2 1000 21 298 389 463
943 2 2 1000 21 299 465 392
944 2 2 1000 21 115 550 366
945 2 2 1000 21 120 367 551
946 2 2 1000 21 119 368 552
947 2 2 1000 21 223 366 550
948 2 2 1000 21 224 551 367
949 2 2 1000 21 225 552 368
950 2 2 1000 21 131 390 462
951 2 2 1000 21 132 391 464
952 2 2 1000 21 130 463 389
953 2 2 1000 21 136 392 465
954 2 2 1000 21 226 429 405
955 2 2 1000 21 228 430 406
956 2 2 1000 21 230 431 408
957 2 2 1000 21 232 432 410
958 2 2 1000 21 185 405 429
959 2 2 1000 21 187 406 430
960 2 2 1000 21 186 408 431
961 2 2 1000 21 188 410 432
962 2 2 1000 21 118 356 553
963 2 2 1000 21 218 553 356
964 2 2 1000 21 179 355 419
965 2 2 1000 21 36 505 316
966 2 2 1000 21 17 504 315
967 2 2 1000 21 55 314 503
968 2 2 1000 21 74 313 502
969 2 2 1000 21 131 381 532
970 2 2 1000 21 132 382 533
971 2 2 1000 21 135 383 534
972 2 2 1000 21 136 384 535
973 2 2 1000 21 158 336 501
974 2 2 1000 21 153 554 333
975 2 2 1000 21 154 555 334
976 2 2 1000 21 57 517 321
977 2 2 1000 21 76 516 322
978 2 2 1000 21 19 323 514
979 2 2 1000 21 38 324 515
980 2 2 1000 21 248 321 517
981 2 2 1000 21 247 322 516
982 2 2 1000 21 249 514 323
983 2 2 1000 21 250 515 324
984 2 2 1000 21 85 332 482
985 2 2 1000 21 111 455 403
986 2 2 1000 21 201 403 455
987 2 2 1000 21 111 355 453
988 2 2 1000 21 158 501 356
989 2 2 1000 21 78 433 359
990 2 2 1000 21 59 434 360
991 2 2 1000 21 21 357 435
992 2 2 1000 21 40 358 436
993 2 2 1000 21 122 494 497
994 2 2 1000 21 15 437 364
995 2 2 1000 21 34 438 365
996 2 2 1000 21 72 362 439
997 2 2 1000 21 53 363 440
998 2 2 1000 21 109 401 483
999 2 2 1000 21 110 402 484
1000 2 2 1000 21 112 404 485
1001 2 2 1000 21 106 444 510
1002 2 2 1000 21 87 513 443
1003 2 2 1000 21 99 511 441
1004 2 2 1000 21 93 512 442
1005 2 2 1000 21 204 483 401
1006 2 2 1000 21 205 484 402
1007 2 2 1000 21 207 485 404
1008 2 2 1000 21 274 497 494
1009 2 2 1000 21 125 429 487
1010 2 2 1000 21 126 430 489
1011 2 2 1000 21 127 431 488
1012 2 2 1000 21 128 432 490
1013 2 2 1000 21 216 486 400
1014 2 2 1000 21 226 487 429
1015 2 2 1000 21 228 489 430
1016 2 2 1000 21 230 488 431
1017 2 2 1000 21 232 490 432
1018 2 2 1000 21 209 441 466
1019 2 2 1000 21 210 442 467
1020 2 2 1000 21 212 468 444
1021 2 2 1000 21 211 443 469
1022 2 2 1000 21 189 444 468
1023 2 2 1000 21 190 466 441
1024 2 2 1000 21 191 467 442
1025 2 2 1000 21 192 469 443
1026 2 2 1000 21 69 518 340
1027 2 2 1000 21 50 519 344
1028 2 2 1000 21 12 339 520
1029 2 2 1000 21 31 343 521
1030 2 2 1000 21 24 522 338
1031 2 2 1000 21 43 523 342
1032 2 2 1000 21 81 337 524
1033 2 2 1000 21 62 341 525
1034 2 2 1000 21 190 557 351
1035 2 2 1000 21 191 559 352
1036 2 2 1000 21 192 558 354
1037 2 2 1000 21 189 353 556
1038 2 2 1000 21 215 472 428
1039 2 2 1000 21 214 471 426
1040 2 2 1000 21 213 470 427
1041 2 2 1000 21 218 356 501
1042 2 2 1000 21 195 472 560
1043 2 2 1000 21 200 373 545
1044 2 2 1000 21 201 374 546
1045 2 2 1000 21 202 375 547
1046 2 2 1000 21 203 376 548
1047 2 2 1000 21 217 400 486
1048 2 2 1000 21 153 427 554
1049 2 2 1000 21 154 426 555
1050 2 2 1000 21 141 351 557
1051 2 2 1000 21 142 556 353
1052 2 2 1000 21 143 352 559
1053 2 2 1000 21 144 354 558
1054 2 2 1000 21 197 353 544
1055 2 2 1000 21 125 545 373
1056 2 2 1000 21 126 547 375
1057 2 2 1000 21 127 546 374
1058 2 2 1000 21 128 548 376
1059 2 2 1000 21 137 491 450
1060 2 2 1000 21 138 492 451
1061 2 2 1000 21 140 493 452
1062 2 2 1000 21 111 561 455
1063 2 2 1000 21 109 498 401
1064 2 2 1000 21 110 499 402
1065 2 2 1000 21 112 500 404
1066 2 2 1000 21 234 455 561
1067 2 2 1000 21 263 450 491
1068 2 2 1000 21 264 451 492
1069 2 2 1000 21 265 452 493
1070 2 2 1000 21 193 427 470
1071 2 2 1000 21 194 426 471
1072 2 2 1000 21 195 428 472
1073 2 2 1000 21 200 401 498
1074 2 2 1000 21 202 402 499
1075 2 2 1000 21 203 404 500
1076 2 2 1000 21 217 560 400
1077 2 2 1000 21 194 461 555
1078 2 2 1000 21 193 460 554
1079 2 2 1000 21 185 536 407
1080 2 2 1000 21 186 537 409
1081 2 2 1000 21 187 538 411
1082 2 2 1000 21 188 539 412
1083 2 2 1000 21 227 407 536
1084 2 2 1000 21 229 409 537
1085 2 2 1000 21 231 411 538
1086 2 2 1000 21 233 412 539
1087 2 2 1000 21 217 449 560
1088 2 2 1000 21 195 560 449
1089 2 2 1000 21 189 510 444
1090 2 2 1000 21 190 441 511
1091 2 2 1000 21 191 442 512
1092 2 2 1000 21 192 443 513
1093 2 2 1000 21 185 429 536
1094 2 2 1000 21 186 431 537
1095 2 2 1000 21 187 430 538
1096 2 2 1000 21 188 432 539
1097 2 2 1000 21 194 555 426
1098 2 2 1000 21 193 554 427
$EndElements
