$MeshFormat
2.2 0 8
$EndMeshFormat
$Nodes
25
1 -1 -1 0
2 -1 1 0
3 1 1 0
4 1 -1 0
5 -0.5000000000013867 -1 0
6 -2.750244476601438e-12 -1 0
7 0.499999999998614 -1 0
8 1 -0.5000000000013867 0
9 1 -2.750244476601438e-12 0
10 1 0.499999999998614 0
11 0.5000000000013867 1 0
12 2.750244476601438e-12 1 0
13 -0.499999999998614 1 0
14 -1 0.5000000000013867 0
15 -1 2.750244476601438e-12 0
16 -1 -0.499999999998614 0
17 -0.5000000000006934 -0.499999999999307 0
18 -0.5000000000000002 1.375122238300719e-12 0
19 -0.4999999999993072 0.5000000000006934 0
20 -1.375122238304532e-12 -0.5000000000000002 0
21 -7.564178960885304e-24 0 0
22 1.375122238296907e-12 0.5000000000000003 0
23 0.4999999999993072 -0.5000000000006934 0
24 0.5000000000000004 -1.375122238300719e-12 0
25 0.5000000000006934 0.4999999999993072 0
$EndNodes
$Elements
52
1 15 2 1 1 1
2 15 2 4 2 2
3 15 2 3 3 3
4 15 2 2 4 4
5 1 2 101 1 1 5
6 1 2 101 1 5 6
7 1 2 101 1 6 7
8 1 2 101 1 7 4
9 1 2 102 2 4 8
10 1 2 102 2 8 9
11 1 2 102 2 9 10
12 1 2 102 2 10 3
13 1 2 103 3 3 11
14 1 2 103 3 11 12
15 1 2 103 3 12 13
16 1 2 103 3 13 2
17 1 2 104 4 2 14
18 1 2 104 4 14 15
19 1 2 104 4 15 16
20 1 2 104 4 16 1
21 2 2 1000 9 1 5 16
22 2 2 1000 9 16 5 17
23 2 2 1000 9 16 17 15
24 2 2 1000 9 15 17 18
25 2 2 1000 9 15 18 14
26 2 2 1000 9 14 18 19
27 2 2 1000 9 14 19 2
28 2 2 1000 9 2 19 13
29 2 2 1000 9 5 6 17
30 2 2 1000 9 17 6 20
31 2 2 1000 9 17 20 18
32 2 2 1000 9 18 20 21
33 2 2 1000 9 18 21 19
34 2 2 1000 9 19 21 22
35 2 2 1000 9 19 22 13
36 2 2 1000 9 13 22 12
37 2 2 1000 9 6 7 20
38 2 2 1000 9 20 7 23
39 2 2 1000 9 20 23 21
40 2 2 1000 9 21 23 24
41 2 2 1000 9 21 24 22
42 2 2 1000 9 22 24 25
43 2 2 1000 9 22 25 12
44 2 2 1000 9 12 25 11
45 2 2 1000 9 7 4 23
46 2 2 1000 9 23 4 8
47 2 2 1000 9 23 8 24
48 2 2 1000 9 24 8 9
49 2 2 1000 9 24 9 25
50 2 2 1000 9 25 9 10
51 2 2 1000 9 25 10 11
52 2 2 1000 9 11 10 3
$EndElements
