$MeshFormat
2.2 0 8
$EndMeshFormat
$Nodes
25
1 -1 -1 0
2 1 -1 0
3 1 1 0
4 -1 1 0
5 1 0 0
6 -1 0 0
7 0.5000000000013871 0 0
8 2.752797989558076e-12 0 0
9 -0.4999999999986129 0 0
10 -0.5000000000013871 -1 0
11 -2.752797989558076e-12 -1 0
12 0.4999999999986129 -1 0
13 1 -0.5000000000020591 0
14 0.5000000000013871 1 0
15 2.752797989558076e-12 1 0
16 -0.4999999999986129 1 0
17 -1 -0.499999999998694 0
18 1 0.499999999998694 0
19 -1 0.5000000000020591 0
20 -0.5 -0.4999999999995351 0
21 2.775556427905399e-17 -0.5000000000003767 0
22 0.5000000000000001 -0.5000000000012178 0
23 -0.4999999999986128 0.5000000000012179 0
24 2.752825745133691e-12 0.5000000000003766 0
25 0.500000000001387 0.4999999999995352 0
$EndNodes
$Elements
52
1 15 2 1 1 1
2 15 2 2 2 2
3 15 2 3 3 3
4 15 2 4 4 4
5 1 2 101 9 1 10
6 1 2 101 9 10 11
7 1 2 101 9 11 12
8 1 2 101 9 12 2
9 1 2 102 10 2 13
10 1 2 102 10 13 5
11 1 2 103 11 3 14
12 1 2 103 11 14 15
13 1 2 103 11 15 16
14 1 2 103 11 16 4
15 1 2 104 12 6 17
16 1 2 104 12 17 1
17 1 2 102 20 5 18
18 1 2 102 20 18 3
19 1 2 104 22 4 19
20 1 2 104 22 19 6
21 2 2 1000 21 1 10 17
22 2 2 1000 21 17 10 20
23 2 2 1000 21 17 20 6
24 2 2 1000 21 6 20 9
25 2 2 1000 21 10 11 20
26 2 2 1000 21 20 11 21
27 2 2 1000 21 20 21 9
28 2 2 1000 21 9 21 8
29 2 2 1000 21 11 12 21
30 2 2 1000 21 21 12 22
31 2 2 1000 21 21 22 8
32 2 2 1000 21 8 22 7
33 2 2 1000 21 12 2 22
34 2 2 1000 21 22 2 13
35 2 2 1000 21 22 13 7
36 2 2 1000 21 7 13 5
37 2 2 2000 22 6 9 19
38 2 2 2000 22 19 9 23
39 2 2 2000 22 19 23 4
40 2 2 2000 22 4 23 16
41 2 2 2000 22 9 8 23
42 2 2 2000 22 23 8 24
43 2 2 2000 22 23 24 16
44 2 2 2000 22 16 24 15
45 2 2 2000 22 8 7 24
46 2 2 2000 22 24 7 25
47 2 2 2000 22 24 25 15
48 2 2 2000 22 15 25 14
49 2 2 2000 22 7 5 25
50 2 2 2000 22 25 5 18
51 2 2 2000 22 25 18 14
52 2 2 2000 22 14 18 3
$EndElements
