$MeshFormat
2.2 0 8
$EndMeshFormat
$Nodes
81
1 -1 -1 0
2 1 -1 0
3 1 1 0
4 -1 1 0
5 1 0 0
6 -1 0 0
7 0.7500000000006933 0 0
8 0.5000000000013871 0 0
9 0.2500000000020808 0 0
10 2.752797989558076e-12 0 0
11 -0.2499999999979192 0 0
12 -0.4999999999986129 0 0
13 -0.7499999999993063 0 0
14 -0.7500000000006933 -1 0
15 -0.5000000000013871 -1 0
16 -0.2500000000020808 -1 0
17 -2.752797989558076e-12 -1 0
18 0.2499999999979192 -1 0
19 0.4999999999986129 -1 0
20 0.7499999999993063 -1 0
21 1 -0.7500000000003465 0
22 1 -0.5000000000020591 0
23 1 -0.2500000000010404 0
24 0.7500000000006933 1 0
25 0.5000000000013871 1 0
26 0.2500000000020808 1 0
27 2.752797989558076e-12 1 0
28 -0.2499999999979192 1 0
29 -0.4999999999986129 1 0
30 -0.7499999999993063 1 0
31 -1 -0.2499999999994121 0
32 -1 -0.499999999998694 0
33 -1 -0.7499999999993416 0
34 1 0.2499999999994121 0
35 1 0.499999999998694 0
36 1 0.7499999999993416 0
37 -1 0.7500000000003465 0
38 -1 0.5000000000020591 0
39 -1 0.2500000000010404 0
40 -0.7500000000003466 -0.7499999999994673 0
41 -0.7499999999999998 -0.4999999999991146 0
42 -0.7499999999996531 -0.2499999999996155 0
43 -0.5000000000006934 -0.7499999999995929 0
44 -0.5 -0.4999999999995351 0
45 -0.4999999999993066 -0.2499999999998191 0
46 -0.2500000000010404 -0.7499999999997183 0
47 -0.25 -0.4999999999999559 0
48 -0.2499999999989596 -0.2500000000000228 0
49 -1.376412872568754e-12 -0.7499999999998439 0
50 2.775556427905399e-17 -0.5000000000003767 0
51 1.37639899477331e-12 -0.2500000000002262 0
52 0.2499999999989596 -0.7499999999999697 0
53 0.25 -0.5000000000007973 0
54 0.2500000000010404 -0.2500000000004298 0
55 0.4999999999993065 -0.7500000000000955 0
56 0.5000000000000001 -0.5000000000012178 0
57 0.5000000000006934 -0.2500000000006333 0
58 0.7499999999996532 -0.750000000000221 0
59 0.7499999999999998 -0.5000000000016384 0
60 0.7500000000003465 -0.2500000000008368 0
61 -0.7499999999993063 0.2500000000008369 0
62 -0.7499999999993066 0.5000000000016385 0
63 -0.7499999999993063 0.7500000000002209 0
64 -0.499999999998613 0.2500000000006333 0
65 -0.4999999999986128 0.5000000000012178 0
66 -0.4999999999986129 0.7500000000000953 0
67 -0.2499999999979192 0.2500000000004297 0
68 -0.2499999999979192 0.5000000000007973 0
69 -0.2499999999979192 0.7499999999999696 0
70 2.752756356194652e-12 0.2500000000002263 0
71 2.752825745133691e-12 0.5000000000003766 0
72 2.752853500709307e-12 0.7499999999998439 0
73 0.2500000000020807 0.2500000000000227 0
74 0.2500000000020808 0.4999999999999559 0
75 0.2500000000020808 0.7499999999997184 0
76 0.5000000000013871 0.2499999999998191 0
77 0.5000000000013871 0.4999999999995352 0
78 0.5000000000013871 0.749999999999593 0
79 0.7500000000006933 0.2499999999996156 0
80 0.7500000000006934 0.4999999999991147 0
81 0.7500000000006931 0.7499999999994673 0
$EndNodes
$Elements
164
1 15 2 1 1 1
2 15 2 2 2 2
3 15 2 3 3 3
4 15 2 4 4 4
5 1 2 101 9 1 14
6 1 2 101 9 14 15
7 1 2 101 9 15 16
8 1 2 101 9 16 17
9 1 2 101 9 17 18
10 1 2 101 9 18 19
11 1 2 101 9 19 20
12 1 2 101 9 20 2
13 1 2 102 10 2 21
14 1 2 102 10 21 22
15 1 2 102 10 22 23
16 1 2 102 10 23 5
17 1 2 103 11 3 24
18 1 2 103 11 24 25
19 1 2 103 11 25 26
20 1 2 103 11 26 27
21 1 2 103 11 27 28
22 1 2 103 11 28 29
23 1 2 103 11 29 30
24 1 2 103 11 30 4
25 1 2 104 12 6 31
26 1 2 104 12 31 32
27 1 2 104 12 32 33
28 1 2 104 12 33 1
29 1 2 102 20 5 34
30 1 2 102 20 34 35
31 1 2 102 20 35 36
32 1 2 102 20 36 3
33 1 2 104 22 4 37
34 1 2 104 22 37 38
35 1 2 104 22 38 39
36 1 2 104 22 39 6
37 2 2 1000 21 1 14 33
38 2 2 1000 21 33 14 40
39 2 2 1000 21 33 40 32
40 2 2 1000 21 32 40 41
41 2 2 1000 21 32 41 31
42 2 2 1000 21 31 41 42
43 2 2 1000 21 31 42 6
44 2 2 1000 21 6 42 13
45 2 2 1000 21 14 15 40
46 2 2 1000 21 40 15 43
47 2 2 1000 21 40 43 41
48 2 2 1000 21 41 43 44
49 2 2 1000 21 41 44 42
50 2 2 1000 21 42 44 45
51 2 2 1000 21 42 45 13
52 2 2 1000 21 13 45 12
53 2 2 1000 21 15 16 43
54 2 2 1000 21 43 16 46
55 2 2 1000 21 43 46 44
56 2 2 1000 21 44 46 47
57 2 2 1000 21 44 47 45
58 2 2 1000 21 45 47 48
59 2 2 1000 21 45 48 12
60 2 2 1000 21 12 48 11
61 2 2 1000 21 16 17 46
62 2 2 1000 21 46 17 49
63 2 2 1000 21 46 49 47
64 2 2 1000 21 47 49 50
65 2 2 1000 21 47 50 48
66 2 2 1000 21 48 50 51
67 2 2 1000 21 48 51 11
68 2 2 1000 21 11 51 10
69 2 2 1000 21 17 18 49
70 2 2 1000 21 49 18 52
71 2 2 1000 21 49 52 50
72 2 2 1000 21 50 52 53
73 2 2 1000 21 50 53 51
74 2 2 1000 21 51 53 54
75 2 2 1000 21 51 54 10
76 2 2 1000 21 10 54 9
77 2 2 1000 21 18 19 52
78 2 2 1000 21 52 19 55
79 2 2 1000 21 52 55 53
80 2 2 1000 21 53 55 56
81 2 2 1000 21 53 56 54
82 2 2 1000 21 54 56 57
83 2 2 1000 21 54 57 9
84 2 2 1000 21 9 57 8
85 2 2 1000 21 19 20 55
86 2 2 1000 21 55 20 58
87 2 2 1000 21 55 58 56
88 2 2 1000 21 56 58 59
89 2 2 1000 21 56 59 57
90 2 2 1000 21 57 59 60
91 2 2 1000 21 57 60 8
92 2 2 1000 21 8 60 7
93 2 2 1000 21 20 2 58
94 2 2 1000 21 58 2 21
95 2 2 1000 21 58 21 59
96 2 2 1000 21 59 21 22
97 2 2 1000 21 59 22 60
98 2 2 1000 21 60 22 23
99 2 2 1000 21 60 23 7
100 2 2 1000 21 7 23 5
101 2 2 2000 22 6 13 39
102 2 2 2000 22 39 13 61
103 2 2 2000 22 39 61 38
104 2 2 2000 22 38 61 62
105 2 2 2000 22 38 62 37
106 2 2 2000 22 37 62 63
107 2 2 2000 22 37 63 4
108 2 2 2000 22 4 63 30
109 2 2 2000 22 13 12 61
110 2 2 2000 22 61 12 64
111 2 2 2000 22 61 64 62
112 2 2 2000 22 62 64 65
113 2 2 2000 22 62 65 63
114 2 2 2000 22 63 65 66
115 2 2 2000 22 63 66 30
116 2 2 2000 22 30 66 29
117 2 2 2000 22 12 11 64
118 2 2 2000 22 64 11 67
119 2 2 2000 22 64 67 65
120 2 2 2000 22 65 67 68
121 2 2 2000 22 65 68 66
122 2 2 2000 22 66 68 69
123 2 2 2000 22 66 69 29
124 2 2 2000 22 29 69 28
125 2 2 2000 22 11 10 67
126 2 2 2000 22 67 10 70
127 2 2 2000 22 67 70 68
128 2 2 2000 22 68 70 71
129 2 2 2000 22 68 71 69
130 2 2 2000 22 69 71 72
131 2 2 2000 22 69 72 28
132 2 2 2000 22 28 72 27
133 2 2 2000 22 10 9 70
134 2 2 2000 22 70 9 73
135 2 2 2000 22 70 73 71
136 2 2 2000 22 71 73 74
137 2 2 2000 22 71 74 72
138 2 2 2000 22 72 74 75
139 2 2 2000 22 72 75 27
140 2 2 2000 22 27 75 26
141 2 2 2000 22 9 8 73
142 2 2 2000 22 73 8 76
143 2 2 2000 22 73 76 74
144 2 2 2000 22 74 76 77
145 2 2 2000 22 74 77 75
146 2 2 2000 22 75 77 78
147 2 2 2000 22 75 78 26
148 2 2 2000 22 26 78 25
149 2 2 2000 22 8 7 76
150 2 2 2000 22 76 7 79
151 2 2 2000 22 76 79 77
152 2 2 2000 22 77 79 80
153 2 2 2000 22 77 80 78
154 2 2 2000 22 78 80 81
155 2 2 2000 22 78 81 25
156 2 2 2000 22 25 81 24
157 2 2 2000 22 7 5 79
158 2 2 2000 22 79 5 34
159 2 2 2000 22 79 34 80
160 2 2 2000 22 80 34 35
161 2 2 2000 22 80 35 81
162 2 2 2000 22 81 35 36
163 2 2 2000 22 81 36 24
164 2 2 2000 22 24 36 3
$EndElements
