$MeshFormat
2.2 0 8
$EndMeshFormat
$Nodes
121
1 -1 -1 0
2 1 -1 0
3 1 1 0
4 -1 1 0
5 1 0 0
6 -1 0 0
7 0.8000000000005548 0 0
8 0.6000000000011096 0 0
9 0.4000000000016644 0 0
10 0.2000000000022192 0 0
11 2.752242878045763e-12 0 0
12 -0.1999999999977808 0 0
13 -0.3999999999983355 0 0
14 -0.5999999999988903 0 0
15 -0.7999999999994454 0 0
16 -0.8000000000005548 -1 0
17 -0.6000000000011096 -1 0
18 -0.4000000000016644 -1 0
19 -0.2000000000022192 -1 0
20 -2.752242878045763e-12 -1 0
21 0.1999999999977808 -1 0
22 0.3999999999983355 -1 0
23 0.5999999999988903 -1 0
24 0.7999999999994454 -1 0
25 1 -0.7999999999999998 0
26 1 -0.6000000000013869 0
27 1 -0.4000000000016644 0
28 1 -0.2000000000008322 0
29 0.8000000000005548 1 0
30 0.6000000000011096 1 0
31 0.4000000000016644 1 0
32 0.2000000000022192 1 0
33 2.752242878045763e-12 1 0
34 -0.1999999999977808 1 0
35 -0.3999999999983355 1 0
36 -0.5999999999988903 1 0
37 -0.7999999999994454 1 0
38 -1 -0.1999999999995579 0
39 -1 -0.3999999999989749 0
40 -1 -0.5999999999989468 0
41 -1 -0.7999999999994734 0
42 1 0.1999999999995579 0
43 1 0.3999999999989749 0
44 1 0.5999999999989468 0
45 1 0.7999999999994734 0
46 -1 0.7999999999999998 0
47 -1 0.6000000000013869 0
48 -1 0.4000000000016644 0
49 -1 0.2000000000008322 0
50 -0.8000000000003329 -0.799999999999526 0
51 -0.8000000000001111 -0.599999999999191 0
52 -0.7999999999998892 -0.3999999999992438 0
53 -0.7999999999996672 -0.1999999999996853 0
54 -0.6000000000006656 -0.7999999999995786 0
55 -0.6000000000002219 -0.5999999999994349 0
56 -0.599999999999778 -0.3999999999995127 0
57 -0.5999999999993342 -0.1999999999998127 0
58 -0.4000000000009987 -0.7999999999996312 0
59 -0.4000000000003329 -0.5999999999996787 0
60 -0.3999999999996671 -0.3999999999997816 0
61 -0.3999999999990013 -0.1999999999999401 0
62 -0.2000000000013316 -0.7999999999996841 0
63 -0.2000000000004438 -0.5999999999999229 0
64 -0.1999999999995561 -0.4000000000000508 0
65 -0.1999999999986686 -0.2000000000000676 0
66 -1.651345726827457e-12 -0.7999999999997365 0
67 -5.504485756167863e-13 -0.6000000000001667 0
68 5.504485755999906e-13 -0.4000000000003197 0
69 1.651345726822877e-12 -0.200000000000195 0
70 0.1999999999986686 -0.7999999999997893 0
71 0.1999999999995562 -0.600000000000411 0
72 0.2000000000004438 -0.4000000000005886 0
73 0.2000000000013316 -0.2000000000003225 0
74 0.3999999999990012 -0.7999999999998417 0
75 0.3999999999996671 -0.6000000000006548 0
76 0.4000000000003328 -0.4000000000008574 0
77 0.4000000000009986 -0.2000000000004499 0
78 0.5999999999993344 -0.7999999999998946 0
79 0.599999999999778 -0.6000000000008988 0
80 0.6000000000002218 -0.4000000000011265 0
81 0.6000000000006658 -0.2000000000005773 0
82 0.7999999999996674 -0.7999999999999472 0
83 0.799999999999889 -0.6000000000011428 0
84 0.8000000000001111 -0.4000000000013955 0
85 0.8000000000003329 -0.2000000000007047 0
86 -0.7999999999994454 0.2000000000007047 0
87 -0.7999999999994454 0.4000000000013954 0
88 -0.7999999999994454 0.6000000000011431 0
89 -0.7999999999994454 0.7999999999999472 0
90 -0.5999999999988903 0.2000000000005773 0
91 -0.5999999999988903 0.4000000000011263 0
92 -0.5999999999988903 0.6000000000008988 0
93 -0.5999999999988903 0.7999999999998946 0
94 -0.3999999999983355 0.2000000000004499 0
95 -0.3999999999983355 0.4000000000008575 0
96 -0.3999999999983355 0.600000000000655 0
97 -0.3999999999983355 0.7999999999998419 0
98 -0.1999999999977809 0.2000000000003225 0
99 -0.1999999999977808 0.4000000000005886 0
100 -0.1999999999977808 0.6000000000004108 0
101 -0.1999999999977809 0.7999999999997893 0
102 2.752242878045763e-12 0.200000000000195 0
103 2.752242878045762e-12 0.4000000000003197 0
104 2.752242878045763e-12 0.600000000000167 0
105 2.752242878045763e-12 0.7999999999997367 0
106 0.2000000000022192 0.2000000000000676 0
107 0.2000000000022192 0.4000000000000506 0
108 0.2000000000022192 0.5999999999999227 0
109 0.2000000000022192 0.7999999999996839 0
110 0.4000000000016644 0.1999999999999401 0
111 0.4000000000016645 0.3999999999997818 0
112 0.4000000000016642 0.5999999999996789 0
113 0.4000000000016644 0.7999999999996312 0
114 0.6000000000011096 0.1999999999998127 0
115 0.6000000000011096 0.3999999999995127 0
116 0.6000000000011095 0.5999999999994347 0
117 0.6000000000011096 0.7999999999995786 0
118 0.8000000000005549 0.1999999999996853 0
119 0.8000000000005547 0.3999999999992439 0
120 0.8000000000005548 0.5999999999991908 0
121 0.8000000000005549 0.799999999999526 0
$EndNodes
$Elements
244
1 15 2 1 1 1
2 15 2 2 2 2
3 15 2 3 3 3
4 15 2 4 4 4
5 1 2 101 9 1 16
6 1 2 101 9 16 17
7 1 2 101 9 17 18
8 1 2 101 9 18 19
9 1 2 101 9 19 20
10 1 2 101 9 20 21
11 1 2 101 9 21 22
12 1 2 101 9 22 23
13 1 2 101 9 23 24
14 1 2 101 9 24 2
15 1 2 102 10 2 25
16 1 2 102 10 25 26
17 1 2 102 10 26 27
18 1 2 102 10 27 28
19 1 2 102 10 28 5
20 1 2 103 11 3 29
21 1 2 103 11 29 30
22 1 2 103 11 30 31
23 1 2 103 11 31 32
24 1 2 103 11 32 33
25 1 2 103 11 33 34
26 1 2 103 11 34 35
27 1 2 103 11 35 36
28 1 2 103 11 36 37
29 1 2 103 11 37 4
30 1 2 104 12 6 38
31 1 2 104 12 38 39
32 1 2 104 12 39 40
33 1 2 104 12 40 41
34 1 2 104 12 41 1
35 1 2 102 20 5 42
36 1 2 102 20 42 43
37 1 2 102 20 43 44
38 1 2 102 20 44 45
39 1 2 102 20 45 3
40 1 2 104 22 4 46
41 1 2 104 22 46 47
42 1 2 104 22 47 48
43 1 2 104 22 48 49
44 1 2 104 22 49 6
45 2 2 1000 21 1 16 41
46 2 2 1000 21 41 16 50
47 2 2 1000 21 41 50 40
48 2 2 1000 21 40 50 51
49 2 2 1000 21 40 51 39
50 2 2 1000 21 39 51 52
51 2 2 1000 21 39 52 38
52 2 2 1000 21 38 52 53
53 2 2 1000 21 38 53 6
54 2 2 1000 21 6 53 15
55 2 2 1000 21 16 17 50
56 2 2 1000 21 50 17 54
57 2 2 1000 21 50 54 51
58 2 2 1000 21 51 54 55
59 2 2 1000 21 51 55 52
60 2 2 1000 21 52 55 56
61 2 2 1000 21 52 56 53
62 2 2 1000 21 53 56 57
63 2 2 1000 21 53 57 15
64 2 2 1000 21 15 57 14
65 2 2 1000 21 17 18 54
66 2 2 1000 21 54 18 58
67 2 2 1000 21 54 58 55
68 2 2 1000 21 55 58 59
69 2 2 1000 21 55 59 56
70 2 2 1000 21 56 59 60
71 2 2 1000 21 56 60 57
72 2 2 1000 21 57 60 61
73 2 2 1000 21 57 61 14
74 2 2 1000 21 14 61 13
75 2 2 1000 21 18 19 58
76 2 2 1000 21 58 19 62
77 2 2 1000 21 58 62 59
78 2 2 1000 21 59 62 63
79 2 2 1000 21 59 63 60
80 2 2 1000 21 60 63 64
81 2 2 1000 21 60 64 61
82 2 2 1000 21 61 64 65
83 2 2 1000 21 61 65 13
84 2 2 1000 21 13 65 12
85 2 2 1000 21 19 20 62
86 2 2 1000 21 62 20 66
87 2 2 1000 21 62 66 63
88 2 2 1000 21 63 66 67
89 2 2 1000 21 63 67 64
90 2 2 1000 21 64 67 68
91 2 2 1000 21 64 68 65
92 2 2 1000 21 65 68 69
93 2 2 1000 21 65 69 12
94 2 2 1000 21 12 69 11
95 2 2 1000 21 20 21 66
96 2 2 1000 21 66 21 70
97 2 2 1000 21 66 70 67
98 2 2 1000 21 67 70 71
99 2 2 1000 21 67 71 68
100 2 2 1000 21 68 71 72
101 2 2 1000 21 68 72 69
102 2 2 1000 21 69 72 73
103 2 2 1000 21 69 73 11
104 2 2 1000 21 11 73 10
105 2 2 1000 21 21 22 70
106 2 2 1000 21 70 22 74
107 2 2 1000 21 70 74 71
108 2 2 1000 21 71 74 75
109 2 2 1000 21 71 75 72
110 2 2 1000 21 72 75 76
111 2 2 1000 21 72 76 73
112 2 2 1000 21 73 76 77
113 2 2 1000 21 73 77 10
114 2 2 1000 21 10 77 9
115 2 2 1000 21 22 23 74
116 2 2 1000 21 74 23 78
117 2 2 1000 21 74 78 75
118 2 2 1000 21 75 78 79
119 2 2 1000 21 75 79 76
120 2 2 1000 21 76 79 80
121 2 2 1000 21 76 80 77
122 2 2 1000 21 77 80 81
123 2 2 1000 21 77 81 9
124 2 2 1000 21 9 81 8
125 2 2 1000 21 23 24 78
126 2 2 1000 21 78 24 82
127 2 2 1000 21 78 82 79
128 2 2 1000 21 79 82 83
129 2 2 1000 21 79 83 80
130 2 2 1000 21 80 83 84
131 2 2 1000 21 80 84 81
132 2 2 1000 21 81 84 85
133 2 2 1000 21 81 85 8
134 2 2 1000 21 8 85 7
135 2 2 1000 21 24 2 82
136 2 2 1000 21 82 2 25
137 2 2 1000 21 82 25 83
138 2 2 1000 21 83 25 26
139 2 2 1000 21 83 26 84
140 2 2 1000 21 84 26 27
141 2 2 1000 21 84 27 85
142 2 2 1000 21 85 27 28
143 2 2 1000 21 85 28 7
144 2 2 1000 21 7 28 5
145 2 2 2000 22 6 15 49
146 2 2 2000 22 49 15 86
147 2 2 2000 22 49 86 48
148 2 2 2000 22 48 86 87
149 2 2 2000 22 48 87 47
150 2 2 2000 22 47 87 88
151 2 2 2000 22 47 88 46
152 2 2 2000 22 46 88 89
153 2 2 2000 22 46 89 4
154 2 2 2000 22 4 89 37
155 2 2 2000 22 15 14 86
156 2 2 2000 22 86 14 90
157 2 2 2000 22 86 90 87
158 2 2 2000 22 87 90 91
159 2 2 2000 22 87 91 88
160 2 2 2000 22 88 91 92
161 2 2 2000 22 88 92 89
162 2 2 2000 22 89 92 93
163 2 2 2000 22 89 93 37
164 2 2 2000 22 37 93 36
165 2 2 2000 22 14 13 90
166 2 2 2000 22 90 13 94
167 2 2 2000 22 90 94 91
168 2 2 2000 22 91 94 95
169 2 2 2000 22 91 95 92
170 2 2 2000 22 92 95 96
171 2 2 2000 22 92 96 93
172 2 2 2000 22 93 96 97
173 2 2 2000 22 93 97 36
174 2 2 2000 22 36 97 35
175 2 2 2000 22 13 12 94
176 2 2 2000 22 94 12 98
177 2 2 2000 22 94 98 95
178 2 2 2000 22 95 98 99
179 2 2 2000 22 95 99 96
180 2 2 2000 22 96 99 100
181 2 2 2000 22 96 100 97
182 2 2 2000 22 97 100 101
183 2 2 2000 22 97 101 35
184 2 2 2000 22 35 101 34
185 2 2 2000 22 12 11 98
186 2 2 2000 22 98 11 102
187 2 2 2000 22 98 102 99
188 2 2 2000 22 99 102 103
189 2 2 2000 22 99 103 100
190 2 2 2000 22 100 103 104
191 2 2 2000 22 100 104 101
192 2 2 2000 22 101 104 105
193 2 2 2000 22 101 105 34
194 2 2 2000 22 34 105 33
195 2 2 2000 22 11 10 102
196 2 2 2000 22 102 10 106
197 2 2 2000 22 102 106 103
198 2 2 2000 22 103 106 107
199 2 2 2000 22 103 107 104
200 2 2 2000 22 104 107 108
201 2 2 2000 22 104 108 105
202 2 2 2000 22 105 108 109
203 2 2 2000 22 105 109 33
204 2 2 2000 22 33 109 32
205 2 2 2000 22 10 9 106
206 2 2 2000 22 106 9 110
207 2 2 2000 22 106 110 107
208 2 2 2000 22 107 110 111
209 2 2 2000 22 107 111 108
210 2 2 2000 22 108 111 112
211 2 2 2000 22 108 112 109
212 2 2 2000 22 109 112 113
213 2 2 2000 22 109 113 32
214 2 2 2000 22 32 113 31
215 2 2 2000 22 9 8 110
216 2 2 2000 22 110 8 114
217 2 2 2000 22 110 114 111
218 2 2 2000 22 111 114 115
219 2 2 2000 22 111 115 112
220 2 2 2000 22 112 115 116
221 2 2 2000 22 112 116 113
222 2 2 2000 22 113 116 117
223 2 2 2000 22 113 117 31
224 2 2 2000 22 31 117 30
225 2 2 2000 22 8 7 114
226 2 2 2000 22 114 7 118
227 2 2 2000 22 114 118 115
228 2 2 2000 22 115 118 119
229 2 2 2000 22 115 119 116
230 2 2 2000 22 116 119 120
231 2 2 2000 22 116 120 117
232 2 2 2000 22 117 120 121
233 2 2 2000 22 117 121 30
234 2 2 2000 22 30 121 29
235 2 2 2000 22 7 5 118
236 2 2 2000 22 118 5 42
237 2 2 2000 22 118 42 119
238 2 2 2000 22 119 42 43
239 2 2 2000 22 119 43 120
240 2 2 2000 22 120 43 44
241 2 2 2000 22 120 44 121
242 2 2 2000 22 121 44 45
243 2 2 2000 22 121 45 29
244 2 2 2000 22 29 45 3
$EndElements
