$MeshFormat
2.2 0 8
$EndMeshFormat
$Nodes
121
1 -1 -1 0
2 -1 1 0
3 1 1 0
4 1 -1 0
5 -0.8000000000005545 -1 0
6 -0.6000000000011093 -1 0
7 -0.4000000000016637 -1 0
8 -0.2000000000022178 -1 0
9 -2.750244476601438e-12 -1 0
10 0.1999999999977826 -1 0
11 0.3999999999983368 -1 0
12 0.5999999999988912 -1 0
13 0.7999999999994456 -1 0
14 1 -0.8000000000005545 0
15 1 -0.6000000000011093 0
16 1 -0.4000000000016637 0
17 1 -0.2000000000022178 0
18 1 -2.750244476601438e-12 0
19 1 0.1999999999977826 0
20 1 0.3999999999983368 0
21 1 0.5999999999988912 0
22 1 0.7999999999994456 0
23 0.8000000000005545 1 0
24 0.6000000000011093 1 0
25 0.4000000000016637 1 0
26 0.2000000000022178 1 0
27 2.750244476601438e-12 1 0
28 -0.1999999999977826 1 0
29 -0.3999999999983368 1 0
30 -0.5999999999988912 1 0
31 -0.7999999999994456 1 0
32 -1 0.8000000000005545 0
33 -1 0.6000000000011093 0
34 -1 0.4000000000016637 0
35 -1 0.2000000000022178 0
36 -1 2.750244476601438e-12 0
37 -1 -0.1999999999977826 0
38 -1 -0.3999999999983368 0
39 -1 -0.5999999999988912 0
40 -1 -0.7999999999994456 0
41 -0.8000000000004437 -0.7999999999995564 0
42 -0.8000000000003328 -0.5999999999991131 0
43 -0.8000000000002219 -0.3999999999986695 0
44 -0.8000000000001111 -0.1999999999982262 0
45 -0.8000000000000003 2.200184479050904e-12 0
46 -0.7999999999998892 0.2000000000017744 0
47 -0.7999999999997782 0.4000000000013309 0
48 -0.7999999999996672 0.6000000000008876 0
49 -0.7999999999995566 0.8000000000004435 0
50 -0.6000000000008877 -0.7999999999996673 0
51 -0.6000000000006658 -0.5999999999993348 0
52 -0.6000000000004437 -0.3999999999990022 0
53 -0.6000000000002221 -0.1999999999986697 0
54 -0.6000000000000003 1.65012448150037e-12 0
55 -0.5999999999997785 0.2000000000013308 0
56 -0.5999999999995567 0.4000000000009982 0
57 -0.5999999999993348 0.6000000000006658 0
58 -0.599999999999113 0.8000000000003328 0
59 -0.400000000001331 -0.7999999999997782 0
60 -0.4000000000009983 -0.5999999999995567 0
61 -0.4000000000006657 -0.3999999999993348 0
62 -0.400000000000333 -0.1999999999991132 0
63 -0.4000000000000004 1.100064483949836e-12 0
64 -0.3999999999996675 0.2000000000008872 0
65 -0.3999999999993349 0.4000000000006656 0
66 -0.3999999999990023 0.6000000000004437 0
67 -0.3999999999986694 0.8000000000002219 0
68 -0.2000000000017743 -0.7999999999998892 0
69 -0.2000000000013308 -0.5999999999997785 0
70 -0.2000000000008873 -0.3999999999996676 0
71 -0.2000000000004438 -0.1999999999995568 0
72 -0.2000000000000002 5.499489752480713e-13 0
73 -0.1999999999995568 0.2000000000004438 0
74 -0.1999999999991132 0.4000000000003329 0
75 -0.1999999999986696 0.6000000000002221 0
76 -0.1999999999982261 0.800000000000111 0
77 -2.20016782570706e-12 -0.8 0
78 -1.650091174812683e-12 -0.6000000000000003 0
79 -1.100153301796382e-12 -0.4000000000000002 0
80 -5.500488953263874e-13 -0.2000000000000002 0
81 -7.564178960885304e-24 0 0
82 5.500488953141897e-13 0.2000000000000002 0
83 1.10004227948477e-12 0.4000000000000002 0
84 1.650202197109044e-12 0.6000000000000003 0
85 2.200251092430857e-12 0.8 0
86 0.1999999999982262 -0.8000000000001111 0
87 0.1999999999986697 -0.6000000000002221 0
88 0.1999999999991132 -0.4000000000003331 0
89 0.1999999999995568 -0.2000000000004438 0
90 0.2000000000000002 -5.500044863993026e-13 0
91 0.2000000000004437 0.1999999999995567 0
92 0.2000000000008873 0.3999999999996675 0
93 0.2000000000013308 0.5999999999997785 0
94 0.2000000000017743 0.7999999999998892 0
95 0.3999999999986695 -0.8000000000002216 0
96 0.3999999999990022 -0.6000000000004441 0
97 0.3999999999993349 -0.4000000000006657 0
98 0.3999999999996675 -0.2000000000008873 0
99 0.4000000000000001 -1.100147750676683e-12 0
100 0.400000000000333 0.1999999999991132 0
101 0.4000000000006657 0.3999999999993349 0
102 0.4000000000009982 0.5999999999995567 0
103 0.4000000000013311 0.7999999999997782 0
104 0.599999999999113 -0.8000000000003327 0
105 0.5999999999993348 -0.6000000000006656 0
106 0.5999999999995564 -0.4000000000009983 0
107 0.5999999999997784 -0.2000000000013308 0
108 0.6000000000000003 -1.650096725924755e-12 0
109 0.6000000000002221 0.1999999999986697 0
110 0.600000000000444 0.3999999999990023 0
111 0.6000000000006658 0.5999999999993348 0
112 0.6000000000008874 0.7999999999996674 0
113 0.7999999999995566 -0.8000000000004437 0
114 0.7999999999996671 -0.6000000000008877 0
115 0.7999999999997782 -0.4000000000013308 0
116 0.7999999999998892 -0.2000000000017743 0
117 0.7999999999999997 -2.200226112414327e-12 0
118 0.8000000000001108 0.1999999999982262 0
119 0.8000000000002219 0.3999999999986694 0
120 0.8000000000003329 0.599999999999113 0
121 0.8000000000004438 0.7999999999995566 0
$EndNodes
$Elements
244
1 15 2 1 1 1
2 15 2 4 2 2
3 15 2 3 3 3
4 15 2 2 4 4
5 1 2 101 1 1 5
6 1 2 101 1 5 6
7 1 2 101 1 6 7
8 1 2 101 1 7 8
9 1 2 101 1 8 9
10 1 2 101 1 9 10
11 1 2 101 1 10 11
12 1 2 101 1 11 12
13 1 2 101 1 12 13
14 1 2 101 1 13 4
15 1 2 102 2 4 14
16 1 2 102 2 14 15
17 1 2 102 2 15 16
18 1 2 102 2 16 17
19 1 2 102 2 17 18
20 1 2 102 2 18 19
21 1 2 102 2 19 20
22 1 2 102 2 20 21
23 1 2 102 2 21 22
24 1 2 102 2 22 3
25 1 2 103 3 3 23
26 1 2 103 3 23 24
27 1 2 103 3 24 25
28 1 2 103 3 25 26
29 1 2 103 3 26 27
30 1 2 103 3 27 28
31 1 2 103 3 28 29
32 1 2 103 3 29 30
33 1 2 103 3 30 31
34 1 2 103 3 31 2
35 1 2 104 4 2 32
36 1 2 104 4 32 33
37 1 2 104 4 33 34
38 1 2 104 4 34 35
39 1 2 104 4 35 36
40 1 2 104 4 36 37
41 1 2 104 4 37 38
42 1 2 104 4 38 39
43 1 2 104 4 39 40
44 1 2 104 4 40 1
45 2 2 1000 9 1 5 40
46 2 2 1000 9 40 5 41
47 2 2 1000 9 40 41 39
48 2 2 1000 9 39 41 42
49 2 2 1000 9 39 42 38
50 2 2 1000 9 38 42 43
51 2 2 1000 9 38 43 37
52 2 2 1000 9 37 43 44
53 2 2 1000 9 37 44 36
54 2 2 1000 9 36 44 45
55 2 2 1000 9 36 45 35
56 2 2 1000 9 35 45 46
57 2 2 1000 9 35 46 34
58 2 2 1000 9 34 46 47
59 2 2 1000 9 34 47 33
60 2 2 1000 9 33 47 48
61 2 2 1000 9 33 48 32
62 2 2 1000 9 32 48 49
63 2 2 1000 9 32 49 2
64 2 2 1000 9 2 49 31
65 2 2 1000 9 5 6 41
66 2 2 1000 9 41 6 50
67 2 2 1000 9 41 50 42
68 2 2 1000 9 42 50 51
69 2 2 1000 9 42 51 43
70 2 2 1000 9 43 51 52
71 2 2 1000 9 43 52 44
72 2 2 1000 9 44 52 53
73 2 2 1000 9 44 53 45
74 2 2 1000 9 45 53 54
75 2 2 1000 9 45 54 46
76 2 2 1000 9 46 54 55
77 2 2 1000 9 46 55 47
78 2 2 1000 9 47 55 56
79 2 2 1000 9 47 56 48
80 2 2 1000 9 48 56 57
81 2 2 1000 9 48 57 49
82 2 2 1000 9 49 57 58
83 2 2 1000 9 49 58 31
84 2 2 1000 9 31 58 30
85 2 2 1000 9 6 7 50
86 2 2 1000 9 50 7 59
87 2 2 1000 9 50 59 51
88 2 2 1000 9 51 59 60
89 2 2 1000 9 51 60 52
90 2 2 1000 9 52 60 61
91 2 2 1000 9 52 61 53
92 2 2 1000 9 53 61 62
93 2 2 1000 9 53 62 54
94 2 2 1000 9 54 62 63
95 2 2 1000 9 54 63 55
96 2 2 1000 9 55 63 64
97 2 2 1000 9 55 64 56
98 2 2 1000 9 56 64 65
99 2 2 1000 9 56 65 57
100 2 2 1000 9 57 65 66
101 2 2 1000 9 57 66 58
102 2 2 1000 9 58 66 67
103 2 2 1000 9 58 67 30
104 2 2 1000 9 30 67 29
105 2 2 1000 9 7 8 59
106 2 2 1000 9 59 8 68
107 2 2 1000 9 59 68 60
108 2 2 1000 9 60 68 69
109 2 2 1000 9 60 69 61
110 2 2 1000 9 61 69 70
111 2 2 1000 9 61 70 62
112 2 2 1000 9 62 70 71
113 2 2 1000 9 62 71 63
114 2 2 1000 9 63 71 72
115 2 2 1000 9 63 72 64
116 2 2 1000 9 64 72 73
117 2 2 1000 9 64 73 65
118 2 2 1000 9 65 73 74
119 2 2 1000 9 65 74 66
120 2 2 1000 9 66 74 75
121 2 2 1000 9 66 75 67
122 2 2 1000 9 67 75 76
123 2 2 1000 9 67 76 29
124 2 2 1000 9 29 76 28
125 2 2 1000 9 8 9 68
126 2 2 1000 9 68 9 77
127 2 2 1000 9 68 77 69
128 2 2 1000 9 69 77 78
129 2 2 1000 9 69 78 70
130 2 2 1000 9 70 78 79
131 2 2 1000 9 70 79 71
132 2 2 1000 9 71 79 80
133 2 2 1000 9 71 80 72
134 2 2 1000 9 72 80 81
135 2 2 1000 9 72 81 73
136 2 2 1000 9 73 81 82
137 2 2 1000 9 73 82 74
138 2 2 1000 9 74 82 83
139 2 2 1000 9 74 83 75
140 2 2 1000 9 75 83 84
141 2 2 1000 9 75 84 76
142 2 2 1000 9 76 84 85
143 2 2 1000 9 76 85 28
144 2 2 1000 9 28 85 27
145 2 2 1000 9 9 10 77
146 2 2 1000 9 77 10 86
147 2 2 1000 9 77 86 78
148 2 2 1000 9 78 86 87
149 2 2 1000 9 78 87 79
150 2 2 1000 9 79 87 88
151 2 2 1000 9 79 88 80
152 2 2 1000 9 80 88 89
153 2 2 1000 9 80 89 81
154 2 2 1000 9 81 89 90
155 2 2 1000 9 81 90 82
156 2 2 1000 9 82 90 91
157 2 2 1000 9 82 91 83
158 2 2 1000 9 83 91 92
159 2 2 1000 9 83 92 84
160 2 2 1000 9 84 92 93
161 2 2 1000 9 84 93 85
162 2 2 1000 9 85 93 94
163 2 2 1000 9 85 94 27
164 2 2 1000 9 27 94 26
165 2 2 1000 9 10 11 86
166 2 2 1000 9 86 11 95
167 2 2 1000 9 86 95 87
168 2 2 1000 9 87 95 96
169 2 2 1000 9 87 96 88
170 2 2 1000 9 88 96 97
171 2 2 1000 9 88 97 89
172 2 2 1000 9 89 97 98
173 2 2 1000 9 89 98 90
174 2 2 1000 9 90 98 99
175 2 2 1000 9 90 99 91
176 2 2 1000 9 91 99 100
177 2 2 1000 9 91 100 92
178 2 2 1000 9 92 100 101
179 2 2 1000 9 92 101 93
180 2 2 1000 9 93 101 102
181 2 2 1000 9 93 102 94
182 2 2 1000 9 94 102 103
183 2 2 1000 9 94 103 26
184 2 2 1000 9 26 103 25
185 2 2 1000 9 11 12 95
186 2 2 1000 9 95 12 104
187 2 2 1000 9 95 104 96
188 2 2 1000 9 96 104 105
189 2 2 1000 9 96 105 97
190 2 2 1000 9 97 105 106
191 2 2 1000 9 97 106 98
192 2 2 1000 9 98 106 107
193 2 2 1000 9 98 107 99
194 2 2 1000 9 99 107 108
195 2 2 1000 9 99 108 100
196 2 2 1000 9 100 108 109
197 2 2 1000 9 100 109 101
198 2 2 1000 9 101 109 110
199 2 2 1000 9 101 110 102
200 2 2 1000 9 102 110 111
201 2 2 1000 9 102 111 103
202 2 2 1000 9 103 111 112
203 2 2 1000 9 103 112 25
204 2 2 1000 9 25 112 24
205 2 2 1000 9 12 13 104
206 2 2 1000 9 104 13 113
207 2 2 1000 9 104 113 105
208 2 2 1000 9 105 113 114
209 2 2 1000 9 105 114 106
210 2 2 1000 9 106 114 115
211 2 2 1000 9 106 115 107
212 2 2 1000 9 107 115 116
213 2 2 1000 9 107 116 108
214 2 2 1000 9 108 116 117
215 2 2 1000 9 108 117 109
216 2 2 1000 9 109 117 118
217 2 2 1000 9 109 118 110
218 2 2 1000 9 110 118 119
219 2 2 1000 9 110 119 111
220 2 2 1000 9 111 119 120
221 2 2 1000 9 111 120 112
222 2 2 1000 9 112 120 121
223 2 2 1000 9 112 121 24
224 2 2 1000 9 24 121 23
225 2 2 1000 9 13 4 113
226 2 2 1000 9 113 4 14
227 2 2 1000 9 113 14 114
228 2 2 1000 9 114 14 15
229 2 2 1000 9 114 15 115
230 2 2 1000 9 115 15 16
231 2 2 1000 9 115 16 116
232 2 2 1000 9 116 16 17
233 2 2 1000 9 116 17 117
234 2 2 1000 9 117 17 18
235 2 2 1000 9 117 18 118
236 2 2 1000 9 118 18 19
237 2 2 1000 9 118 19 119
238 2 2 1000 9 119 19 20
239 2 2 1000 9 119 20 120
240 2 2 1000 9 120 20 21
241 2 2 1000 9 120 21 121
242 2 2 1000 9 121 21 22
243 2 2 1000 9 121 22 23
244 2 2 1000 9 23 22 3
$EndElements
