$MeshFormat
2.2 0 8
$EndMeshFormat
$Nodes
961
1 -1 -1 0
2 -1 1 0
3 1 1 0
4 1 -1 0
5 -0.9333333333335182 -1 0
6 -0.8666666666670364 -1 0
7 -0.8000000000005545 -1 0
8 -0.7333333333340728 -1 0
9 -0.666666666667591 -1 0
10 -0.6000000000011094 -1 0
11 -0.5333333333346276 -1 0
12 -0.4666666666681457 -1 0
13 -0.4000000000016638 -1 0
14 -0.3333333333351818 -1 0
15 -0.2666666666686999 -1 0
16 -0.200000000002218 -1 0
17 -0.1333333333357359 -1 0
18 -0.06666666666925403 -1 0
19 -2.750244476601438e-12 -1 0
20 0.06666666666407961 -1 0
21 0.133333333330931 -1 0
22 0.1999999999977824 -1 0
23 0.266666666664634 -1 0
24 0.3333333333314854 -1 0
25 0.3999999999983368 -1 0
26 0.4666666666651882 -1 0
27 0.5333333333320396 -1 0
28 0.599999999998891 -1 0
29 0.6666666666657426 -1 0
30 0.733333333332594 -1 0
31 0.7999999999994454 -1 0
32 0.8666666666662968 -1 0
33 0.9333333333331482 -1 0
34 1 -0.9333333333335182 0
35 1 -0.8666666666670364 0
36 1 -0.8000000000005545 0
37 1 -0.7333333333340728 0
38 1 -0.666666666667591 0
39 1 -0.6000000000011094 0
40 1 -0.5333333333346276 0
41 1 -0.4666666666681457 0
42 1 -0.4000000000016638 0
43 1 -0.3333333333351818 0
44 1 -0.2666666666686999 0
45 1 -0.200000000002218 0
46 1 -0.1333333333357359 0
47 1 -0.06666666666925403 0
48 1 -2.750244476601438e-12 0
49 1 0.06666666666407961 0
50 1 0.133333333330931 0
51 1 0.1999999999977824 0
52 1 0.266666666664634 0
53 1 0.3333333333314854 0
54 1 0.3999999999983368 0
55 1 0.4666666666651882 0
56 1 0.5333333333320396 0
57 1 0.599999999998891 0
58 1 0.6666666666657426 0
59 1 0.733333333332594 0
60 1 0.7999999999994454 0
61 1 0.8666666666662968 0
62 1 0.9333333333331482 0
63 0.9333333333335182 1 0
64 0.8666666666670364 1 0
65 0.8000000000005545 1 0
66 0.7333333333340728 1 0
67 0.666666666667591 1 0
68 0.6000000000011094 1 0
69 0.5333333333346276 1 0
70 0.4666666666681457 1 0
71 0.4000000000016638 1 0
72 0.3333333333351818 1 0
73 0.2666666666686999 1 0
74 0.200000000002218 1 0
75 0.1333333333357359 1 0
76 0.06666666666925403 1 0
77 2.750244476601438e-12 1 0
78 -0.06666666666407961 1 0
79 -0.133333333330931 1 0
80 -0.1999999999977824 1 0
81 -0.266666666664634 1 0
82 -0.3333333333314854 1 0
83 -0.3999999999983368 1 0
84 -0.4666666666651882 1 0
85 -0.5333333333320396 1 0
86 -0.599999999998891 1 0
87 -0.6666666666657426 1 0
88 -0.733333333332594 1 0
89 -0.7999999999994454 1 0
90 -0.8666666666662968 1 0
91 -0.9333333333331482 1 0
92 -1 0.9333333333335182 0
93 -1 0.8666666666670364 0
94 -1 0.8000000000005545 0
95 -1 0.7333333333340728 0
96 -1 0.666666666667591 0
97 -1 0.6000000000011094 0
98 -1 0.5333333333346276 0
99 -1 0.4666666666681457 0
100 -1 0.4000000000016638 0
101 -1 0.3333333333351818 0
102 -1 0.2666666666686999 0
103 -1 0.200000000002218 0
104 -1 0.1333333333357359 0
105 -1 0.06666666666925403 0
106 -1 2.750244476601438e-12 0
107 -1 -0.06666666666407961 0
108 -1 -0.133333333330931 0
109 -1 -0.1999999999977824 0
110 -1 -0.266666666664634 0
111 -1 -0.3333333333314854 0
112 -1 -0.3999999999983368 0
113 -1 -0.4666666666651882 0
114 -1 -0.5333333333320396 0
115 -1 -0.599999999998891 0
116 -1 -0.6666666666657426 0
117 -1 -0.733333333332594 0
118 -1 -0.7999999999994454 0
119 -1 -0.8666666666662968 0
120 -1 -0.9333333333331482 0
121 -0.9333333333335059 -0.9333333333331606 0
122 -0.9333333333334938 -0.8666666666663213 0
123 -0.9333333333334816 -0.7999999999994823 0
124 -0.9333333333334689 -0.7333333333326432 0
125 -0.9333333333334566 -0.6666666666658043 0
126 -0.9333333333334444 -0.5999999999989649 0
127 -0.9333333333334319 -0.533333333332126 0
128 -0.9333333333334196 -0.4666666666652867 0
129 -0.9333333333334073 -0.3999999999984479 0
130 -0.9333333333333949 -0.3333333333316086 0
131 -0.9333333333333824 -0.2666666666647696 0
132 -0.93333333333337 -0.1999999999979303 0
133 -0.9333333333333576 -0.1333333333310911 0
134 -0.9333333333333456 -0.06666666666425214 0
135 -0.9333333333333331 2.566835632933362e-12 0
136 -0.9333333333333209 0.06666666666908155 0
137 -0.9333333333333086 0.1333333333355758 0
138 -0.9333333333332963 0.20000000000207 0
139 -0.9333333333332839 0.2666666666685643 0
140 -0.9333333333332714 0.3333333333350585 0
141 -0.9333333333332592 0.4000000000015529 0
142 -0.9333333333332471 0.4666666666680471 0
143 -0.9333333333332345 0.5333333333345414 0
144 -0.9333333333332222 0.6000000000010355 0
145 -0.9333333333332097 0.6666666666675294 0
146 -0.9333333333331975 0.7333333333340234 0
147 -0.9333333333331854 0.8000000000005176 0
148 -0.9333333333331728 0.8666666666670116 0
149 -0.9333333333331605 0.9333333333335061 0
150 -0.8666666666670116 -0.9333333333331729 0
151 -0.8666666666669871 -0.8666666666663463 0
152 -0.8666666666669622 -0.7999999999995193 0
153 -0.8666666666669376 -0.7333333333326926 0
154 -0.8666666666669132 -0.6666666666658658 0
155 -0.8666666666668885 -0.5999999999990389 0
156 -0.8666666666668639 -0.5333333333322121 0
157 -0.8666666666668392 -0.4666666666653854 0
158 -0.8666666666668144 -0.3999999999985587 0
159 -0.8666666666667899 -0.3333333333317319 0
160 -0.8666666666667651 -0.2666666666649051 0
161 -0.8666666666667405 -0.1999999999980781 0
162 -0.8666666666667161 -0.1333333333312512 0
163 -0.8666666666666913 -0.0666666666644245 0
164 -0.8666666666666667 2.383537811567749e-12 0
165 -0.8666666666666418 0.06666666666890908 0
166 -0.8666666666666172 0.1333333333354156 0
167 -0.8666666666665928 0.2000000000019223 0
168 -0.8666666666665679 0.2666666666684288 0
169 -0.8666666666665435 0.3333333333349354 0
170 -0.8666666666665185 0.4000000000014419 0
171 -0.8666666666664942 0.4666666666679485 0
172 -0.8666666666664693 0.533333333334455 0
173 -0.8666666666664447 0.6000000000009615 0
174 -0.86666666666642 0.6666666666674679 0
175 -0.8666666666663955 0.7333333333339742 0
176 -0.8666666666663707 0.8000000000004805 0
177 -0.8666666666663461 0.8666666666669869 0
178 -0.8666666666663214 0.9333333333334937 0
179 -0.8000000000005175 -0.9333333333331854 0
180 -0.8000000000004805 -0.8666666666663707 0
181 -0.8000000000004437 -0.7999999999995564 0
182 -0.8000000000004066 -0.7333333333327419 0
183 -0.8000000000003697 -0.6666666666659273 0
184 -0.8000000000003327 -0.5999999999991128 0
185 -0.8000000000002955 -0.5333333333322984 0
186 -0.8000000000002586 -0.4666666666654838 0
187 -0.8000000000002219 -0.3999999999986694 0
188 -0.8000000000001848 -0.3333333333318551 0
189 -0.8000000000001479 -0.2666666666650406 0
190 -0.8000000000001108 -0.1999999999982259 0
191 -0.800000000000074 -0.1333333333314115 0
192 -0.8000000000000371 -0.06666666666459709 0
193 -0.8 2.200184479050904e-12 0
194 -0.799999999999963 0.06666666666873655 0
195 -0.7999999999999261 0.1333333333352554 0
196 -0.7999999999998888 0.2000000000017744 0
197 -0.7999999999998519 0.2666666666682933 0
198 -0.7999999999998151 0.3333333333348121 0
199 -0.799999999999778 0.400000000001331 0
200 -0.7999999999997411 0.46666666666785 0
201 -0.7999999999997041 0.5333333333343688 0
202 -0.7999999999996672 0.6000000000008876 0
203 -0.7999999999996303 0.6666666666674061 0
204 -0.7999999999995933 0.7333333333339249 0
205 -0.7999999999995562 0.8000000000004437 0
206 -0.7999999999995193 0.8666666666669625 0
207 -0.7999999999994825 0.9333333333334812 0
208 -0.7333333333340236 -0.9333333333331976 0
209 -0.7333333333339741 -0.8666666666663957 0
210 -0.7333333333339249 -0.7999999999995933 0
211 -0.7333333333338756 -0.7333333333327912 0
212 -0.7333333333338264 -0.6666666666659892 0
213 -0.733333333333777 -0.5999999999991867 0
214 -0.7333333333337277 -0.5333333333323846 0
215 -0.7333333333336784 -0.4666666666655825 0
216 -0.7333333333336294 -0.3999999999987806 0
217 -0.7333333333335799 -0.3333333333319782 0
218 -0.7333333333335306 -0.2666666666651761 0
219 -0.7333333333334813 -0.1999999999983738 0
220 -0.733333333333432 -0.1333333333315716 0
221 -0.7333333333333829 -0.0666666666647695 0
222 -0.7333333333333334 2.016831146534059e-12 0
223 -0.7333333333332841 0.06666666666856419 0
224 -0.7333333333332348 0.1333333333350953 0
225 -0.7333333333331855 0.2000000000016266 0
226 -0.7333333333331362 0.2666666666681577 0
227 -0.7333333333330869 0.333333333334689 0
228 -0.7333333333330376 0.4000000000012203 0
229 -0.7333333333329883 0.4666666666677513 0
230 -0.733333333332939 0.5333333333342827 0
231 -0.7333333333328897 0.6000000000008134 0
232 -0.7333333333328405 0.6666666666673444 0
233 -0.7333333333327912 0.7333333333338756 0
234 -0.7333333333327419 0.8000000000004066 0
235 -0.7333333333326926 0.8666666666669378 0
236 -0.7333333333326433 0.9333333333334688 0
237 -0.6666666666675294 -0.9333333333332099 0
238 -0.6666666666674677 -0.86666666666642 0
239 -0.6666666666674059 -0.7999999999996303 0
240 -0.6666666666673444 -0.7333333333328405 0
241 -0.6666666666672831 -0.6666666666660508 0
242 -0.6666666666672213 -0.5999999999992606 0
243 -0.6666666666671599 -0.533333333332471 0
244 -0.6666666666670982 -0.4666666666656811 0
245 -0.6666666666670364 -0.3999999999988915 0
246 -0.6666666666669747 -0.3333333333321014 0
247 -0.6666666666669135 -0.2666666666653116 0
248 -0.6666666666668517 -0.1999999999985217 0
249 -0.6666666666667901 -0.1333333333317318 0
250 -0.6666666666667285 -0.06666666666494209 0
251 -0.666666666666667 1.833422302865984e-12 0
252 -0.6666666666666052 0.06666666666839155 0
253 -0.6666666666665435 0.1333333333349351 0
254 -0.666666666666482 0.2000000000014787 0
255 -0.6666666666664205 0.2666666666680222 0
256 -0.6666666666663588 0.3333333333345657 0
257 -0.666666666666297 0.4000000000011093 0
258 -0.6666666666662355 0.4666666666676528 0
259 -0.666666666666174 0.5333333333341963 0
260 -0.6666666666661123 0.6000000000007397 0
261 -0.6666666666660506 0.6666666666672829 0
262 -0.6666666666659891 0.7333333333338262 0
263 -0.6666666666659277 0.8000000000003697 0
264 -0.6666666666658659 0.8666666666669132 0
265 -0.6666666666658042 0.9333333333334566 0
266 -0.6000000000010358 -0.9333333333332222 0
267 -0.6000000000009613 -0.8666666666664449 0
268 -0.6000000000008876 -0.7999999999996672 0
269 -0.6000000000008137 -0.7333333333328897 0
270 -0.6000000000007394 -0.6666666666661124 0
271 -0.6000000000006658 -0.5999999999993346 0
272 -0.6000000000005917 -0.5333333333325573 0
273 -0.6000000000005178 -0.4666666666657796 0
274 -0.600000000000444 -0.3999999999990023 0
275 -0.60000000000037 -0.3333333333322248 0
276 -0.6000000000002961 -0.2666666666654473 0
277 -0.6000000000002221 -0.1999999999986695 0
278 -0.600000000000148 -0.133333333331892 0
279 -0.600000000000074 -0.06666666666511445 0
280 -0.6000000000000003 1.65012448150037e-12 0
281 -0.5999999999999264 0.06666666666821913 0
282 -0.5999999999998524 0.133333333334775 0
283 -0.5999999999997785 0.2000000000013308 0
284 -0.5999999999997043 0.2666666666678867 0
285 -0.5999999999996306 0.3333333333344425 0
286 -0.5999999999995564 0.4000000000009984 0
287 -0.5999999999994825 0.4666666666675542 0
288 -0.5999999999994086 0.5333333333341099 0
289 -0.5999999999993346 0.6000000000006656 0
290 -0.5999999999992607 0.6666666666672214 0
291 -0.599999999999187 0.733333333333777 0
292 -0.5999999999991128 0.8000000000003327 0
293 -0.5999999999990389 0.8666666666668885 0
294 -0.5999999999989649 0.9333333333334441 0
295 -0.5333333333345414 -0.9333333333332345 0
296 -0.533333333334455 -0.8666666666664692 0
297 -0.5333333333343688 -0.7999999999997043 0
298 -0.5333333333342827 -0.733333333332939 0
299 -0.5333333333341963 -0.6666666666661738 0
300 -0.5333333333341099 -0.5999999999994088 0
301 -0.5333333333340238 -0.5333333333326435 0
302 -0.5333333333339374 -0.4666666666658783 0
303 -0.5333333333338512 -0.3999999999991131 0
304 -0.5333333333337649 -0.3333333333323479 0
305 -0.5333333333336787 -0.2666666666655828 0
306 -0.5333333333335926 -0.1999999999988173 0
307 -0.5333333333335061 -0.1333333333320521 0
308 -0.5333333333334198 -0.06666666666528698 0
309 -0.5333333333333337 1.466771148983526e-12 0
310 -0.5333333333332473 0.0666666666680466 0
311 -0.5333333333331609 0.1333333333346148 0
312 -0.5333333333330749 0.200000000001183 0
313 -0.5333333333329886 0.2666666666677512 0
314 -0.5333333333329022 0.3333333333343194 0
315 -0.5333333333328162 0.4000000000008875 0
316 -0.5333333333327297 0.4666666666674556 0
317 -0.5333333333326435 0.5333333333340237 0
318 -0.5333333333325572 0.6000000000005918 0
319 -0.5333333333324708 0.6666666666671596 0
320 -0.5333333333323846 0.7333333333337277 0
321 -0.5333333333322985 0.8000000000002958 0
322 -0.5333333333322121 0.8666666666668639 0
323 -0.5333333333321258 0.9333333333334319 0
324 -0.4666666666680472 -0.9333333333332471 0
325 -0.4666666666679485 -0.8666666666664942 0
326 -0.4666666666678499 -0.7999999999997411 0
327 -0.4666666666677515 -0.7333333333329883 0
328 -0.4666666666676528 -0.6666666666662355 0
329 -0.4666666666675543 -0.5999999999994825 0
330 -0.4666666666674557 -0.5333333333327297 0
331 -0.466666666667357 -0.4666666666659768 0
332 -0.4666666666672585 -0.3999999999992241 0
333 -0.4666666666671597 -0.3333333333324711 0
334 -0.4666666666670613 -0.2666666666657182 0
335 -0.4666666666669628 -0.1999999999989652 0
336 -0.466666666666864 -0.1333333333322123 0
337 -0.4666666666667655 -0.0666666666654594 0
338 -0.466666666666667 1.283417816466681e-12 0
339 -0.4666666666665684 0.06666666666787424 0
340 -0.4666666666664698 0.1333333333344547 0
341 -0.4666666666663711 0.2000000000010351 0
342 -0.4666666666662726 0.2666666666676156 0
343 -0.466666666666174 0.3333333333341961 0
344 -0.4666666666660754 0.4000000000007766 0
345 -0.4666666666659769 0.4666666666673571 0
346 -0.4666666666658782 0.5333333333339376 0
347 -0.4666666666657796 0.6000000000005177 0
348 -0.4666666666656812 0.666666666667098 0
349 -0.4666666666655824 0.7333333333336784 0
350 -0.4666666666654841 0.8000000000002588 0
351 -0.4666666666653853 0.8666666666668391 0
352 -0.4666666666652867 0.9333333333334195 0
353 -0.400000000001553 -0.9333333333332592 0
354 -0.400000000001442 -0.8666666666665185 0
355 -0.4000000000013312 -0.799999999999778 0
356 -0.4000000000012203 -0.7333333333330376 0
357 -0.4000000000011093 -0.6666666666662973 0
358 -0.4000000000009984 -0.5999999999995567 0
359 -0.4000000000008874 -0.5333333333328161 0
360 -0.4000000000007765 -0.4666666666660755 0
361 -0.4000000000006656 -0.3999999999993349 0
362 -0.4000000000005547 -0.3333333333325943 0
363 -0.4000000000004439 -0.2666666666658539 0
364 -0.400000000000333 -0.1999999999991131 0
365 -0.400000000000222 -0.1333333333323726 0
366 -0.4000000000001112 -0.06666666666563192 0
367 -0.4000000000000004 1.100064483949836e-12 0
368 -0.3999999999998894 0.06666666666770177 0
369 -0.3999999999997785 0.1333333333342944 0
370 -0.3999999999996677 0.2000000000008872 0
371 -0.3999999999995568 0.2666666666674802 0
372 -0.3999999999994457 0.3333333333340729 0
373 -0.3999999999993348 0.4000000000006657 0
374 -0.3999999999992239 0.4666666666672584 0
375 -0.3999999999991131 0.5333333333338512 0
376 -0.3999999999990023 0.600000000000444 0
377 -0.3999999999988913 0.6666666666670364 0
378 -0.3999999999987804 0.7333333333336292 0
379 -0.3999999999986694 0.8000000000002216 0
380 -0.3999999999985587 0.8666666666668146 0
381 -0.3999999999984477 0.9333333333334073 0
382 -0.3333333333350586 -0.9333333333332716 0
383 -0.3333333333349353 -0.8666666666665434 0
384 -0.3333333333348121 -0.7999999999998151 0
385 -0.333333333334689 -0.7333333333330869 0
386 -0.3333333333345657 -0.6666666666663589 0
387 -0.3333333333344426 -0.5999999999996304 0
388 -0.3333333333343193 -0.5333333333329022 0
389 -0.3333333333341961 -0.4666666666661741 0
390 -0.3333333333340728 -0.3999999999994457 0
391 -0.3333333333339497 -0.3333333333327175 0
392 -0.3333333333338265 -0.2666666666659893 0
393 -0.3333333333337033 -0.199999999999261 0
394 -0.33333333333358 -0.1333333333325326 0
395 -0.3333333333334568 -0.06666666666580445 0
396 -0.3333333333333336 9.16766662584223e-13 0
397 -0.3333333333332104 0.06666666666752924 0
398 -0.3333333333330872 0.1333333333341344 0
399 -0.333333333332964 0.2000000000007394 0
400 -0.3333333333328408 0.2666666666673445 0
401 -0.3333333333327175 0.3333333333339497 0
402 -0.3333333333325943 0.4000000000005548 0
403 -0.3333333333324711 0.4666666666671598 0
404 -0.3333333333323479 0.5333333333337649 0
405 -0.3333333333322247 0.6000000000003698 0
406 -0.3333333333321014 0.6666666666669749 0
407 -0.3333333333319782 0.7333333333335799 0
408 -0.3333333333318552 0.8000000000001848 0
409 -0.3333333333317319 0.8666666666667897 0
410 -0.3333333333316086 0.9333333333333949 0
411 -0.2666666666685643 -0.9333333333332838 0
412 -0.2666666666684287 -0.8666666666665678 0
413 -0.2666666666682933 -0.7999999999998522 0
414 -0.2666666666681578 -0.7333333333331362 0
415 -0.2666666666680222 -0.6666666666664203 0
416 -0.2666666666678868 -0.5999999999997045 0
417 -0.2666666666677512 -0.5333333333329885 0
418 -0.2666666666676156 -0.4666666666662725 0
419 -0.2666666666674802 -0.3999999999995568 0
420 -0.2666666666673446 -0.3333333333328408 0
421 -0.2666666666672091 -0.2666666666661248 0
422 -0.2666666666670735 -0.1999999999994088 0
423 -0.266666666666938 -0.1333333333326928 0
424 -0.2666666666668025 -0.06666666666597681 0
425 -0.2666666666666669 7.334133300673784e-13 0
426 -0.2666666666665314 0.06666666666735677 0
427 -0.2666666666663958 0.1333333333339741 0
428 -0.2666666666662604 0.2000000000005916 0
429 -0.2666666666661248 0.2666666666672091 0
430 -0.2666666666659893 0.3333333333338264 0
431 -0.2666666666658538 0.4000000000004439 0
432 -0.2666666666657183 0.4666666666670614 0
433 -0.2666666666655826 0.5333333333336787 0
434 -0.2666666666654471 0.6000000000002961 0
435 -0.2666666666653116 0.6666666666669132 0
436 -0.2666666666651762 0.7333333333335306 0
437 -0.2666666666650405 0.8000000000001479 0
438 -0.266666666664905 0.8666666666667653 0
439 -0.2666666666647696 0.9333333333333826 0
440 -0.2000000000020701 -0.9333333333332963 0
441 -0.2000000000019223 -0.8666666666665928 0
442 -0.2000000000017744 -0.799999999999889 0
443 -0.2000000000016265 -0.7333333333331855 0
444 -0.2000000000014787 -0.666666666666482 0
445 -0.2000000000013308 -0.5999999999997783 0
446 -0.200000000001183 -0.5333333333330748 0
447 -0.2000000000010351 -0.4666666666663712 0
448 -0.2000000000008873 -0.3999999999996677 0
449 -0.2000000000007394 -0.333333333332964 0
450 -0.2000000000005916 -0.2666666666662604 0
451 -0.2000000000004438 -0.1999999999995567 0
452 -0.2000000000002959 -0.133333333332853 0
453 -0.2000000000001481 -0.0666666666661494 0
454 -0.2000000000000002 5.500044863993026e-13 0
455 -0.1999999999998523 0.06666666666718424 0
456 -0.1999999999997045 0.133333333333814 0
457 -0.1999999999995566 0.2000000000004437 0
458 -0.1999999999994088 0.2666666666670735 0
459 -0.1999999999992609 0.3333333333337032 0
460 -0.1999999999991131 0.400000000000333 0
461 -0.1999999999989652 0.4666666666669628 0
462 -0.1999999999988173 0.5333333333335923 0
463 -0.1999999999986695 0.6000000000002219 0
464 -0.1999999999985217 0.6666666666668517 0
465 -0.1999999999983738 0.7333333333334813 0
466 -0.1999999999982259 0.8000000000001108 0
467 -0.1999999999980781 0.8666666666667404 0
468 -0.1999999999979302 0.9333333333333702 0
469 -0.1333333333355758 -0.9333333333333085 0
470 -0.1333333333354157 -0.8666666666666173 0
471 -0.1333333333352554 -0.7999999999999259 0
472 -0.1333333333350953 -0.7333333333332348 0
473 -0.1333333333349351 -0.6666666666665435 0
474 -0.1333333333347749 -0.5999999999998522 0
475 -0.1333333333346147 -0.5333333333331611 0
476 -0.1333333333344546 -0.4666666666664695 0
477 -0.1333333333342945 -0.3999999999997786 0
478 -0.1333333333341343 -0.3333333333330871 0
479 -0.1333333333339741 -0.2666666666663959 0
480 -0.1333333333338139 -0.1999999999997044 0
481 -0.1333333333336538 -0.1333333333330131 0
482 -0.1333333333334936 -0.06666666666632182 0
483 -0.1333333333333335 3.667066650336892e-13 0
484 -0.1333333333331733 0.06666666666701171 0
485 -0.1333333333330131 0.1333333333336538 0
486 -0.1333333333328529 0.2000000000002959 0
487 -0.1333333333326928 0.2666666666669379 0
488 -0.1333333333325327 0.33333333333358 0
489 -0.1333333333323725 0.4000000000002221 0
490 -0.1333333333322123 0.4666666666668641 0
491 -0.1333333333320522 0.533333333333506 0
492 -0.133333333331892 0.6000000000001482 0
493 -0.1333333333317318 0.66666666666679 0
494 -0.1333333333315716 0.733333333333432 0
495 -0.1333333333314115 0.8000000000000739 0
496 -0.1333333333312513 0.866666666666716 0
497 -0.1333333333310912 0.9333333333333579 0
498 -0.06666666666908155 -0.9333333333333209 0
499 -0.066666666668909 -0.8666666666666419 0
500 -0.06666666666873663 -0.799999999999963 0
501 -0.06666666666856412 -0.7333333333332841 0
502 -0.06666666666839162 -0.6666666666666053 0
503 -0.06666666666821912 -0.5999999999999261 0
504 -0.06666666666804667 -0.5333333333332474 0
505 -0.06666666666787421 -0.4666666666665684 0
506 -0.06666666666770171 -0.3999999999998893 0
507 -0.06666666666752918 -0.3333333333332102 0
508 -0.06666666666735674 -0.2666666666665315 0
509 -0.06666666666718424 -0.1999999999998524 0
510 -0.06666666666701179 -0.1333333333331733 0
511 -0.06666666666683926 -0.0666666666664944 0
512 -0.06666666666666682 1.832978213656133e-13 0
513 -0.06666666666649435 0.06666666666683926 0
514 -0.06666666666632184 0.1333333333334936 0
515 -0.06666666666614937 0.2000000000001481 0
516 -0.0666666666659769 0.2666666666668024 0
517 -0.0666666666658044 0.3333333333334568 0
518 -0.06666666666563192 0.4000000000001112 0
519 -0.06666666666545945 0.4666666666667656 0
520 -0.06666666666528698 0.5333333333334198 0
521 -0.06666666666511445 0.600000000000074 0
522 -0.06666666666494203 0.6666666666667285 0
523 -0.06666666666476953 0.7333333333333827 0
524 -0.06666666666459711 0.8000000000000369 0
525 -0.06666666666442458 0.8666666666666913 0
526 -0.06666666666425203 0.9333333333333456 0
527 -2.566922600404133e-12 -0.9333333333333331 0
528 -2.383489701904364e-12 -0.8666666666666665 0
529 -2.20016782570706e-12 -0.8 0
530 -2.016845949509755e-12 -0.7333333333333334 0
531 -1.833524073312449e-12 -0.6666666666666669 0
532 -1.650091174812683e-12 -0.6000000000000003 0
533 -1.466769298615377e-12 -0.5333333333333337 0
534 -1.283447422418072e-12 -0.466666666666667 0
535 -1.100153301796383e-12 -0.4000000000000004 0
536 -9.166926477209984e-13 -0.3333333333333337 0
537 -7.333985270993085e-13 -0.2666666666666669 0
538 -5.500488953263874e-13 -0.2000000000000002 0
539 -3.667547747046975e-13 -0.1333333333333335 0
540 -1.832941206293138e-13 -0.06666666666666687 0
541 -7.564178960885304e-24 0 0
542 1.834051429175459e-13 0.06666666666666682 0
543 3.666437523890207e-13 0.1333333333333335 0
544 5.500488953141881e-13 0.2000000000000002 0
545 7.33398527088127e-13 0.2666666666666669 0
546 9.168036700132952e-13 0.3333333333333336 0
547 1.10004227948477e-12 0.4000000000000004 0
548 1.283447422409938e-12 0.466666666666667 0
549 1.466797054183876e-12 0.5333333333333337 0
550 1.650202197109044e-12 0.6000000000000003 0
551 1.83349631773175e-12 0.6666666666666667 0
552 2.016845949505688e-12 0.7333333333333334 0
553 2.200195581279625e-12 0.8 0
554 2.383600724204794e-12 0.8666666666666667 0
555 2.566839333676268e-12 0.9333333333333331 0
556 0.06666666666425211 -0.9333333333333457 0
557 0.06666666666442456 -0.8666666666666913 0
558 0.06666666666459703 -0.8000000000000369 0
559 0.06666666666476959 -0.7333333333333827 0
560 0.06666666666494196 -0.6666666666667286 0
561 0.06666666666511449 -0.6000000000000743 0
562 0.06666666666528694 -0.5333333333334198 0
563 0.06666666666545945 -0.4666666666667655 0
564 0.06666666666563198 -0.4000000000001112 0
565 0.06666666666580437 -0.3333333333334567 0
566 0.0666666666659769 -0.2666666666668025 0
567 0.0666666666661494 -0.2000000000001481 0
568 0.06666666666632179 -0.1333333333334936 0
569 0.06666666666649432 -0.06666666666683932 0
570 0.06666666666666679 -1.832700657899977e-13 0
571 0.06666666666683932 0.06666666666649437 0
572 0.06666666666701176 0.1333333333331733 0
573 0.06666666666718421 0.1999999999998523 0
574 0.06666666666735674 0.2666666666665314 0
575 0.06666666666752921 0.3333333333332104 0
576 0.06666666666770174 0.3999999999998894 0
577 0.06666666666787419 0.4666666666665684 0
578 0.0666666666680466 0.5333333333332473 0
579 0.06666666666821919 0.5999999999999261 0
580 0.06666666666839163 0.6666666666666052 0
581 0.06666666666856416 0.7333333333332841 0
582 0.06666666666873658 0.799999999999963 0
583 0.06666666666890902 0.8666666666666418 0
584 0.0666666666690815 0.9333333333333209 0
585 0.1333333333310912 -0.9333333333333579 0
586 0.1333333333312513 -0.8666666666667158 0
587 0.1333333333314115 -0.8000000000000738 0
588 0.1333333333315717 -0.733333333333432 0
589 0.1333333333317318 -0.6666666666667901 0
590 0.1333333333318921 -0.6000000000001482 0
591 0.1333333333320522 -0.5333333333335062 0
592 0.1333333333322124 -0.4666666666668642 0
593 0.1333333333323725 -0.4000000000002223 0
594 0.1333333333325327 -0.33333333333358 0
595 0.1333333333326928 -0.2666666666669381 0
596 0.133333333332853 -0.2000000000002959 0
597 0.1333333333330131 -0.1333333333336538 0
598 0.1333333333331733 -0.06666666666701179 0
599 0.1333333333333335 -3.667344206093048e-13 0
600 0.1333333333334936 0.06666666666632187 0
601 0.1333333333336538 0.1333333333330131 0
602 0.133333333333814 0.1999999999997045 0
603 0.1333333333339742 0.2666666666663959 0
604 0.1333333333341342 0.3333333333330872 0
605 0.1333333333342945 0.3999999999997785 0
606 0.1333333333344547 0.4666666666664698 0
607 0.1333333333346148 0.5333333333331611 0
608 0.1333333333347749 0.5999999999998524 0
609 0.1333333333349351 0.6666666666665437 0
610 0.1333333333350953 0.7333333333332348 0
611 0.1333333333352554 0.7999999999999259 0
612 0.1333333333354156 0.8666666666666174 0
613 0.1333333333355757 0.9333333333333085 0
614 0.1999999999979302 -0.9333333333333702 0
615 0.1999999999980782 -0.8666666666667406 0
616 0.1999999999982259 -0.8000000000001108 0
617 0.1999999999983739 -0.7333333333334813 0
618 0.1999999999985216 -0.6666666666668517 0
619 0.1999999999986695 -0.6000000000002219 0
620 0.1999999999988174 -0.5333333333335923 0
621 0.1999999999989652 -0.4666666666669627 0
622 0.199999999999113 -0.400000000000333 0
623 0.1999999999992609 -0.3333333333337032 0
624 0.1999999999994087 -0.2666666666670735 0
625 0.1999999999995566 -0.2000000000004437 0
626 0.1999999999997044 -0.133333333333814 0
627 0.1999999999998524 -0.06666666666718424 0
628 0.2000000000000002 -5.500044863993026e-13 0
629 0.200000000000148 0.06666666666614937 0
630 0.2000000000002958 0.133333333332853 0
631 0.2000000000004437 0.1999999999995566 0
632 0.2000000000005916 0.2666666666662604 0
633 0.2000000000007394 0.333333333332964 0
634 0.2000000000008872 0.3999999999996676 0
635 0.2000000000010351 0.4666666666663712 0
636 0.2000000000011831 0.5333333333330748 0
637 0.2000000000013309 0.5999999999997783 0
638 0.2000000000014786 0.666666666666482 0
639 0.2000000000016266 0.7333333333331855 0
640 0.2000000000017744 0.799999999999889 0
641 0.2000000000019222 0.8666666666665925 0
642 0.20000000000207 0.933333333333296 0
643 0.2666666666647696 -0.9333333333333825 0
644 0.2666666666649052 -0.8666666666667656 0
645 0.2666666666650406 -0.8000000000001477 0
646 0.2666666666651761 -0.7333333333335306 0
647 0.2666666666653117 -0.6666666666669132 0
648 0.2666666666654471 -0.6000000000002961 0
649 0.2666666666655827 -0.5333333333336787 0
650 0.2666666666657182 -0.466666666667061 0
651 0.2666666666658539 -0.400000000000444 0
652 0.2666666666659893 -0.3333333333338264 0
653 0.2666666666661248 -0.2666666666672091 0
654 0.2666666666662603 -0.2000000000005916 0
655 0.2666666666663959 -0.1333333333339742 0
656 0.2666666666665314 -0.06666666666735677 0
657 0.2666666666666669 -7.334133300673784e-13 0
658 0.2666666666668025 0.06666666666597687 0
659 0.2666666666669381 0.1333333333326928 0
660 0.2666666666670735 0.1999999999994088 0
661 0.2666666666672091 0.2666666666661248 0
662 0.2666666666673445 0.3333333333328408 0
663 0.2666666666674801 0.3999999999995567 0
664 0.2666666666676156 0.4666666666662727 0
665 0.2666666666677512 0.5333333333329886 0
666 0.2666666666678867 0.5999999999997045 0
667 0.2666666666680221 0.6666666666664203 0
668 0.2666666666681577 0.7333333333331362 0
669 0.2666666666682933 0.7999999999998519 0
670 0.2666666666684287 0.8666666666665679 0
671 0.2666666666685643 0.9333333333332838 0
672 0.3333333333316086 -0.9333333333333949 0
673 0.3333333333317319 -0.8666666666667899 0
674 0.3333333333318551 -0.8000000000001848 0
675 0.3333333333319782 -0.7333333333335799 0
676 0.3333333333321015 -0.6666666666669749 0
677 0.3333333333322246 -0.60000000000037 0
678 0.3333333333323479 -0.5333333333337651 0
679 0.3333333333324711 -0.4666666666671597 0
680 0.3333333333325943 -0.4000000000005548 0
681 0.3333333333327175 -0.3333333333339497 0
682 0.3333333333328408 -0.2666666666673446 0
683 0.333333333332964 -0.2000000000007395 0
684 0.3333333333330872 -0.1333333333341344 0
685 0.3333333333332104 -0.06666666666752918 0
686 0.3333333333333336 -9.166833958573761e-13 0
687 0.3333333333334569 0.06666666666580445 0
688 0.33333333333358 0.1333333333325326 0
689 0.3333333333337032 0.1999999999992609 0
690 0.3333333333338264 0.2666666666659894 0
691 0.3333333333339495 0.3333333333327175 0
692 0.3333333333340729 0.3999999999994458 0
693 0.3333333333341962 0.4666666666661741 0
694 0.3333333333343193 0.5333333333329022 0
695 0.3333333333344425 0.5999999999996304 0
696 0.3333333333345657 0.6666666666663588 0
697 0.333333333334689 0.7333333333330869 0
698 0.3333333333348121 0.7999999999998151 0
699 0.3333333333349353 0.8666666666665432 0
700 0.3333333333350585 0.9333333333332714 0
701 0.3999999999984478 -0.9333333333334074 0
702 0.3999999999985585 -0.8666666666668142 0
703 0.3999999999986695 -0.8000000000002216 0
704 0.3999999999987804 -0.7333333333336292 0
705 0.3999999999988913 -0.6666666666670364 0
706 0.3999999999990022 -0.600000000000444 0
707 0.3999999999991131 -0.5333333333338512 0
708 0.399999999999224 -0.4666666666672583 0
709 0.3999999999993348 -0.4000000000006657 0
710 0.3999999999994458 -0.3333333333340729 0
711 0.3999999999995568 -0.2666666666674801 0
712 0.3999999999996677 -0.2000000000008872 0
713 0.3999999999997785 -0.1333333333342945 0
714 0.3999999999998894 -0.06666666666770174 0
715 0.4000000000000002 -1.100147750676683e-12 0
716 0.4000000000001112 0.06666666666563195 0
717 0.4000000000002221 0.1333333333323725 0
718 0.4000000000003331 0.199999999999113 0
719 0.4000000000004439 0.2666666666658537 0
720 0.4000000000005548 0.3333333333325943 0
721 0.4000000000006658 0.3999999999993349 0
722 0.4000000000007767 0.4666666666660755 0
723 0.4000000000008874 0.5333333333328161 0
724 0.4000000000009984 0.5999999999995567 0
725 0.4000000000011092 0.6666666666662973 0
726 0.4000000000012203 0.7333333333330376 0
727 0.4000000000013311 0.799999999999778 0
728 0.400000000001442 0.8666666666665186 0
729 0.4000000000015529 0.9333333333332592 0
730 0.4666666666652868 -0.9333333333334195 0
731 0.4666666666653853 -0.8666666666668392 0
732 0.466666666665484 -0.8000000000002587 0
733 0.4666666666655826 -0.7333333333336784 0
734 0.4666666666656811 -0.666666666667098 0
735 0.4666666666657796 -0.6000000000005179 0
736 0.4666666666658782 -0.5333333333339375 0
737 0.4666666666659769 -0.466666666667357 0
738 0.4666666666660755 -0.4000000000007767 0
739 0.4666666666661741 -0.3333333333341961 0
740 0.4666666666662727 -0.2666666666676156 0
741 0.4666666666663712 -0.2000000000010351 0
742 0.4666666666664696 -0.1333333333344547 0
743 0.4666666666665685 -0.0666666666678741 0
744 0.466666666666667 -1.283417816466681e-12 0
745 0.4666666666667656 0.06666666666545945 0
746 0.4666666666668642 0.1333333333322123 0
747 0.4666666666669628 0.1999999999989652 0
748 0.4666666666670612 0.2666666666657183 0
749 0.4666666666671599 0.3333333333324711 0
750 0.4666666666672585 0.399999999999224 0
751 0.4666666666673571 0.4666666666659769 0
752 0.4666666666674555 0.5333333333327297 0
753 0.4666666666675542 0.5999999999994825 0
754 0.4666666666676528 0.6666666666662355 0
755 0.4666666666677514 0.7333333333329883 0
756 0.46666666666785 0.7999999999997411 0
757 0.4666666666679486 0.8666666666664939 0
758 0.4666666666680471 0.9333333333332468 0
759 0.5333333333321258 -0.9333333333334318 0
760 0.5333333333322123 -0.8666666666668641 0
761 0.5333333333322983 -0.8000000000002958 0
762 0.5333333333323846 -0.7333333333337277 0
763 0.5333333333324709 -0.6666666666671598 0
764 0.5333333333325572 -0.6000000000005918 0
765 0.5333333333326434 -0.5333333333340239 0
766 0.5333333333327297 -0.4666666666674557 0
767 0.533333333332816 -0.4000000000008875 0
768 0.5333333333329022 -0.3333333333343194 0
769 0.5333333333329885 -0.2666666666677512 0
770 0.5333333333330748 -0.200000000001183 0
771 0.5333333333331611 -0.1333333333346148 0
772 0.5333333333332476 -0.06666666666804665 0
773 0.5333333333333337 -1.466812782346949e-12 0
774 0.5333333333334198 0.06666666666528696 0
775 0.5333333333335062 0.1333333333320522 0
776 0.5333333333335923 0.1999999999988173 0
777 0.5333333333336787 0.2666666666655827 0
778 0.5333333333337649 0.3333333333323478 0
779 0.5333333333338514 0.3999999999991131 0
780 0.5333333333339376 0.4666666666658783 0
781 0.5333333333340238 0.5333333333326435 0
782 0.5333333333341099 0.5999999999994086 0
783 0.5333333333341963 0.6666666666661738 0
784 0.5333333333342827 0.733333333332939 0
785 0.5333333333343688 0.7999999999997043 0
786 0.5333333333344553 0.8666666666664693 0
787 0.5333333333345414 0.9333333333332345 0
788 0.599999999998965 -0.9333333333334443 0
789 0.5999999999990386 -0.8666666666668885 0
790 0.5999999999991128 -0.8000000000003327 0
791 0.599999999999187 -0.733333333333777 0
792 0.5999999999992608 -0.6666666666672215 0
793 0.5999999999993346 -0.6000000000006658 0
794 0.5999999999994088 -0.5333333333341101 0
795 0.5999999999994825 -0.466666666667554 0
796 0.5999999999995564 -0.4000000000009984 0
797 0.5999999999996304 -0.3333333333344426 0
798 0.5999999999997043 -0.2666666666678866 0
799 0.5999999999997783 -0.2000000000013309 0
800 0.5999999999998522 -0.133333333334775 0
801 0.5999999999999263 -0.06666666666821917 0
802 0.6 -1.650096725924755e-12 0
803 0.6000000000000741 0.06666666666511452 0
804 0.600000000000148 0.133333333331892 0
805 0.6000000000002221 0.1999999999986695 0
806 0.6000000000002961 0.2666666666654471 0
807 0.60000000000037 0.3333333333322248 0
808 0.600000000000444 0.3999999999990023 0
809 0.6000000000005179 0.4666666666657798 0
810 0.6000000000005918 0.5333333333325572 0
811 0.6000000000006658 0.5999999999993346 0
812 0.6000000000007396 0.6666666666661123 0
813 0.6000000000008135 0.7333333333328897 0
814 0.6000000000008876 0.7999999999996672 0
815 0.6000000000009617 0.8666666666664447 0
816 0.6000000000010355 0.9333333333332223 0
817 0.6666666666658043 -0.9333333333334566 0
818 0.6666666666658658 -0.8666666666669134 0
819 0.6666666666659276 -0.8000000000003695 0
820 0.6666666666659889 -0.7333333333338264 0
821 0.6666666666660507 -0.666666666667283 0
822 0.6666666666661123 -0.6000000000007397 0
823 0.6666666666661739 -0.5333333333341964 0
824 0.6666666666662356 -0.4666666666676526 0
825 0.666666666666297 -0.4000000000011092 0
826 0.6666666666663585 -0.3333333333345656 0
827 0.6666666666664203 -0.2666666666680222 0
828 0.666666666666482 -0.2000000000014787 0
829 0.6666666666665437 -0.1333333333349351 0
830 0.6666666666666055 -0.06666666666839161 0
831 0.6666666666666667 -1.833547202956254e-12 0
832 0.6666666666667285 0.06666666666494203 0
833 0.66666666666679 0.1333333333317318 0
834 0.6666666666668517 0.1999999999985217 0
835 0.6666666666669131 0.2666666666653116 0
836 0.6666666666669749 0.3333333333321015 0
837 0.6666666666670364 0.3999999999988912 0
838 0.666666666667098 0.4666666666656811 0
839 0.6666666666671597 0.5333333333324708 0
840 0.6666666666672213 0.5999999999992607 0
841 0.6666666666672829 0.6666666666660508 0
842 0.6666666666673444 0.7333333333328405 0
843 0.6666666666674061 0.7999999999996301 0
844 0.6666666666674679 0.86666666666642 0
845 0.6666666666675294 0.9333333333332099 0
846 0.7333333333326434 -0.9333333333334689 0
847 0.7333333333326925 -0.8666666666669379 0
848 0.7333333333327419 -0.8000000000004066 0
849 0.7333333333327912 -0.7333333333338756 0
850 0.7333333333328406 -0.6666666666673445 0
851 0.7333333333328897 -0.6000000000008134 0
852 0.733333333332939 -0.5333333333342825 0
853 0.7333333333329883 -0.4666666666677513 0
854 0.7333333333330379 -0.4000000000012203 0
855 0.7333333333330869 -0.3333333333346891 0
856 0.7333333333331362 -0.2666666666681577 0
857 0.7333333333331855 -0.2000000000016265 0
858 0.7333333333332349 -0.1333333333350952 0
859 0.7333333333332843 -0.06666666666856415 0
860 0.7333333333333334 -2.016831146534059e-12 0
861 0.7333333333333827 0.06666666666476953 0
862 0.733333333333432 0.1333333333315717 0
863 0.7333333333334814 0.1999999999983739 0
864 0.7333333333335305 0.2666666666651761 0
865 0.7333333333335799 0.3333333333319782 0
866 0.7333333333336293 0.3999999999987805 0
867 0.7333333333336784 0.4666666666655825 0
868 0.7333333333337277 0.5333333333323846 0
869 0.733333333333777 0.5999999999991867 0
870 0.7333333333338263 0.6666666666659891 0
871 0.7333333333338756 0.7333333333327912 0
872 0.733333333333925 0.7999999999995933 0
873 0.7333333333339741 0.8666666666663954 0
874 0.7333333333340235 0.9333333333331975 0
875 0.7999999999994825 -0.9333333333334812 0
876 0.7999999999995193 -0.8666666666669627 0
877 0.7999999999995564 -0.8000000000004437 0
878 0.7999999999995933 -0.7333333333339249 0
879 0.7999999999996305 -0.6666666666674063 0
880 0.7999999999996672 -0.6000000000008876 0
881 0.7999999999997042 -0.5333333333343689 0
882 0.799999999999741 -0.4666666666678498 0
883 0.7999999999997782 -0.4000000000013311 0
884 0.7999999999998151 -0.3333333333348121 0
885 0.7999999999998523 -0.2666666666682931 0
886 0.799999999999889 -0.2000000000017744 0
887 0.799999999999926 -0.1333333333352554 0
888 0.7999999999999632 -0.06666666666873658 0
889 0.8 -2.200226112414327e-12 0
890 0.8000000000000369 0.06666666666459703 0
891 0.8000000000000739 0.1333333333314115 0
892 0.8000000000001111 0.1999999999982259 0
893 0.8000000000001476 0.2666666666650405 0
894 0.8000000000001848 0.3333333333318551 0
895 0.8000000000002216 0.3999999999986695 0
896 0.8000000000002588 0.466666666665484 0
897 0.8000000000002957 0.5333333333322985 0
898 0.8000000000003327 0.5999999999991128 0
899 0.8000000000003695 0.6666666666659273 0
900 0.8000000000004066 0.7333333333327419 0
901 0.8000000000004437 0.7999999999995564 0
902 0.8000000000004804 0.8666666666663707 0
903 0.8000000000005174 0.933333333333185 0
904 0.8666666666663213 -0.9333333333334936 0
905 0.8666666666663463 -0.8666666666669871 0
906 0.8666666666663707 -0.8000000000004805 0
907 0.8666666666663954 -0.7333333333339742 0
908 0.8666666666664202 -0.6666666666674679 0
909 0.8666666666664447 -0.6000000000009615 0
910 0.8666666666664693 -0.5333333333344552 0
911 0.8666666666664941 -0.4666666666679485 0
912 0.8666666666665188 -0.4000000000014419 0
913 0.8666666666665432 -0.3333333333349353 0
914 0.8666666666665679 -0.2666666666684289 0
915 0.8666666666665925 -0.2000000000019222 0
916 0.8666666666666172 -0.1333333333354156 0
917 0.8666666666666422 -0.06666666666890905 0
918 0.8666666666666665 -2.383510055992133e-12 0
919 0.8666666666666913 0.06666666666442453 0
920 0.866666666666716 0.1333333333312514 0
921 0.8666666666667405 0.199999999998078 0
922 0.8666666666667652 0.2666666666649051 0
923 0.8666666666667899 0.3333333333317319 0
924 0.8666666666668146 0.3999999999985586 0
925 0.866666666666839 0.4666666666653854 0
926 0.866666666666864 0.5333333333322121 0
927 0.8666666666668884 0.5999999999990389 0
928 0.8666666666669133 0.6666666666658658 0
929 0.8666666666669377 0.7333333333326926 0
930 0.8666666666669625 0.7999999999995193 0
931 0.8666666666669871 0.8666666666663461 0
932 0.8666666666670118 0.9333333333331728 0
933 0.9333333333331604 -0.9333333333335059 0
934 0.9333333333331728 -0.866666666667012 0
935 0.9333333333331851 -0.8000000000005173 0
936 0.9333333333331975 -0.7333333333340235 0
937 0.9333333333332101 -0.6666666666675294 0
938 0.9333333333332223 -0.6000000000010355 0
939 0.9333333333332345 -0.5333333333345414 0
940 0.9333333333332468 -0.466666666668047 0
941 0.9333333333332592 -0.4000000000015529 0
942 0.9333333333332716 -0.3333333333350585 0
943 0.9333333333332839 -0.2666666666685643 0
944 0.9333333333332963 -0.20000000000207 0
945 0.9333333333333086 -0.1333333333355757 0
946 0.9333333333333208 -0.0666666666690816 0
947 0.9333333333333335 -2.566960533023632e-12 0
948 0.9333333333333452 0.06666666666425204 0
949 0.9333333333333577 0.1333333333310911 0
950 0.9333333333333701 0.1999999999979303 0
951 0.9333333333333823 0.2666666666647695 0
952 0.9333333333333947 0.3333333333316086 0
953 0.9333333333334071 0.3999999999984477 0
954 0.9333333333334195 0.4666666666652868 0
955 0.9333333333334318 0.5333333333321257 0
956 0.9333333333334444 0.5999999999989649 0
957 0.9333333333334566 0.6666666666658043 0
958 0.9333333333334688 0.7333333333326433 0
959 0.9333333333334812 0.7999999999994822 0
960 0.9333333333334937 0.8666666666663214 0
961 0.9333333333335059 0.9333333333331606 0
$EndNodes
$Elements
1924
1 15 2 1 1 1
2 15 2 4 2 2
3 15 2 3 3 3
4 15 2 2 4 4
5 1 2 101 1 1 5
6 1 2 101 1 5 6
7 1 2 101 1 6 7
8 1 2 101 1 7 8
9 1 2 101 1 8 9
10 1 2 101 1 9 10
11 1 2 101 1 10 11
12 1 2 101 1 11 12
13 1 2 101 1 12 13
14 1 2 101 1 13 14
15 1 2 101 1 14 15
16 1 2 101 1 15 16
17 1 2 101 1 16 17
18 1 2 101 1 17 18
19 1 2 101 1 18 19
20 1 2 101 1 19 20
21 1 2 101 1 20 21
22 1 2 101 1 21 22
23 1 2 101 1 22 23
24 1 2 101 1 23 24
25 1 2 101 1 24 25
26 1 2 101 1 25 26
27 1 2 101 1 26 27
28 1 2 101 1 27 28
29 1 2 101 1 28 29
30 1 2 101 1 29 30
31 1 2 101 1 30 31
32 1 2 101 1 31 32
33 1 2 101 1 32 33
34 1 2 101 1 33 4
35 1 2 102 2 4 34
36 1 2 102 2 34 35
37 1 2 102 2 35 36
38 1 2 102 2 36 37
39 1 2 102 2 37 38
40 1 2 102 2 38 39
41 1 2 102 2 39 40
42 1 2 102 2 40 41
43 1 2 102 2 41 42
44 1 2 102 2 42 43
45 1 2 102 2 43 44
46 1 2 102 2 44 45
47 1 2 102 2 45 46
48 1 2 102 2 46 47
49 1 2 102 2 47 48
50 1 2 102 2 48 49
51 1 2 102 2 49 50
52 1 2 102 2 50 51
53 1 2 102 2 51 52
54 1 2 102 2 52 53
55 1 2 102 2 53 54
56 1 2 102 2 54 55
57 1 2 102 2 55 56
58 1 2 102 2 56 57
59 1 2 102 2 57 58
60 1 2 102 2 58 59
61 1 2 102 2 59 60
62 1 2 102 2 60 61
63 1 2 102 2 61 62
64 1 2 102 2 62 3
65 1 2 103 3 3 63
66 1 2 103 3 63 64
67 1 2 103 3 64 65
68 1 2 103 3 65 66
69 1 2 103 3 66 67
70 1 2 103 3 67 68
71 1 2 103 3 68 69
72 1 2 103 3 69 70
73 1 2 103 3 70 71
74 1 2 103 3 71 72
75 1 2 103 3 72 73
76 1 2 103 3 73 74
77 1 2 103 3 74 75
78 1 2 103 3 75 76
79 1 2 103 3 76 77
80 1 2 103 3 77 78
81 1 2 103 3 78 79
82 1 2 103 3 79 80
83 1 2 103 3 80 81
84 1 2 103 3 81 82
85 1 2 103 3 82 83
86 1 2 103 3 83 84
87 1 2 103 3 84 85
88 1 2 103 3 85 86
89 1 2 103 3 86 87
90 1 2 103 3 87 88
91 1 2 103 3 88 89
92 1 2 103 3 89 90
93 1 2 103 3 90 91
94 1 2 103 3 91 2
95 1 2 104 4 2 92
96 1 2 104 4 92 93
97 1 2 104 4 93 94
98 1 2 104 4 94 95
99 1 2 104 4 95 96
100 1 2 104 4 96 97
101 1 2 104 4 97 98
102 1 2 104 4 98 99
103 1 2 104 4 99 100
104 1 2 104 4 100 101
105 1 2 104 4 101 102
106 1 2 104 4 102 103
107 1 2 104 4 103 104
108 1 2 104 4 104 105
109 1 2 104 4 105 106
110 1 2 104 4 106 107
111 1 2 104 4 107 108
112 1 2 104 4 108 109
113 1 2 104 4 109 110
114 1 2 104 4 110 111
115 1 2 104 4 111 112
116 1 2 104 4 112 113
117 1 2 104 4 113 114
118 1 2 104 4 114 115
119 1 2 104 4 115 116
120 1 2 104 4 116 117
121 1 2 104 4 117 118
122 1 2 104 4 118 119
123 1 2 104 4 119 120
124 1 2 104 4 120 1
125 2 2 1000 9 1 5 120
126 2 2 1000 9 120 5 121
127 2 2 1000 9 120 121 119
128 2 2 1000 9 119 121 122
129 2 2 1000 9 119 122 118
130 2 2 1000 9 118 122 123
131 2 2 1000 9 118 123 117
132 2 2 1000 9 117 123 124
133 2 2 1000 9 117 124 116
134 2 2 1000 9 116 124 125
135 2 2 1000 9 116 125 115
136 2 2 1000 9 115 125 126
137 2 2 1000 9 115 126 114
138 2 2 1000 9 114 126 127
139 2 2 1000 9 114 127 113
140 2 2 1000 9 113 127 128
141 2 2 1000 9 113 128 112
142 2 2 1000 9 112 128 129
143 2 2 1000 9 112 129 111
144 2 2 1000 9 111 129 130
145 2 2 1000 9 111 130 110
146 2 2 1000 9 110 130 131
147 2 2 1000 9 110 131 109
148 2 2 1000 9 109 131 132
149 2 2 1000 9 109 132 108
150 2 2 1000 9 108 132 133
151 2 2 1000 9 108 133 107
152 2 2 1000 9 107 133 134
153 2 2 1000 9 107 134 106
154 2 2 1000 9 106 134 135
155 2 2 1000 9 106 135 105
156 2 2 1000 9 105 135 136
157 2 2 1000 9 105 136 104
158 2 2 1000 9 104 136 137
159 2 2 1000 9 104 137 103
160 2 2 1000 9 103 137 138
161 2 2 1000 9 103 138 102
162 2 2 1000 9 102 138 139
163 2 2 1000 9 102 139 101
164 2 2 1000 9 101 139 140
165 2 2 1000 9 101 140 100
166 2 2 1000 9 100 140 141
167 2 2 1000 9 100 141 99
168 2 2 1000 9 99 141 142
169 2 2 1000 9 99 142 98
170 2 2 1000 9 98 142 143
171 2 2 1000 9 98 143 97
172 2 2 1000 9 97 143 144
173 2 2 1000 9 97 144 96
174 2 2 1000 9 96 144 145
175 2 2 1000 9 96 145 95
176 2 2 1000 9 95 145 146
177 2 2 1000 9 95 146 94
178 2 2 1000 9 94 146 147
179 2 2 1000 9 94 147 93
180 2 2 1000 9 93 147 148
181 2 2 1000 9 93 148 92
182 2 2 1000 9 92 148 149
183 2 2 1000 9 92 149 2
184 2 2 1000 9 2 149 91
185 2 2 1000 9 5 6 121
186 2 2 1000 9 121 6 150
187 2 2 1000 9 121 150 122
188 2 2 1000 9 122 150 151
189 2 2 1000 9 122 151 123
190 2 2 1000 9 123 151 152
191 2 2 1000 9 123 152 124
192 2 2 1000 9 124 152 153
193 2 2 1000 9 124 153 125
194 2 2 1000 9 125 153 154
195 2 2 1000 9 125 154 126
196 2 2 1000 9 126 154 155
197 2 2 1000 9 126 155 127
198 2 2 1000 9 127 155 156
199 2 2 1000 9 127 156 128
200 2 2 1000 9 128 156 157
201 2 2 1000 9 128 157 129
202 2 2 1000 9 129 157 158
203 2 2 1000 9 129 158 130
204 2 2 1000 9 130 158 159
205 2 2 1000 9 130 159 131
206 2 2 1000 9 131 159 160
207 2 2 1000 9 131 160 132
208 2 2 1000 9 132 160 161
209 2 2 1000 9 132 161 133
210 2 2 1000 9 133 161 162
211 2 2 1000 9 133 162 134
212 2 2 1000 9 134 162 163
213 2 2 1000 9 134 163 135
214 2 2 1000 9 135 163 164
215 2 2 1000 9 135 164 136
216 2 2 1000 9 136 164 165
217 2 2 1000 9 136 165 137
218 2 2 1000 9 137 165 166
219 2 2 1000 9 137 166 138
220 2 2 1000 9 138 166 167
221 2 2 1000 9 138 167 139
222 2 2 1000 9 139 167 168
223 2 2 1000 9 139 168 140
224 2 2 1000 9 140 168 169
225 2 2 1000 9 140 169 141
226 2 2 1000 9 141 169 170
227 2 2 1000 9 141 170 142
228 2 2 1000 9 142 170 171
229 2 2 1000 9 142 171 143
230 2 2 1000 9 143 171 172
231 2 2 1000 9 143 172 144
232 2 2 1000 9 144 172 173
233 2 2 1000 9 144 173 145
234 2 2 1000 9 145 173 174
235 2 2 1000 9 145 174 146
236 2 2 1000 9 146 174 175
237 2 2 1000 9 146 175 147
238 2 2 1000 9 147 175 176
239 2 2 1000 9 147 176 148
240 2 2 1000 9 148 176 177
241 2 2 1000 9 148 177 149
242 2 2 1000 9 149 177 178
243 2 2 1000 9 149 178 91
244 2 2 1000 9 91 178 90
245 2 2 1000 9 6 7 150
246 2 2 1000 9 150 7 179
247 2 2 1000 9 150 179 151
248 2 2 1000 9 151 179 180
249 2 2 1000 9 151 180 152
250 2 2 1000 9 152 180 181
251 2 2 1000 9 152 181 153
252 2 2 1000 9 153 181 182
253 2 2 1000 9 153 182 154
254 2 2 1000 9 154 182 183
255 2 2 1000 9 154 183 155
256 2 2 1000 9 155 183 184
257 2 2 1000 9 155 184 156
258 2 2 1000 9 156 184 185
259 2 2 1000 9 156 185 157
260 2 2 1000 9 157 185 186
261 2 2 1000 9 157 186 158
262 2 2 1000 9 158 186 187
263 2 2 1000 9 158 187 159
264 2 2 1000 9 159 187 188
265 2 2 1000 9 159 188 160
266 2 2 1000 9 160 188 189
267 2 2 1000 9 160 189 161
268 2 2 1000 9 161 189 190
269 2 2 1000 9 161 190 162
270 2 2 1000 9 162 190 191
271 2 2 1000 9 162 191 163
272 2 2 1000 9 163 191 192
273 2 2 1000 9 163 192 164
274 2 2 1000 9 164 192 193
275 2 2 1000 9 164 193 165
276 2 2 1000 9 165 193 194
277 2 2 1000 9 165 194 166
278 2 2 1000 9 166 194 195
279 2 2 1000 9 166 195 167
280 2 2 1000 9 167 195 196
281 2 2 1000 9 167 196 168
282 2 2 1000 9 168 196 197
283 2 2 1000 9 168 197 169
284 2 2 1000 9 169 197 198
285 2 2 1000 9 169 198 170
286 2 2 1000 9 170 198 199
287 2 2 1000 9 170 199 171
288 2 2 1000 9 171 199 200
289 2 2 1000 9 171 200 172
290 2 2 1000 9 172 200 201
291 2 2 1000 9 172 201 173
292 2 2 1000 9 173 201 202
293 2 2 1000 9 173 202 174
294 2 2 1000 9 174 202 203
295 2 2 1000 9 174 203 175
296 2 2 1000 9 175 203 204
297 2 2 1000 9 175 204 176
298 2 2 1000 9 176 204 205
299 2 2 1000 9 176 205 177
300 2 2 1000 9 177 205 206
301 2 2 1000 9 177 206 178
302 2 2 1000 9 178 206 207
303 2 2 1000 9 178 207 90
304 2 2 1000 9 90 207 89
305 2 2 1000 9 7 8 179
306 2 2 1000 9 179 8 208
307 2 2 1000 9 179 208 180
308 2 2 1000 9 180 208 209
309 2 2 1000 9 180 209 181
310 2 2 1000 9 181 209 210
311 2 2 1000 9 181 210 182
312 2 2 1000 9 182 210 211
313 2 2 1000 9 182 211 183
314 2 2 1000 9 183 211 212
315 2 2 1000 9 183 212 184
316 2 2 1000 9 184 212 213
317 2 2 1000 9 184 213 185
318 2 2 1000 9 185 213 214
319 2 2 1000 9 185 214 186
320 2 2 1000 9 186 214 215
321 2 2 1000 9 186 215 187
322 2 2 1000 9 187 215 216
323 2 2 1000 9 187 216 188
324 2 2 1000 9 188 216 217
325 2 2 1000 9 188 217 189
326 2 2 1000 9 189 217 218
327 2 2 1000 9 189 218 190
328 2 2 1000 9 190 218 219
329 2 2 1000 9 190 219 191
330 2 2 1000 9 191 219 220
331 2 2 1000 9 191 220 192
332 2 2 1000 9 192 220 221
333 2 2 1000 9 192 221 193
334 2 2 1000 9 193 221 222
335 2 2 1000 9 193 222 194
336 2 2 1000 9 194 222 223
337 2 2 1000 9 194 223 195
338 2 2 1000 9 195 223 224
339 2 2 1000 9 195 224 196
340 2 2 1000 9 196 224 225
341 2 2 1000 9 196 225 197
342 2 2 1000 9 197 225 226
343 2 2 1000 9 197 226 198
344 2 2 1000 9 198 226 227
345 2 2 1000 9 198 227 199
346 2 2 1000 9 199 227 228
347 2 2 1000 9 199 228 200
348 2 2 1000 9 200 228 229
349 2 2 1000 9 200 229 201
350 2 2 1000 9 201 229 230
351 2 2 1000 9 201 230 202
352 2 2 1000 9 202 230 231
353 2 2 1000 9 202 231 203
354 2 2 1000 9 203 231 232
355 2 2 1000 9 203 232 204
356 2 2 1000 9 204 232 233
357 2 2 1000 9 204 233 205
358 2 2 1000 9 205 233 234
359 2 2 1000 9 205 234 206
360 2 2 1000 9 206 234 235
361 2 2 1000 9 206 235 207
362 2 2 1000 9 207 235 236
363 2 2 1000 9 207 236 89
364 2 2 1000 9 89 236 88
365 2 2 1000 9 8 9 208
366 2 2 1000 9 208 9 237
367 2 2 1000 9 208 237 209
368 2 2 1000 9 209 237 238
369 2 2 1000 9 209 238 210
370 2 2 1000 9 210 238 239
371 2 2 1000 9 210 239 211
372 2 2 1000 9 211 239 240
373 2 2 1000 9 211 240 212
374 2 2 1000 9 212 240 241
375 2 2 1000 9 212 241 213
376 2 2 1000 9 213 241 242
377 2 2 1000 9 213 242 214
378 2 2 1000 9 214 242 243
379 2 2 1000 9 214 243 215
380 2 2 1000 9 215 243 244
381 2 2 1000 9 215 244 216
382 2 2 1000 9 216 244 245
383 2 2 1000 9 216 245 217
384 2 2 1000 9 217 245 246
385 2 2 1000 9 217 246 218
386 2 2 1000 9 218 246 247
387 2 2 1000 9 218 247 219
388 2 2 1000 9 219 247 248
389 2 2 1000 9 219 248 220
390 2 2 1000 9 220 248 249
391 2 2 1000 9 220 249 221
392 2 2 1000 9 221 249 250
393 2 2 1000 9 221 250 222
394 2 2 1000 9 222 250 251
395 2 2 1000 9 222 251 223
396 2 2 1000 9 223 251 252
397 2 2 1000 9 223 252 224
398 2 2 1000 9 224 252 253
399 2 2 1000 9 224 253 225
400 2 2 1000 9 225 253 254
401 2 2 1000 9 225 254 226
402 2 2 1000 9 226 254 255
403 2 2 1000 9 226 255 227
404 2 2 1000 9 227 255 256
405 2 2 1000 9 227 256 228
406 2 2 1000 9 228 256 257
407 2 2 1000 9 228 257 229
408 2 2 1000 9 229 257 258
409 2 2 1000 9 229 258 230
410 2 2 1000 9 230 258 259
411 2 2 1000 9 230 259 231
412 2 2 1000 9 231 259 260
413 2 2 1000 9 231 260 232
414 2 2 1000 9 232 260 261
415 2 2 1000 9 232 261 233
416 2 2 1000 9 233 261 262
417 2 2 1000 9 233 262 234
418 2 2 1000 9 234 262 263
419 2 2 1000 9 234 263 235
420 2 2 1000 9 235 263 264
421 2 2 1000 9 235 264 236
422 2 2 1000 9 236 264 265
423 2 2 1000 9 236 265 88
424 2 2 1000 9 88 265 87
425 2 2 1000 9 9 10 237
426 2 2 1000 9 237 10 266
427 2 2 1000 9 237 266 238
428 2 2 1000 9 238 266 267
429 2 2 1000 9 238 267 239
430 2 2 1000 9 239 267 268
431 2 2 1000 9 239 268 240
432 2 2 1000 9 240 268 269
433 2 2 1000 9 240 269 241
434 2 2 1000 9 241 269 270
435 2 2 1000 9 241 270 242
436 2 2 1000 9 242 270 271
437 2 2 1000 9 242 271 243
438 2 2 1000 9 243 271 272
439 2 2 1000 9 243 272 244
440 2 2 1000 9 244 272 273
441 2 2 1000 9 244 273 245
442 2 2 1000 9 245 273 274
443 2 2 1000 9 245 274 246
444 2 2 1000 9 246 274 275
445 2 2 1000 9 246 275 247
446 2 2 1000 9 247 275 276
447 2 2 1000 9 247 276 248
448 2 2 1000 9 248 276 277
449 2 2 1000 9 248 277 249
450 2 2 1000 9 249 277 278
451 2 2 1000 9 249 278 250
452 2 2 1000 9 250 278 279
453 2 2 1000 9 250 279 251
454 2 2 1000 9 251 279 280
455 2 2 1000 9 251 280 252
456 2 2 1000 9 252 280 281
457 2 2 1000 9 252 281 253
458 2 2 1000 9 253 281 282
459 2 2 1000 9 253 282 254
460 2 2 1000 9 254 282 283
461 2 2 1000 9 254 283 255
462 2 2 1000 9 255 283 284
463 2 2 1000 9 255 284 256
464 2 2 1000 9 256 284 285
465 2 2 1000 9 256 285 257
466 2 2 1000 9 257 285 286
467 2 2 1000 9 257 286 258
468 2 2 1000 9 258 286 287
469 2 2 1000 9 258 287 259
470 2 2 1000 9 259 287 288
471 2 2 1000 9 259 288 260
472 2 2 1000 9 260 288 289
473 2 2 1000 9 260 289 261
474 2 2 1000 9 261 289 290
475 2 2 1000 9 261 290 262
476 2 2 1000 9 262 290 291
477 2 2 1000 9 262 291 263
478 2 2 1000 9 263 291 292
479 2 2 1000 9 263 292 264
480 2 2 1000 9 264 292 293
481 2 2 1000 9 264 293 265
482 2 2 1000 9 265 293 294
483 2 2 1000 9 265 294 87
484 2 2 1000 9 87 294 86
485 2 2 1000 9 10 11 266
486 2 2 1000 9 266 11 295
487 2 2 1000 9 266 295 267
488 2 2 1000 9 267 295 296
489 2 2 1000 9 267 296 268
490 2 2 1000 9 268 296 297
491 2 2 1000 9 268 297 269
492 2 2 1000 9 269 297 298
493 2 2 1000 9 269 298 270
494 2 2 1000 9 270 298 299
495 2 2 1000 9 270 299 271
496 2 2 1000 9 271 299 300
497 2 2 1000 9 271 300 272
498 2 2 1000 9 272 300 301
499 2 2 1000 9 272 301 273
500 2 2 1000 9 273 301 302
501 2 2 1000 9 273 302 274
502 2 2 1000 9 274 302 303
503 2 2 1000 9 274 303 275
504 2 2 1000 9 275 303 304
505 2 2 1000 9 275 304 276
506 2 2 1000 9 276 304 305
507 2 2 1000 9 276 305 277
508 2 2 1000 9 277 305 306
509 2 2 1000 9 277 306 278
510 2 2 1000 9 278 306 307
511 2 2 1000 9 278 307 279
512 2 2 1000 9 279 307 308
513 2 2 1000 9 279 308 280
514 2 2 1000 9 280 308 309
515 2 2 1000 9 280 309 281
516 2 2 1000 9 281 309 310
517 2 2 1000 9 281 310 282
518 2 2 1000 9 282 310 311
519 2 2 1000 9 282 311 283
520 2 2 1000 9 283 311 312
521 2 2 1000 9 283 312 284
522 2 2 1000 9 284 312 313
523 2 2 1000 9 284 313 285
524 2 2 1000 9 285 313 314
525 2 2 1000 9 285 314 286
526 2 2 1000 9 286 314 315
527 2 2 1000 9 286 315 287
528 2 2 1000 9 287 315 316
529 2 2 1000 9 287 316 288
530 2 2 1000 9 288 316 317
531 2 2 1000 9 288 317 289
532 2 2 1000 9 289 317 318
533 2 2 1000 9 289 318 290
534 2 2 1000 9 290 318 319
535 2 2 1000 9 290 319 291
536 2 2 1000 9 291 319 320
537 2 2 1000 9 291 320 292
538 2 2 1000 9 292 320 321
539 2 2 1000 9 292 321 293
540 2 2 1000 9 293 321 322
541 2 2 1000 9 293 322 294
542 2 2 1000 9 294 322 323
543 2 2 1000 9 294 323 86
544 2 2 1000 9 86 323 85
545 2 2 1000 9 11 12 295
546 2 2 1000 9 295 12 324
547 2 2 1000 9 295 324 296
548 2 2 1000 9 296 324 325
549 2 2 1000 9 296 325 297
550 2 2 1000 9 297 325 326
551 2 2 1000 9 297 326 298
552 2 2 1000 9 298 326 327
553 2 2 1000 9 298 327 299
554 2 2 1000 9 299 327 328
555 2 2 1000 9 299 328 300
556 2 2 1000 9 300 328 329
557 2 2 1000 9 300 329 301
558 2 2 1000 9 301 329 330
559 2 2 1000 9 301 330 302
560 2 2 1000 9 302 330 331
561 2 2 1000 9 302 331 303
562 2 2 1000 9 303 331 332
563 2 2 1000 9 303 332 304
564 2 2 1000 9 304 332 333
565 2 2 1000 9 304 333 305
566 2 2 1000 9 305 333 334
567 2 2 1000 9 305 334 306
568 2 2 1000 9 306 334 335
569 2 2 1000 9 306 335 307
570 2 2 1000 9 307 335 336
571 2 2 1000 9 307 336 308
572 2 2 1000 9 308 336 337
573 2 2 1000 9 308 337 309
574 2 2 1000 9 309 337 338
575 2 2 1000 9 309 338 310
576 2 2 1000 9 310 338 339
577 2 2 1000 9 310 339 311
578 2 2 1000 9 311 339 340
579 2 2 1000 9 311 340 312
580 2 2 1000 9 312 340 341
581 2 2 1000 9 312 341 313
582 2 2 1000 9 313 341 342
583 2 2 1000 9 313 342 314
584 2 2 1000 9 314 342 343
585 2 2 1000 9 314 343 315
586 2 2 1000 9 315 343 344
587 2 2 1000 9 315 344 316
588 2 2 1000 9 316 344 345
589 2 2 1000 9 316 345 317
590 2 2 1000 9 317 345 346
591 2 2 1000 9 317 346 318
592 2 2 1000 9 318 346 347
593 2 2 1000 9 318 347 319
594 2 2 1000 9 319 347 348
595 2 2 1000 9 319 348 320
596 2 2 1000 9 320 348 349
597 2 2 1000 9 320 349 321
598 2 2 1000 9 321 349 350
599 2 2 1000 9 321 350 322
600 2 2 1000 9 322 350 351
601 2 2 1000 9 322 351 323
602 2 2 1000 9 323 351 352
603 2 2 1000 9 323 352 85
604 2 2 1000 9 85 352 84
605 2 2 1000 9 12 13 324
606 2 2 1000 9 324 13 353
607 2 2 1000 9 324 353 325
608 2 2 1000 9 325 353 354
609 2 2 1000 9 325 354 326
610 2 2 1000 9 326 354 355
611 2 2 1000 9 326 355 327
612 2 2 1000 9 327 355 356
613 2 2 1000 9 327 356 328
614 2 2 1000 9 328 356 357
615 2 2 1000 9 328 357 329
616 2 2 1000 9 329 357 358
617 2 2 1000 9 329 358 330
618 2 2 1000 9 330 358 359
619 2 2 1000 9 330 359 331
620 2 2 1000 9 331 359 360
621 2 2 1000 9 331 360 332
622 2 2 1000 9 332 360 361
623 2 2 1000 9 332 361 333
624 2 2 1000 9 333 361 362
625 2 2 1000 9 333 362 334
626 2 2 1000 9 334 362 363
627 2 2 1000 9 334 363 335
628 2 2 1000 9 335 363 364
629 2 2 1000 9 335 364 336
630 2 2 1000 9 336 364 365
631 2 2 1000 9 336 365 337
632 2 2 1000 9 337 365 366
633 2 2 1000 9 337 366 338
634 2 2 1000 9 338 366 367
635 2 2 1000 9 338 367 339
636 2 2 1000 9 339 367 368
637 2 2 1000 9 339 368 340
638 2 2 1000 9 340 368 369
639 2 2 1000 9 340 369 341
640 2 2 1000 9 341 369 370
641 2 2 1000 9 341 370 342
642 2 2 1000 9 342 370 371
643 2 2 1000 9 342 371 343
644 2 2 1000 9 343 371 372
645 2 2 1000 9 343 372 344
646 2 2 1000 9 344 372 373
647 2 2 1000 9 344 373 345
648 2 2 1000 9 345 373 374
649 2 2 1000 9 345 374 346
650 2 2 1000 9 346 374 375
651 2 2 1000 9 346 375 347
652 2 2 1000 9 347 375 376
653 2 2 1000 9 347 376 348
654 2 2 1000 9 348 376 377
655 2 2 1000 9 348 377 349
656 2 2 1000 9 349 377 378
657 2 2 1000 9 349 378 350
658 2 2 1000 9 350 378 379
659 2 2 1000 9 350 379 351
660 2 2 1000 9 351 379 380
661 2 2 1000 9 351 380 352
662 2 2 1000 9 352 380 381
663 2 2 1000 9 352 381 84
664 2 2 1000 9 84 381 83
665 2 2 1000 9 13 14 353
666 2 2 1000 9 353 14 382
667 2 2 1000 9 353 382 354
668 2 2 1000 9 354 382 383
669 2 2 1000 9 354 383 355
670 2 2 1000 9 355 383 384
671 2 2 1000 9 355 384 356
672 2 2 1000 9 356 384 385
673 2 2 1000 9 356 385 357
674 2 2 1000 9 357 385 386
675 2 2 1000 9 357 386 358
676 2 2 1000 9 358 386 387
677 2 2 1000 9 358 387 359
678 2 2 1000 9 359 387 388
679 2 2 1000 9 359 388 360
680 2 2 1000 9 360 388 389
681 2 2 1000 9 360 389 361
682 2 2 1000 9 361 389 390
683 2 2 1000 9 361 390 362
684 2 2 1000 9 362 390 391
685 2 2 1000 9 362 391 363
686 2 2 1000 9 363 391 392
687 2 2 1000 9 363 392 364
688 2 2 1000 9 364 392 393
689 2 2 1000 9 364 393 365
690 2 2 1000 9 365 393 394
691 2 2 1000 9 365 394 366
692 2 2 1000 9 366 394 395
693 2 2 1000 9 366 395 367
694 2 2 1000 9 367 395 396
695 2 2 1000 9 367 396 368
696 2 2 1000 9 368 396 397
697 2 2 1000 9 368 397 369
698 2 2 1000 9 369 397 398
699 2 2 1000 9 369 398 370
700 2 2 1000 9 370 398 399
701 2 2 1000 9 370 399 371
702 2 2 1000 9 371 399 400
703 2 2 1000 9 371 400 372
704 2 2 1000 9 372 400 401
705 2 2 1000 9 372 401 373
706 2 2 1000 9 373 401 402
707 2 2 1000 9 373 402 374
708 2 2 1000 9 374 402 403
709 2 2 1000 9 374 403 375
710 2 2 1000 9 375 403 404
711 2 2 1000 9 375 404 376
712 2 2 1000 9 376 404 405
713 2 2 1000 9 376 405 377
714 2 2 1000 9 377 405 406
715 2 2 1000 9 377 406 378
716 2 2 1000 9 378 406 407
717 2 2 1000 9 378 407 379
718 2 2 1000 9 379 407 408
719 2 2 1000 9 379 408 380
720 2 2 1000 9 380 408 409
721 2 2 1000 9 380 409 381
722 2 2 1000 9 381 409 410
723 2 2 1000 9 381 410 83
724 2 2 1000 9 83 410 82
725 2 2 1000 9 14 15 382
726 2 2 1000 9 382 15 411
727 2 2 1000 9 382 411 383
728 2 2 1000 9 383 411 412
729 2 2 1000 9 383 412 384
730 2 2 1000 9 384 412 413
731 2 2 1000 9 384 413 385
732 2 2 1000 9 385 413 414
733 2 2 1000 9 385 414 386
734 2 2 1000 9 386 414 415
735 2 2 1000 9 386 415 387
736 2 2 1000 9 387 415 416
737 2 2 1000 9 387 416 388
738 2 2 1000 9 388 416 417
739 2 2 1000 9 388 417 389
740 2 2 1000 9 389 417 418
741 2 2 1000 9 389 418 390
742 2 2 1000 9 390 418 419
743 2 2 1000 9 390 419 391
744 2 2 1000 9 391 419 420
745 2 2 1000 9 391 420 392
746 2 2 1000 9 392 420 421
747 2 2 1000 9 392 421 393
748 2 2 1000 9 393 421 422
749 2 2 1000 9 393 422 394
750 2 2 1000 9 394 422 423
751 2 2 1000 9 394 423 395
752 2 2 1000 9 395 423 424
753 2 2 1000 9 395 424 396
754 2 2 1000 9 396 424 425
755 2 2 1000 9 396 425 397
756 2 2 1000 9 397 425 426
757 2 2 1000 9 397 426 398
758 2 2 1000 9 398 426 427
759 2 2 1000 9 398 427 399
760 2 2 1000 9 399 427 428
761 2 2 1000 9 399 428 400
762 2 2 1000 9 400 428 429
763 2 2 1000 9 400 429 401
764 2 2 1000 9 401 429 430
765 2 2 1000 9 401 430 402
766 2 2 1000 9 402 430 431
767 2 2 1000 9 402 431 403
768 2 2 1000 9 403 431 432
769 2 2 1000 9 403 432 404
770 2 2 1000 9 404 432 433
771 2 2 1000 9 404 433 405
772 2 2 1000 9 405 433 434
773 2 2 1000 9 405 434 406
774 2 2 1000 9 406 434 435
775 2 2 1000 9 406 435 407
776 2 2 1000 9 407 435 436
777 2 2 1000 9 407 436 408
778 2 2 1000 9 408 436 437
779 2 2 1000 9 408 437 409
780 2 2 1000 9 409 437 438
781 2 2 1000 9 409 438 410
782 2 2 1000 9 410 438 439
783 2 2 1000 9 410 439 82
784 2 2 1000 9 82 439 81
785 2 2 1000 9 15 16 411
786 2 2 1000 9 411 16 440
787 2 2 1000 9 411 440 412
788 2 2 1000 9 412 440 441
789 2 2 1000 9 412 441 413
790 2 2 1000 9 413 441 442
791 2 2 1000 9 413 442 414
792 2 2 1000 9 414 442 443
793 2 2 1000 9 414 443 415
794 2 2 1000 9 415 443 444
795 2 2 1000 9 415 444 416
796 2 2 1000 9 416 444 445
797 2 2 1000 9 416 445 417
798 2 2 1000 9 417 445 446
799 2 2 1000 9 417 446 418
800 2 2 1000 9 418 446 447
801 2 2 1000 9 418 447 419
802 2 2 1000 9 419 447 448
803 2 2 1000 9 419 448 420
804 2 2 1000 9 420 448 449
805 2 2 1000 9 420 449 421
806 2 2 1000 9 421 449 450
807 2 2 1000 9 421 450 422
808 2 2 1000 9 422 450 451
809 2 2 1000 9 422 451 423
810 2 2 1000 9 423 451 452
811 2 2 1000 9 423 452 424
812 2 2 1000 9 424 452 453
813 2 2 1000 9 424 453 425
814 2 2 1000 9 425 453 454
815 2 2 1000 9 425 454 426
816 2 2 1000 9 426 454 455
817 2 2 1000 9 426 455 427
818 2 2 1000 9 427 455 456
819 2 2 1000 9 427 456 428
820 2 2 1000 9 428 456 457
821 2 2 1000 9 428 457 429
822 2 2 1000 9 429 457 458
823 2 2 1000 9 429 458 430
824 2 2 1000 9 430 458 459
825 2 2 1000 9 430 459 431
826 2 2 1000 9 431 459 460
827 2 2 1000 9 431 460 432
828 2 2 1000 9 432 460 461
829 2 2 1000 9 432 461 433
830 2 2 1000 9 433 461 462
831 2 2 1000 9 433 462 434
832 2 2 1000 9 434 462 463
833 2 2 1000 9 434 463 435
834 2 2 1000 9 435 463 464
835 2 2 1000 9 435 464 436
836 2 2 1000 9 436 464 465
837 2 2 1000 9 436 465 437
838 2 2 1000 9 437 465 466
839 2 2 1000 9 437 466 438
840 2 2 1000 9 438 466 467
841 2 2 1000 9 438 467 439
842 2 2 1000 9 439 467 468
843 2 2 1000 9 439 468 81
844 2 2 1000 9 81 468 80
845 2 2 1000 9 16 17 440
846 2 2 1000 9 440 17 469
847 2 2 1000 9 440 469 441
848 2 2 1000 9 441 469 470
849 2 2 1000 9 441 470 442
850 2 2 1000 9 442 470 471
851 2 2 1000 9 442 471 443
852 2 2 1000 9 443 471 472
853 2 2 1000 9 443 472 444
854 2 2 1000 9 444 472 473
855 2 2 1000 9 444 473 445
856 2 2 1000 9 445 473 474
857 2 2 1000 9 445 474 446
858 2 2 1000 9 446 474 475
859 2 2 1000 9 446 475 447
860 2 2 1000 9 447 475 476
861 2 2 1000 9 447 476 448
862 2 2 1000 9 448 476 477
863 2 2 1000 9 448 477 449
864 2 2 1000 9 449 477 478
865 2 2 1000 9 449 478 450
866 2 2 1000 9 450 478 479
867 2 2 1000 9 450 479 451
868 2 2 1000 9 451 479 480
869 2 2 1000 9 451 480 452
870 2 2 1000 9 452 480 481
871 2 2 1000 9 452 481 453
872 2 2 1000 9 453 481 482
873 2 2 1000 9 453 482 454
874 2 2 1000 9 454 482 483
875 2 2 1000 9 454 483 455
876 2 2 1000 9 455 483 484
877 2 2 1000 9 455 484 456
878 2 2 1000 9 456 484 485
879 2 2 1000 9 456 485 457
880 2 2 1000 9 457 485 486
881 2 2 1000 9 457 486 458
882 2 2 1000 9 458 486 487
883 2 2 1000 9 458 487 459
884 2 2 1000 9 459 487 488
885 2 2 1000 9 459 488 460
886 2 2 1000 9 460 488 489
887 2 2 1000 9 460 489 461
888 2 2 1000 9 461 489 490
889 2 2 1000 9 461 490 462
890 2 2 1000 9 462 490 491
891 2 2 1000 9 462 491 463
892 2 2 1000 9 463 491 492
893 2 2 1000 9 463 492 464
894 2 2 1000 9 464 492 493
895 2 2 1000 9 464 493 465
896 2 2 1000 9 465 493 494
897 2 2 1000 9 465 494 466
898 2 2 1000 9 466 494 495
899 2 2 1000 9 466 495 467
900 2 2 1000 9 467 495 496
901 2 2 1000 9 467 496 468
902 2 2 1000 9 468 496 497
903 2 2 1000 9 468 497 80
904 2 2 1000 9 80 497 79
905 2 2 1000 9 17 18 469
906 2 2 1000 9 469 18 498
907 2 2 1000 9 469 498 470
908 2 2 1000 9 470 498 499
909 2 2 1000 9 470 499 471
910 2 2 1000 9 471 499 500
911 2 2 1000 9 471 500 472
912 2 2 1000 9 472 500 501
913 2 2 1000 9 472 501 473
914 2 2 1000 9 473 501 502
915 2 2 1000 9 473 502 474
916 2 2 1000 9 474 502 503
917 2 2 1000 9 474 503 475
918 2 2 1000 9 475 503 504
919 2 2 1000 9 475 504 476
920 2 2 1000 9 476 504 505
921 2 2 1000 9 476 505 477
922 2 2 1000 9 477 505 506
923 2 2 1000 9 477 506 478
924 2 2 1000 9 478 506 507
925 2 2 1000 9 478 507 479
926 2 2 1000 9 479 507 508
927 2 2 1000 9 479 508 480
928 2 2 1000 9 480 508 509
929 2 2 1000 9 480 509 481
930 2 2 1000 9 481 509 510
931 2 2 1000 9 481 510 482
932 2 2 1000 9 482 510 511
933 2 2 1000 9 482 511 483
934 2 2 1000 9 483 511 512
935 2 2 1000 9 483 512 484
936 2 2 1000 9 484 512 513
937 2 2 1000 9 484 513 485
938 2 2 1000 9 485 513 514
939 2 2 1000 9 485 514 486
940 2 2 1000 9 486 514 515
941 2 2 1000 9 486 515 487
942 2 2 1000 9 487 515 516
943 2 2 1000 9 487 516 488
944 2 2 1000 9 488 516 517
945 2 2 1000 9 488 517 489
946 2 2 1000 9 489 517 518
947 2 2 1000 9 489 518 490
948 2 2 1000 9 490 518 519
949 2 2 1000 9 490 519 491
950 2 2 1000 9 491 519 520
951 2 2 1000 9 491 520 492
952 2 2 1000 9 492 520 521
953 2 2 1000 9 492 521 493
954 2 2 1000 9 493 521 522
955 2 2 1000 9 493 522 494
956 2 2 1000 9 494 522 523
957 2 2 1000 9 494 523 495
958 2 2 1000 9 495 523 524
959 2 2 1000 9 495 524 496
960 2 2 1000 9 496 524 525
961 2 2 1000 9 496 525 497
962 2 2 1000 9 497 525 526
963 2 2 1000 9 497 526 79
964 2 2 1000 9 79 526 78
965 2 2 1000 9 18 19 498
966 2 2 1000 9 498 19 527
967 2 2 1000 9 498 527 499
968 2 2 1000 9 499 527 528
969 2 2 1000 9 499 528 500
970 2 2 1000 9 500 528 529
971 2 2 1000 9 500 529 501
972 2 2 1000 9 501 529 530
973 2 2 1000 9 501 530 502
974 2 2 1000 9 502 530 531
975 2 2 1000 9 502 531 503
976 2 2 1000 9 503 531 532
977 2 2 1000 9 503 532 504
978 2 2 1000 9 504 532 533
979 2 2 1000 9 504 533 505
980 2 2 1000 9 505 533 534
981 2 2 1000 9 505 534 506
982 2 2 1000 9 506 534 535
983 2 2 1000 9 506 535 507
984 2 2 1000 9 507 535 536
985 2 2 1000 9 507 536 508
986 2 2 1000 9 508 536 537
987 2 2 1000 9 508 537 509
988 2 2 1000 9 509 537 538
989 2 2 1000 9 509 538 510
990 2 2 1000 9 510 538 539
991 2 2 1000 9 510 539 511
992 2 2 1000 9 511 539 540
993 2 2 1000 9 511 540 512
994 2 2 1000 9 512 540 541
995 2 2 1000 9 512 541 513
996 2 2 1000 9 513 541 542
997 2 2 1000 9 513 542 514
998 2 2 1000 9 514 542 543
999 2 2 1000 9 514 543 515
1000 2 2 1000 9 515 543 544
1001 2 2 1000 9 515 544 516
1002 2 2 1000 9 516 544 545
1003 2 2 1000 9 516 545 517
1004 2 2 1000 9 517 545 546
1005 2 2 1000 9 517 546 518
1006 2 2 1000 9 518 546 547
1007 2 2 1000 9 518 547 519
1008 2 2 1000 9 519 547 548
1009 2 2 1000 9 519 548 520
1010 2 2 1000 9 520 548 549
1011 2 2 1000 9 520 549 521
1012 2 2 1000 9 521 549 550
1013 2 2 1000 9 521 550 522
1014 2 2 1000 9 522 550 551
1015 2 2 1000 9 522 551 523
1016 2 2 1000 9 523 551 552
1017 2 2 1000 9 523 552 524
1018 2 2 1000 9 524 552 553
1019 2 2 1000 9 524 553 525
1020 2 2 1000 9 525 553 554
1021 2 2 1000 9 525 554 526
1022 2 2 1000 9 526 554 555
1023 2 2 1000 9 526 555 78
1024 2 2 1000 9 78 555 77
1025 2 2 1000 9 19 20 527
1026 2 2 1000 9 527 20 556
1027 2 2 1000 9 527 556 528
1028 2 2 1000 9 528 556 557
1029 2 2 1000 9 528 557 529
1030 2 2 1000 9 529 557 558
1031 2 2 1000 9 529 558 530
1032 2 2 1000 9 530 558 559
1033 2 2 1000 9 530 559 531
1034 2 2 1000 9 531 559 560
1035 2 2 1000 9 531 560 532
1036 2 2 1000 9 532 560 561
1037 2 2 1000 9 532 561 533
1038 2 2 1000 9 533 561 562
1039 2 2 1000 9 533 562 534
1040 2 2 1000 9 534 562 563
1041 2 2 1000 9 534 563 535
1042 2 2 1000 9 535 563 564
1043 2 2 1000 9 535 564 536
1044 2 2 1000 9 536 564 565
1045 2 2 1000 9 536 565 537
1046 2 2 1000 9 537 565 566
1047 2 2 1000 9 537 566 538
1048 2 2 1000 9 538 566 567
1049 2 2 1000 9 538 567 539
1050 2 2 1000 9 539 567 568
1051 2 2 1000 9 539 568 540
1052 2 2 1000 9 540 568 569
1053 2 2 1000 9 540 569 541
1054 2 2 1000 9 541 569 570
1055 2 2 1000 9 541 570 542
1056 2 2 1000 9 542 570 571
1057 2 2 1000 9 542 571 543
1058 2 2 1000 9 543 571 572
1059 2 2 1000 9 543 572 544
1060 2 2 1000 9 544 572 573
1061 2 2 1000 9 544 573 545
1062 2 2 1000 9 545 573 574
1063 2 2 1000 9 545 574 546
1064 2 2 1000 9 546 574 575
1065 2 2 1000 9 546 575 547
1066 2 2 1000 9 547 575 576
1067 2 2 1000 9 547 576 548
1068 2 2 1000 9 548 576 577
1069 2 2 1000 9 548 577 549
1070 2 2 1000 9 549 577 578
1071 2 2 1000 9 549 578 550
1072 2 2 1000 9 550 578 579
1073 2 2 1000 9 550 579 551
1074 2 2 1000 9 551 579 580
1075 2 2 1000 9 551 580 552
1076 2 2 1000 9 552 580 581
1077 2 2 1000 9 552 581 553
1078 2 2 1000 9 553 581 582
1079 2 2 1000 9 553 582 554
1080 2 2 1000 9 554 582 583
1081 2 2 1000 9 554 583 555
1082 2 2 1000 9 555 583 584
1083 2 2 1000 9 555 584 77
1084 2 2 1000 9 77 584 76
1085 2 2 1000 9 20 21 556
1086 2 2 1000 9 556 21 585
1087 2 2 1000 9 556 585 557
1088 2 2 1000 9 557 585 586
1089 2 2 1000 9 557 586 558
1090 2 2 1000 9 558 586 587
1091 2 2 1000 9 558 587 559
1092 2 2 1000 9 559 587 588
1093 2 2 1000 9 559 588 560
1094 2 2 1000 9 560 588 589
1095 2 2 1000 9 560 589 561
1096 2 2 1000 9 561 589 590
1097 2 2 1000 9 561 590 562
1098 2 2 1000 9 562 590 591
1099 2 2 1000 9 562 591 563
1100 2 2 1000 9 563 591 592
1101 2 2 1000 9 563 592 564
1102 2 2 1000 9 564 592 593
1103 2 2 1000 9 564 593 565
1104 2 2 1000 9 565 593 594
1105 2 2 1000 9 565 594 566
1106 2 2 1000 9 566 594 595
1107 2 2 1000 9 566 595 567
1108 2 2 1000 9 567 595 596
1109 2 2 1000 9 567 596 568
1110 2 2 1000 9 568 596 597
1111 2 2 1000 9 568 597 569
1112 2 2 1000 9 569 597 598
1113 2 2 1000 9 569 598 570
1114 2 2 1000 9 570 598 599
1115 2 2 1000 9 570 599 571
1116 2 2 1000 9 571 599 600
1117 2 2 1000 9 571 600 572
1118 2 2 1000 9 572 600 601
1119 2 2 1000 9 572 601 573
1120 2 2 1000 9 573 601 602
1121 2 2 1000 9 573 602 574
1122 2 2 1000 9 574 602 603
1123 2 2 1000 9 574 603 575
1124 2 2 1000 9 575 603 604
1125 2 2 1000 9 575 604 576
1126 2 2 1000 9 576 604 605
1127 2 2 1000 9 576 605 577
1128 2 2 1000 9 577 605 606
1129 2 2 1000 9 577 606 578
1130 2 2 1000 9 578 606 607
1131 2 2 1000 9 578 607 579
1132 2 2 1000 9 579 607 608
1133 2 2 1000 9 579 608 580
1134 2 2 1000 9 580 608 609
1135 2 2 1000 9 580 609 581
1136 2 2 1000 9 581 609 610
1137 2 2 1000 9 581 610 582
1138 2 2 1000 9 582 610 611
1139 2 2 1000 9 582 611 583
1140 2 2 1000 9 583 611 612
1141 2 2 1000 9 583 612 584
1142 2 2 1000 9 584 612 613
1143 2 2 1000 9 584 613 76
1144 2 2 1000 9 76 613 75
1145 2 2 1000 9 21 22 585
1146 2 2 1000 9 585 22 614
1147 2 2 1000 9 585 614 586
1148 2 2 1000 9 586 614 615
1149 2 2 1000 9 586 615 587
1150 2 2 1000 9 587 615 616
1151 2 2 1000 9 587 616 588
1152 2 2 1000 9 588 616 617
1153 2 2 1000 9 588 617 589
1154 2 2 1000 9 589 617 618
1155 2 2 1000 9 589 618 590
1156 2 2 1000 9 590 618 619
1157 2 2 1000 9 590 619 591
1158 2 2 1000 9 591 619 620
1159 2 2 1000 9 591 620 592
1160 2 2 1000 9 592 620 621
1161 2 2 1000 9 592 621 593
1162 2 2 1000 9 593 621 622
1163 2 2 1000 9 593 622 594
1164 2 2 1000 9 594 622 623
1165 2 2 1000 9 594 623 595
1166 2 2 1000 9 595 623 624
1167 2 2 1000 9 595 624 596
1168 2 2 1000 9 596 624 625
1169 2 2 1000 9 596 625 597
1170 2 2 1000 9 597 625 626
1171 2 2 1000 9 597 626 598
1172 2 2 1000 9 598 626 627
1173 2 2 1000 9 598 627 599
1174 2 2 1000 9 599 627 628
1175 2 2 1000 9 599 628 600
1176 2 2 1000 9 600 628 629
1177 2 2 1000 9 600 629 601
1178 2 2 1000 9 601 629 630
1179 2 2 1000 9 601 630 602
1180 2 2 1000 9 602 630 631
1181 2 2 1000 9 602 631 603
1182 2 2 1000 9 603 631 632
1183 2 2 1000 9 603 632 604
1184 2 2 1000 9 604 632 633
1185 2 2 1000 9 604 633 605
1186 2 2 1000 9 605 633 634
1187 2 2 1000 9 605 634 606
1188 2 2 1000 9 606 634 635
1189 2 2 1000 9 606 635 607
1190 2 2 1000 9 607 635 636
1191 2 2 1000 9 607 636 608
1192 2 2 1000 9 608 636 637
1193 2 2 1000 9 608 637 609
1194 2 2 1000 9 609 637 638
1195 2 2 1000 9 609 638 610
1196 2 2 1000 9 610 638 639
1197 2 2 1000 9 610 639 611
1198 2 2 1000 9 611 639 640
1199 2 2 1000 9 611 640 612
1200 2 2 1000 9 612 640 641
1201 2 2 1000 9 612 641 613
1202 2 2 1000 9 613 641 642
1203 2 2 1000 9 613 642 75
1204 2 2 1000 9 75 642 74
1205 2 2 1000 9 22 23 614
1206 2 2 1000 9 614 23 643
1207 2 2 1000 9 614 643 615
1208 2 2 1000 9 615 643 644
1209 2 2 1000 9 615 644 616
1210 2 2 1000 9 616 644 645
1211 2 2 1000 9 616 645 617
1212 2 2 1000 9 617 645 646
1213 2 2 1000 9 617 646 618
1214 2 2 1000 9 618 646 647
1215 2 2 1000 9 618 647 619
1216 2 2 1000 9 619 647 648
1217 2 2 1000 9 619 648 620
1218 2 2 1000 9 620 648 649
1219 2 2 1000 9 620 649 621
1220 2 2 1000 9 621 649 650
1221 2 2 1000 9 621 650 622
1222 2 2 1000 9 622 650 651
1223 2 2 1000 9 622 651 623
1224 2 2 1000 9 623 651 652
1225 2 2 1000 9 623 652 624
1226 2 2 1000 9 624 652 653
1227 2 2 1000 9 624 653 625
1228 2 2 1000 9 625 653 654
1229 2 2 1000 9 625 654 626
1230 2 2 1000 9 626 654 655
1231 2 2 1000 9 626 655 627
1232 2 2 1000 9 627 655 656
1233 2 2 1000 9 627 656 628
1234 2 2 1000 9 628 656 657
1235 2 2 1000 9 628 657 629
1236 2 2 1000 9 629 657 658
1237 2 2 1000 9 629 658 630
1238 2 2 1000 9 630 658 659
1239 2 2 1000 9 630 659 631
1240 2 2 1000 9 631 659 660
1241 2 2 1000 9 631 660 632
1242 2 2 1000 9 632 660 661
1243 2 2 1000 9 632 661 633
1244 2 2 1000 9 633 661 662
1245 2 2 1000 9 633 662 634
1246 2 2 1000 9 634 662 663
1247 2 2 1000 9 634 663 635
1248 2 2 1000 9 635 663 664
1249 2 2 1000 9 635 664 636
1250 2 2 1000 9 636 664 665
1251 2 2 1000 9 636 665 637
1252 2 2 1000 9 637 665 666
1253 2 2 1000 9 637 666 638
1254 2 2 1000 9 638 666 667
1255 2 2 1000 9 638 667 639
1256 2 2 1000 9 639 667 668
1257 2 2 1000 9 639 668 640
1258 2 2 1000 9 640 668 669
1259 2 2 1000 9 640 669 641
1260 2 2 1000 9 641 669 670
1261 2 2 1000 9 641 670 642
1262 2 2 1000 9 642 670 671
1263 2 2 1000 9 642 671 74
1264 2 2 1000 9 74 671 73
1265 2 2 1000 9 23 24 643
1266 2 2 1000 9 643 24 672
1267 2 2 1000 9 643 672 644
1268 2 2 1000 9 644 672 673
1269 2 2 1000 9 644 673 645
1270 2 2 1000 9 645 673 674
1271 2 2 1000 9 645 674 646
1272 2 2 1000 9 646 674 675
1273 2 2 1000 9 646 675 647
1274 2 2 1000 9 647 675 676
1275 2 2 1000 9 647 676 648
1276 2 2 1000 9 648 676 677
1277 2 2 1000 9 648 677 649
1278 2 2 1000 9 649 677 678
1279 2 2 1000 9 649 678 650
1280 2 2 1000 9 650 678 679
1281 2 2 1000 9 650 679 651
1282 2 2 1000 9 651 679 680
1283 2 2 1000 9 651 680 652
1284 2 2 1000 9 652 680 681
1285 2 2 1000 9 652 681 653
1286 2 2 1000 9 653 681 682
1287 2 2 1000 9 653 682 654
1288 2 2 1000 9 654 682 683
1289 2 2 1000 9 654 683 655
1290 2 2 1000 9 655 683 684
1291 2 2 1000 9 655 684 656
1292 2 2 1000 9 656 684 685
1293 2 2 1000 9 656 685 657
1294 2 2 1000 9 657 685 686
1295 2 2 1000 9 657 686 658
1296 2 2 1000 9 658 686 687
1297 2 2 1000 9 658 687 659
1298 2 2 1000 9 659 687 688
1299 2 2 1000 9 659 688 660
1300 2 2 1000 9 660 688 689
1301 2 2 1000 9 660 689 661
1302 2 2 1000 9 661 689 690
1303 2 2 1000 9 661 690 662
1304 2 2 1000 9 662 690 691
1305 2 2 1000 9 662 691 663
1306 2 2 1000 9 663 691 692
1307 2 2 1000 9 663 692 664
1308 2 2 1000 9 664 692 693
1309 2 2 1000 9 664 693 665
1310 2 2 1000 9 665 693 694
1311 2 2 1000 9 665 694 666
1312 2 2 1000 9 666 694 695
1313 2 2 1000 9 666 695 667
1314 2 2 1000 9 667 695 696
1315 2 2 1000 9 667 696 668
1316 2 2 1000 9 668 696 697
1317 2 2 1000 9 668 697 669
1318 2 2 1000 9 669 697 698
1319 2 2 1000 9 669 698 670
1320 2 2 1000 9 670 698 699
1321 2 2 1000 9 670 699 671
1322 2 2 1000 9 671 699 700
1323 2 2 1000 9 671 700 73
1324 2 2 1000 9 73 700 72
1325 2 2 1000 9 24 25 672
1326 2 2 1000 9 672 25 701
1327 2 2 1000 9 672 701 673
1328 2 2 1000 9 673 701 702
1329 2 2 1000 9 673 702 674
1330 2 2 1000 9 674 702 703
1331 2 2 1000 9 674 703 675
1332 2 2 1000 9 675 703 704
1333 2 2 1000 9 675 704 676
1334 2 2 1000 9 676 704 705
1335 2 2 1000 9 676 705 677
1336 2 2 1000 9 677 705 706
1337 2 2 1000 9 677 706 678
1338 2 2 1000 9 678 706 707
1339 2 2 1000 9 678 707 679
1340 2 2 1000 9 679 707 708
1341 2 2 1000 9 679 708 680
1342 2 2 1000 9 680 708 709
1343 2 2 1000 9 680 709 681
1344 2 2 1000 9 681 709 710
1345 2 2 1000 9 681 710 682
1346 2 2 1000 9 682 710 711
1347 2 2 1000 9 682 711 683
1348 2 2 1000 9 683 711 712
1349 2 2 1000 9 683 712 684
1350 2 2 1000 9 684 712 713
1351 2 2 1000 9 684 713 685
1352 2 2 1000 9 685 713 714
1353 2 2 1000 9 685 714 686
1354 2 2 1000 9 686 714 715
1355 2 2 1000 9 686 715 687
1356 2 2 1000 9 687 715 716
1357 2 2 1000 9 687 716 688
1358 2 2 1000 9 688 716 717
1359 2 2 1000 9 688 717 689
1360 2 2 1000 9 689 717 718
1361 2 2 1000 9 689 718 690
1362 2 2 1000 9 690 718 719
1363 2 2 1000 9 690 719 691
1364 2 2 1000 9 691 719 720
1365 2 2 1000 9 691 720 692
1366 2 2 1000 9 692 720 721
1367 2 2 1000 9 692 721 693
1368 2 2 1000 9 693 721 722
1369 2 2 1000 9 693 722 694
1370 2 2 1000 9 694 722 723
1371 2 2 1000 9 694 723 695
1372 2 2 1000 9 695 723 724
1373 2 2 1000 9 695 724 696
1374 2 2 1000 9 696 724 725
1375 2 2 1000 9 696 725 697
1376 2 2 1000 9 697 725 726
1377 2 2 1000 9 697 726 698
1378 2 2 1000 9 698 726 727
1379 2 2 1000 9 698 727 699
1380 2 2 1000 9 699 727 728
1381 2 2 1000 9 699 728 700
1382 2 2 1000 9 700 728 729
1383 2 2 1000 9 700 729 72
1384 2 2 1000 9 72 729 71
1385 2 2 1000 9 25 26 701
1386 2 2 1000 9 701 26 730
1387 2 2 1000 9 701 730 702
1388 2 2 1000 9 702 730 731
1389 2 2 1000 9 702 731 703
1390 2 2 1000 9 703 731 732
1391 2 2 1000 9 703 732 704
1392 2 2 1000 9 704 732 733
1393 2 2 1000 9 704 733 705
1394 2 2 1000 9 705 733 734
1395 2 2 1000 9 705 734 706
1396 2 2 1000 9 706 734 735
1397 2 2 1000 9 706 735 707
1398 2 2 1000 9 707 735 736
1399 2 2 1000 9 707 736 708
1400 2 2 1000 9 708 736 737
1401 2 2 1000 9 708 737 709
1402 2 2 1000 9 709 737 738
1403 2 2 1000 9 709 738 710
1404 2 2 1000 9 710 738 739
1405 2 2 1000 9 710 739 711
1406 2 2 1000 9 711 739 740
1407 2 2 1000 9 711 740 712
1408 2 2 1000 9 712 740 741
1409 2 2 1000 9 712 741 713
1410 2 2 1000 9 713 741 742
1411 2 2 1000 9 713 742 714
1412 2 2 1000 9 714 742 743
1413 2 2 1000 9 714 743 715
1414 2 2 1000 9 715 743 744
1415 2 2 1000 9 715 744 716
1416 2 2 1000 9 716 744 745
1417 2 2 1000 9 716 745 717
1418 2 2 1000 9 717 745 746
1419 2 2 1000 9 717 746 718
1420 2 2 1000 9 718 746 747
1421 2 2 1000 9 718 747 719
1422 2 2 1000 9 719 747 748
1423 2 2 1000 9 719 748 720
1424 2 2 1000 9 720 748 749
1425 2 2 1000 9 720 749 721
1426 2 2 1000 9 721 749 750
1427 2 2 1000 9 721 750 722
1428 2 2 1000 9 722 750 751
1429 2 2 1000 9 722 751 723
1430 2 2 1000 9 723 751 752
1431 2 2 1000 9 723 752 724
1432 2 2 1000 9 724 752 753
1433 2 2 1000 9 724 753 725
1434 2 2 1000 9 725 753 754
1435 2 2 1000 9 725 754 726
1436 2 2 1000 9 726 754 755
1437 2 2 1000 9 726 755 727
1438 2 2 1000 9 727 755 756
1439 2 2 1000 9 727 756 728
1440 2 2 1000 9 728 756 757
1441 2 2 1000 9 728 757 729
1442 2 2 1000 9 729 757 758
1443 2 2 1000 9 729 758 71
1444 2 2 1000 9 71 758 70
1445 2 2 1000 9 26 27 730
1446 2 2 1000 9 730 27 759
1447 2 2 1000 9 730 759 731
1448 2 2 1000 9 731 759 760
1449 2 2 1000 9 731 760 732
1450 2 2 1000 9 732 760 761
1451 2 2 1000 9 732 761 733
1452 2 2 1000 9 733 761 762
1453 2 2 1000 9 733 762 734
1454 2 2 1000 9 734 762 763
1455 2 2 1000 9 734 763 735
1456 2 2 1000 9 735 763 764
1457 2 2 1000 9 735 764 736
1458 2 2 1000 9 736 764 765
1459 2 2 1000 9 736 765 737
1460 2 2 1000 9 737 765 766
1461 2 2 1000 9 737 766 738
1462 2 2 1000 9 738 766 767
1463 2 2 1000 9 738 767 739
1464 2 2 1000 9 739 767 768
1465 2 2 1000 9 739 768 740
1466 2 2 1000 9 740 768 769
1467 2 2 1000 9 740 769 741
1468 2 2 1000 9 741 769 770
1469 2 2 1000 9 741 770 742
1470 2 2 1000 9 742 770 771
1471 2 2 1000 9 742 771 743
1472 2 2 1000 9 743 771 772
1473 2 2 1000 9 743 772 744
1474 2 2 1000 9 744 772 773
1475 2 2 1000 9 744 773 745
1476 2 2 1000 9 745 773 774
1477 2 2 1000 9 745 774 746
1478 2 2 1000 9 746 774 775
1479 2 2 1000 9 746 775 747
1480 2 2 1000 9 747 775 776
1481 2 2 1000 9 747 776 748
1482 2 2 1000 9 748 776 777
1483 2 2 1000 9 748 777 749
1484 2 2 1000 9 749 777 778
1485 2 2 1000 9 749 778 750
1486 2 2 1000 9 750 778 779
1487 2 2 1000 9 750 779 751
1488 2 2 1000 9 751 779 780
1489 2 2 1000 9 751 780 752
1490 2 2 1000 9 752 780 781
1491 2 2 1000 9 752 781 753
1492 2 2 1000 9 753 781 782
1493 2 2 1000 9 753 782 754
1494 2 2 1000 9 754 782 783
1495 2 2 1000 9 754 783 755
1496 2 2 1000 9 755 783 784
1497 2 2 1000 9 755 784 756
1498 2 2 1000 9 756 784 785
1499 2 2 1000 9 756 785 757
1500 2 2 1000 9 757 785 786
1501 2 2 1000 9 757 786 758
1502 2 2 1000 9 758 786 787
1503 2 2 1000 9 758 787 70
1504 2 2 1000 9 70 787 69
1505 2 2 1000 9 27 28 759
1506 2 2 1000 9 759 28 788
1507 2 2 1000 9 759 788 760
1508 2 2 1000 9 760 788 789
1509 2 2 1000 9 760 789 761
1510 2 2 1000 9 761 789 790
1511 2 2 1000 9 761 790 762
1512 2 2 1000 9 762 790 791
1513 2 2 1000 9 762 791 763
1514 2 2 1000 9 763 791 792
1515 2 2 1000 9 763 792 764
1516 2 2 1000 9 764 792 793
1517 2 2 1000 9 764 793 765
1518 2 2 1000 9 765 793 794
1519 2 2 1000 9 765 794 766
1520 2 2 1000 9 766 794 795
1521 2 2 1000 9 766 795 767
1522 2 2 1000 9 767 795 796
1523 2 2 1000 9 767 796 768
1524 2 2 1000 9 768 796 797
1525 2 2 1000 9 768 797 769
1526 2 2 1000 9 769 797 798
1527 2 2 1000 9 769 798 770
1528 2 2 1000 9 770 798 799
1529 2 2 1000 9 770 799 771
1530 2 2 1000 9 771 799 800
1531 2 2 1000 9 771 800 772
1532 2 2 1000 9 772 800 801
1533 2 2 1000 9 772 801 773
1534 2 2 1000 9 773 801 802
1535 2 2 1000 9 773 802 774
1536 2 2 1000 9 774 802 803
1537 2 2 1000 9 774 803 775
1538 2 2 1000 9 775 803 804
1539 2 2 1000 9 775 804 776
1540 2 2 1000 9 776 804 805
1541 2 2 1000 9 776 805 777
1542 2 2 1000 9 777 805 806
1543 2 2 1000 9 777 806 778
1544 2 2 1000 9 778 806 807
1545 2 2 1000 9 778 807 779
1546 2 2 1000 9 779 807 808
1547 2 2 1000 9 779 808 780
1548 2 2 1000 9 780 808 809
1549 2 2 1000 9 780 809 781
1550 2 2 1000 9 781 809 810
1551 2 2 1000 9 781 810 782
1552 2 2 1000 9 782 810 811
1553 2 2 1000 9 782 811 783
1554 2 2 1000 9 783 811 812
1555 2 2 1000 9 783 812 784
1556 2 2 1000 9 784 812 813
1557 2 2 1000 9 784 813 785
1558 2 2 1000 9 785 813 814
1559 2 2 1000 9 785 814 786
1560 2 2 1000 9 786 814 815
1561 2 2 1000 9 786 815 787
1562 2 2 1000 9 787 815 816
1563 2 2 1000 9 787 816 69
1564 2 2 1000 9 69 816 68
1565 2 2 1000 9 28 29 788
1566 2 2 1000 9 788 29 817
1567 2 2 1000 9 788 817 789
1568 2 2 1000 9 789 817 818
1569 2 2 1000 9 789 818 790
1570 2 2 1000 9 790 818 819
1571 2 2 1000 9 790 819 791
1572 2 2 1000 9 791 819 820
1573 2 2 1000 9 791 820 792
1574 2 2 1000 9 792 820 821
1575 2 2 1000 9 792 821 793
1576 2 2 1000 9 793 821 822
1577 2 2 1000 9 793 822 794
1578 2 2 1000 9 794 822 823
1579 2 2 1000 9 794 823 795
1580 2 2 1000 9 795 823 824
1581 2 2 1000 9 795 824 796
1582 2 2 1000 9 796 824 825
1583 2 2 1000 9 796 825 797
1584 2 2 1000 9 797 825 826
1585 2 2 1000 9 797 826 798
1586 2 2 1000 9 798 826 827
1587 2 2 1000 9 798 827 799
1588 2 2 1000 9 799 827 828
1589 2 2 1000 9 799 828 800
1590 2 2 1000 9 800 828 829
1591 2 2 1000 9 800 829 801
1592 2 2 1000 9 801 829 830
1593 2 2 1000 9 801 830 802
1594 2 2 1000 9 802 830 831
1595 2 2 1000 9 802 831 803
1596 2 2 1000 9 803 831 832
1597 2 2 1000 9 803 832 804
1598 2 2 1000 9 804 832 833
1599 2 2 1000 9 804 833 805
1600 2 2 1000 9 805 833 834
1601 2 2 1000 9 805 834 806
1602 2 2 1000 9 806 834 835
1603 2 2 1000 9 806 835 807
1604 2 2 1000 9 807 835 836
1605 2 2 1000 9 807 836 808
1606 2 2 1000 9 808 836 837
1607 2 2 1000 9 808 837 809
1608 2 2 1000 9 809 837 838
1609 2 2 1000 9 809 838 810
1610 2 2 1000 9 810 838 839
1611 2 2 1000 9 810 839 811
1612 2 2 1000 9 811 839 840
1613 2 2 1000 9 811 840 812
1614 2 2 1000 9 812 840 841
1615 2 2 1000 9 812 841 813
1616 2 2 1000 9 813 841 842
1617 2 2 1000 9 813 842 814
1618 2 2 1000 9 814 842 843
1619 2 2 1000 9 814 843 815
1620 2 2 1000 9 815 843 844
1621 2 2 1000 9 815 844 816
1622 2 2 1000 9 816 844 845
1623 2 2 1000 9 816 845 68
1624 2 2 1000 9 68 845 67
1625 2 2 1000 9 29 30 817
1626 2 2 1000 9 817 30 846
1627 2 2 1000 9 817 846 818
1628 2 2 1000 9 818 846 847
1629 2 2 1000 9 818 847 819
1630 2 2 1000 9 819 847 848
1631 2 2 1000 9 819 848 820
1632 2 2 1000 9 820 848 849
1633 2 2 1000 9 820 849 821
1634 2 2 1000 9 821 849 850
1635 2 2 1000 9 821 850 822
1636 2 2 1000 9 822 850 851
1637 2 2 1000 9 822 851 823
1638 2 2 1000 9 823 851 852
1639 2 2 1000 9 823 852 824
1640 2 2 1000 9 824 852 853
1641 2 2 1000 9 824 853 825
1642 2 2 1000 9 825 853 854
1643 2 2 1000 9 825 854 826
1644 2 2 1000 9 826 854 855
1645 2 2 1000 9 826 855 827
1646 2 2 1000 9 827 855 856
1647 2 2 1000 9 827 856 828
1648 2 2 1000 9 828 856 857
1649 2 2 1000 9 828 857 829
1650 2 2 1000 9 829 857 858
1651 2 2 1000 9 829 858 830
1652 2 2 1000 9 830 858 859
1653 2 2 1000 9 830 859 831
1654 2 2 1000 9 831 859 860
1655 2 2 1000 9 831 860 832
1656 2 2 1000 9 832 860 861
1657 2 2 1000 9 832 861 833
1658 2 2 1000 9 833 861 862
1659 2 2 1000 9 833 862 834
1660 2 2 1000 9 834 862 863
1661 2 2 1000 9 834 863 835
1662 2 2 1000 9 835 863 864
1663 2 2 1000 9 835 864 836
1664 2 2 1000 9 836 864 865
1665 2 2 1000 9 836 865 837
1666 2 2 1000 9 837 865 866
1667 2 2 1000 9 837 866 838
1668 2 2 1000 9 838 866 867
1669 2 2 1000 9 838 867 839
1670 2 2 1000 9 839 867 868
1671 2 2 1000 9 839 868 840
1672 2 2 1000 9 840 868 869
1673 2 2 1000 9 840 869 841
1674 2 2 1000 9 841 869 870
1675 2 2 1000 9 841 870 842
1676 2 2 1000 9 842 870 871
1677 2 2 1000 9 842 871 843
1678 2 2 1000 9 843 871 872
1679 2 2 1000 9 843 872 844
1680 2 2 1000 9 844 872 873
1681 2 2 1000 9 844 873 845
1682 2 2 1000 9 845 873 874
1683 2 2 1000 9 845 874 67
1684 2 2 1000 9 67 874 66
1685 2 2 1000 9 30 31 846
1686 2 2 1000 9 846 31 875
1687 2 2 1000 9 846 875 847
1688 2 2 1000 9 847 875 876
1689 2 2 1000 9 847 876 848
1690 2 2 1000 9 848 876 877
1691 2 2 1000 9 848 877 849
1692 2 2 1000 9 849 877 878
1693 2 2 1000 9 849 878 850
1694 2 2 1000 9 850 878 879
1695 2 2 1000 9 850 879 851
1696 2 2 1000 9 851 879 880
1697 2 2 1000 9 851 880 852
1698 2 2 1000 9 852 880 881
1699 2 2 1000 9 852 881 853
1700 2 2 1000 9 853 881 882
1701 2 2 1000 9 853 882 854
1702 2 2 1000 9 854 882 883
1703 2 2 1000 9 854 883 855
1704 2 2 1000 9 855 883 884
1705 2 2 1000 9 855 884 856
1706 2 2 1000 9 856 884 885
1707 2 2 1000 9 856 885 857
1708 2 2 1000 9 857 885 886
1709 2 2 1000 9 857 886 858
1710 2 2 1000 9 858 886 887
1711 2 2 1000 9 858 887 859
1712 2 2 1000 9 859 887 888
1713 2 2 1000 9 859 888 860
1714 2 2 1000 9 860 888 889
1715 2 2 1000 9 860 889 861
1716 2 2 1000 9 861 889 890
1717 2 2 1000 9 861 890 862
1718 2 2 1000 9 862 890 891
1719 2 2 1000 9 862 891 863
1720 2 2 1000 9 863 891 892
1721 2 2 1000 9 863 892 864
1722 2 2 1000 9 864 892 893
1723 2 2 1000 9 864 893 865
1724 2 2 1000 9 865 893 894
1725 2 2 1000 9 865 894 866
1726 2 2 1000 9 866 894 895
1727 2 2 1000 9 866 895 867
1728 2 2 1000 9 867 895 896
1729 2 2 1000 9 867 896 868
1730 2 2 1000 9 868 896 897
1731 2 2 1000 9 868 897 869
1732 2 2 1000 9 869 897 898
1733 2 2 1000 9 869 898 870
1734 2 2 1000 9 870 898 899
1735 2 2 1000 9 870 899 871
1736 2 2 1000 9 871 899 900
1737 2 2 1000 9 871 900 872
1738 2 2 1000 9 872 900 901
1739 2 2 1000 9 872 901 873
1740 2 2 1000 9 873 901 902
1741 2 2 1000 9 873 902 874
1742 2 2 1000 9 874 902 903
1743 2 2 1000 9 874 903 66
1744 2 2 1000 9 66 903 65
1745 2 2 1000 9 31 32 875
1746 2 2 1000 9 875 32 904
1747 2 2 1000 9 875 904 876
1748 2 2 1000 9 876 904 905
1749 2 2 1000 9 876 905 877
1750 2 2 1000 9 877 905 906
1751 2 2 1000 9 877 906 878
1752 2 2 1000 9 878 906 907
1753 2 2 1000 9 878 907 879
1754 2 2 1000 9 879 907 908
1755 2 2 1000 9 879 908 880
1756 2 2 1000 9 880 908 909
1757 2 2 1000 9 880 909 881
1758 2 2 1000 9 881 909 910
1759 2 2 1000 9 881 910 882
1760 2 2 1000 9 882 910 911
1761 2 2 1000 9 882 911 883
1762 2 2 1000 9 883 911 912
1763 2 2 1000 9 883 912 884
1764 2 2 1000 9 884 912 913
1765 2 2 1000 9 884 913 885
1766 2 2 1000 9 885 913 914
1767 2 2 1000 9 885 914 886
1768 2 2 1000 9 886 914 915
1769 2 2 1000 9 886 915 887
1770 2 2 1000 9 887 915 916
1771 2 2 1000 9 887 916 888
1772 2 2 1000 9 888 916 917
1773 2 2 1000 9 888 917 889
1774 2 2 1000 9 889 917 918
1775 2 2 1000 9 889 918 890
1776 2 2 1000 9 890 918 919
1777 2 2 1000 9 890 919 891
1778 2 2 1000 9 891 919 920
1779 2 2 1000 9 891 920 892
1780 2 2 1000 9 892 920 921
1781 2 2 1000 9 892 921 893
1782 2 2 1000 9 893 921 922
1783 2 2 1000 9 893 922 894
1784 2 2 1000 9 894 922 923
1785 2 2 1000 9 894 923 895
1786 2 2 1000 9 895 923 924
1787 2 2 1000 9 895 924 896
1788 2 2 1000 9 896 924 925
1789 2 2 1000 9 896 925 897
1790 2 2 1000 9 897 925 926
1791 2 2 1000 9 897 926 898
1792 2 2 1000 9 898 926 927
1793 2 2 1000 9 898 927 899
1794 2 2 1000 9 899 927 928
1795 2 2 1000 9 899 928 900
1796 2 2 1000 9 900 928 929
1797 2 2 1000 9 900 929 901
1798 2 2 1000 9 901 929 930
1799 2 2 1000 9 901 930 902
1800 2 2 1000 9 902 930 931
1801 2 2 1000 9 902 931 903
1802 2 2 1000 9 903 931 932
1803 2 2 1000 9 903 932 65
1804 2 2 1000 9 65 932 64
1805 2 2 1000 9 32 33 904
1806 2 2 1000 9 904 33 933
1807 2 2 1000 9 904 933 905
1808 2 2 1000 9 905 933 934
1809 2 2 1000 9 905 934 906
1810 2 2 1000 9 906 934 935
1811 2 2 1000 9 906 935 907
1812 2 2 1000 9 907 935 936
1813 2 2 1000 9 907 936 908
1814 2 2 1000 9 908 936 937
1815 2 2 1000 9 908 937 909
1816 2 2 1000 9 909 937 938
1817 2 2 1000 9 909 938 910
1818 2 2 1000 9 910 938 939
1819 2 2 1000 9 910 939 911
1820 2 2 1000 9 911 939 940
1821 2 2 1000 9 911 940 912
1822 2 2 1000 9 912 940 941
1823 2 2 1000 9 912 941 913
1824 2 2 1000 9 913 941 942
1825 2 2 1000 9 913 942 914
1826 2 2 1000 9 914 942 943
1827 2 2 1000 9 914 943 915
1828 2 2 1000 9 915 943 944
1829 2 2 1000 9 915 944 916
1830 2 2 1000 9 916 944 945
1831 2 2 1000 9 916 945 917
1832 2 2 1000 9 917 945 946
1833 2 2 1000 9 917 946 918
1834 2 2 1000 9 918 946 947
1835 2 2 1000 9 918 947 919
1836 2 2 1000 9 919 947 948
1837 2 2 1000 9 919 948 920
1838 2 2 1000 9 920 948 949
1839 2 2 1000 9 920 949 921
1840 2 2 1000 9 921 949 950
1841 2 2 1000 9 921 950 922
1842 2 2 1000 9 922 950 951
1843 2 2 1000 9 922 951 923
1844 2 2 1000 9 923 951 952
1845 2 2 1000 9 923 952 924
1846 2 2 1000 9 924 952 953
1847 2 2 1000 9 924 953 925
1848 2 2 1000 9 925 953 954
1849 2 2 1000 9 925 954 926
1850 2 2 1000 9 926 954 955
1851 2 2 1000 9 926 955 927
1852 2 2 1000 9 927 955 956
1853 2 2 1000 9 927 956 928
1854 2 2 1000 9 928 956 957
1855 2 2 1000 9 928 957 929
1856 2 2 1000 9 929 957 958
1857 2 2 1000 9 929 958 930
1858 2 2 1000 9 930 958 959
1859 2 2 1000 9 930 959 931
1860 2 2 1000 9 931 959 960
1861 2 2 1000 9 931 960 932
1862 2 2 1000 9 932 960 961
1863 2 2 1000 9 932 961 64
1864 2 2 1000 9 64 961 63
1865 2 2 1000 9 33 4 933
1866 2 2 1000 9 933 4 34
1867 2 2 1000 9 933 34 934
1868 2 2 1000 9 934 34 35
1869 2 2 1000 9 934 35 935
1870 2 2 1000 9 935 35 36
1871 2 2 1000 9 935 36 936
1872 2 2 1000 9 936 36 37
1873 2 2 1000 9 936 37 937
1874 2 2 1000 9 937 37 38
1875 2 2 1000 9 937 38 938
1876 2 2 1000 9 938 38 39
1877 2 2 1000 9 938 39 939
1878 2 2 1000 9 939 39 40
1879 2 2 1000 9 939 40 940
1880 2 2 1000 9 940 40 41
1881 2 2 1000 9 940 41 941
1882 2 2 1000 9 941 41 42
1883 2 2 1000 9 941 42 942
1884 2 2 1000 9 942 42 43
1885 2 2 1000 9 942 43 943
1886 2 2 1000 9 943 43 44
1887 2 2 1000 9 943 44 944
1888 2 2 1000 9 944 44 45
1889 2 2 1000 9 944 45 945
1890 2 2 1000 9 945 45 46
1891 2 2 1000 9 945 46 946
1892 2 2 1000 9 946 46 47
1893 2 2 1000 9 946 47 947
1894 2 2 1000 9 947 47 48
1895 2 2 1000 9 947 48 948
1896 2 2 1000 9 948 48 49
1897 2 2 1000 9 948 49 949
1898 2 2 1000 9 949 49 50
1899 2 2 1000 9 949 50 950
1900 2 2 1000 9 950 50 51
1901 2 2 1000 9 950 51 951
1902 2 2 1000 9 951 51 52
1903 2 2 1000 9 951 52 952
1904 2 2 1000 9 952 52 53
1905 2 2 1000 9 952 53 953
1906 2 2 1000 9 953 53 54
1907 2 2 1000 9 953 54 954
1908 2 2 1000 9 954 54 55
1909 2 2 1000 9 954 55 955
1910 2 2 1000 9 955 55 56
1911 2 2 1000 9 955 56 956
1912 2 2 1000 9 956 56 57
1913 2 2 1000 9 956 57 957
1914 2 2 1000 9 957 57 58
1915 2 2 1000 9 957 58 958
1916 2 2 1000 9 958 58 59
1917 2 2 1000 9 958 59 959
1918 2 2 1000 9 959 59 60
1919 2 2 1000 9 959 60 960
1920 2 2 1000 9 960 60 61
1921 2 2 1000 9 960 61 961
1922 2 2 1000 9 961 61 62
1923 2 2 1000 9 961 62 63
1924 2 2 1000 9 63 62 3
$EndElements
