$MeshFormat
2.2 0 8
$EndMeshFormat
$Nodes
441
1 -1 -1 0
2 1 -1 0
3 1 1 0
4 -1 1 0
5 1 0 0
6 -1 0 0
7 0.9000000000002774 0 0
8 0.8000000000005548 0 0
9 0.7000000000008322 0 0
10 0.6000000000011096 0 0
11 0.500000000001387 0 0
12 0.4000000000016644 0 0
13 0.3000000000019418 0 0
14 0.2000000000022192 0 0
15 0.1000000000024964 0 0
16 2.752242878045763e-12 0 0
17 -0.09999999999750342 0 0
18 -0.1999999999977808 0 0
19 -0.2999999999980583 0 0
20 -0.3999999999983355 0 0
21 -0.4999999999986129 0 0
22 -0.5999999999988903 0 0
23 -0.699999999999168 0 0
24 -0.7999999999994454 0 0
25 -0.8999999999997226 0 0
26 -0.9000000000002774 -1 0
27 -0.8000000000005548 -1 0
28 -0.7000000000008322 -1 0
29 -0.6000000000011096 -1 0
30 -0.500000000001387 -1 0
31 -0.4000000000016644 -1 0
32 -0.3000000000019418 -1 0
33 -0.2000000000022192 -1 0
34 -0.1000000000024964 -1 0
35 -2.752242878045763e-12 -1 0
36 0.09999999999750342 -1 0
37 0.1999999999977808 -1 0
38 0.2999999999980583 -1 0
39 0.3999999999983355 -1 0
40 0.4999999999986129 -1 0
41 0.5999999999988903 -1 0
42 0.699999999999168 -1 0
43 0.7999999999994454 -1 0
44 0.8999999999997226 -1 0
45 1 -0.8999999999995836 0
46 1 -0.7999999999999998 0
47 1 -0.7000000000006934 0
48 1 -0.6000000000013869 0
49 1 -0.5000000000020587 0
50 1 -0.4000000000016644 0
51 1 -0.3000000000012483 0
52 1 -0.2000000000008322 0
53 1 -0.100000000000416 0
54 0.9000000000002774 1 0
55 0.8000000000005548 1 0
56 0.7000000000008322 1 0
57 0.6000000000011096 1 0
58 0.500000000001387 1 0
59 0.4000000000016644 1 0
60 0.3000000000019418 1 0
61 0.2000000000022192 1 0
62 0.1000000000024964 1 0
63 2.752242878045763e-12 1 0
64 -0.09999999999750342 1 0
65 -0.1999999999977808 1 0
66 -0.2999999999980583 1 0
67 -0.3999999999983355 1 0
68 -0.4999999999986129 1 0
69 -0.5999999999988903 1 0
70 -0.699999999999168 1 0
71 -0.7999999999994454 1 0
72 -0.8999999999997226 1 0
73 -1 -0.09999999999981467 0
74 -1 -0.1999999999995579 0
75 -1 -0.2999999999992664 0
76 -1 -0.3999999999989749 0
77 -1 -0.4999999999986943 0
78 -1 -0.5999999999989468 0
79 -1 -0.69999999999921 0
80 -1 -0.7999999999994734 0
81 -1 -0.8999999999997368 0
82 1 0.09999999999981467 0
83 1 0.1999999999995579 0
84 1 0.2999999999992664 0
85 1 0.3999999999989749 0
86 1 0.4999999999986943 0
87 1 0.5999999999989468 0
88 1 0.69999999999921 0
89 1 0.7999999999994734 0
90 1 0.8999999999997368 0
91 -1 0.8999999999995836 0
92 -1 0.7999999999999998 0
93 -1 0.7000000000006934 0
94 -1 0.6000000000013869 0
95 -1 0.5000000000020587 0
96 -1 0.4000000000016644 0
97 -1 0.3000000000012483 0
98 -1 0.2000000000008322 0
99 -1 0.100000000000416 0
100 -0.900000000000222 -0.8999999999997291 0
101 -0.9000000000001664 -0.7999999999994998 0
102 -0.9000000000001109 -0.6999999999992842 0
103 -0.9000000000000556 -0.5999999999990689 0
104 -0.8999999999999999 -0.4999999999988626 0
105 -0.8999999999999444 -0.3999999999991094 0
106 -0.899999999999889 -0.2999999999993655 0
107 -0.8999999999998334 -0.1999999999996216 0
108 -0.899999999999778 -0.09999999999984474 0
109 -0.8000000000004439 -0.8999999999997215 0
110 -0.8000000000003329 -0.799999999999526 0
111 -0.8000000000002221 -0.6999999999993585 0
112 -0.8000000000001111 -0.599999999999191 0
113 -0.8 -0.4999999999990307 0
114 -0.7999999999998892 -0.3999999999992438 0
115 -0.7999999999997783 -0.2999999999994646 0
116 -0.7999999999996672 -0.1999999999996853 0
117 -0.7999999999995562 -0.09999999999987479 0
118 -0.7000000000006659 -0.8999999999997137 0
119 -0.7000000000004991 -0.7999999999995524 0
120 -0.700000000000333 -0.6999999999994326 0
121 -0.7000000000001665 -0.5999999999993127 0
122 -0.7 -0.499999999999199 0
123 -0.6999999999998336 -0.3999999999993783 0
124 -0.6999999999996673 -0.2999999999995637 0
125 -0.6999999999995008 -0.199999999999749 0
126 -0.6999999999993343 -0.09999999999990486 0
127 -0.6000000000008878 -0.8999999999997061 0
128 -0.6000000000006656 -0.7999999999995786 0
129 -0.6000000000004437 -0.6999999999995068 0
130 -0.6000000000002219 -0.5999999999994349 0
131 -0.5999999999999999 -0.4999999999993671 0
132 -0.599999999999778 -0.3999999999995127 0
133 -0.5999999999995562 -0.2999999999996628 0
134 -0.5999999999993342 -0.1999999999998127 0
135 -0.5999999999991121 -0.09999999999993492 0
136 -0.5000000000011096 -0.8999999999996986 0
137 -0.5000000000008321 -0.799999999999605 0
138 -0.5000000000005547 -0.6999999999995807 0
139 -0.5000000000002776 -0.5999999999995568 0
140 -0.5 -0.4999999999995354 0
141 -0.4999999999997224 -0.3999999999996473 0
142 -0.4999999999994451 -0.2999999999997619 0
143 -0.4999999999991678 -0.1999999999998764 0
144 -0.4999999999988902 -0.09999999999996501 0
145 -0.4000000000013316 -0.8999999999996908 0
146 -0.4000000000009987 -0.7999999999996312 0
147 -0.4000000000006657 -0.6999999999996551 0
148 -0.4000000000003329 -0.5999999999996787 0
149 -0.3999999999999999 -0.4999999999997037 0
150 -0.3999999999996671 -0.3999999999997816 0
151 -0.3999999999993342 -0.2999999999998609 0
152 -0.3999999999990013 -0.1999999999999401 0
153 -0.3999999999986684 -0.09999999999999507 0
154 -0.3000000000015535 -0.8999999999996831 0
155 -0.3000000000011651 -0.7999999999996577 0
156 -0.3000000000007768 -0.6999999999997293 0
157 -0.3000000000003884 -0.5999999999998008 0
158 -0.3 -0.4999999999998718 0
159 -0.2999999999996117 -0.3999999999999162 0
160 -0.2999999999992233 -0.2999999999999601 0
161 -0.2999999999988349 -0.2000000000000039 0
162 -0.2999999999984466 -0.1000000000000251 0
163 -0.2000000000017753 -0.8999999999996754 0
164 -0.2000000000013316 -0.7999999999996841 0
165 -0.2000000000008877 -0.6999999999998034 0
166 -0.2000000000004438 -0.5999999999999229 0
167 -0.2 -0.50000000000004 0
168 -0.1999999999995561 -0.4000000000000508 0
169 -0.1999999999991123 -0.3000000000000592 0
170 -0.1999999999986686 -0.2000000000000676 0
171 -0.1999999999982247 -0.1000000000000552 0
172 -0.1000000000019971 -0.899999999999668 0
173 -0.1000000000014978 -0.7999999999997103 0
174 -0.1000000000009985 -0.6999999999998776 0
175 -0.1000000000004992 -0.6000000000000448 0
176 -0.09999999999999992 -0.5000000000002085 0
177 -0.09999999999950063 -0.4000000000001851 0
178 -0.0999999999990013 -0.3000000000001583 0
179 -0.09999999999850201 -0.2000000000001313 0
180 -0.09999999999800274 -0.1000000000000852 0
181 -2.201794302434318e-12 -0.8999999999996602 0
182 -1.651345726827457e-12 -0.7999999999997365 0
183 -1.100897151222121e-12 -0.6999999999999518 0
184 -5.504485756167863e-13 -0.6000000000001667 0
185 -1.133172815712292e-23 -0.5000000000003765 0
186 5.504485755999906e-13 -0.4000000000003197 0
187 1.100897151211434e-12 -0.3000000000002573 0
188 1.651345726822877e-12 -0.200000000000195 0
189 2.20179430243432e-12 -0.1000000000001153 0
190 0.0999999999980027 -0.8999999999996524 0
191 0.09999999999850209 -0.7999999999997629 0
192 0.09999999999900133 -0.7000000000000259 0
193 0.09999999999950071 -0.6000000000002889 0
194 0.09999999999999989 -0.5000000000005446 0
195 0.1000000000004992 -0.4000000000004541 0
196 0.1000000000009985 -0.3000000000003564 0
197 0.1000000000014978 -0.2000000000002587 0
198 0.1000000000019971 -0.1000000000001454 0
199 0.1999999999982248 -0.8999999999996449 0
200 0.1999999999986686 -0.7999999999997893 0
201 0.1999999999991123 -0.7000000000001001 0
202 0.1999999999995562 -0.600000000000411 0
203 0.2 -0.5000000000007129 0
204 0.2000000000004438 -0.4000000000005886 0
205 0.2000000000008877 -0.3000000000004556 0
206 0.2000000000013316 -0.2000000000003225 0
207 0.2000000000017754 -0.1000000000001754 0
208 0.2999999999984466 -0.8999999999996373 0
209 0.299999999998835 -0.7999999999998155 0
210 0.2999999999992233 -0.7000000000001743 0
211 0.2999999999996117 -0.6000000000005327 0
212 0.3 -0.5000000000008812 0
213 0.3000000000003884 -0.4000000000007231 0
214 0.3000000000007766 -0.3000000000005546 0
215 0.3000000000011651 -0.2000000000003862 0
216 0.3000000000015534 -0.1000000000002055 0
217 0.3999999999986684 -0.8999999999996295 0
218 0.3999999999990012 -0.7999999999998417 0
219 0.3999999999993341 -0.7000000000002484 0
220 0.3999999999996671 -0.6000000000006548 0
221 0.3999999999999999 -0.5000000000010495 0
222 0.4000000000003328 -0.4000000000008574 0
223 0.4000000000006657 -0.3000000000006536 0
224 0.4000000000009986 -0.2000000000004499 0
225 0.4000000000013316 -0.1000000000002356 0
226 0.4999999999988902 -0.8999999999996218 0
227 0.4999999999991678 -0.7999999999998681 0
228 0.4999999999994451 -0.7000000000003226 0
229 0.4999999999997226 -0.6000000000007769 0
230 0.4999999999999999 -0.5000000000012176 0
231 0.5000000000002773 -0.400000000000992 0
232 0.5000000000005547 -0.3000000000007529 0
233 0.5000000000008322 -0.2000000000005136 0
234 0.5000000000011096 -0.1000000000002657 0
235 0.5999999999991124 -0.8999999999996142 0
236 0.5999999999993344 -0.7999999999998946 0
237 0.5999999999995562 -0.7000000000003967 0
238 0.599999999999778 -0.6000000000008988 0
239 0.6 -0.5000000000013857 0
240 0.6000000000002218 -0.4000000000011265 0
241 0.6000000000004437 -0.3000000000008519 0
242 0.6000000000006658 -0.2000000000005773 0
243 0.6000000000008878 -0.1000000000002957 0
244 0.6999999999993343 -0.8999999999996067 0
245 0.6999999999995011 -0.7999999999999208 0
246 0.6999999999996671 -0.7000000000004709 0
247 0.6999999999998336 -0.6000000000010209 0
248 0.7000000000000002 -0.500000000001554 0
249 0.7000000000001665 -0.4000000000012609 0
250 0.7000000000003329 -0.300000000000951 0
251 0.7000000000004993 -0.200000000000641 0
252 0.7000000000006659 -0.1000000000003258 0
253 0.7999999999995564 -0.8999999999995989 0
254 0.7999999999996674 -0.7999999999999472 0
255 0.7999999999997779 -0.7000000000005451 0
256 0.799999999999889 -0.6000000000011428 0
257 0.8 -0.5000000000017223 0
258 0.8000000000001111 -0.4000000000013955 0
259 0.8000000000002221 -0.3000000000010501 0
260 0.8000000000003329 -0.2000000000007047 0
261 0.8000000000004438 -0.1000000000003559 0
262 0.899999999999778 -0.8999999999995911 0
263 0.8999999999998336 -0.7999999999999736 0
264 0.8999999999998892 -0.7000000000006192 0
265 0.8999999999999444 -0.600000000001265 0
266 0.9000000000000001 -0.5000000000018906 0
267 0.9000000000000556 -0.4000000000015299 0
268 0.9000000000001112 -0.3000000000011492 0
269 0.9000000000001661 -0.2000000000007685 0
270 0.900000000000222 -0.1000000000003859 0
271 -0.8999999999997226 0.1000000000003859 0
272 -0.8999999999997224 0.2000000000007685 0
273 -0.8999999999997226 0.3000000000011491 0
274 -0.8999999999997226 0.4000000000015299 0
275 -0.8999999999997226 0.5000000000018906 0
276 -0.8999999999997226 0.6000000000012647 0
277 -0.8999999999997226 0.7000000000006193 0
278 -0.8999999999997226 0.7999999999999734 0
279 -0.8999999999997227 0.8999999999995911 0
280 -0.7999999999994454 0.1000000000003558 0
281 -0.7999999999994454 0.2000000000007047 0
282 -0.7999999999994456 0.3000000000010501 0
283 -0.7999999999994454 0.4000000000013954 0
284 -0.7999999999994454 0.5000000000017223 0
285 -0.7999999999994455 0.6000000000011431 0
286 -0.7999999999994454 0.7000000000005451 0
287 -0.7999999999994454 0.7999999999999472 0
288 -0.7999999999994454 0.8999999999995989 0
289 -0.699999999999168 0.1000000000003258 0
290 -0.699999999999168 0.2000000000006411 0
291 -0.699999999999168 0.300000000000951 0
292 -0.6999999999991681 0.400000000001261 0
293 -0.699999999999168 0.500000000001554 0
294 -0.6999999999991681 0.6000000000010209 0
295 -0.699999999999168 0.700000000000471 0
296 -0.699999999999168 0.7999999999999208 0
297 -0.699999999999168 0.8999999999996067 0
298 -0.5999999999988904 0.1000000000002957 0
299 -0.5999999999988904 0.2000000000005773 0
300 -0.5999999999988904 0.3000000000008519 0
301 -0.5999999999988903 0.4000000000011265 0
302 -0.5999999999988903 0.5000000000013857 0
303 -0.5999999999988904 0.6000000000008988 0
304 -0.5999999999988903 0.7000000000003967 0
305 -0.5999999999988903 0.7999999999998946 0
306 -0.5999999999988903 0.8999999999996141 0
307 -0.4999999999986129 0.1000000000002657 0
308 -0.4999999999986129 0.2000000000005136 0
309 -0.499999999998613 0.3000000000007528 0
310 -0.4999999999986129 0.4000000000009921 0
311 -0.4999999999986128 0.5000000000012175 0
312 -0.4999999999986128 0.6000000000007767 0
313 -0.4999999999986128 0.7000000000003225 0
314 -0.4999999999986129 0.7999999999998681 0
315 -0.4999999999986129 0.8999999999996219 0
316 -0.3999999999983355 0.1000000000002356 0
317 -0.3999999999983355 0.2000000000004499 0
318 -0.3999999999983355 0.3000000000006537 0
319 -0.3999999999983354 0.4000000000008574 0
320 -0.3999999999983355 0.5000000000010494 0
321 -0.3999999999983355 0.600000000000655 0
322 -0.3999999999983355 0.7000000000002484 0
323 -0.3999999999983355 0.7999999999998419 0
324 -0.3999999999983355 0.8999999999996297 0
325 -0.2999999999980583 0.1000000000002055 0
326 -0.2999999999980582 0.2000000000003862 0
327 -0.2999999999980583 0.3000000000005547 0
328 -0.2999999999980582 0.4000000000007231 0
329 -0.2999999999980583 0.5000000000008811 0
330 -0.2999999999980583 0.6000000000005329 0
331 -0.2999999999980583 0.7000000000001744 0
332 -0.2999999999980582 0.7999999999998155 0
333 -0.2999999999980583 0.8999999999996373 0
334 -0.1999999999977808 0.1000000000001755 0
335 -0.1999999999977808 0.2000000000003225 0
336 -0.1999999999977808 0.3000000000004555 0
337 -0.1999999999977809 0.4000000000005886 0
338 -0.1999999999977808 0.500000000000713 0
339 -0.1999999999977808 0.6000000000004108 0
340 -0.1999999999977808 0.7000000000001002 0
341 -0.1999999999977808 0.7999999999997891 0
342 -0.1999999999977808 0.8999999999996449 0
343 -0.09999999999750341 0.1000000000001454 0
344 -0.09999999999750347 0.2000000000002587 0
345 -0.09999999999750339 0.3000000000003564 0
346 -0.09999999999750347 0.400000000000454 0
347 -0.09999999999750342 0.5000000000005447 0
348 -0.09999999999750347 0.6000000000002889 0
349 -0.09999999999750347 0.700000000000026 0
350 -0.09999999999750342 0.7999999999997629 0
351 -0.09999999999750342 0.8999999999996524 0
352 2.752215122470148e-12 0.1000000000001153 0
353 2.752187366894532e-12 0.200000000000195 0
354 2.752298389196995e-12 0.3000000000002574 0
355 2.752242878045762e-12 0.4000000000003197 0
356 2.752242878045763e-12 0.5000000000003765 0
357 2.752242878045763e-12 0.600000000000167 0
358 2.752298389196994e-12 0.6999999999999519 0
359 2.752187366894532e-12 0.7999999999997367 0
360 2.752187366894532e-12 0.8999999999996602 0
361 0.1000000000024965 0.1000000000000853 0
362 0.1000000000024964 0.2000000000001313 0
363 0.1000000000024964 0.3000000000001583 0
364 0.1000000000024965 0.4000000000001852 0
365 0.1000000000024964 0.5000000000002083 0
366 0.1000000000024964 0.6000000000000448 0
367 0.1000000000024964 0.6999999999998777 0
368 0.1000000000024965 0.7999999999997103 0
369 0.1000000000024964 0.899999999999668 0
370 0.2000000000022191 0.1000000000000552 0
371 0.2000000000022192 0.2000000000000676 0
372 0.2000000000022192 0.3000000000000591 0
373 0.2000000000022192 0.4000000000000506 0
374 0.2000000000022192 0.5000000000000401 0
375 0.2000000000022192 0.5999999999999227 0
376 0.2000000000022191 0.6999999999998036 0
377 0.2000000000022192 0.7999999999996839 0
378 0.2000000000022191 0.8999999999996755 0
379 0.3000000000019418 0.1000000000000252 0
380 0.3000000000019419 0.2000000000000039 0
381 0.3000000000019418 0.2999999999999601 0
382 0.3000000000019418 0.3999999999999162 0
383 0.3000000000019418 0.4999999999998718 0
384 0.3000000000019419 0.5999999999998008 0
385 0.3000000000019418 0.6999999999997292 0
386 0.3000000000019419 0.7999999999996577 0
387 0.3000000000019418 0.8999999999996831 0
388 0.4000000000016644 0.09999999999999504 0
389 0.4000000000016645 0.1999999999999402 0
390 0.4000000000016642 0.299999999999861 0
391 0.4000000000016644 0.3999999999997817 0
392 0.4000000000016644 0.4999999999997037 0
393 0.4000000000016644 0.5999999999996789 0
394 0.4000000000016644 0.6999999999996552 0
395 0.4000000000016644 0.7999999999996312 0
396 0.4000000000016644 0.8999999999996908 0
397 0.5000000000013869 0.09999999999996502 0
398 0.5000000000013869 0.1999999999998764 0
399 0.5000000000013869 0.2999999999997619 0
400 0.5000000000013869 0.3999999999996474 0
401 0.5000000000013869 0.4999999999995354 0
402 0.5000000000013871 0.5999999999995568 0
403 0.5000000000013868 0.6999999999995811 0
404 0.5000000000013871 0.799999999999605 0
405 0.5000000000013868 0.8999999999996986 0
406 0.6000000000011096 0.09999999999993493 0
407 0.6000000000011096 0.1999999999998127 0
408 0.6000000000011096 0.2999999999996628 0
409 0.6000000000011096 0.3999999999995128 0
410 0.6000000000011096 0.4999999999993671 0
411 0.6000000000011096 0.5999999999994347 0
412 0.6000000000011096 0.6999999999995067 0
413 0.6000000000011095 0.7999999999995786 0
414 0.6000000000011099 0.8999999999997061 0
415 0.7000000000008322 0.09999999999990485 0
416 0.7000000000008322 0.199999999999749 0
417 0.7000000000008322 0.2999999999995637 0
418 0.7000000000008321 0.3999999999993782 0
419 0.7000000000008322 0.499999999999199 0
420 0.7000000000008322 0.599999999999313 0
421 0.7000000000008323 0.6999999999994325 0
422 0.700000000000832 0.7999999999995524 0
423 0.700000000000832 0.8999999999997139 0
424 0.8000000000005549 0.09999999999987483 0
425 0.8000000000005549 0.1999999999996853 0
426 0.8000000000005549 0.2999999999994647 0
427 0.8000000000005547 0.3999999999992439 0
428 0.8000000000005547 0.4999999999990307 0
429 0.8000000000005548 0.5999999999991908 0
430 0.8000000000005549 0.6999999999993585 0
431 0.8000000000005549 0.799999999999526 0
432 0.8000000000005549 0.8999999999997215 0
433 0.9000000000002772 0.09999999999984473 0
434 0.9000000000002772 0.1999999999996216 0
435 0.9000000000002772 0.2999999999993654 0
436 0.9000000000002774 0.3999999999991093 0
437 0.9000000000002772 0.4999999999988625 0
438 0.9000000000002776 0.5999999999990687 0
439 0.9000000000002772 0.6999999999992842 0
440 0.9000000000002776 0.7999999999994996 0
441 0.9000000000002774 0.8999999999997292 0
$EndNodes
$Elements
884
1 15 2 1 1 1
2 15 2 2 2 2
3 15 2 3 3 3
4 15 2 4 4 4
5 1 2 101 9 1 26
6 1 2 101 9 26 27
7 1 2 101 9 27 28
8 1 2 101 9 28 29
9 1 2 101 9 29 30
10 1 2 101 9 30 31
11 1 2 101 9 31 32
12 1 2 101 9 32 33
13 1 2 101 9 33 34
14 1 2 101 9 34 35
15 1 2 101 9 35 36
16 1 2 101 9 36 37
17 1 2 101 9 37 38
18 1 2 101 9 38 39
19 1 2 101 9 39 40
20 1 2 101 9 40 41
21 1 2 101 9 41 42
22 1 2 101 9 42 43
23 1 2 101 9 43 44
24 1 2 101 9 44 2
25 1 2 102 10 2 45
26 1 2 102 10 45 46
27 1 2 102 10 46 47
28 1 2 102 10 47 48
29 1 2 102 10 48 49
30 1 2 102 10 49 50
31 1 2 102 10 50 51
32 1 2 102 10 51 52
33 1 2 102 10 52 53
34 1 2 102 10 53 5
35 1 2 103 11 3 54
36 1 2 103 11 54 55
37 1 2 103 11 55 56
38 1 2 103 11 56 57
39 1 2 103 11 57 58
40 1 2 103 11 58 59
41 1 2 103 11 59 60
42 1 2 103 11 60 61
43 1 2 103 11 61 62
44 1 2 103 11 62 63
45 1 2 103 11 63 64
46 1 2 103 11 64 65
47 1 2 103 11 65 66
48 1 2 103 11 66 67
49 1 2 103 11 67 68
50 1 2 103 11 68 69
51 1 2 103 11 69 70
52 1 2 103 11 70 71
53 1 2 103 11 71 72
54 1 2 103 11 72 4
55 1 2 104 12 6 73
56 1 2 104 12 73 74
57 1 2 104 12 74 75
58 1 2 104 12 75 76
59 1 2 104 12 76 77
60 1 2 104 12 77 78
61 1 2 104 12 78 79
62 1 2 104 12 79 80
63 1 2 104 12 80 81
64 1 2 104 12 81 1
65 1 2 102 20 5 82
66 1 2 102 20 82 83
67 1 2 102 20 83 84
68 1 2 102 20 84 85
69 1 2 102 20 85 86
70 1 2 102 20 86 87
71 1 2 102 20 87 88
72 1 2 102 20 88 89
73 1 2 102 20 89 90
74 1 2 102 20 90 3
75 1 2 104 22 4 91
76 1 2 104 22 91 92
77 1 2 104 22 92 93
78 1 2 104 22 93 94
79 1 2 104 22 94 95
80 1 2 104 22 95 96
81 1 2 104 22 96 97
82 1 2 104 22 97 98
83 1 2 104 22 98 99
84 1 2 104 22 99 6
85 2 2 1000 21 1 26 81
86 2 2 1000 21 81 26 100
87 2 2 1000 21 81 100 80
88 2 2 1000 21 80 100 101
89 2 2 1000 21 80 101 79
90 2 2 1000 21 79 101 102
91 2 2 1000 21 79 102 78
92 2 2 1000 21 78 102 103
93 2 2 1000 21 78 103 77
94 2 2 1000 21 77 103 104
95 2 2 1000 21 77 104 76
96 2 2 1000 21 76 104 105
97 2 2 1000 21 76 105 75
98 2 2 1000 21 75 105 106
99 2 2 1000 21 75 106 74
100 2 2 1000 21 74 106 107
101 2 2 1000 21 74 107 73
102 2 2 1000 21 73 107 108
103 2 2 1000 21 73 108 6
104 2 2 1000 21 6 108 25
105 2 2 1000 21 26 27 100
106 2 2 1000 21 100 27 109
107 2 2 1000 21 100 109 101
108 2 2 1000 21 101 109 110
109 2 2 1000 21 101 110 102
110 2 2 1000 21 102 110 111
111 2 2 1000 21 102 111 103
112 2 2 1000 21 103 111 112
113 2 2 1000 21 103 112 104
114 2 2 1000 21 104 112 113
115 2 2 1000 21 104 113 105
116 2 2 1000 21 105 113 114
117 2 2 1000 21 105 114 106
118 2 2 1000 21 106 114 115
119 2 2 1000 21 106 115 107
120 2 2 1000 21 107 115 116
121 2 2 1000 21 107 116 108
122 2 2 1000 21 108 116 117
123 2 2 1000 21 108 117 25
124 2 2 1000 21 25 117 24
125 2 2 1000 21 27 28 109
126 2 2 1000 21 109 28 118
127 2 2 1000 21 109 118 110
128 2 2 1000 21 110 118 119
129 2 2 1000 21 110 119 111
130 2 2 1000 21 111 119 120
131 2 2 1000 21 111 120 112
132 2 2 1000 21 112 120 121
133 2 2 1000 21 112 121 113
134 2 2 1000 21 113 121 122
135 2 2 1000 21 113 122 114
136 2 2 1000 21 114 122 123
137 2 2 1000 21 114 123 115
138 2 2 1000 21 115 123 124
139 2 2 1000 21 115 124 116
140 2 2 1000 21 116 124 125
141 2 2 1000 21 116 125 117
142 2 2 1000 21 117 125 126
143 2 2 1000 21 117 126 24
144 2 2 1000 21 24 126 23
145 2 2 1000 21 28 29 118
146 2 2 1000 21 118 29 127
147 2 2 1000 21 118 127 119
148 2 2 1000 21 119 127 128
149 2 2 1000 21 119 128 120
150 2 2 1000 21 120 128 129
151 2 2 1000 21 120 129 121
152 2 2 1000 21 121 129 130
153 2 2 1000 21 121 130 122
154 2 2 1000 21 122 130 131
155 2 2 1000 21 122 131 123
156 2 2 1000 21 123 131 132
157 2 2 1000 21 123 132 124
158 2 2 1000 21 124 132 133
159 2 2 1000 21 124 133 125
160 2 2 1000 21 125 133 134
161 2 2 1000 21 125 134 126
162 2 2 1000 21 126 134 135
163 2 2 1000 21 126 135 23
164 2 2 1000 21 23 135 22
165 2 2 1000 21 29 30 127
166 2 2 1000 21 127 30 136
167 2 2 1000 21 127 136 128
168 2 2 1000 21 128 136 137
169 2 2 1000 21 128 137 129
170 2 2 1000 21 129 137 138
171 2 2 1000 21 129 138 130
172 2 2 1000 21 130 138 139
173 2 2 1000 21 130 139 131
174 2 2 1000 21 131 139 140
175 2 2 1000 21 131 140 132
176 2 2 1000 21 132 140 141
177 2 2 1000 21 132 141 133
178 2 2 1000 21 133 141 142
179 2 2 1000 21 133 142 134
180 2 2 1000 21 134 142 143
181 2 2 1000 21 134 143 135
182 2 2 1000 21 135 143 144
183 2 2 1000 21 135 144 22
184 2 2 1000 21 22 144 21
185 2 2 1000 21 30 31 136
186 2 2 1000 21 136 31 145
187 2 2 1000 21 136 145 137
188 2 2 1000 21 137 145 146
189 2 2 1000 21 137 146 138
190 2 2 1000 21 138 146 147
191 2 2 1000 21 138 147 139
192 2 2 1000 21 139 147 148
193 2 2 1000 21 139 148 140
194 2 2 1000 21 140 148 149
195 2 2 1000 21 140 149 141
196 2 2 1000 21 141 149 150
197 2 2 1000 21 141 150 142
198 2 2 1000 21 142 150 151
199 2 2 1000 21 142 151 143
200 2 2 1000 21 143 151 152
201 2 2 1000 21 143 152 144
202 2 2 1000 21 144 152 153
203 2 2 1000 21 144 153 21
204 2 2 1000 21 21 153 20
205 2 2 1000 21 31 32 145
206 2 2 1000 21 145 32 154
207 2 2 1000 21 145 154 146
208 2 2 1000 21 146 154 155
209 2 2 1000 21 146 155 147
210 2 2 1000 21 147 155 156
211 2 2 1000 21 147 156 148
212 2 2 1000 21 148 156 157
213 2 2 1000 21 148 157 149
214 2 2 1000 21 149 157 158
215 2 2 1000 21 149 158 150
216 2 2 1000 21 150 158 159
217 2 2 1000 21 150 159 151
218 2 2 1000 21 151 159 160
219 2 2 1000 21 151 160 152
220 2 2 1000 21 152 160 161
221 2 2 1000 21 152 161 153
222 2 2 1000 21 153 161 162
223 2 2 1000 21 153 162 20
224 2 2 1000 21 20 162 19
225 2 2 1000 21 32 33 154
226 2 2 1000 21 154 33 163
227 2 2 1000 21 154 163 155
228 2 2 1000 21 155 163 164
229 2 2 1000 21 155 164 156
230 2 2 1000 21 156 164 165
231 2 2 1000 21 156 165 157
232 2 2 1000 21 157 165 166
233 2 2 1000 21 157 166 158
234 2 2 1000 21 158 166 167
235 2 2 1000 21 158 167 159
236 2 2 1000 21 159 167 168
237 2 2 1000 21 159 168 160
238 2 2 1000 21 160 168 169
239 2 2 1000 21 160 169 161
240 2 2 1000 21 161 169 170
241 2 2 1000 21 161 170 162
242 2 2 1000 21 162 170 171
243 2 2 1000 21 162 171 19
244 2 2 1000 21 19 171 18
245 2 2 1000 21 33 34 163
246 2 2 1000 21 163 34 172
247 2 2 1000 21 163 172 164
248 2 2 1000 21 164 172 173
249 2 2 1000 21 164 173 165
250 2 2 1000 21 165 173 174
251 2 2 1000 21 165 174 166
252 2 2 1000 21 166 174 175
253 2 2 1000 21 166 175 167
254 2 2 1000 21 167 175 176
255 2 2 1000 21 167 176 168
256 2 2 1000 21 168 176 177
257 2 2 1000 21 168 177 169
258 2 2 1000 21 169 177 178
259 2 2 1000 21 169 178 170
260 2 2 1000 21 170 178 179
261 2 2 1000 21 170 179 171
262 2 2 1000 21 171 179 180
263 2 2 1000 21 171 180 18
264 2 2 1000 21 18 180 17
265 2 2 1000 21 34 35 172
266 2 2 1000 21 172 35 181
267 2 2 1000 21 172 181 173
268 2 2 1000 21 173 181 182
269 2 2 1000 21 173 182 174
270 2 2 1000 21 174 182 183
271 2 2 1000 21 174 183 175
272 2 2 1000 21 175 183 184
273 2 2 1000 21 175 184 176
274 2 2 1000 21 176 184 185
275 2 2 1000 21 176 185 177
276 2 2 1000 21 177 185 186
277 2 2 1000 21 177 186 178
278 2 2 1000 21 178 186 187
279 2 2 1000 21 178 187 179
280 2 2 1000 21 179 187 188
281 2 2 1000 21 179 188 180
282 2 2 1000 21 180 188 189
283 2 2 1000 21 180 189 17
284 2 2 1000 21 17 189 16
285 2 2 1000 21 35 36 181
286 2 2 1000 21 181 36 190
287 2 2 1000 21 181 190 182
288 2 2 1000 21 182 190 191
289 2 2 1000 21 182 191 183
290 2 2 1000 21 183 191 192
291 2 2 1000 21 183 192 184
292 2 2 1000 21 184 192 193
293 2 2 1000 21 184 193 185
294 2 2 1000 21 185 193 194
295 2 2 1000 21 185 194 186
296 2 2 1000 21 186 194 195
297 2 2 1000 21 186 195 187
298 2 2 1000 21 187 195 196
299 2 2 1000 21 187 196 188
300 2 2 1000 21 188 196 197
301 2 2 1000 21 188 197 189
302 2 2 1000 21 189 197 198
303 2 2 1000 21 189 198 16
304 2 2 1000 21 16 198 15
305 2 2 1000 21 36 37 190
306 2 2 1000 21 190 37 199
307 2 2 1000 21 190 199 191
308 2 2 1000 21 191 199 200
309 2 2 1000 21 191 200 192
310 2 2 1000 21 192 200 201
311 2 2 1000 21 192 201 193
312 2 2 1000 21 193 201 202
313 2 2 1000 21 193 202 194
314 2 2 1000 21 194 202 203
315 2 2 1000 21 194 203 195
316 2 2 1000 21 195 203 204
317 2 2 1000 21 195 204 196
318 2 2 1000 21 196 204 205
319 2 2 1000 21 196 205 197
320 2 2 1000 21 197 205 206
321 2 2 1000 21 197 206 198
322 2 2 1000 21 198 206 207
323 2 2 1000 21 198 207 15
324 2 2 1000 21 15 207 14
325 2 2 1000 21 37 38 199
326 2 2 1000 21 199 38 208
327 2 2 1000 21 199 208 200
328 2 2 1000 21 200 208 209
329 2 2 1000 21 200 209 201
330 2 2 1000 21 201 209 210
331 2 2 1000 21 201 210 202
332 2 2 1000 21 202 210 211
333 2 2 1000 21 202 211 203
334 2 2 1000 21 203 211 212
335 2 2 1000 21 203 212 204
336 2 2 1000 21 204 212 213
337 2 2 1000 21 204 213 205
338 2 2 1000 21 205 213 214
339 2 2 1000 21 205 214 206
340 2 2 1000 21 206 214 215
341 2 2 1000 21 206 215 207
342 2 2 1000 21 207 215 216
343 2 2 1000 21 207 216 14
344 2 2 1000 21 14 216 13
345 2 2 1000 21 38 39 208
346 2 2 1000 21 208 39 217
347 2 2 1000 21 208 217 209
348 2 2 1000 21 209 217 218
349 2 2 1000 21 209 218 210
350 2 2 1000 21 210 218 219
351 2 2 1000 21 210 219 211
352 2 2 1000 21 211 219 220
353 2 2 1000 21 211 220 212
354 2 2 1000 21 212 220 221
355 2 2 1000 21 212 221 213
356 2 2 1000 21 213 221 222
357 2 2 1000 21 213 222 214
358 2 2 1000 21 214 222 223
359 2 2 1000 21 214 223 215
360 2 2 1000 21 215 223 224
361 2 2 1000 21 215 224 216
362 2 2 1000 21 216 224 225
363 2 2 1000 21 216 225 13
364 2 2 1000 21 13 225 12
365 2 2 1000 21 39 40 217
366 2 2 1000 21 217 40 226
367 2 2 1000 21 217 226 218
368 2 2 1000 21 218 226 227
369 2 2 1000 21 218 227 219
370 2 2 1000 21 219 227 228
371 2 2 1000 21 219 228 220
372 2 2 1000 21 220 228 229
373 2 2 1000 21 220 229 221
374 2 2 1000 21 221 229 230
375 2 2 1000 21 221 230 222
376 2 2 1000 21 222 230 231
377 2 2 1000 21 222 231 223
378 2 2 1000 21 223 231 232
379 2 2 1000 21 223 232 224
380 2 2 1000 21 224 232 233
381 2 2 1000 21 224 233 225
382 2 2 1000 21 225 233 234
383 2 2 1000 21 225 234 12
384 2 2 1000 21 12 234 11
385 2 2 1000 21 40 41 226
386 2 2 1000 21 226 41 235
387 2 2 1000 21 226 235 227
388 2 2 1000 21 227 235 236
389 2 2 1000 21 227 236 228
390 2 2 1000 21 228 236 237
391 2 2 1000 21 228 237 229
392 2 2 1000 21 229 237 238
393 2 2 1000 21 229 238 230
394 2 2 1000 21 230 238 239
395 2 2 1000 21 230 239 231
396 2 2 1000 21 231 239 240
397 2 2 1000 21 231 240 232
398 2 2 1000 21 232 240 241
399 2 2 1000 21 232 241 233
400 2 2 1000 21 233 241 242
401 2 2 1000 21 233 242 234
402 2 2 1000 21 234 242 243
403 2 2 1000 21 234 243 11
404 2 2 1000 21 11 243 10
405 2 2 1000 21 41 42 235
406 2 2 1000 21 235 42 244
407 2 2 1000 21 235 244 236
408 2 2 1000 21 236 244 245
409 2 2 1000 21 236 245 237
410 2 2 1000 21 237 245 246
411 2 2 1000 21 237 246 238
412 2 2 1000 21 238 246 247
413 2 2 1000 21 238 247 239
414 2 2 1000 21 239 247 248
415 2 2 1000 21 239 248 240
416 2 2 1000 21 240 248 249
417 2 2 1000 21 240 249 241
418 2 2 1000 21 241 249 250
419 2 2 1000 21 241 250 242
420 2 2 1000 21 242 250 251
421 2 2 1000 21 242 251 243
422 2 2 1000 21 243 251 252
423 2 2 1000 21 243 252 10
424 2 2 1000 21 10 252 9
425 2 2 1000 21 42 43 244
426 2 2 1000 21 244 43 253
427 2 2 1000 21 244 253 245
428 2 2 1000 21 245 253 254
429 2 2 1000 21 245 254 246
430 2 2 1000 21 246 254 255
431 2 2 1000 21 246 255 247
432 2 2 1000 21 247 255 256
433 2 2 1000 21 247 256 248
434 2 2 1000 21 248 256 257
435 2 2 1000 21 248 257 249
436 2 2 1000 21 249 257 258
437 2 2 1000 21 249 258 250
438 2 2 1000 21 250 258 259
439 2 2 1000 21 250 259 251
440 2 2 1000 21 251 259 260
441 2 2 1000 21 251 260 252
442 2 2 1000 21 252 260 261
443 2 2 1000 21 252 261 9
444 2 2 1000 21 9 261 8
445 2 2 1000 21 43 44 253
446 2 2 1000 21 253 44 262
447 2 2 1000 21 253 262 254
448 2 2 1000 21 254 262 263
449 2 2 1000 21 254 263 255
450 2 2 1000 21 255 263 264
451 2 2 1000 21 255 264 256
452 2 2 1000 21 256 264 265
453 2 2 1000 21 256 265 257
454 2 2 1000 21 257 265 266
455 2 2 1000 21 257 266 258
456 2 2 1000 21 258 266 267
457 2 2 1000 21 258 267 259
458 2 2 1000 21 259 267 268
459 2 2 1000 21 259 268 260
460 2 2 1000 21 260 268 269
461 2 2 1000 21 260 269 261
462 2 2 1000 21 261 269 270
463 2 2 1000 21 261 270 8
464 2 2 1000 21 8 270 7
465 2 2 1000 21 44 2 262
466 2 2 1000 21 262 2 45
467 2 2 1000 21 262 45 263
468 2 2 1000 21 263 45 46
469 2 2 1000 21 263 46 264
470 2 2 1000 21 264 46 47
471 2 2 1000 21 264 47 265
472 2 2 1000 21 265 47 48
473 2 2 1000 21 265 48 266
474 2 2 1000 21 266 48 49
475 2 2 1000 21 266 49 267
476 2 2 1000 21 267 49 50
477 2 2 1000 21 267 50 268
478 2 2 1000 21 268 50 51
479 2 2 1000 21 268 51 269
480 2 2 1000 21 269 51 52
481 2 2 1000 21 269 52 270
482 2 2 1000 21 270 52 53
483 2 2 1000 21 270 53 7
484 2 2 1000 21 7 53 5
485 2 2 2000 22 6 25 99
486 2 2 2000 22 99 25 271
487 2 2 2000 22 99 271 98
488 2 2 2000 22 98 271 272
489 2 2 2000 22 98 272 97
490 2 2 2000 22 97 272 273
491 2 2 2000 22 97 273 96
492 2 2 2000 22 96 273 274
493 2 2 2000 22 96 274 95
494 2 2 2000 22 95 274 275
495 2 2 2000 22 95 275 94
496 2 2 2000 22 94 275 276
497 2 2 2000 22 94 276 93
498 2 2 2000 22 93 276 277
499 2 2 2000 22 93 277 92
500 2 2 2000 22 92 277 278
501 2 2 2000 22 92 278 91
502 2 2 2000 22 91 278 279
503 2 2 2000 22 91 279 4
504 2 2 2000 22 4 279 72
505 2 2 2000 22 25 24 271
506 2 2 2000 22 271 24 280
507 2 2 2000 22 271 280 272
508 2 2 2000 22 272 280 281
509 2 2 2000 22 272 281 273
510 2 2 2000 22 273 281 282
511 2 2 2000 22 273 282 274
512 2 2 2000 22 274 282 283
513 2 2 2000 22 274 283 275
514 2 2 2000 22 275 283 284
515 2 2 2000 22 275 284 276
516 2 2 2000 22 276 284 285
517 2 2 2000 22 276 285 277
518 2 2 2000 22 277 285 286
519 2 2 2000 22 277 286 278
520 2 2 2000 22 278 286 287
521 2 2 2000 22 278 287 279
522 2 2 2000 22 279 287 288
523 2 2 2000 22 279 288 72
524 2 2 2000 22 72 288 71
525 2 2 2000 22 24 23 280
526 2 2 2000 22 280 23 289
527 2 2 2000 22 280 289 281
528 2 2 2000 22 281 289 290
529 2 2 2000 22 281 290 282
530 2 2 2000 22 282 290 291
531 2 2 2000 22 282 291 283
532 2 2 2000 22 283 291 292
533 2 2 2000 22 283 292 284
534 2 2 2000 22 284 292 293
535 2 2 2000 22 284 293 285
536 2 2 2000 22 285 293 294
537 2 2 2000 22 285 294 286
538 2 2 2000 22 286 294 295
539 2 2 2000 22 286 295 287
540 2 2 2000 22 287 295 296
541 2 2 2000 22 287 296 288
542 2 2 2000 22 288 296 297
543 2 2 2000 22 288 297 71
544 2 2 2000 22 71 297 70
545 2 2 2000 22 23 22 289
546 2 2 2000 22 289 22 298
547 2 2 2000 22 289 298 290
548 2 2 2000 22 290 298 299
549 2 2 2000 22 290 299 291
550 2 2 2000 22 291 299 300
551 2 2 2000 22 291 300 292
552 2 2 2000 22 292 300 301
553 2 2 2000 22 292 301 293
554 2 2 2000 22 293 301 302
555 2 2 2000 22 293 302 294
556 2 2 2000 22 294 302 303
557 2 2 2000 22 294 303 295
558 2 2 2000 22 295 303 304
559 2 2 2000 22 295 304 296
560 2 2 2000 22 296 304 305
561 2 2 2000 22 296 305 297
562 2 2 2000 22 297 305 306
563 2 2 2000 22 297 306 70
564 2 2 2000 22 70 306 69
565 2 2 2000 22 22 21 298
566 2 2 2000 22 298 21 307
567 2 2 2000 22 298 307 299
568 2 2 2000 22 299 307 308
569 2 2 2000 22 299 308 300
570 2 2 2000 22 300 308 309
571 2 2 2000 22 300 309 301
572 2 2 2000 22 301 309 310
573 2 2 2000 22 301 310 302
574 2 2 2000 22 302 310 311
575 2 2 2000 22 302 311 303
576 2 2 2000 22 303 311 312
577 2 2 2000 22 303 312 304
578 2 2 2000 22 304 312 313
579 2 2 2000 22 304 313 305
580 2 2 2000 22 305 313 314
581 2 2 2000 22 305 314 306
582 2 2 2000 22 306 314 315
583 2 2 2000 22 306 315 69
584 2 2 2000 22 69 315 68
585 2 2 2000 22 21 20 307
586 2 2 2000 22 307 20 316
587 2 2 2000 22 307 316 308
588 2 2 2000 22 308 316 317
589 2 2 2000 22 308 317 309
590 2 2 2000 22 309 317 318
591 2 2 2000 22 309 318 310
592 2 2 2000 22 310 318 319
593 2 2 2000 22 310 319 311
594 2 2 2000 22 311 319 320
595 2 2 2000 22 311 320 312
596 2 2 2000 22 312 320 321
597 2 2 2000 22 312 321 313
598 2 2 2000 22 313 321 322
599 2 2 2000 22 313 322 314
600 2 2 2000 22 314 322 323
601 2 2 2000 22 314 323 315
602 2 2 2000 22 315 323 324
603 2 2 2000 22 315 324 68
604 2 2 2000 22 68 324 67
605 2 2 2000 22 20 19 316
606 2 2 2000 22 316 19 325
607 2 2 2000 22 316 325 317
608 2 2 2000 22 317 325 326
609 2 2 2000 22 317 326 318
610 2 2 2000 22 318 326 327
611 2 2 2000 22 318 327 319
612 2 2 2000 22 319 327 328
613 2 2 2000 22 319 328 320
614 2 2 2000 22 320 328 329
615 2 2 2000 22 320 329 321
616 2 2 2000 22 321 329 330
617 2 2 2000 22 321 330 322
618 2 2 2000 22 322 330 331
619 2 2 2000 22 322 331 323
620 2 2 2000 22 323 331 332
621 2 2 2000 22 323 332 324
622 2 2 2000 22 324 332 333
623 2 2 2000 22 324 333 67
624 2 2 2000 22 67 333 66
625 2 2 2000 22 19 18 325
626 2 2 2000 22 325 18 334
627 2 2 2000 22 325 334 326
628 2 2 2000 22 326 334 335
629 2 2 2000 22 326 335 327
630 2 2 2000 22 327 335 336
631 2 2 2000 22 327 336 328
632 2 2 2000 22 328 336 337
633 2 2 2000 22 328 337 329
634 2 2 2000 22 329 337 338
635 2 2 2000 22 329 338 330
636 2 2 2000 22 330 338 339
637 2 2 2000 22 330 339 331
638 2 2 2000 22 331 339 340
639 2 2 2000 22 331 340 332
640 2 2 2000 22 332 340 341
641 2 2 2000 22 332 341 333
642 2 2 2000 22 333 341 342
643 2 2 2000 22 333 342 66
644 2 2 2000 22 66 342 65
645 2 2 2000 22 18 17 334
646 2 2 2000 22 334 17 343
647 2 2 2000 22 334 343 335
648 2 2 2000 22 335 343 344
649 2 2 2000 22 335 344 336
650 2 2 2000 22 336 344 345
651 2 2 2000 22 336 345 337
652 2 2 2000 22 337 345 346
653 2 2 2000 22 337 346 338
654 2 2 2000 22 338 346 347
655 2 2 2000 22 338 347 339
656 2 2 2000 22 339 347 348
657 2 2 2000 22 339 348 340
658 2 2 2000 22 340 348 349
659 2 2 2000 22 340 349 341
660 2 2 2000 22 341 349 350
661 2 2 2000 22 341 350 342
662 2 2 2000 22 342 350 351
663 2 2 2000 22 342 351 65
664 2 2 2000 22 65 351 64
665 2 2 2000 22 17 16 343
666 2 2 2000 22 343 16 352
667 2 2 2000 22 343 352 344
668 2 2 2000 22 344 352 353
669 2 2 2000 22 344 353 345
670 2 2 2000 22 345 353 354
671 2 2 2000 22 345 354 346
672 2 2 2000 22 346 354 355
673 2 2 2000 22 346 355 347
674 2 2 2000 22 347 355 356
675 2 2 2000 22 347 356 348
676 2 2 2000 22 348 356 357
677 2 2 2000 22 348 357 349
678 2 2 2000 22 349 357 358
679 2 2 2000 22 349 358 350
680 2 2 2000 22 350 358 359
681 2 2 2000 22 350 359 351
682 2 2 2000 22 351 359 360
683 2 2 2000 22 351 360 64
684 2 2 2000 22 64 360 63
685 2 2 2000 22 16 15 352
686 2 2 2000 22 352 15 361
687 2 2 2000 22 352 361 353
688 2 2 2000 22 353 361 362
689 2 2 2000 22 353 362 354
690 2 2 2000 22 354 362 363
691 2 2 2000 22 354 363 355
692 2 2 2000 22 355 363 364
693 2 2 2000 22 355 364 356
694 2 2 2000 22 356 364 365
695 2 2 2000 22 356 365 357
696 2 2 2000 22 357 365 366
697 2 2 2000 22 357 366 358
698 2 2 2000 22 358 366 367
699 2 2 2000 22 358 367 359
700 2 2 2000 22 359 367 368
701 2 2 2000 22 359 368 360
702 2 2 2000 22 360 368 369
703 2 2 2000 22 360 369 63
704 2 2 2000 22 63 369 62
705 2 2 2000 22 15 14 361
706 2 2 2000 22 361 14 370
707 2 2 2000 22 361 370 362
708 2 2 2000 22 362 370 371
709 2 2 2000 22 362 371 363
710 2 2 2000 22 363 371 372
711 2 2 2000 22 363 372 364
712 2 2 2000 22 364 372 373
713 2 2 2000 22 364 373 365
714 2 2 2000 22 365 373 374
715 2 2 2000 22 365 374 366
716 2 2 2000 22 366 374 375
717 2 2 2000 22 366 375 367
718 2 2 2000 22 367 375 376
719 2 2 2000 22 367 376 368
720 2 2 2000 22 368 376 377
721 2 2 2000 22 368 377 369
722 2 2 2000 22 369 377 378
723 2 2 2000 22 369 378 62
724 2 2 2000 22 62 378 61
725 2 2 2000 22 14 13 370
726 2 2 2000 22 370 13 379
727 2 2 2000 22 370 379 371
728 2 2 2000 22 371 379 380
729 2 2 2000 22 371 380 372
730 2 2 2000 22 372 380 381
731 2 2 2000 22 372 381 373
732 2 2 2000 22 373 381 382
733 2 2 2000 22 373 382 374
734 2 2 2000 22 374 382 383
735 2 2 2000 22 374 383 375
736 2 2 2000 22 375 383 384
737 2 2 2000 22 375 384 376
738 2 2 2000 22 376 384 385
739 2 2 2000 22 376 385 377
740 2 2 2000 22 377 385 386
741 2 2 2000 22 377 386 378
742 2 2 2000 22 378 386 387
743 2 2 2000 22 378 387 61
744 2 2 2000 22 61 387 60
745 2 2 2000 22 13 12 379
746 2 2 2000 22 379 12 388
747 2 2 2000 22 379 388 380
748 2 2 2000 22 380 388 389
749 2 2 2000 22 380 389 381
750 2 2 2000 22 381 389 390
751 2 2 2000 22 381 390 382
752 2 2 2000 22 382 390 391
753 2 2 2000 22 382 391 383
754 2 2 2000 22 383 391 392
755 2 2 2000 22 383 392 384
756 2 2 2000 22 384 392 393
757 2 2 2000 22 384 393 385
758 2 2 2000 22 385 393 394
759 2 2 2000 22 385 394 386
760 2 2 2000 22 386 394 395
761 2 2 2000 22 386 395 387
762 2 2 2000 22 387 395 396
763 2 2 2000 22 387 396 60
764 2 2 2000 22 60 396 59
765 2 2 2000 22 12 11 388
766 2 2 2000 22 388 11 397
767 2 2 2000 22 388 397 389
768 2 2 2000 22 389 397 398
769 2 2 2000 22 389 398 390
770 2 2 2000 22 390 398 399
771 2 2 2000 22 390 399 391
772 2 2 2000 22 391 399 400
773 2 2 2000 22 391 400 392
774 2 2 2000 22 392 400 401
775 2 2 2000 22 392 401 393
776 2 2 2000 22 393 401 402
777 2 2 2000 22 393 402 394
778 2 2 2000 22 394 402 403
779 2 2 2000 22 394 403 395
780 2 2 2000 22 395 403 404
781 2 2 2000 22 395 404 396
782 2 2 2000 22 396 404 405
783 2 2 2000 22 396 405 59
784 2 2 2000 22 59 405 58
785 2 2 2000 22 11 10 397
786 2 2 2000 22 397 10 406
787 2 2 2000 22 397 406 398
788 2 2 2000 22 398 406 407
789 2 2 2000 22 398 407 399
790 2 2 2000 22 399 407 408
791 2 2 2000 22 399 408 400
792 2 2 2000 22 400 408 409
793 2 2 2000 22 400 409 401
794 2 2 2000 22 401 409 410
795 2 2 2000 22 401 410 402
796 2 2 2000 22 402 410 411
797 2 2 2000 22 402 411 403
798 2 2 2000 22 403 411 412
799 2 2 2000 22 403 412 404
800 2 2 2000 22 404 412 413
801 2 2 2000 22 404 413 405
802 2 2 2000 22 405 413 414
803 2 2 2000 22 405 414 58
804 2 2 2000 22 58 414 57
805 2 2 2000 22 10 9 406
806 2 2 2000 22 406 9 415
807 2 2 2000 22 406 415 407
808 2 2 2000 22 407 415 416
809 2 2 2000 22 407 416 408
810 2 2 2000 22 408 416 417
811 2 2 2000 22 408 417 409
812 2 2 2000 22 409 417 418
813 2 2 2000 22 409 418 410
814 2 2 2000 22 410 418 419
815 2 2 2000 22 410 419 411
816 2 2 2000 22 411 419 420
817 2 2 2000 22 411 420 412
818 2 2 2000 22 412 420 421
819 2 2 2000 22 412 421 413
820 2 2 2000 22 413 421 422
821 2 2 2000 22 413 422 414
822 2 2 2000 22 414 422 423
823 2 2 2000 22 414 423 57
824 2 2 2000 22 57 423 56
825 2 2 2000 22 9 8 415
826 2 2 2000 22 415 8 424
827 2 2 2000 22 415 424 416
828 2 2 2000 22 416 424 425
829 2 2 2000 22 416 425 417
830 2 2 2000 22 417 425 426
831 2 2 2000 22 417 426 418
832 2 2 2000 22 418 426 427
833 2 2 2000 22 418 427 419
834 2 2 2000 22 419 427 428
835 2 2 2000 22 419 428 420
836 2 2 2000 22 420 428 429
837 2 2 2000 22 420 429 421
838 2 2 2000 22 421 429 430
839 2 2 2000 22 421 430 422
840 2 2 2000 22 422 430 431
841 2 2 2000 22 422 431 423
842 2 2 2000 22 423 431 432
843 2 2 2000 22 423 432 56
844 2 2 2000 22 56 432 55
845 2 2 2000 22 8 7 424
846 2 2 2000 22 424 7 433
847 2 2 2000 22 424 433 425
848 2 2 2000 22 425 433 434
849 2 2 2000 22 425 434 426
850 2 2 2000 22 426 434 435
851 2 2 2000 22 426 435 427
852 2 2 2000 22 427 435 436
853 2 2 2000 22 427 436 428
854 2 2 2000 22 428 436 437
855 2 2 2000 22 428 437 429
856 2 2 2000 22 429 437 438
857 2 2 2000 22 429 438 430
858 2 2 2000 22 430 438 439
859 2 2 2000 22 430 439 431
860 2 2 2000 22 431 439 440
861 2 2 2000 22 431 440 432
862 2 2 2000 22 432 440 441
863 2 2 2000 22 432 441 55
864 2 2 2000 22 55 441 54
865 2 2 2000 22 7 5 433
866 2 2 2000 22 433 5 82
867 2 2 2000 22 433 82 434
868 2 2 2000 22 434 82 83
869 2 2 2000 22 434 83 435
870 2 2 2000 22 435 83 84
871 2 2 2000 22 435 84 436
872 2 2 2000 22 436 84 85
873 2 2 2000 22 436 85 437
874 2 2 2000 22 437 85 86
875 2 2 2000 22 437 86 438
876 2 2 2000 22 438 86 87
877 2 2 2000 22 438 87 439
878 2 2 2000 22 439 87 88
879 2 2 2000 22 439 88 440
880 2 2 2000 22 440 88 89
881 2 2 2000 22 440 89 441
882 2 2 2000 22 441 89 90
883 2 2 2000 22 441 90 54
884 2 2 2000 22 54 90 3
$EndElements
