$MeshFormat
2.2 0 8
$EndMeshFormat
$Nodes
9
1 -1 -1 0
2 -1 1 0
3 1 1 0
4 1 -1 0
5 -2.750244476601438e-12 -1 0
6 1 -2.750244476601438e-12 0
7 2.750244476601438e-12 1 0
8 -1 2.750244476601438e-12 0
9 -7.564178960885304e-24 0 0
$EndNodes
$Elements
20
1 15 2 1 1 1
2 15 2 4 2 2
3 15 2 3 3 3
4 15 2 2 4 4
5 1 2 101 1 1 5
6 1 2 101 1 5 4
7 1 2 102 2 4 6
8 1 2 102 2 6 3
9 1 2 103 3 3 7
10 1 2 103 3 7 2
11 1 2 104 4 2 8
12 1 2 104 4 8 1
13 2 2 1000 9 1 5 8
14 2 2 1000 9 8 5 9
15 2 2 1000 9 8 9 2
16 2 2 1000 9 2 9 7
17 2 2 1000 9 5 4 9
18 2 2 1000 9 9 4 6
19 2 2 1000 9 9 6 7
20 2 2 1000 9 7 6 3
$EndElements
