$MeshFormat
2.2 0 8
$EndMeshFormat
$Nodes
635
1 -1 -1 0
2 1 -1 0
3 1 1 0
4 -1 1 0
5 0.4 0 0
6 -0.4 0 0
7 0 0.4 0
8 0 -0.4 0
9 -0.9000000000002774 -1 0
10 -0.8000000000005548 -1 0
11 -0.7000000000008322 -1 0
12 -0.6000000000011096 -1 0
13 -0.500000000001387 -1 0
14 -0.4000000000016644 -1 0
15 -0.3000000000019418 -1 0
16 -0.2000000000022192 -1 0
17 -0.1000000000024964 -1 0
18 -2.752242878045763e-12 -1 0
19 0.09999999999750342 -1 0
20 0.1999999999977808 -1 0
21 0.2999999999980583 -1 0
22 0.3999999999983355 -1 0
23 0.4999999999986129 -1 0
24 0.5999999999988903 -1 0
25 0.699999999999168 -1 0
26 0.7999999999994454 -1 0
27 0.8999999999997226 -1 0
28 1 -0.9000000000002774 0
29 1 -0.8000000000005548 0
30 1 -0.7000000000008322 0
31 1 -0.6000000000011096 0
32 1 -0.500000000001387 0
33 1 -0.4000000000016644 0
34 1 -0.3000000000019418 0
35 1 -0.2000000000022192 0
36 1 -0.1000000000024964 0
37 1 -2.752242878045763e-12 0
38 1 0.09999999999750342 0
39 1 0.1999999999977808 0
40 1 0.2999999999980583 0
41 1 0.3999999999983355 0
42 1 0.4999999999986129 0
43 1 0.5999999999988903 0
44 1 0.699999999999168 0
45 1 0.7999999999994454 0
46 1 0.8999999999997226 0
47 -0.9000000000002774 1 0
48 -0.8000000000005548 1 0
49 -0.7000000000008322 1 0
50 -0.6000000000011096 1 0
51 -0.500000000001387 1 0
52 -0.4000000000016644 1 0
53 -0.3000000000019418 1 0
54 -0.2000000000022192 1 0
55 -0.1000000000024964 1 0
56 -2.752242878045763e-12 1 0
57 0.09999999999750342 1 0
58 0.1999999999977808 1 0
59 0.2999999999980583 1 0
60 0.3999999999983355 1 0
61 0.4999999999986129 1 0
62 0.5999999999988903 1 0
63 0.699999999999168 1 0
64 0.7999999999994454 1 0
65 0.8999999999997226 1 0
66 -1 -0.9000000000002774 0
67 -1 -0.8000000000005548 0
68 -1 -0.7000000000008322 0
69 -1 -0.6000000000011096 0
70 -1 -0.500000000001387 0
71 -1 -0.4000000000016644 0
72 -1 -0.3000000000019418 0
73 -1 -0.2000000000022192 0
74 -1 -0.1000000000024964 0
75 -1 -2.752242878045763e-12 0
76 -1 0.09999999999750342 0
77 -1 0.1999999999977808 0
78 -1 0.2999999999980583 0
79 -1 0.3999999999983355 0
80 -1 0.4999999999986129 0
81 -1 0.5999999999988903 0
82 -1 0.699999999999168 0
83 -1 0.7999999999994454 0
84 -1 0.8999999999997226 0
85 0.3899711648727788 0.0890083735823097 0
86 0.3603875471611564 0.1735534956466314 0
87 0.3127325929876194 0.2493959207429825 0
88 0.2493959207439993 0.3127325929868086 0
89 0.1735534956473836 0.3603875471607941 0
90 0.0890083735826827 0.3899711648726936 0
91 -0.0890083735823097 0.3899711648727788 0
92 -0.1735534956466314 0.3603875471611564 0
93 -0.2493959207429825 0.3127325929876194 0
94 -0.3127325929868086 0.2493959207439993 0
95 -0.3603875471607941 0.1735534956473836 0
96 -0.3899711648726936 0.0890083735826827 0
97 -0.3899711648727788 -0.0890083735823097 0
98 -0.3603875471611564 -0.1735534956466314 0
99 -0.3127325929876194 -0.2493959207429825 0
100 -0.2493959207439993 -0.3127325929868086 0
101 -0.1735534956473836 -0.3603875471607941 0
102 -0.0890083735826827 -0.3899711648726936 0
103 0.0890083735823097 -0.3899711648727788 0
104 0.1735534956466314 -0.3603875471611564 0
105 0.2493959207429825 -0.3127325929876194 0
106 0.3127325929868086 -0.2493959207439993 0
107 0.3603875471607941 -0.1735534956473836 0
108 0.3899711648726936 -0.0890083735826827 0
109 -0.5808499133226674 -0.5758642898330708 0
110 -0.5758642898330568 0.5808499133226734 0
111 0.5784298229923128 -0.5867330231614756 0
112 0.5808499133226315 0.5758642898330169 0
113 -0.7051202765923164 -0.2425521622733385 0
114 -0.2425521622733393 0.7051202765923166 0
115 0.262917750707057 -0.6634551358058056 0
116 0.7054224071760875 0.2426757161817726 0
117 0.7051202765920498 -0.2425521622744378 0
118 -0.2627669799510867 -0.6635931462299565 0
119 0.2629177507084324 0.6634551358052413 0
120 -0.6634551358052302 0.2629177507084083 0
121 -0.647037276538924 -0.002036083764477067 0
122 -0.003627023397432969 -0.6321545963278252 0
123 0.6438399219055821 -0.01021470548717244 0
124 -0.002036083764477444 0.6470372765389243 0
125 -0.7522238689984848 -0.7644423041243316 0
126 -0.7644423041242729 0.7522238689986087 0
127 0.764442304124381 -0.7522238689983901 0
128 0.7522238689985135 0.764442304124322 0
129 -0.453648027436479 -0.7688397995112838 0
130 0.7725817443457483 -0.4500823575434925 0
131 -0.7647763294555994 -0.4480346318026353 0
132 -0.4480346318026381 0.7647763294555813 0
133 -0.7688397995109857 0.4536480274365514 0
134 0.4536480274365512 0.7688397995109831 0
135 0.4461984277394898 -0.7704767226740441 0
136 0.7647763294555352 0.4480346318027958 0
137 -0.4996192976696723 -0.3699945735970031 0
138 -0.3699945735970032 0.499619297669672 0
139 0.5050973105735872 -0.3657153132648402 0
140 0.4996192976697604 0.3699945735968912 0
141 -0.3274689746609781 -0.5128925170619955 0
142 0.3274689746601337 -0.5128925170626535 0
143 -0.5128925170619596 0.3274689746609241 0
144 0.3274689746610317 0.5128925170619587 0
145 -0.8027855215682871 -0.0871060308696695 0
146 -0.7773031218415484 0.1050065499872919 0
147 -0.08710603086967016 0.8027855215682875 0
148 0.1050065499872924 0.7773031218415476 0
149 -0.08944810530030879 -0.7942142293413404 0
150 0.105006549986038 -0.7773031218417549 0
151 0.8027855215681581 -0.087106030870895 0
152 0.8004889935064287 0.1164105762637855 0
153 -0.522267819406421 -0.1753833301571783 0
154 -0.1753833301571785 0.522267819406421 0
155 0.521285183189707 0.1779822061518051 0
156 0.52369296790358 -0.183248095011481 0
157 0.112027003529914 -0.534216478072168 0
158 -0.1237739619050361 -0.5463144114087028 0
159 -0.5478012485422402 0.1363985825300062 0
160 0.1363985825300059 0.5478012485422404 0
161 -0.2925687041286587 -0.8477630148231228 0
162 0.8496883202937007 -0.3014537969127378 0
163 -0.8496883202939951 -0.3014537969106654 0
164 -0.3014537969106659 0.8496883202939952 0
165 -0.8476479431873459 0.2924216775713857 0
166 0.2924216775713903 0.8476479431873465 0
167 0.2924216775694818 -0.8476479431876911 0
168 0.8496300633204866 0.3013361491077137 0
169 -0.8422217721529683 -0.6134325824233025 0
170 -0.6134325824232107 0.8422217721530236 0
171 0.6134325824234049 -0.842221772153011 0
172 -0.607825608424392 -0.8432182712083458 0
173 0.8422217721530662 0.613432582423313 0
174 0.8422750286587576 -0.601656420311661 0
175 -0.8432182712083595 0.6078256084244762 0
176 0.6078256084243789 0.8432182712084119 0
177 -0.430997773488612 -0.6206412593967151 0
178 -0.6206412593965336 0.4309977734887142 0
179 0.4309977734867874 -0.6206412593977271 0
180 0.4309977734887292 0.6206412593965649 0
181 -0.6480695836375061 -0.384410440715475 0
182 -0.3844104407154747 0.6480695836374976 0
183 0.645120140647829 -0.3792969801176669 0
184 0.6480695836374873 0.3844104407153893 0
185 -0.8586897847136973 -0.8586897847136973 0
186 0.8586897847137478 -0.8586897847135189 0
187 -0.8586897847135327 0.8586897847137616 0
188 0.8586897847135833 0.8586897847135833 0
189 0.3597617761547809 -0.3722691702396477 0
190 -0.359761776155633 -0.3722691702384519 0
191 -0.3722691702384626 0.359761776155597 0
192 0.3597617761556393 0.3722691702384844 0
193 -0.5267058779760487 -0.03796832714742174 0
194 -0.03796832714742189 0.5267058779760488 0
195 0.5244942763362478 0.04919206305030116 0
196 -0.4709850410098873 -0.4955347731339513 0
197 0.4684856572236593 -0.4961877422015182 0
198 -0.4955347731338285 0.4709850410097759 0
199 0.4709850410099517 0.4955347731338242 0
200 -0.6106705125034171 -0.7027320229961997 0
201 0.7018678788640249 -0.6277677889766695 0
202 -0.7027320229960945 0.6106705125034945 0
203 0.6106705125033768 0.7027320229960959 0
204 -0.7019455380614272 -0.564313189747697 0
205 -0.5643131897476973 0.7019455380614402 0
206 0.5572268219395785 -0.7029555379613615 0
207 0.7019455380614481 0.5643131897477337 0
208 0.01830709629014145 -0.526835058552875 0
209 -0.4228200730104368 -0.2438969441745577 0
210 -0.2438969441745575 0.4228200730104367 0
211 0.4228200730104613 0.2438969441745976 0
212 0.4228200730097781 -0.2438969441756312 0
213 -0.6336864884801717 -0.1239024274751723 0
214 -0.1239024274751725 0.6336864884801721 0
215 0.6336665739976471 0.1232835811057117 0
216 0.6333632787396088 -0.1060326794313604 0
217 0.4973360815849726 -0.07218213877777466 0
218 -0.1143648757798139 -0.686004006101091 0
219 0.2393606051718098 -0.4671546622568251 0
220 -0.2399915705906399 -0.4660601346020024 0
221 0.2393606051726402 0.4671546622564172 0
222 -0.4671546622564164 0.2393606051725751 0
223 0.1147071234885508 -0.6838573143170011 0
224 -0.6768592129305822 0.1113778034661771 0
225 0.1113778034661769 0.676859212930582 0
226 -0.8808509282264632 -0.7152665938383489 0
227 -0.7162263645773643 -0.8713752210857777 0
228 -0.7152665938382246 0.880850928226497 0
229 0.871306471628832 -0.7157767152978947 0
230 0.7152665938383771 -0.880850928226562 0
231 -0.8713752210858732 0.7162263645774114 0
232 0.8808509282265959 0.7152665938382528 0
233 0.7162263645772875 0.8713752210858983 0
234 0.6694089268954106 -0.479717983213189 0
235 -0.3399480248247402 -0.7050104252498353 0
236 -0.7049907094746727 0.3399695635044787 0
237 0.3399695635044862 0.7049907094746879 0
238 0.3694268289871829 -0.700920301048329 0
239 -0.01229970654180428 -0.883510076450272 0
240 0.8836674306072607 -0.008104872582353649 0
241 -0.8836674306072373 -0.008104872581258736 0
242 -0.008104872581259035 0.883667430607237 0
243 -0.5658568627028524 -0.3045074652735723 0
244 -0.3045074652735678 0.5658568627028526 0
245 0.5695013774183855 -0.2935919945805366 0
246 0.5658568627029433 0.3045074652736025 0
247 -0.8713875467466949 0.1856251990218581 0
248 0.1856251990218619 0.8713875467466925 0
249 0.1856251990201976 -0.8713875467471528 0
250 0.8521487543235109 0.1993554251092415 0
251 -0.184422946276737 -0.8729996039363435 0
252 0.8523918287113406 -0.194688951051793 0
253 -0.8523918287116952 -0.1946889510503825 0
254 -0.1946889510503834 0.8523918287116952 0
255 -0.3899843291672083 -0.8739520835796291 0
256 0.8646944519557541 -0.4162469674410528 0
257 -0.8795499811304103 -0.3995209714057469 0
258 -0.3995209714057442 0.8795499811304123 0
259 -0.8760893960125938 0.3938876181164799 0
260 0.3938876181164837 0.8760893960125975 0
261 0.3938876181140779 -0.8760893960129464 0
262 0.8795241883289336 0.399488910945646 0
263 -0.5749694616572367 -0.4754610014539489 0
264 -0.4754610014539162 0.5749694616571903 0
265 0.5749694616573005 0.4754610014538836 0
266 0.2573872613611328 -0.5697655677960244 0
267 -0.2575721704918237 -0.5712336293730651 0
268 -0.5697655677955119 0.2573872613621354 0
269 0.2573872613622007 0.5697655677955262 0
270 -0.5155783870024055 -0.6854951696661304 0
271 -0.6854951696659186 0.5155783870024944 0
272 0.5155783870024159 0.685495169665939 0
273 0.7418011944228937 -0.01063554803925235 0
274 -0.0005545254658037797 -0.7505888927521703 0
275 -0.000371941251985268 0.7484164778415001 0
276 -0.748416477841499 -0.0003719412519849836 0
277 -0.4788824881371672 0.04730836082796906 0
278 0.04730836082797651 0.4788824881371649 0
279 0.5539141415829419 -0.4481565083123089 0
280 -0.8909639560594684 -0.5133263785025004 0
281 -0.5133263785024474 0.890963956059512 0
282 0.5133263785028847 -0.8909639560599089 0
283 0.8909639560599525 0.5133263785028315 0
284 -0.5180064268140312 -0.8897913120946608 0
285 0.8951999452173736 -0.5112043527701923 0
286 -0.8897913120947096 0.5180064268141022 0
287 0.5180064268140602 0.8897913120947447 0
288 -0.7735785030059249 -0.1949376332794534 0
289 -0.1949376332794545 0.773578503005925 0
290 -0.2023379332886168 -0.7899302615147965 0
291 0.7735785030055935 -0.1949376332804556 0
292 0.2027696928070914 -0.7841447716923351 0
293 0.7762822006910095 0.1973854297768873 0
294 -0.7841447716919685 0.2027696928083413 0
295 0.2027696928083402 0.7841447716919672 0
296 -0.7205112757679578 -0.327255476827234 0
297 -0.3272554768272347 0.7205112757679568 0
298 0.7146231656743598 -0.3272647540952046 0
299 0.7205657668091028 0.3273326933864624 0
300 -0.06842396930758045 -0.4821816135328485 0
301 -0.678100788342034 -0.4741371462542285 0
302 -0.474137146254255 0.6781007883419841 0
303 0.6781007883421962 0.4741371462541771 0
304 0.7481357554902907 -0.5525349523485072 0
305 -0.7476905774095295 -0.6496780683074298 0
306 -0.6496780683073475 0.7476905774096192 0
307 0.6510615460634649 -0.7474752636925801 0
308 0.7476905774096239 0.6496780683074204 0
309 -0.2798172268191152 -0.3846213778725338 0
310 -0.384751678783773 0.2797421118883793 0
311 0.2797421118884104 0.3847516787837767 0
312 0.2797421118875179 -0.384751678784474 0
313 -0.9039594607180771 -0.09207203798646456 0
314 -0.09207203798646589 0.9039594607180771 0
315 -0.08964802724937394 -0.9160531733026924 0
316 0.9039594607180054 -0.09207203798767827 0
317 -0.3502194333166878 -0.6166081609390016 0
318 -0.6163759055421463 0.3502176333606149 0
319 0.350217633360666 0.6163759055421542 0
320 0.3410777821244053 -0.6060882680877449 0
321 0.0840792084166848 0.9005484252547661 0
322 -0.9005484252547675 0.08407920841668338 0
323 0.07966779502408572 -0.8989248484550911 0
324 0.8995111960833797 0.0838576644992632 0
325 -0.6871787338104995 -0.07154857731617584 0
326 -0.0715485773161762 0.6871787338105002 0
327 0.7041422795004971 -0.07522131815944469 0
328 0.7039129771052893 0.0657811069802037 0
329 0.1465251737853822 -0.4573114795692702 0
330 0.1479894959829178 0.4626987451046336 0
331 -0.4626987451046269 0.1479894959828984 0
332 0.4435753377389544 0.1665602871606371 0
333 -0.4491816319055956 -0.1746995940941339 0
334 -0.1746995940941339 0.4491816319055955 0
335 0.4543221442564283 -0.1587944085875021 0
336 -0.05616824687580155 -0.5610548131982585 0
337 -0.922127673458085 0.6407779900042888 0
338 0.641296583836691 -0.921332973397945 0
339 -0.6407779900045946 -0.9221276734577626 0
340 -0.9213329733975555 -0.6412965838369239 0
341 0.6407779900042117 0.9221276734581009 0
342 0.9213329733979587 0.641296583836602 0
343 0.9220539131074426 -0.6402955674540821 0
344 -0.641296583836835 0.9213329733975689 0
345 -0.5485442516027179 -0.7870156572262346 0
346 -0.7870156572261275 0.5485442516028781 0
347 0.5485442516028048 0.7870156572261426 0
348 -0.5825623506748533 0.05550538649303935 0
349 0.05550538649303904 0.5825623506748533 0
350 -0.1467825762089835 -0.456851922467893 0
351 -0.4181423406387541 -0.4384762028776478 0
352 -0.4384762028776351 0.4181423406387059 0
353 0.4000102091579755 -0.4468388565944769 0
354 0.4181423406388126 0.4384762028776038 0
355 0.5225045233257413 -0.636375303755605 0
356 -0.1773976488097361 -0.6182588378695349 0
357 0.2459701977524341 -0.9331787426626171 0
358 0.9303026306141426 0.2497443140236467 0
359 -0.933178742662425 0.2459701977536855 0
360 0.2459701977536889 0.9331787426624244 0
361 0.07748382694990566 -0.6102507697175373 0
362 -0.9304502908325629 -0.2488670222918608 0
363 -0.2488670222918614 0.930450290832563 0
364 -0.2456751726998948 -0.9335640357914677 0
365 0.9304502908323966 -0.2488670222930858 0
366 0.172032984408578 -0.6149297383489523 0
367 -0.6204403945459116 0.1729303108339283 0
368 0.172930310833933 0.6204403945459146 0
369 -0.6044330605116344 -0.2058394825142587 0
370 -0.2058394825142588 0.6044330605116346 0
371 0.6046108611931341 0.2079649892735246 0
372 0.6045632578819071 -0.2083053047067823 0
373 -0.6637611703657573 -0.7783182339241632 0
374 0.7758707044526199 -0.6682824369523078 0
375 -0.7783182339241301 0.6637611703658495 0
376 0.6637611703657034 0.7783182339241415 0
377 -0.2778341807906803 -0.7511878536829968 0
378 -0.750836945105537 0.2772833021694537 0
379 0.2772833021694514 0.7508369451055406 0
380 0.2787818768906367 -0.7495985465044611 0
381 -0.7879953794024452 -0.5338660059836724 0
382 -0.5338660059836554 0.7879953794024208 0
383 0.5321428745863398 -0.7866600443747374 0
384 0.7879953794023531 0.5338660059836796 0
385 -0.3778224448844896 -0.7838558397778512 0
386 -0.7840917849841126 0.3782834338061007 0
387 0.3782834338061011 0.7840917849841169 0
388 0.3721069809647783 -0.7957057250630389 0
389 0.7816942427784082 -0.3599216354527411 0
390 -0.798624259943244 -0.3722444232067756 0
391 -0.3722444232067756 0.7986242599432435 0
392 0.7986308215543741 0.3722679849252344 0
393 -0.5010923782317798 -0.5746254027153546 0
394 -0.5746254027151723 0.5010923782318141 0
395 0.5010923782318127 0.5746254027151947 0
396 -0.410554992389832 -0.5439234372099848 0
397 0.4082827841316156 -0.5427878358964695 0
398 -0.5439036876013277 0.4105548393323408 0
399 0.4105548393324556 0.543903687601314 0
400 0.5856712712830587 -0.0579199867744109 0
401 -0.6520642895550078 -0.6270495553774238 0
402 -0.6270495553773735 0.6520642895550651 0
403 0.6248864790597303 -0.653480774924406 0
404 0.652064289555002 0.627049555377349 0
405 -0.9189301816863942 -0.8013801141432894 0
406 -0.8013801141431491 0.9189301816864176 0
407 -0.7979415302612888 -0.9163022644269468 0
408 0.8013801141433692 -0.9189301816863884 0
409 0.9163022644269754 -0.7979415302611226 0
410 0.9189301816864117 0.8013801141432286 0
411 -0.9163022644269477 0.7979415302615576 0
412 0.7979415302613906 0.9163022644269757 0
413 -0.9125935827769429 -0.9127286938807019 0
414 0.9127286938806358 -0.9125935827768845 0
415 -0.9127286938806511 0.9125935827769097 0
416 0.9125935827768512 0.912728693880585 0
417 0.7018264662998122 0.1605296981535733 0
418 0.07317352943754944 -0.4616668362134184 0
419 0.4685460819086147 -0.6986548113552813 0
420 -0.1543143856213452 0.7011304306614725 0
421 -0.7011304306614723 -0.1543143856213447 0
422 0.702495794210333 -0.1551473135056999 0
423 -0.4221955999307353 -0.6976278516046079 0
424 -0.6976268782099821 0.4222247986458815 0
425 0.4222247986458703 0.6976268782099971 0
426 -0.1180362291664686 0.5618923373352005 0
427 -0.5618923373352003 -0.1180362291664684 0
428 0.5572409484815748 0.1168037573998113 0
429 -0.832187715277115 -0.7824882169997354 0
430 -0.7824882169996215 0.8321877152771942 0
431 0.7824882169997989 -0.8321877152770352 0
432 0.8321877152771142 0.7824882169996847 0
433 -0.9345892947453107 0.3448438108950908 0
434 0.3448438108950996 0.9345892947453122 0
435 0.3448438108927364 -0.9345892947447193 0
436 0.9345892947447195 0.344843810892737 0
437 -0.3453419804176675 -0.9350264659011425 0
438 0.9318993463158445 -0.3511298018534912 0
439 -0.935026465900537 -0.345341980415301 0
440 -0.3453419804153017 0.9350264659005376 0
441 -0.3683382903371284 -0.2958674234698886 0
442 -0.2958674234698883 0.3683382903371286 0
443 0.3683382903370914 0.2958674234699283 0
444 0.3683382903360382 -0.2958674234713218 0
445 0.5020491586150713 -0.2562096475769581 0
446 -0.4997893892098951 -0.2591766946458842 0
447 -0.2591766946458836 0.4997893892098951 0
448 0.4988735135382346 0.2586888483345079 0
449 0.4687513846080589 -0.005772204300900153 0
450 -0.5712662098029621 -0.391905992393443 0
451 -0.3919059923934195 0.5712662098029631 0
452 0.5712662098029693 0.3919059923934511 0
453 0.5041443755822366 -0.5627750013294263 0
454 0.5733532877202726 -0.3592615798154448 0
455 0.6534375395197647 -0.5689081342670717 0
456 -0.6438062698762601 -0.3060009091589378 0
457 -0.306000909158937 0.6438062698762597 0
458 0.6465969717248015 -0.3048005546036471 0
459 0.6438294556282464 0.3061018340004107 0
460 -0.4552018922033835 -0.04175818159512541 0
461 -0.04175818159512442 0.4552018922033831 0
462 -0.7178184572347049 -0.3985420709610335 0
463 0.7166856440683512 -0.3992567420844588 0
464 -0.3985420709610341 0.7178184572347044 0
465 0.7178184572345175 0.3985420709610471 0
466 -0.42807852783692 -0.3299468348339055 0
467 -0.329946834833905 0.4280785278369058 0
468 0.4322691254358503 -0.3442686484144399 0
469 0.4279258818916665 0.3298655271153355 0
470 -0.5995136030957529 -0.05166909990903538 0
471 -0.05166909990903543 0.5995136030957531 0
472 0.592225157567676 0.05375735356828306 0
473 -0.9337915657594223 -0.4477818796511454 0
474 -0.4477818796511093 0.9337915657594518 0
475 -0.4411365940954913 -0.9279298413447098 0
476 0.9387012037724254 -0.4447214022925123 0
477 0.4409848168453888 -0.9282718395876842 0
478 0.9352761550771183 0.4495645661429989 0
479 -0.9312538644559857 0.4451304884442723 0
480 0.4451304884442467 0.9312538644560093 0
481 0.8189985301533798 -0.5096871606121808 0
482 0.4629902742228579 0.08665124764052094 0
483 -0.6398174219058463 -0.5381881760614859 0
484 -0.5381881760615442 0.6398174219058637 0
485 0.63981742190585 0.5381881760613823 0
486 0.5517021428977142 -0.1191103579155038 0
487 -0.8059956877103157 -0.7008112457464236 0
488 0.7008112457466262 -0.8059956877103752 0
489 -0.7008112457463203 0.805995687710388 0
490 0.8059956877104477 0.7008112457465218 0
491 -0.5107556397480671 -0.4396792059129886 0
492 -0.4396792059129609 0.5107556397480303 0
493 0.5107556397481747 0.4396792059128765 0
494 0.04459104178496248 -0.6956580309065876 0
495 -0.6956580309065563 0.04459104178607985 0
496 0.04459104178607907 0.6956580309065572 0
497 -0.04445447736958277 -0.6960680235996759 0
498 -0.5784934933493616 -0.643514882753506 0
499 -0.6435148827534288 0.5784934933494691 0
500 0.5784934933493633 0.6435148827534047 0
501 -0.09724016285348774 -0.6198003134947723 0
502 -0.939713120062948 -0.1627232602963906 0
503 -0.1627232602963913 0.939713120062948 0
504 -0.1561750671338065 -0.9452045442711074 0
505 0.9397131200625906 -0.1627232602973669 0
506 0.190278306361215 -0.5296240921944285 0
507 -0.1928761491827891 -0.5318156650054898 0
508 0.1981186707605503 0.5325699821039924 0
509 -0.5325699821039644 0.1981186707605109 0
510 0.3139941384216256 -0.3230033572454125 0
511 -0.3140091614086991 -0.3229772970621331 0
512 -0.323003357244383 0.3139941384225448 0
513 0.313994138422552 0.323003357244396 0
514 0.1529304990363496 -0.94544767129614 0
515 0.9389797033733305 0.1626883431000192 0
516 -0.9454476712951985 0.1529304990379398 0
517 0.1529304990379425 0.9454476712951952 0
518 -0.9309037403219984 -0.5736111089530448 0
519 -0.5736111089529979 0.9309037403220209 0
520 -0.5713945333935188 -0.9337719150082554 0
521 0.9337719150082995 -0.5713945333934539 0
522 0.5736111089520968 -0.930903740322173 0
523 0.9309037403221954 0.5736111089520499 0
524 -0.933771915007811 0.5713945333938136 0
525 0.5713945333937487 0.9337719150078561 0
526 0.7770141307446881 -0.2689374536779976 0
527 -0.7771673580948566 -0.2691280672047405 0
528 -0.2691280672047414 0.7771673580948566 0
529 -0.4596322492426065 -0.8408125333320791 0
530 -0.8411585780811215 0.4601399127646308 0
531 0.4601399127646267 0.8411585780811217 0
532 -0.842469731107619 -0.4552932280556027 0
533 -0.4552932280555886 0.8424697311076222 0
534 0.4533733240320358 -0.8415728515863476 0
535 0.8426441785037169 0.4555044408832517 0
536 -0.79145385276559 -0.8386595582700977 0
537 0.8386458083787469 -0.7913639229095923 0
538 -0.8386595582700496 0.7914538527657067 0
539 0.7914538527655779 0.8386595582700928 0
540 0.02279044126321864 -0.8170422542343589 0
541 0.8099967963359903 0.02655919665030842 0
542 -0.8168347566519409 0.02440467232741086 0
543 0.0244046723274109 0.8168347566519413 0
544 0.4699235033624364 -0.4245679948941797 0
545 -0.6852820837664393 -0.7044440369459096 0
546 0.7036257825128441 -0.6898460267088707 0
547 -0.7044440369458438 0.6852820837665274 0
548 0.685282083766444 0.7044440369458659 0
549 0.7774787332591397 0.2699992687715793 0
550 0.1835069804769361 -0.7116038840666451 0
551 -0.7112814020343425 0.1803454594383521 0
552 0.1803454594383533 0.711281402034342 0
553 -0.1845915250413547 -0.7153937330346157 0
554 -0.4842034539499046 -0.1061423392904396 0
555 -0.1061423392904395 0.4842034539499045 0
556 0.3317897302922509 -0.4342342133386834 0
557 -0.3378224108465922 -0.43277368372312 0
558 0.3378224108465469 0.4327736837232159 0
559 -0.4327736837232665 0.3378224108464361 0
560 0.5520530155475992 -0.007189936453612319 0
561 0.594820142948306 -0.5213999192427294 0
562 -0.003270865397641527 0.004533989700451374 0
563 0.02250517234523135 -0.1997389290209219 0
564 0.1687780434546352 0.02749714003449014 0
565 -0.170665114808968 -0.010748918535956 0
566 -0.02207352189982658 0.1811232394001792 0
567 0.1477259286687614 0.1717666450462761 0
568 -0.1812740299603281 0.1445612149889158 0
569 -0.1357687154313209 -0.1832975215428859 0
570 0.1717666450462762 -0.1477259286687612 0
571 0.08640078274799726 -0.09574988651655672 0
572 -0.06129404819361462 -0.112500702051275 0
573 0.1019924884442707 0.07927471436797728 0
574 -0.1056986890299563 0.05933878813233465 0
575 0.1383828551908605 -0.2386935265403191 0
576 0.2386935265403194 0.1383828551908606 0
577 -0.2531886904406173 -0.1388249999480701 0
578 -0.1421937045230228 0.2290857476730176 0
579 -0.07725988542657483 -0.2670166007692718 0
580 0.2788113834957505 -0.07674386444988737 0
581 -0.2699775062461564 0.07421798193782966 0
582 0.07674386444988762 0.2788113834957506 0
583 0.03654470189516944 -0.3243432001300346 0
584 0.3243432001300348 0.03654470189516949 0
585 -0.324343200130035 -0.03654470189516947 0
586 -0.03654470189516949 0.3243432001300352 0
587 -0.02137214124311394 0.1004563101966325 0
588 0.232858004587678 0.2220636398946618 0
589 0.2220636398946618 -0.2328580045876779 0
590 -0.2242833456023642 0.2307292558298201 0
591 -0.2267139161614735 -0.2112148735892637 0
592 0.0478592185299403 0.1510645254168356 0
593 -0.1406754081308508 -0.090866385245001 0
594 0.1637879991182546 -0.05398413046785134 0
595 -0.09061154915528763 0.1563252563788769 0
596 -0.162337206358355 -0.2768613266800108 0
597 0.2692495423160041 -0.1543876651438235 0
598 -0.2783704950964559 0.1617149273168166 0
599 0.1543876651438236 0.2692495423160041 0
600 -0.07780250155571644 -0.03575113787992459 0
601 0.08044799503089453 -0.006544962335899395 0
602 0.09207611695967025 -0.1743073967099865 0
603 0.1765123008968759 0.09885335110563476 0
604 -0.05055599790011793 -0.1908081302492108 0
605 -0.1902179557180341 0.06048847409778767 0
606 -0.1121676887474399 0.3106213186952107 0
607 0.114481681454986 -0.3088315873824392 0
608 0.3088315873824393 0.1144816814549861 0
609 -0.3134907166437345 -0.1117666524885169 0
610 -0.3277163774632864 0.04116519938542028 0
611 0.03860762692017633 0.3306826249296824 0
612 -0.04167218330021106 -0.3272228932171386 0
613 0.3306826249296821 -0.03860762692017612 0
614 0.015636315010688 -0.1336159662165727 0
615 0.1795755185860244 -0.2907006517318424 0
616 0.2907006517318425 0.1795755185860245 0
617 -0.2925099687628969 -0.1837961950582357 0
618 -0.1803188310524882 0.2887112924693648 0
619 -0.1094991076848519 -0.3249281686802844 0
620 -0.326518824031041 0.1113313047393785 0
621 0.3265188240310409 -0.1113313047393782 0
622 0.1113313047393785 0.326518824031041 0
623 0.00900137578413872 -0.06355491709190725 0
624 0.03600173656632783 0.0614075866566749 0
625 0.245441037984016 0.06779691528889013 0
626 0.06583538164968622 -0.2502337015472487 0
627 -0.2350231620850553 -0.07341752495256705 0
628 -0.06576882137882431 0.2428310552961853 0
629 -0.007433801789469464 -0.2598939091556377 0
630 -0.2529905527419225 0.009193418339557516 0
631 0.2463300646727243 -0.0180860002555775 0
632 0.01827554312798012 0.2459031703236235 0
633 -0.1913065309721745 -0.1361080761329765 0
634 0.08906625481340938 0.2164358755948749 0
635 0.2193656346850157 -0.08965635177554616 0
$EndNodes
$Elements
1300
1 15 2 1 1 1
2 15 2 2 2 2
3 15 2 3 3 3
4 15 2 4 4 4
5 1 2 101 9 1 9
6 1 2 101 9 9 10
7 1 2 101 9 10 11
8 1 2 101 9 11 12
9 1 2 101 9 12 13
10 1 2 101 9 13 14
11 1 2 101 9 14 15
12 1 2 101 9 15 16
13 1 2 101 9 16 17
14 1 2 101 9 17 18
15 1 2 101 9 18 19
16 1 2 101 9 19 20
17 1 2 101 9 20 21
18 1 2 101 9 21 22
19 1 2 101 9 22 23
20 1 2 101 9 23 24
21 1 2 101 9 24 25
22 1 2 101 9 25 26
23 1 2 101 9 26 27
24 1 2 101 9 27 2
25 1 2 102 10 2 28
26 1 2 102 10 28 29
27 1 2 102 10 29 30
28 1 2 102 10 30 31
29 1 2 102 10 31 32
30 1 2 102 10 32 33
31 1 2 102 10 33 34
32 1 2 102 10 34 35
33 1 2 102 10 35 36
34 1 2 102 10 36 37
35 1 2 102 10 37 38
36 1 2 102 10 38 39
37 1 2 102 10 39 40
38 1 2 102 10 40 41
39 1 2 102 10 41 42
40 1 2 102 10 42 43
41 1 2 102 10 43 44
42 1 2 102 10 44 45
43 1 2 102 10 45 46
44 1 2 102 10 46 3
45 1 2 103 11 4 47
46 1 2 103 11 47 48
47 1 2 103 11 48 49
48 1 2 103 11 49 50
49 1 2 103 11 50 51
50 1 2 103 11 51 52
51 1 2 103 11 52 53
52 1 2 103 11 53 54
53 1 2 103 11 54 55
54 1 2 103 11 55 56
55 1 2 103 11 56 57
56 1 2 103 11 57 58
57 1 2 103 11 58 59
58 1 2 103 11 59 60
59 1 2 103 11 60 61
60 1 2 103 11 61 62
61 1 2 103 11 62 63
62 1 2 103 11 63 64
63 1 2 103 11 64 65
64 1 2 103 11 65 3
65 1 2 104 12 1 66
66 1 2 104 12 66 67
67 1 2 104 12 67 68
68 1 2 104 12 68 69
69 1 2 104 12 69 70
70 1 2 104 12 70 71
71 1 2 104 12 71 72
72 1 2 104 12 72 73
73 1 2 104 12 73 74
74 1 2 104 12 74 75
75 1 2 104 12 75 76
76 1 2 104 12 76 77
77 1 2 104 12 77 78
78 1 2 104 12 78 79
79 1 2 104 12 79 80
80 1 2 104 12 80 81
81 1 2 104 12 81 82
82 1 2 104 12 82 83
83 1 2 104 12 83 84
84 1 2 104 12 84 4
85 1 2 105 122 5 85
86 1 2 105 122 85 86
87 1 2 105 122 86 87
88 1 2 105 122 87 88
89 1 2 105 122 88 89
90 1 2 105 122 89 90
91 1 2 105 122 90 7
92 1 2 105 123 7 91
93 1 2 105 123 91 92
94 1 2 105 123 92 93
95 1 2 105 123 93 94
96 1 2 105 123 94 95
97 1 2 105 123 95 96
98 1 2 105 123 96 6
99 1 2 105 124 6 97
100 1 2 105 124 97 98
101 1 2 105 124 98 99
102 1 2 105 124 99 100
103 1 2 105 124 100 101
104 1 2 105 124 101 102
105 1 2 105 124 102 8
106 1 2 105 125 8 103
107 1 2 105 125 103 104
108 1 2 105 125 104 105
109 1 2 105 125 105 106
110 1 2 105 125 106 107
111 1 2 105 125 107 108
112 1 2 105 125 108 5
113 2 2 1000 21 549 250 293
114 2 2 1000 21 527 253 288
115 2 2 1000 21 528 254 289
116 2 2 1000 21 526 291 252
117 2 2 1000 21 98 441 209
118 2 2 1000 21 92 442 210
119 2 2 1000 21 86 443 211
120 2 2 1000 21 107 212 444
121 2 2 1000 21 168 250 549
122 2 2 1000 21 225 368 349
123 2 2 1000 21 224 367 348
124 2 2 1000 21 163 253 527
125 2 2 1000 21 164 254 528
126 2 2 1000 21 162 526 252
127 2 2 1000 21 196 393 263
128 2 2 1000 21 198 394 264
129 2 2 1000 21 199 395 265
130 2 2 1000 21 142 266 219
131 2 2 1000 21 141 220 267
132 2 2 1000 21 143 222 268
133 2 2 1000 21 144 221 269
134 2 2 1000 21 56 321 242
135 2 2 1000 21 75 322 241
136 2 2 1000 21 18 239 323
137 2 2 1000 21 37 240 324
138 2 2 1000 21 104 312 219
139 2 2 1000 21 101 220 309
140 2 2 1000 21 89 221 311
141 2 2 1000 21 95 222 310
142 2 2 1000 21 37 316 240
143 2 2 1000 21 18 315 239
144 2 2 1000 21 56 242 314
145 2 2 1000 21 75 241 313
146 2 2 1000 21 109 263 393
147 2 2 1000 21 110 264 394
148 2 2 1000 21 112 265 395
149 2 2 1000 21 8 208 300
150 2 2 1000 21 98 209 333
151 2 2 1000 21 92 210 334
152 2 2 1000 21 86 211 332
153 2 2 1000 21 107 335 212
154 2 2 1000 21 200 345 373
155 2 2 1000 21 202 346 375
156 2 2 1000 21 203 347 376
157 2 2 1000 21 108 449 217
158 2 2 1000 21 106 107 444
159 2 2 1000 21 86 87 443
160 2 2 1000 21 98 99 441
161 2 2 1000 21 92 93 442
162 2 2 1000 21 123 327 216
163 2 2 1000 21 172 373 345
164 2 2 1000 21 175 375 346
165 2 2 1000 21 176 376 347
166 2 2 1000 21 121 470 325
167 2 2 1000 21 124 471 326
168 2 2 1000 21 213 325 470
169 2 2 1000 21 214 326 471
170 2 2 1000 21 149 553 218
171 2 2 1000 21 108 217 335
172 2 2 1000 21 157 208 418
173 2 2 1000 21 159 348 367
174 2 2 1000 21 160 349 368
175 2 2 1000 21 82 411 231
176 2 2 1000 21 25 230 408
177 2 2 1000 21 63 412 233
178 2 2 1000 21 11 407 227
179 2 2 1000 21 44 232 410
180 2 2 1000 21 68 226 405
181 2 2 1000 21 30 409 229
182 2 2 1000 21 49 228 406
183 2 2 1000 21 104 219 329
184 2 2 1000 21 89 330 221
185 2 2 1000 21 95 331 222
186 2 2 1000 21 193 348 277
187 2 2 1000 21 194 349 278
188 2 2 1000 21 118 235 317
189 2 2 1000 21 120 236 318
190 2 2 1000 21 119 237 319
191 2 2 1000 21 115 320 238
192 2 2 1000 21 183 234 279
193 2 2 1000 21 66 405 413
194 2 2 1000 21 47 406 415
195 2 2 1000 21 9 413 407
196 2 2 1000 21 28 414 409
197 2 2 1000 21 27 408 414
198 2 2 1000 21 46 410 416
199 2 2 1000 21 84 415 411
200 2 2 1000 21 65 416 412
201 2 2 1000 21 8 418 208
202 2 2 1000 21 56 57 321
203 2 2 1000 21 75 76 322
204 2 2 1000 21 18 323 19
205 2 2 1000 21 37 324 38
206 2 2 1000 21 150 223 550
207 2 2 1000 21 148 552 225
208 2 2 1000 21 146 551 224
209 2 2 1000 21 161 290 251
210 2 2 1000 21 149 218 497
211 2 2 1000 21 165 294 247
212 2 2 1000 21 166 295 248
213 2 2 1000 21 167 249 292
214 2 2 1000 21 325 421 145
215 2 2 1000 21 326 420 147
216 2 2 1000 21 327 151 422
217 2 2 1000 21 123 216 400
218 2 2 1000 21 36 316 37
219 2 2 1000 21 17 315 18
220 2 2 1000 21 55 56 314
221 2 2 1000 21 74 75 313
222 2 2 1000 21 193 470 348
223 2 2 1000 21 194 471 349
224 2 2 1000 21 123 472 328
225 2 2 1000 21 157 361 208
226 2 2 1000 21 131 301 381
227 2 2 1000 21 132 302 382
228 2 2 1000 21 136 303 384
229 2 2 1000 21 145 421 288
230 2 2 1000 21 147 420 289
231 2 2 1000 21 151 291 422
232 2 2 1000 21 209 446 333
233 2 2 1000 21 210 447 334
234 2 2 1000 21 212 335 445
235 2 2 1000 21 211 448 332
236 2 2 1000 21 204 381 301
237 2 2 1000 21 205 382 302
238 2 2 1000 21 207 384 303
239 2 2 1000 21 225 349 496
240 2 2 1000 21 224 348 495
241 2 2 1000 21 142 219 556
242 2 2 1000 21 141 557 220
243 2 2 1000 21 143 559 222
244 2 2 1000 21 144 558 221
245 2 2 1000 21 215 328 472
246 2 2 1000 21 5 449 108
247 2 2 1000 21 138 467 352
248 2 2 1000 21 137 466 351
249 2 2 1000 21 140 469 354
250 2 2 1000 21 197 279 453
251 2 2 1000 21 122 208 361
252 2 2 1000 21 150 494 223
253 2 2 1000 21 146 224 495
254 2 2 1000 21 148 225 496
255 2 2 1000 21 201 304 374
256 2 2 1000 21 142 320 266
257 2 2 1000 21 141 267 317
258 2 2 1000 21 143 268 318
259 2 2 1000 21 144 269 319
260 2 2 1000 21 118 317 267
261 2 2 1000 21 120 318 268
262 2 2 1000 21 119 319 269
263 2 2 1000 21 115 266 320
264 2 2 1000 21 174 374 304
265 2 2 1000 21 149 290 553
266 2 2 1000 21 279 561 453
267 2 2 1000 21 204 305 381
268 2 2 1000 21 205 306 382
269 2 2 1000 21 206 307 383
270 2 2 1000 21 207 308 384
271 2 2 1000 21 47 48 406
272 2 2 1000 21 66 67 405
273 2 2 1000 21 28 409 29
274 2 2 1000 21 9 407 10
275 2 2 1000 21 45 410 46
276 2 2 1000 21 26 408 27
277 2 2 1000 21 64 65 412
278 2 2 1000 21 83 84 411
279 2 2 1000 21 138 352 492
280 2 2 1000 21 137 351 491
281 2 2 1000 21 140 354 493
282 2 2 1000 21 130 256 481
283 2 2 1000 21 150 292 249
284 2 2 1000 21 152 293 250
285 2 2 1000 21 146 247 294
286 2 2 1000 21 148 248 295
287 2 2 1000 21 145 288 253
288 2 2 1000 21 147 289 254
289 2 2 1000 21 149 251 290
290 2 2 1000 21 151 252 291
291 2 2 1000 21 169 381 305
292 2 2 1000 21 170 382 306
293 2 2 1000 21 171 383 307
294 2 2 1000 21 173 384 308
295 2 2 1000 21 101 350 220
296 2 2 1000 21 125 373 227
297 2 2 1000 21 126 375 231
298 2 2 1000 21 127 374 229
299 2 2 1000 21 128 376 233
300 2 2 1000 21 6 277 96
301 2 2 1000 21 7 278 90
302 2 2 1000 21 172 227 373
303 2 2 1000 21 174 229 374
304 2 2 1000 21 175 231 375
305 2 2 1000 21 176 233 376
306 2 2 1000 21 219 312 556
307 2 2 1000 21 220 557 309
308 2 2 1000 21 221 558 311
309 2 2 1000 21 222 559 310
310 2 2 1000 21 122 336 208
311 2 2 1000 21 152 417 293
312 2 2 1000 21 153 333 446
313 2 2 1000 21 154 334 447
314 2 2 1000 21 155 332 448
315 2 2 1000 21 156 445 335
316 2 2 1000 21 137 243 446
317 2 2 1000 21 138 244 447
318 2 2 1000 21 139 445 245
319 2 2 1000 21 140 246 448
320 2 2 1000 21 147 242 543
321 2 2 1000 21 145 241 542
322 2 2 1000 21 151 541 240
323 2 2 1000 21 149 540 239
324 2 2 1000 21 150 550 292
325 2 2 1000 21 148 295 552
326 2 2 1000 21 146 294 551
327 2 2 1000 21 104 105 312
328 2 2 1000 21 100 101 309
329 2 2 1000 21 94 95 310
330 2 2 1000 21 88 89 311
331 2 2 1000 21 121 325 276
332 2 2 1000 21 124 326 275
333 2 2 1000 21 123 273 327
334 2 2 1000 21 137 446 466
335 2 2 1000 21 138 447 467
336 2 2 1000 21 139 468 445
337 2 2 1000 21 140 448 469
338 2 2 1000 21 149 497 274
339 2 2 1000 21 152 328 417
340 2 2 1000 21 256 285 481
341 2 2 1000 21 82 83 411
342 2 2 1000 21 63 64 412
343 2 2 1000 21 25 408 26
344 2 2 1000 21 44 410 45
345 2 2 1000 21 10 407 11
346 2 2 1000 21 29 409 30
347 2 2 1000 21 67 68 405
348 2 2 1000 21 48 49 406
349 2 2 1000 21 124 496 349
350 2 2 1000 21 121 495 348
351 2 2 1000 21 217 486 335
352 2 2 1000 21 200 270 345
353 2 2 1000 21 202 271 346
354 2 2 1000 21 203 272 347
355 2 2 1000 21 123 328 273
356 2 2 1000 21 125 227 536
357 2 2 1000 21 126 231 538
358 2 2 1000 21 127 229 537
359 2 2 1000 21 128 233 539
360 2 2 1000 21 68 340 226
361 2 2 1000 21 49 344 228
362 2 2 1000 21 11 227 339
363 2 2 1000 21 30 229 343
364 2 2 1000 21 25 338 230
365 2 2 1000 21 44 342 232
366 2 2 1000 21 82 231 337
367 2 2 1000 21 63 233 341
368 2 2 1000 21 177 270 393
369 2 2 1000 21 178 271 394
370 2 2 1000 21 180 272 395
371 2 2 1000 21 169 487 226
372 2 2 1000 21 171 488 230
373 2 2 1000 21 170 489 228
374 2 2 1000 21 173 490 232
375 2 2 1000 21 423 177 317
376 2 2 1000 21 424 178 318
377 2 2 1000 21 425 180 319
378 2 2 1000 21 172 345 284
379 2 2 1000 21 175 346 286
380 2 2 1000 21 176 347 287
381 2 2 1000 21 150 274 494
382 2 2 1000 21 146 495 276
383 2 2 1000 21 148 496 275
384 2 2 1000 21 183 463 234
385 2 2 1000 21 169 226 340
386 2 2 1000 21 172 339 227
387 2 2 1000 21 170 228 344
388 2 2 1000 21 174 343 229
389 2 2 1000 21 171 230 338
390 2 2 1000 21 175 337 231
391 2 2 1000 21 173 232 342
392 2 2 1000 21 176 341 233
393 2 2 1000 21 235 423 317
394 2 2 1000 21 236 424 318
395 2 2 1000 21 237 425 319
396 2 2 1000 21 155 428 482
397 2 2 1000 21 179 419 238
398 2 2 1000 21 130 304 234
399 2 2 1000 21 147 543 275
400 2 2 1000 21 145 542 276
401 2 2 1000 21 151 273 541
402 2 2 1000 21 149 274 540
403 2 2 1000 21 155 482 332
404 2 2 1000 21 270 498 393
405 2 2 1000 21 271 499 394
406 2 2 1000 21 272 500 395
407 2 2 1000 21 130 234 463
408 2 2 1000 21 135 238 419
409 2 2 1000 21 206 383 419
410 2 2 1000 21 179 238 320
411 2 2 1000 21 142 397 320
412 2 2 1000 21 141 317 396
413 2 2 1000 21 143 318 398
414 2 2 1000 21 144 319 399
415 2 2 1000 21 145 313 241
416 2 2 1000 21 147 314 242
417 2 2 1000 21 149 239 315
418 2 2 1000 21 151 240 316
419 2 2 1000 21 90 278 330
420 2 2 1000 21 96 277 331
421 2 2 1000 21 146 322 247
422 2 2 1000 21 148 321 248
423 2 2 1000 21 150 249 323
424 2 2 1000 21 152 250 324
425 2 2 1000 21 243 450 456
426 2 2 1000 21 244 451 457
427 2 2 1000 21 246 452 459
428 2 2 1000 21 137 450 243
429 2 2 1000 21 138 451 244
430 2 2 1000 21 140 452 246
431 2 2 1000 21 8 300 102
432 2 2 1000 21 161 437 255
433 2 2 1000 21 162 438 256
434 2 2 1000 21 163 257 439
435 2 2 1000 21 164 258 440
436 2 2 1000 21 151 316 252
437 2 2 1000 21 149 315 251
438 2 2 1000 21 145 253 313
439 2 2 1000 21 147 254 314
440 2 2 1000 21 165 433 259
441 2 2 1000 21 166 434 260
442 2 2 1000 21 167 261 435
443 2 2 1000 21 168 262 436
444 2 2 1000 21 157 418 329
445 2 2 1000 21 181 263 301
446 2 2 1000 21 182 264 302
447 2 2 1000 21 184 265 303
448 2 2 1000 21 156 335 486
449 2 2 1000 21 6 460 277
450 2 2 1000 21 7 461 278
451 2 2 1000 21 209 466 446
452 2 2 1000 21 212 445 468
453 2 2 1000 21 210 467 447
454 2 2 1000 21 211 469 448
455 2 2 1000 21 181 456 450
456 2 2 1000 21 182 457 451
457 2 2 1000 21 184 459 452
458 2 2 1000 21 118 377 235
459 2 2 1000 21 120 378 236
460 2 2 1000 21 119 379 237
461 2 2 1000 21 115 238 380
462 2 2 1000 21 193 277 460
463 2 2 1000 21 194 278 461
464 2 2 1000 21 139 245 454
465 2 2 1000 21 103 104 329
466 2 2 1000 21 95 96 331
467 2 2 1000 21 89 90 330
468 2 2 1000 21 135 419 383
469 2 2 1000 21 161 255 385
470 2 2 1000 21 165 259 386
471 2 2 1000 21 166 260 387
472 2 2 1000 21 167 388 261
473 2 2 1000 21 284 345 529
474 2 2 1000 21 286 346 530
475 2 2 1000 21 287 347 531
476 2 2 1000 21 219 266 506
477 2 2 1000 21 222 509 268
478 2 2 1000 21 221 508 269
479 2 2 1000 21 220 507 267
480 2 2 1000 21 135 388 238
481 2 2 1000 21 118 267 356
482 2 2 1000 21 165 247 359
483 2 2 1000 21 166 248 360
484 2 2 1000 21 167 357 249
485 2 2 1000 21 168 358 250
486 2 2 1000 21 35 365 505
487 2 2 1000 21 16 364 504
488 2 2 1000 21 73 502 362
489 2 2 1000 21 54 503 363
490 2 2 1000 21 196 263 491
491 2 2 1000 21 198 264 492
492 2 2 1000 21 199 265 493
493 2 2 1000 21 251 504 364
494 2 2 1000 21 252 505 365
495 2 2 1000 21 253 362 502
496 2 2 1000 21 254 363 503
497 2 2 1000 21 161 251 364
498 2 2 1000 21 162 252 365
499 2 2 1000 21 163 362 253
500 2 2 1000 21 164 363 254
501 2 2 1000 21 115 366 266
502 2 2 1000 21 119 269 368
503 2 2 1000 21 120 268 367
504 2 2 1000 21 130 389 256
505 2 2 1000 21 162 256 389
506 2 2 1000 21 163 390 257
507 2 2 1000 21 164 391 258
508 2 2 1000 21 168 392 262
509 2 2 1000 21 110 394 499
510 2 2 1000 21 109 393 498
511 2 2 1000 21 112 395 500
512 2 2 1000 21 160 330 278
513 2 2 1000 21 159 331 277
514 2 2 1000 21 185 413 405
515 2 2 1000 21 187 415 406
516 2 2 1000 21 185 407 413
517 2 2 1000 21 186 414 408
518 2 2 1000 21 186 409 414
519 2 2 1000 21 188 416 410
520 2 2 1000 21 187 411 415
521 2 2 1000 21 188 412 416
522 2 2 1000 21 273 328 541
523 2 2 1000 21 58 360 517
524 2 2 1000 21 77 359 516
525 2 2 1000 21 20 514 357
526 2 2 1000 21 39 515 358
527 2 2 1000 21 541 328 152
528 2 2 1000 21 145 276 325
529 2 2 1000 21 147 275 326
530 2 2 1000 21 151 327 273
531 2 2 1000 21 243 456 369
532 2 2 1000 21 244 457 370
533 2 2 1000 21 245 372 458
534 2 2 1000 21 246 459 371
535 2 2 1000 21 248 517 360
536 2 2 1000 21 247 516 359
537 2 2 1000 21 249 357 514
538 2 2 1000 21 250 358 515
539 2 2 1000 21 156 372 445
540 2 2 1000 21 153 446 369
541 2 2 1000 21 154 447 370
542 2 2 1000 21 155 448 371
543 2 2 1000 21 169 280 381
544 2 2 1000 21 170 281 382
545 2 2 1000 21 171 282 383
546 2 2 1000 21 173 283 384
547 2 2 1000 21 121 348 470
548 2 2 1000 21 124 349 471
549 2 2 1000 21 245 445 372
550 2 2 1000 21 243 369 446
551 2 2 1000 21 244 370 447
552 2 2 1000 21 246 371 448
553 2 2 1000 21 161 377 290
554 2 2 1000 21 113 369 456
555 2 2 1000 21 114 370 457
556 2 2 1000 21 117 458 372
557 2 2 1000 21 116 371 459
558 2 2 1000 21 353 468 544
559 2 2 1000 21 1 413 9
560 2 2 1000 21 1 66 413
561 2 2 1000 21 2 414 28
562 2 2 1000 21 4 47 415
563 2 2 1000 21 2 27 414
564 2 2 1000 21 4 415 84
565 2 2 1000 21 3 46 416
566 2 2 1000 21 3 416 65
567 2 2 1000 21 190 351 466
568 2 2 1000 21 191 352 467
569 2 2 1000 21 192 354 469
570 2 2 1000 21 189 468 353
571 2 2 1000 21 5 85 482
572 2 2 1000 21 124 275 496
573 2 2 1000 21 121 276 495
574 2 2 1000 21 5 482 449
575 2 2 1000 21 200 498 270
576 2 2 1000 21 202 499 271
577 2 2 1000 21 203 500 272
578 2 2 1000 21 165 378 294
579 2 2 1000 21 166 379 295
580 2 2 1000 21 167 292 380
581 2 2 1000 21 181 450 263
582 2 2 1000 21 182 451 264
583 2 2 1000 21 184 452 265
584 2 2 1000 21 109 483 263
585 2 2 1000 21 110 484 264
586 2 2 1000 21 112 485 265
587 2 2 1000 21 150 540 274
588 2 2 1000 21 148 275 543
589 2 2 1000 21 146 276 542
590 2 2 1000 21 129 345 270
591 2 2 1000 21 133 346 271
592 2 2 1000 21 134 347 272
593 2 2 1000 21 177 423 270
594 2 2 1000 21 178 424 271
595 2 2 1000 21 180 425 272
596 2 2 1000 21 139 279 544
597 2 2 1000 21 129 270 423
598 2 2 1000 21 133 271 424
599 2 2 1000 21 134 272 425
600 2 2 1000 21 197 544 279
601 2 2 1000 21 183 279 454
602 2 2 1000 21 159 277 348
603 2 2 1000 21 160 278 349
604 2 2 1000 21 150 323 540
605 2 2 1000 21 152 324 541
606 2 2 1000 21 146 542 322
607 2 2 1000 21 148 543 321
608 2 2 1000 21 169 518 280
609 2 2 1000 21 170 519 281
610 2 2 1000 21 172 284 520
611 2 2 1000 21 171 522 282
612 2 2 1000 21 174 285 521
613 2 2 1000 21 173 523 283
614 2 2 1000 21 175 286 524
615 2 2 1000 21 176 287 525
616 2 2 1000 21 139 454 279
617 2 2 1000 21 158 350 300
618 2 2 1000 21 198 492 352
619 2 2 1000 21 196 491 351
620 2 2 1000 21 199 493 354
621 2 2 1000 21 122 497 501
622 2 2 1000 21 91 334 555
623 2 2 1000 21 97 333 554
624 2 2 1000 21 91 555 461
625 2 2 1000 21 97 554 460
626 2 2 1000 21 239 540 323
627 2 2 1000 21 240 541 324
628 2 2 1000 21 241 322 542
629 2 2 1000 21 242 321 543
630 2 2 1000 21 298 526 389
631 2 2 1000 21 296 390 527
632 2 2 1000 21 297 391 528
633 2 2 1000 21 161 364 437
634 2 2 1000 21 162 365 438
635 2 2 1000 21 163 439 362
636 2 2 1000 21 164 440 363
637 2 2 1000 21 34 365 35
638 2 2 1000 21 15 364 16
639 2 2 1000 21 72 73 362
640 2 2 1000 21 53 54 363
641 2 2 1000 21 235 385 423
642 2 2 1000 21 236 386 424
643 2 2 1000 21 237 387 425
644 2 2 1000 21 234 561 279
645 2 2 1000 21 58 59 360
646 2 2 1000 21 77 78 359
647 2 2 1000 21 20 357 21
648 2 2 1000 21 39 358 40
649 2 2 1000 21 204 401 305
650 2 2 1000 21 205 402 306
651 2 2 1000 21 206 403 307
652 2 2 1000 21 207 404 308
653 2 2 1000 21 551 378 120
654 2 2 1000 21 552 379 119
655 2 2 1000 21 550 115 380
656 2 2 1000 21 165 359 433
657 2 2 1000 21 166 360 434
658 2 2 1000 21 167 435 357
659 2 2 1000 21 168 436 358
660 2 2 1000 21 526 162 389
661 2 2 1000 21 527 390 163
662 2 2 1000 21 528 391 164
663 2 2 1000 21 377 118 553
664 2 2 1000 21 299 392 549
665 2 2 1000 21 101 102 350
666 2 2 1000 21 129 423 385
667 2 2 1000 21 133 424 386
668 2 2 1000 21 134 425 387
669 2 2 1000 21 158 507 350
670 2 2 1000 21 294 378 551
671 2 2 1000 21 295 379 552
672 2 2 1000 21 292 550 380
673 2 2 1000 21 549 392 168
674 2 2 1000 21 174 481 285
675 2 2 1000 21 290 377 553
676 2 2 1000 21 208 336 300
677 2 2 1000 21 158 300 336
678 2 2 1000 21 113 527 288
679 2 2 1000 21 114 528 289
680 2 2 1000 21 117 291 526
681 2 2 1000 21 122 501 336
682 2 2 1000 21 116 549 293
683 2 2 1000 21 305 401 545
684 2 2 1000 21 306 402 547
685 2 2 1000 21 307 403 546
686 2 2 1000 21 308 404 548
687 2 2 1000 21 68 69 340
688 2 2 1000 21 49 50 344
689 2 2 1000 21 11 339 12
690 2 2 1000 21 30 343 31
691 2 2 1000 21 24 338 25
692 2 2 1000 21 43 342 44
693 2 2 1000 21 81 82 337
694 2 2 1000 21 62 63 341
695 2 2 1000 21 179 397 453
696 2 2 1000 21 267 507 356
697 2 2 1000 21 259 530 386
698 2 2 1000 21 260 531 387
699 2 2 1000 21 255 529 385
700 2 2 1000 21 261 388 534
701 2 2 1000 21 113 288 421
702 2 2 1000 21 114 289 420
703 2 2 1000 21 117 422 291
704 2 2 1000 21 111 403 355
705 2 2 1000 21 70 280 518
706 2 2 1000 21 23 282 522
707 2 2 1000 21 51 281 519
708 2 2 1000 21 42 283 523
709 2 2 1000 21 13 520 284
710 2 2 1000 21 80 524 286
711 2 2 1000 21 32 521 285
712 2 2 1000 21 61 525 287
713 2 2 1000 21 116 293 417
714 2 2 1000 21 116 299 549
715 2 2 1000 21 113 296 527
716 2 2 1000 21 114 297 528
717 2 2 1000 21 117 526 298
718 2 2 1000 21 215 371 417
719 2 2 1000 21 206 355 403
720 2 2 1000 21 116 417 371
721 2 2 1000 21 113 456 296
722 2 2 1000 21 114 457 297
723 2 2 1000 21 117 298 458
724 2 2 1000 21 116 459 299
725 2 2 1000 21 111 453 561
726 2 2 1000 21 181 296 456
727 2 2 1000 21 182 297 457
728 2 2 1000 21 183 458 298
729 2 2 1000 21 184 299 459
730 2 2 1000 21 266 366 506
731 2 2 1000 21 269 508 368
732 2 2 1000 21 268 509 367
733 2 2 1000 21 256 476 285
734 2 2 1000 21 206 419 355
735 2 2 1000 21 85 86 332
736 2 2 1000 21 91 92 334
737 2 2 1000 21 97 98 333
738 2 2 1000 21 107 108 335
739 2 2 1000 21 22 435 477
740 2 2 1000 21 41 436 478
741 2 2 1000 21 79 479 433
742 2 2 1000 21 60 480 434
743 2 2 1000 21 195 482 428
744 2 2 1000 21 141 396 351
745 2 2 1000 21 143 398 352
746 2 2 1000 21 144 399 354
747 2 2 1000 21 142 353 397
748 2 2 1000 21 133 386 530
749 2 2 1000 21 134 387 531
750 2 2 1000 21 129 385 529
751 2 2 1000 21 135 534 388
752 2 2 1000 21 179 320 397
753 2 2 1000 21 177 396 317
754 2 2 1000 21 178 398 318
755 2 2 1000 21 180 399 319
756 2 2 1000 21 174 304 481
757 2 2 1000 21 70 473 280
758 2 2 1000 21 51 474 281
759 2 2 1000 21 23 477 282
760 2 2 1000 21 42 478 283
761 2 2 1000 21 13 284 475
762 2 2 1000 21 32 285 476
763 2 2 1000 21 80 286 479
764 2 2 1000 21 61 287 480
765 2 2 1000 21 102 300 350
766 2 2 1000 21 71 439 473
767 2 2 1000 21 52 440 474
768 2 2 1000 21 14 475 437
769 2 2 1000 21 33 476 438
770 2 2 1000 21 214 370 420
771 2 2 1000 21 213 369 421
772 2 2 1000 21 216 422 372
773 2 2 1000 21 261 477 435
774 2 2 1000 21 262 478 436
775 2 2 1000 21 259 433 479
776 2 2 1000 21 260 434 480
777 2 2 1000 21 234 304 455
778 2 2 1000 21 196 351 396
779 2 2 1000 21 198 352 398
780 2 2 1000 21 199 354 399
781 2 2 1000 21 197 397 353
782 2 2 1000 21 114 420 370
783 2 2 1000 21 113 421 369
784 2 2 1000 21 117 372 422
785 2 2 1000 21 157 366 361
786 2 2 1000 21 201 455 304
787 2 2 1000 21 257 473 439
788 2 2 1000 21 258 474 440
789 2 2 1000 21 255 437 475
790 2 2 1000 21 256 438 476
791 2 2 1000 21 220 350 507
792 2 2 1000 21 169 340 518
793 2 2 1000 21 170 344 519
794 2 2 1000 21 172 520 339
795 2 2 1000 21 174 521 343
796 2 2 1000 21 171 338 522
797 2 2 1000 21 173 342 523
798 2 2 1000 21 175 524 337
799 2 2 1000 21 176 525 341
800 2 2 1000 21 263 483 301
801 2 2 1000 21 264 484 302
802 2 2 1000 21 265 485 303
803 2 2 1000 21 223 361 366
804 2 2 1000 21 181 462 296
805 2 2 1000 21 182 464 297
806 2 2 1000 21 183 298 463
807 2 2 1000 21 184 465 299
808 2 2 1000 21 197 453 397
809 2 2 1000 21 169 305 487
810 2 2 1000 21 170 306 489
811 2 2 1000 21 171 307 488
812 2 2 1000 21 173 308 490
813 2 2 1000 21 123 560 472
814 2 2 1000 21 216 372 486
815 2 2 1000 21 280 532 381
816 2 2 1000 21 281 533 382
817 2 2 1000 21 282 534 383
818 2 2 1000 21 283 535 384
819 2 2 1000 21 8 103 418
820 2 2 1000 21 132 464 302
821 2 2 1000 21 131 462 301
822 2 2 1000 21 136 465 303
823 2 2 1000 21 219 506 329
824 2 2 1000 21 221 330 508
825 2 2 1000 21 222 331 509
826 2 2 1000 21 129 529 345
827 2 2 1000 21 133 530 346
828 2 2 1000 21 134 531 347
829 2 2 1000 21 123 400 560
830 2 2 1000 21 157 329 506
831 2 2 1000 21 160 508 330
832 2 2 1000 21 159 509 331
833 2 2 1000 21 153 369 427
834 2 2 1000 21 154 370 426
835 2 2 1000 21 155 371 428
836 2 2 1000 21 235 377 385
837 2 2 1000 21 238 388 380
838 2 2 1000 21 236 378 386
839 2 2 1000 21 237 379 387
840 2 2 1000 21 156 486 372
841 2 2 1000 21 196 396 393
842 2 2 1000 21 198 398 394
843 2 2 1000 21 199 399 395
844 2 2 1000 21 158 356 507
845 2 2 1000 21 200 545 401
846 2 2 1000 21 202 547 402
847 2 2 1000 21 201 546 403
848 2 2 1000 21 203 548 404
849 2 2 1000 21 213 427 369
850 2 2 1000 21 214 426 370
851 2 2 1000 21 215 428 371
852 2 2 1000 21 181 301 462
853 2 2 1000 21 182 302 464
854 2 2 1000 21 184 303 465
855 2 2 1000 21 177 393 396
856 2 2 1000 21 178 394 398
857 2 2 1000 21 180 395 399
858 2 2 1000 21 80 81 524
859 2 2 1000 21 61 62 525
860 2 2 1000 21 23 522 24
861 2 2 1000 21 42 523 43
862 2 2 1000 21 12 520 13
863 2 2 1000 21 31 521 32
864 2 2 1000 21 69 70 518
865 2 2 1000 21 50 51 519
866 2 2 1000 21 161 385 377
867 2 2 1000 21 167 380 388
868 2 2 1000 21 165 386 378
869 2 2 1000 21 166 387 379
870 2 2 1000 21 157 506 366
871 2 2 1000 21 159 367 509
872 2 2 1000 21 160 368 508
873 2 2 1000 21 105 106 510
874 2 2 1000 21 87 88 513
875 2 2 1000 21 99 100 511
876 2 2 1000 21 93 94 512
877 2 2 1000 21 179 453 355
878 2 2 1000 21 21 435 22
879 2 2 1000 21 40 436 41
880 2 2 1000 21 78 79 433
881 2 2 1000 21 59 60 434
882 2 2 1000 21 71 72 439
883 2 2 1000 21 52 53 440
884 2 2 1000 21 14 437 15
885 2 2 1000 21 33 438 34
886 2 2 1000 21 122 361 494
887 2 2 1000 21 223 494 361
888 2 2 1000 21 218 501 497
889 2 2 1000 21 257 390 532
890 2 2 1000 21 258 391 533
891 2 2 1000 21 262 392 535
892 2 2 1000 21 139 544 468
893 2 2 1000 21 131 532 390
894 2 2 1000 21 132 533 391
895 2 2 1000 21 136 535 392
896 2 2 1000 21 215 417 328
897 2 2 1000 21 204 301 483
898 2 2 1000 21 205 302 484
899 2 2 1000 21 207 303 485
900 2 2 1000 21 79 80 479
901 2 2 1000 21 60 61 480
902 2 2 1000 21 22 477 23
903 2 2 1000 21 41 478 42
904 2 2 1000 21 13 475 14
905 2 2 1000 21 32 476 33
906 2 2 1000 21 70 71 473
907 2 2 1000 21 51 52 474
908 2 2 1000 21 130 481 304
909 2 2 1000 21 214 420 326
910 2 2 1000 21 213 421 325
911 2 2 1000 21 216 327 422
912 2 2 1000 21 125 487 305
913 2 2 1000 21 126 489 306
914 2 2 1000 21 127 488 307
915 2 2 1000 21 128 490 308
916 2 2 1000 21 100 309 511
917 2 2 1000 21 94 310 512
918 2 2 1000 21 88 311 513
919 2 2 1000 21 105 510 312
920 2 2 1000 21 6 97 460
921 2 2 1000 21 7 91 461
922 2 2 1000 21 125 305 545
923 2 2 1000 21 126 306 547
924 2 2 1000 21 127 307 546
925 2 2 1000 21 128 308 548
926 2 2 1000 21 103 329 418
927 2 2 1000 21 190 511 309
928 2 2 1000 21 191 512 310
929 2 2 1000 21 192 513 311
930 2 2 1000 21 189 312 510
931 2 2 1000 21 195 449 482
932 2 2 1000 21 57 58 517
933 2 2 1000 21 76 77 516
934 2 2 1000 21 19 514 20
935 2 2 1000 21 38 515 39
936 2 2 1000 21 35 505 36
937 2 2 1000 21 16 504 17
938 2 2 1000 21 73 74 502
939 2 2 1000 21 54 55 503
940 2 2 1000 21 245 458 454
941 2 2 1000 21 125 536 429
942 2 2 1000 21 126 538 430
943 2 2 1000 21 127 537 431
944 2 2 1000 21 128 539 432
945 2 2 1000 21 190 309 557
946 2 2 1000 21 191 310 559
947 2 2 1000 21 192 311 558
948 2 2 1000 21 189 556 312
949 2 2 1000 21 183 454 458
950 2 2 1000 21 252 316 505
951 2 2 1000 21 251 315 504
952 2 2 1000 21 253 502 313
953 2 2 1000 21 254 503 314
954 2 2 1000 21 255 475 529
955 2 2 1000 21 258 533 474
956 2 2 1000 21 257 532 473
957 2 2 1000 21 260 480 531
958 2 2 1000 21 259 479 530
959 2 2 1000 21 262 535 478
960 2 2 1000 21 261 534 477
961 2 2 1000 21 284 529 475
962 2 2 1000 21 281 474 533
963 2 2 1000 21 280 473 532
964 2 2 1000 21 287 531 480
965 2 2 1000 21 286 530 479
966 2 2 1000 21 283 478 535
967 2 2 1000 21 282 477 534
968 2 2 1000 21 296 462 390
969 2 2 1000 21 297 464 391
970 2 2 1000 21 298 389 463
971 2 2 1000 21 299 465 392
972 2 2 1000 21 115 550 366
973 2 2 1000 21 120 367 551
974 2 2 1000 21 119 368 552
975 2 2 1000 21 223 366 550
976 2 2 1000 21 224 551 367
977 2 2 1000 21 225 552 368
978 2 2 1000 21 131 390 462
979 2 2 1000 21 132 391 464
980 2 2 1000 21 130 463 389
981 2 2 1000 21 136 392 465
982 2 2 1000 21 226 429 405
983 2 2 1000 21 228 430 406
984 2 2 1000 21 230 431 408
985 2 2 1000 21 232 432 410
986 2 2 1000 21 185 405 429
987 2 2 1000 21 187 406 430
988 2 2 1000 21 186 408 431
989 2 2 1000 21 188 410 432
990 2 2 1000 21 118 356 553
991 2 2 1000 21 218 553 356
992 2 2 1000 21 179 355 419
993 2 2 1000 21 36 505 316
994 2 2 1000 21 17 504 315
995 2 2 1000 21 55 314 503
996 2 2 1000 21 74 313 502
997 2 2 1000 21 131 381 532
998 2 2 1000 21 132 382 533
999 2 2 1000 21 135 383 534
1000 2 2 1000 21 136 384 535
1001 2 2 1000 21 158 336 501
1002 2 2 1000 21 153 554 333
1003 2 2 1000 21 154 555 334
1004 2 2 1000 21 57 517 321
1005 2 2 1000 21 76 516 322
1006 2 2 1000 21 19 323 514
1007 2 2 1000 21 38 324 515
1008 2 2 1000 21 248 321 517
1009 2 2 1000 21 247 322 516
1010 2 2 1000 21 249 514 323
1011 2 2 1000 21 250 515 324
1012 2 2 1000 21 85 332 482
1013 2 2 1000 21 111 455 403
1014 2 2 1000 21 201 403 455
1015 2 2 1000 21 111 355 453
1016 2 2 1000 21 158 501 356
1017 2 2 1000 21 78 433 359
1018 2 2 1000 21 59 434 360
1019 2 2 1000 21 21 357 435
1020 2 2 1000 21 40 358 436
1021 2 2 1000 21 122 494 497
1022 2 2 1000 21 15 437 364
1023 2 2 1000 21 34 438 365
1024 2 2 1000 21 72 362 439
1025 2 2 1000 21 53 363 440
1026 2 2 1000 21 109 401 483
1027 2 2 1000 21 110 402 484
1028 2 2 1000 21 112 404 485
1029 2 2 1000 21 106 444 510
1030 2 2 1000 21 87 513 443
1031 2 2 1000 21 99 511 441
1032 2 2 1000 21 93 512 442
1033 2 2 1000 21 204 483 401
1034 2 2 1000 21 205 484 402
1035 2 2 1000 21 207 485 404
1036 2 2 1000 21 274 497 494
1037 2 2 1000 21 125 429 487
1038 2 2 1000 21 126 430 489
1039 2 2 1000 21 127 431 488
1040 2 2 1000 21 128 432 490
1041 2 2 1000 21 216 486 400
1042 2 2 1000 21 226 487 429
1043 2 2 1000 21 228 489 430
1044 2 2 1000 21 230 488 431
1045 2 2 1000 21 232 490 432
1046 2 2 1000 21 209 441 466
1047 2 2 1000 21 210 442 467
1048 2 2 1000 21 212 468 444
1049 2 2 1000 21 211 443 469
1050 2 2 1000 21 189 444 468
1051 2 2 1000 21 190 466 441
1052 2 2 1000 21 191 467 442
1053 2 2 1000 21 192 469 443
1054 2 2 1000 21 69 518 340
1055 2 2 1000 21 50 519 344
1056 2 2 1000 21 12 339 520
1057 2 2 1000 21 31 343 521
1058 2 2 1000 21 24 522 338
1059 2 2 1000 21 43 523 342
1060 2 2 1000 21 81 337 524
1061 2 2 1000 21 62 341 525
1062 2 2 1000 21 190 557 351
1063 2 2 1000 21 191 559 352
1064 2 2 1000 21 192 558 354
1065 2 2 1000 21 189 353 556
1066 2 2 1000 21 215 472 428
1067 2 2 1000 21 214 471 426
1068 2 2 1000 21 213 470 427
1069 2 2 1000 21 218 356 501
1070 2 2 1000 21 195 472 560
1071 2 2 1000 21 200 373 545
1072 2 2 1000 21 201 374 546
1073 2 2 1000 21 202 375 547
1074 2 2 1000 21 203 376 548
1075 2 2 1000 21 217 400 486
1076 2 2 1000 21 153 427 554
1077 2 2 1000 21 154 426 555
1078 2 2 1000 21 141 351 557
1079 2 2 1000 21 142 556 353
1080 2 2 1000 21 143 352 559
1081 2 2 1000 21 144 354 558
1082 2 2 1000 21 197 353 544
1083 2 2 1000 21 125 545 373
1084 2 2 1000 21 126 547 375
1085 2 2 1000 21 127 546 374
1086 2 2 1000 21 128 548 376
1087 2 2 1000 21 137 491 450
1088 2 2 1000 21 138 492 451
1089 2 2 1000 21 140 493 452
1090 2 2 1000 21 111 561 455
1091 2 2 1000 21 109 498 401
1092 2 2 1000 21 110 499 402
1093 2 2 1000 21 112 500 404
1094 2 2 1000 21 234 455 561
1095 2 2 1000 21 263 450 491
1096 2 2 1000 21 264 451 492
1097 2 2 1000 21 265 452 493
1098 2 2 1000 21 193 427 470
1099 2 2 1000 21 194 426 471
1100 2 2 1000 21 195 428 472
1101 2 2 1000 21 200 401 498
1102 2 2 1000 21 202 402 499
1103 2 2 1000 21 203 404 500
1104 2 2 1000 21 217 560 400
1105 2 2 1000 21 194 461 555
1106 2 2 1000 21 193 460 554
1107 2 2 1000 21 185 536 407
1108 2 2 1000 21 186 537 409
1109 2 2 1000 21 187 538 411
1110 2 2 1000 21 188 539 412
1111 2 2 1000 21 227 407 536
1112 2 2 1000 21 229 409 537
1113 2 2 1000 21 231 411 538
1114 2 2 1000 21 233 412 539
1115 2 2 1000 21 217 449 560
1116 2 2 1000 21 195 560 449
1117 2 2 1000 21 189 510 444
1118 2 2 1000 21 190 441 511
1119 2 2 1000 21 191 442 512
1120 2 2 1000 21 192 443 513
1121 2 2 1000 21 185 429 536
1122 2 2 1000 21 186 431 537
1123 2 2 1000 21 187 430 538
1124 2 2 1000 21 188 432 539
1125 2 2 1000 21 194 555 426
1126 2 2 1000 21 193 554 427
1127 2 2 2000 22 565 600 574
1128 2 2 2000 22 564 573 601
1129 2 2 2000 22 562 587 574
1130 2 2 2000 22 568 595 578
1131 2 2 2000 22 570 575 589
1132 2 2 2000 22 567 576 588
1133 2 2 2000 22 568 578 590
1134 2 2 2000 22 568 574 595
1135 2 2 2000 22 570 594 571
1136 2 2 2000 22 569 572 593
1137 2 2 2000 22 567 592 573
1138 2 2 2000 22 569 596 579
1139 2 2 2000 22 568 598 581
1140 2 2 2000 22 562 574 600
1141 2 2 2000 22 564 603 573
1142 2 2 2000 22 565 574 605
1143 2 2 2000 22 570 571 602
1144 2 2 2000 22 567 573 603
1145 2 2 2000 22 569 604 572
1146 2 2 2000 22 568 605 574
1147 2 2 2000 22 567 603 576
1148 2 2 2000 22 570 602 575
1149 2 2 2000 22 569 579 604
1150 2 2 2000 22 568 581 605
1151 2 2 2000 22 565 593 600
1152 2 2 2000 22 564 601 594
1153 2 2 2000 22 8 103 583
1154 2 2 2000 22 5 85 584
1155 2 2 2000 22 6 97 585
1156 2 2 2000 22 7 91 586
1157 2 2 2000 22 578 595 628
1158 2 2 2000 22 566 587 592
1159 2 2 2000 22 574 587 595
1160 2 2 2000 22 593 627 633
1161 2 2 2000 22 592 634 632
1162 2 2 2000 22 594 635 631
1163 2 2 2000 22 565 627 593
1164 2 2 2000 22 566 592 632
1165 2 2 2000 22 564 594 631
1166 2 2 2000 22 566 595 587
1167 2 2 2000 22 100 596 591
1168 2 2 2000 22 106 597 589
1169 2 2 2000 22 88 599 588
1170 2 2 2000 22 94 598 590
1171 2 2 2000 22 100 101 596
1172 2 2 2000 22 106 107 597
1173 2 2 2000 22 94 95 598
1174 2 2 2000 22 88 89 599
1175 2 2 2000 22 572 623 600
1176 2 2 2000 22 587 624 592
1177 2 2 2000 22 568 590 598
1178 2 2 2000 22 567 588 599
1179 2 2 2000 22 569 591 596
1180 2 2 2000 22 570 589 597
1181 2 2 2000 22 562 600 623
1182 2 2 2000 22 573 592 624
1183 2 2 2000 22 87 88 588
1184 2 2 2000 22 93 94 590
1185 2 2 2000 22 105 106 589
1186 2 2 2000 22 99 100 591
1187 2 2 2000 22 566 628 595
1188 2 2 2000 22 577 591 633
1189 2 2 2000 22 562 624 587
1190 2 2 2000 22 103 607 583
1191 2 2 2000 22 85 608 584
1192 2 2 2000 22 97 609 585
1193 2 2 2000 22 91 606 586
1194 2 2 2000 22 8 583 612
1195 2 2 2000 22 5 584 613
1196 2 2 2000 22 6 585 610
1197 2 2 2000 22 7 586 611
1198 2 2 2000 22 569 633 591
1199 2 2 2000 22 567 599 634
1200 2 2 2000 22 570 597 635
1201 2 2 2000 22 572 600 593
1202 2 2 2000 22 571 594 601
1203 2 2 2000 22 575 615 589
1204 2 2 2000 22 576 616 588
1205 2 2 2000 22 577 617 591
1206 2 2 2000 22 578 618 590
1207 2 2 2000 22 563 602 614
1208 2 2 2000 22 571 614 602
1209 2 2 2000 22 563 614 604
1210 2 2 2000 22 572 604 614
1211 2 2 2000 22 562 623 601
1212 2 2 2000 22 582 634 599
1213 2 2 2000 22 580 635 597
1214 2 2 2000 22 571 601 623
1215 2 2 2000 22 562 601 624
1216 2 2 2000 22 5 613 108
1217 2 2 2000 22 6 610 96
1218 2 2 2000 22 8 612 102
1219 2 2 2000 22 7 611 90
1220 2 2 2000 22 85 86 608
1221 2 2 2000 22 103 104 607
1222 2 2 2000 22 97 98 609
1223 2 2 2000 22 91 92 606
1224 2 2 2000 22 87 588 616
1225 2 2 2000 22 93 590 618
1226 2 2 2000 22 99 591 617
1227 2 2 2000 22 105 589 615
1228 2 2 2000 22 573 624 601
1229 2 2 2000 22 577 633 627
1230 2 2 2000 22 582 632 634
1231 2 2 2000 22 580 631 635
1232 2 2 2000 22 101 102 619
1233 2 2 2000 22 107 108 621
1234 2 2 2000 22 95 96 620
1235 2 2 2000 22 89 90 622
1236 2 2 2000 22 104 105 615
1237 2 2 2000 22 86 87 616
1238 2 2 2000 22 92 93 618
1239 2 2 2000 22 98 99 617
1240 2 2 2000 22 569 593 633
1241 2 2 2000 22 567 634 592
1242 2 2 2000 22 570 635 594
1243 2 2 2000 22 575 602 626
1244 2 2 2000 22 576 603 625
1245 2 2 2000 22 563 626 602
1246 2 2 2000 22 564 625 603
1247 2 2 2000 22 563 604 629
1248 2 2 2000 22 565 605 630
1249 2 2 2000 22 579 629 604
1250 2 2 2000 22 581 630 605
1251 2 2 2000 22 104 615 607
1252 2 2 2000 22 86 616 608
1253 2 2 2000 22 98 617 609
1254 2 2 2000 22 92 618 606
1255 2 2 2000 22 102 612 619
1256 2 2 2000 22 96 610 620
1257 2 2 2000 22 108 613 621
1258 2 2 2000 22 90 611 622
1259 2 2 2000 22 107 621 597
1260 2 2 2000 22 101 619 596
1261 2 2 2000 22 95 620 598
1262 2 2 2000 22 89 622 599
1263 2 2 2000 22 575 607 615
1264 2 2 2000 22 576 608 616
1265 2 2 2000 22 577 609 617
1266 2 2 2000 22 578 606 618
1267 2 2 2000 22 579 596 619
1268 2 2 2000 22 581 598 620
1269 2 2 2000 22 580 597 621
1270 2 2 2000 22 582 599 622
1271 2 2 2000 22 581 620 610
1272 2 2 2000 22 579 619 612
1273 2 2 2000 22 582 622 611
1274 2 2 2000 22 580 621 613
1275 2 2 2000 22 583 607 626
1276 2 2 2000 22 584 608 625
1277 2 2 2000 22 585 609 627
1278 2 2 2000 22 586 606 628
1279 2 2 2000 22 575 626 607
1280 2 2 2000 22 576 625 608
1281 2 2 2000 22 577 627 609
1282 2 2 2000 22 578 628 606
1283 2 2 2000 22 583 629 612
1284 2 2 2000 22 584 631 613
1285 2 2 2000 22 585 630 610
1286 2 2 2000 22 586 632 611
1287 2 2 2000 22 579 612 629
1288 2 2 2000 22 580 613 631
1289 2 2 2000 22 581 610 630
1290 2 2 2000 22 582 611 632
1291 2 2 2000 22 572 614 623
1292 2 2 2000 22 586 628 632
1293 2 2 2000 22 585 627 630
1294 2 2 2000 22 584 625 631
1295 2 2 2000 22 583 626 629
1296 2 2 2000 22 566 632 628
1297 2 2 2000 22 565 630 627
1298 2 2 2000 22 564 631 625
1299 2 2 2000 22 563 629 626
1300 2 2 2000 22 571 623 614
$EndElements
